<svg id="2df867cf-426c-4437-afbe-b0bff1bde373" data-name="Слой 1" xmlns="http://www.w3.org/2000/svg" viewBox="0 0 166.2 359.7"><title>absolutbank</title><path d="M164.8,0c-.9,26.2,5.7,52.3-3.8,77.4a74,74,0,0,1-16.4,26L88.1,160c-1.2,1.2-2.6,2.4-3.9,3.5s-1-.6-1-.8c0-22.1-2.3-44.3,1.5-66.3,2.6-15.1,10.8-27.3,21.5-38L160.9,3.6Z" style="fill:#f65d08"/><path d="M166.1,359.7c-27.3-2.5-53.1,3.7-78.1-5a67.7,67.7,0,0,1-25.2-15.8c-19.7-19.4-39.1-39-58.7-58.5C3,279.3,2,278,0,275.7c13.8,0,26.4.4,39,0,16.9-.7,33.1,1.5,48.3,9.4,10.9,5.6,19.1,14.3,27.6,22.8,15.6,15.7,31.3,31.2,47,46.9C162.9,355.8,163.7,357,166.1,359.7Z" style="fill:#f65d08"/><path d="M28,109.6c16,18.6,35.6,31.8,46.8,52.5,5.1,9.5,8.2,19.8,8.2,30.6.2,26,0,52,0,78a18.6,18.6,0,0,1-.4,3.3c-.5.1-1,.3-1.1.1C66,258.2,48,244.5,36.5,224.9a66.4,66.4,0,0,1-9.1-35.2c.4-25,.1-50,.2-75C27.6,113.6,27.7,112.5,28,109.6Z" style="fill:#f65d08"/></svg>