<?xml version="1.0" encoding="utf-8"?>
<!-- Generator: Adobe Illustrator 22.1.0, SVG Export Plug-In . SVG Version: 6.00 Build 0)  -->
<svg version="1.1" id="Layer_1" xmlns="http://www.w3.org/2000/svg" xmlns:xlink="http://www.w3.org/1999/xlink" x="0px" y="0px"
	 viewBox="0 0 400 400" style="enable-background:new 0 0 400 400;" xml:space="preserve">
<style type="text/css">
	.st0{fill:#FEFEFE;}
	.st1{fill:#00364F;}
</style>
<g>
	<path class="st0" d="M316.1,265.4c13.4,29,26.8,57.9,40.1,86.9c0.4,0.9,1,1.8,1.3,2.7c3.5,9.8,0.9,13.6-9.1,13.6
		c-17.3,0-34.7-0.3-52,0.2c-7,0.2-10.1-2.3-12.7-8.7c-12.1-30.3-24.7-60.3-37.1-90.5c-6.4-7.3-7.9-17-12.1-25.5
		c-3.6-7.1-5-15.2-9.3-22.1c-3.5-9.5-7.1-18.9-11.2-28.1c-5.7-13.7-11.6-27.3-16.4-41.3c-1.5-4.5-4.7-4.7-8.3-4.7
		c-12.3-0.1-24.6,0-36.9-0.1c-3.2,0-6.6,0.5-9.3-2c19.5-39,37.3-78.8,55.2-118.6c0.7-1.6,1.3-2.5,3-2.5c2-0.1,2.8,0.7,3.7,2.7
		C215.2,49.8,225.6,71.9,236,94c8.4,17.8,16.8,35.5,25.2,53.3c3.8,2.2,4.4,6.5,6.3,9.9c4.9,9,8.2,18.8,13.2,27.7
		c1.6,2.8,3.2,5.7,2,9.2c4.7,9.1,7.8,19,13.5,27.7C304.4,235.6,312.5,249.5,316.1,265.4z"/>
	<path class="st1" d="M143.2,146c16.1,1.4,32.2,0.4,48.3,0.5c5.3,0,7.4,0.4,8.9,7c2.6,11.2,7.9,21.9,13.1,32.3
		c1.4,2.8,0.7,5.8,2.6,8.2c-2.2,2.8-5.3,2.6-8.3,2.6c-9.3,0.1-18.6,0.3-27.9-0.1c-15.8,0.4-31.6,0.1-47.4,0.1c-3,0-6.1-0.1-8.5-2.4
		c-28.9-0.1-57.9-0.2-86.8-0.1c-5,0-8.2-1.3-11.2-5.6c-7.5-10.9-15.6-21.4-23.7-32c-2.1-2.7-2.9-5.4-1.6-8.3c1.3-3,4.3-2,6.7-2
		C52.6,146.1,97.9,146,143.2,146z"/>
	<path class="st1" d="M226.8,221.6c7.9,15.5,13.8,31.8,19.8,48c-31.4,0.1-62.7,0.1-94.1,0.2c-2.8,1.8-6,2.4-9.3,2.4
		c-16.2,0.1-32.5,0.1-48.7,0c-3,0-6-0.1-8.4-2.3c-8.4-7-13-17-19.7-25.4c-3.3-4.1-6.2-8.5-9-13c-4-6.5-2.2-9.6,5.3-9.7
		c16.1-0.1,32.2-0.1,48.4-0.2c2.8-2,5.9-2.4,9.3-2.4c15.7,0,31.5-0.2,47.2,0.1c15.9-0.2,31.7-0.1,47.6-0.1
		C219.3,219.1,223.3,219.1,226.8,221.6z"/>
	<path class="st0" d="M86.1,269.9c22.1-1.1,44.3-1.1,66.4-0.1c-13.6,29.7-27.7,59.2-40.6,89.3c-2.9,6.7-5.9,7.7-12.1,7.6
		c-18.1-0.4-36.2-0.2-54.3-0.1c-6.2,0.1-6.1-2.9-3.9-7c8.5-16.1,17.1-32.2,25.6-48.4c5.7-10.8,11.2-21.8,16.9-32.7
		C85.6,275.8,86.7,273.1,86.1,269.9z"/>
	<path class="st1" d="M282.8,194.2c-7.2-15.6-14.4-31.2-21.6-46.8c2.2-1.7,4.8-1.1,7.3-1.1c41,0,82.1,0,123.1,0
		c7.9,0,10.7,3.9,6.2,10.7c-7.9,11.9-16.7,23.1-25.2,34.6c-2.3,3.1-5.8,2.6-9,2.6C336.7,194.1,309.7,194.1,282.8,194.2z"/>
	<path class="st0" d="M168.1,221.6c-19,0.9-38,1.1-57-0.1c4.5-9,10.3-17.3,12.8-27.3c18.6-1.1,37.3-1,55.9,0
		c1.2,1.5,1.6,3.3,0.9,4.9C177.1,206.9,174.9,215.6,168.1,221.6z"/>
	<path class="st1" d="M316.1,265.4c-6.9-14.4-14.4-28.5-19.8-43.6c15.1,0,30.2-0.1,45.3,0c5.8,0,8.8,3.7,5.6,7.7
		c-9.3,11.7-17,24.7-28.3,34.6C318.1,264.8,317,265,316.1,265.4z"/>
</g>
</svg>
