<?xml version="1.0" encoding="utf-8"?>
<!-- Generator: Adobe Illustrator 22.1.0, SVG Export Plug-In . SVG Version: 6.00 Build 0)  -->
<svg version="1.1"
	 id="svg3819" inkscape:version="0.92.2 (5c3e80d, 2017-08-06)" sodipodi:docname="Akb.svg" xmlns:cc="http://creativecommons.org/ns#" xmlns:dc="http://purl.org/dc/elements/1.1/" xmlns:inkscape="http://www.inkscape.org/namespaces/inkscape" xmlns:rdf="http://www.w3.org/1999/02/22-rdf-syntax-ns#" xmlns:sodipodi="http://sodipodi.sourceforge.net/DTD/sodipodi-0.dtd" xmlns:svg="http://www.w3.org/2000/svg"
	 xmlns="http://www.w3.org/2000/svg" xmlns:xlink="http://www.w3.org/1999/xlink" x="0px" y="0px" viewBox="0 0 480 480"
	 style="enable-background:new 0 0 480 480;" xml:space="preserve">
<style type="text/css">
	.st0{fill:#009A39;}
</style>
<sodipodi:namedview  bordercolor="#666666" borderopacity="1.0" fit-margin-bottom="0" fit-margin-left="0" fit-margin-right="0" fit-margin-top="0" id="base" inkscape:current-layer="layer1" inkscape:cx="324.14752" inkscape:cy="243.76875" inkscape:document-units="mm" inkscape:measure-end="0,0" inkscape:measure-start="0,0" inkscape:pageopacity="0.0" inkscape:pageshadow="2" inkscape:window-height="1001" inkscape:window-maximized="1" inkscape:window-width="1920" inkscape:window-x="-9" inkscape:window-y="-9" inkscape:zoom="0.70710678" pagecolor="#ffffff" showgrid="false">
	</sodipodi:namedview>
<g id="layer1" transform="translate(-37.584476,-61.007274)" inkscape:groupmode="layer" inkscape:label="Layer 1">
	<path id="path4060" inkscape:connector-curvature="0" class="st0" d="M195.8,347.9l15.4-15.4H181c-17.8,0-30.2-0.3-30.2-0.7
		c0-0.4,13.6-14,30.2-30.4l30.2-29.7l0.2,45.7l0.2,45.7h52.7h52.7l12.6-12.6l12.6-12.6v-33.9v-33.9h-33.9h-33.9l-15.6,15.6
		l-15.6,15.6v-30.9v-30.9H221h-22.1l-62.1,61.8l-62.1,61.8l52.9,0l52.9,0L195.8,347.9z M243.1,317.1v-15.4h34.1h34.1l-0.2,15.2
		l-0.2,15.2l-33.9,0.2l-33.9,0.2L243.1,317.1z M465.3,350.7l12.6-12.6v-33.9v-33.9H444h-33.9l-15.8,15.6l-15.8,15.6l-0.2-30.9
		l-0.2-30.9h-15.4h-15.4v61.9v61.9H400h52.7L465.3,350.7z M378.1,317.2v-15.3l33.8-0.6c20.9-0.3,34.1-0.3,34.5,0.1
		c0.4,0.4,0.6,7,0.5,15.6l-0.2,14.9l-34.3,0.2l-34.3,0.2L378.1,317.2z"/>
</g>
</svg>
