<?xml version="1.0" encoding="utf-8"?>
<!-- Generator: Adobe Illustrator 22.1.0, SVG Export Plug-In . SVG Version: 6.00 Build 0)  -->
<svg version="1.1" id="Слой_1" focusable="false"
	 xmlns="http://www.w3.org/2000/svg" xmlns:xlink="http://www.w3.org/1999/xlink" x="0px" y="0px" viewBox="0 0 11.1 10.5"
	 style="enable-background:new 0 0 11.1 10.5;" xml:space="preserve">
<style type="text/css">
	.st0{fill:rgba(0, 0, 0, 0.25);}
</style>
<path class="st0" d="M10.7,4.6c0.4,0,0.6-0.5,0.3-0.8L5.8,0.1C5.6,0,5.4,0,5.3,0.1L0.2,3.8C-0.2,4,0,4.6,0.4,4.6h0.8v5h-1
	c-0.1,0-0.1,0-0.1,0.1v0.7c0,0.1,0,0.1,0.1,0.1h10.5c0.1,0,0.1,0,0.1-0.1V9.7c0-0.1,0-0.1-0.1-0.1h-1v-5H10.7z M5.5,1l3.6,2.6H1.9
	L5.5,1z M2.2,4.6h1.6v5H2.2V4.6z M4.8,4.6h1.6v5H4.8V4.6z M8.9,9.6H7.3v-5h1.6V9.6z"/>
</svg>
