<?xml version="1.0" encoding="utf-8"?>
<!-- Generator: Adobe Illustrator 22.1.0, SVG Export Plug-In . SVG Version: 6.00 Build 0)  -->
<svg version="1.1" id="Слой_1" xmlns="http://www.w3.org/2000/svg" xmlns:xlink="http://www.w3.org/1999/xlink" x="0px" y="0px"
	 viewBox="0 0 2500 2500" style="enable-background:new 0 0 2500 2500;" xml:space="preserve">
<style type="text/css">
	.st0{fill:#FFFFFF;}
</style>
<g>
	<path class="st0" d="M2496.5,747.3c-2.6-42.8-15.1-84.4-36.7-121.5c-19.1-38.2-53.1-68-92.8-83.3c-40.5-20.2-85.4-30-130.6-28.6
		H541.2l-121.5,364h1535.9L1713.1,1622H177.6L56.1,1986h1703.2c50.7-1.5,100.9-11.1,148.6-28.6c47.7-27.1,102.4-54.6,148.6-92.8
		c45.1-35.6,85.9-76.3,121.5-121.5c29.4-44.2,54.5-91.2,74.9-140.2l225-707.4C2498.3,848.9,2504.8,797.5,2496.5,747.3L2496.5,747.3z
		"/>
	<path class="st0" d="M1025.2,1081.1H121.5L0,1417.6h912.9L1025.2,1081.1z"/>
</g>
</svg>
