<?xml version="1.0" encoding="utf-8"?>
<!-- Generator: Adobe Illustrator 22.1.0, SVG Export Plug-In . SVG Version: 6.00 Build 0)  -->
<svg version="1.1" id="Layer_1" xmlns="http://www.w3.org/2000/svg" xmlns:xlink="http://www.w3.org/1999/xlink" x="0px" y="0px"
	 viewBox="0 0 2500 2500" style="enable-background:new 0 0 2500 2500;" xml:space="preserve">
<style type="text/css">
	.st0{fill:#988430;}
	.st1{fill:#7A6A2A;}
	.st2{opacity:0.8;fill:#FFFFFF;enable-background:new    ;}
</style>
<g>
	<path class="st0" d="M1250,0C559.6,0,0,559.6,0,1250s559.6,1250,1250,1250s1250-559.6,1250-1250S1940.4,0,1250,0z M1250,2460
		C581.8,2460,40,1918.2,40,1250S581.8,40,1250,40s1210,541.7,1210,1210S1918.2,2460,1250,2460z"/>
	<path class="st1" d="M1498.6,555.6H607l3.4,332.5H788v742.5H607v331.9h866.9c208.9,0,376.4-210,376.4-210
		c268.2-380.7,87.2-810.1,87.2-810.1C1811.1,616.1,1498.6,555.6,1498.6,555.6z M1478.6,1528.9c0,0-68,98.1-142,98.1h-148.1
		l-3.4-738.1H1375c0,0,88,18.4,149.5,192.6C1524.5,1081.5,1606,1330.9,1478.6,1528.9z"/>
	<path class="st2" d="M1498.6,555.6H607l3.4,332.5H788v742.5H607v331.9h866.9c208.9,0,376.4-210,376.4-210
		c268.2-380.7,87.2-810.1,87.2-810.1C1811.1,616.1,1498.6,555.6,1498.6,555.6z M1478.6,1528.9c0,0-68,98.1-142,98.1h-148.1
		l-3.4-738.1H1375c0,0,88,18.4,149.5,192.6C1524.5,1081.5,1606,1330.9,1478.6,1528.9z"/>
</g>
</svg>
