<svg id="fe02048a-490c-4713-9b2e-2e448989e618" data-name="Слой 1" xmlns="http://www.w3.org/2000/svg" viewBox="0 0 250.9 248.8"><title>domrf</title><path d="M235.7,17.9,208.2,43.1c-1.7,1.6-1.1,3.7-1.1,5.7-.1,25.8-.2,51.6,0,77.4.1,4.4-.7,6.1-5.6,5.9-9.7-.5-9.8-.1-9.8-10.1V16.7c-1.9-.5-2.4,1.1-3.3,1.9-7.1,7.3-14,14.7-21.2,21.9a10.6,10.6,0,0,0-3.6,8.7c.1,25.8,0,51.6.1,77.5.1,3.9-.6,5.5-5,5.4-10.7-.4-10.7-.1-10.7-10.8,0-26.1.1-52.3,0-78.4a8.4,8.4,0,0,1,2.8-7C161.6,25,172.3,14.1,182.9,3A7.6,7.6,0,0,1,189,.4a130.8,130.8,0,0,0,14,0c3.5-.2,4.2,1.1,4.1,4.3-.2,5.6-.1,11.2-.1,17.7a49.7,49.7,0,0,0,11.3-11.1c6.5-8.8,14.6-12.4,25.6-11,7.9,1,6.8-.8,6.8,7.1q0,59.7.1,119.4c0,4.2-1,5.4-5.2,5.2-10.5-.2-10.5,0-10.5-10.8V16.8Z" style="fill:#334953"/><path d="M184.5,175.1c20.5,0,41,.1,61.4-.1,4.1-.1,5,1.2,4.9,5-.2,15.5-.3,31,.1,46.5.1,4.8-1.6,5.6-5.9,5.5-16.2-.2-32.4,0-48.5-.1-3.1,0-4.8.7-4.2,4.1v.5c-.1,13.1-.1,13-13.5,11.7-1.8-.2-2.8-.6-2.7-2.6a20.8,20.8,0,0,0,0-2.5c0-11.2,0-11.2-11.4-11.2-14.2,0-28.4-.1-42.5.1-3.4.1-4.2-1-4.2-4.2.2-16.2.2-32.3,0-48.5-.1-3.6,1.2-4.3,4.5-4.3Zm29.2,42.1h17.5c2.8.1,4.2-.3,4-3.7-.3-6.6-.2-13.3,0-19.9.1-3.2-.9-4-3.9-3.9-11.7.1-23.3.1-35,0-2.9-.1-4.2.5-4.1,3.8.2,6.6.2,13.3,0,20-.1,3.2,1.1,3.9,4,3.8C202.1,217.1,207.9,217.2,213.7,217.2Zm-58.9,0h17.9c2.4.1,3.6-.4,3.5-3.2-.2-7-.2-14,0-20.9,0-2.6-.8-3.4-3.4-3.4-12,.1-23.9.1-35.9,0-2.3,0-3.3.6-3.2,3,.1,7.2.1,14.3,0,21.5-.1,2.4.8,3.1,3.1,3Z" style="fill:#334953"/><path d="M133,66.6c0,20.3,0,40.7.1,61,0,3.5-.9,4.5-4.4,4.4-16.8-.2-33.7-.2-50.5,0-3.3,0-4.2-1-4.2-4.2Q74.1,66,74,4.3c0-3.1,1-3.9,4-3.9h51c3.3-.1,4.1,1,4.1,4.2C133,25.3,133,45.9,133,66.6Zm-43.3-.7c0,15.5.1,31-.1,46.5,0,3.4.4,5.1,4.5,4.9,6.7-.4,13.3-.3,20-.1,2.8.1,3.7-.7,3.7-3.6-.1-31.7-.1-63.3,0-95,0-3-1.1-3.6-3.8-3.5-6.6.1-13.3.2-19.9-.1-3.5-.1-4.5.9-4.5,4.4C89.8,34.9,89.7,50.4,89.7,65.9Z" style="fill:#334953"/><path d="M59.1,66.4c0,20.3-.1,40.6.1,60.9,0,3.8-.9,4.8-4.7,4.7-16.7-.2-33.3-.2-50,0-3.4,0-4.5-.9-4.4-4.4Q.3,84.9.1,42.2a7.4,7.4,0,0,1,2.3-5.8Q18.9,19.8,35.2,2.9A7.4,7.4,0,0,1,41.4.4c3.6.2,7.3,0,11,.1,7.7,0,6.7-1,6.7,6.5.1,19.8,0,39.6,0,59.4ZM43.8,18.6,17.2,42.7a5,5,0,0,0-1.5,4.1q.2,33.5,0,66.9c0,3,1.1,3.6,3.8,3.5,6.6-.2,13.3-.2,19.9,0,3.5.2,4.5-.8,4.5-4.4-.2-20.8-.1-41.6-.1-62.4Z" style="fill:#334953"/><path d="M51.7,175.1c15.8,0,31.7.1,47.5-.1,3.2,0,4.2.8,4.2,4.1-.2,16.2-.2,32.3,0,48.5,0,3.5-1,4.4-4.5,4.4h-78c-3.9-.1-5.4.5-5.3,5,.3,11.6.1,11.6-11.8,11.3-2.7,0-3.7-.6-3.7-3.6q.2-32.8,0-65.9C0,175.2,1.5,175,4.2,175Zm-.2,42.1H83.9c2.8.1,4.2-.3,4.1-3.6-.3-6.9-.2-13.7-.1-20.5.1-2.6-.6-3.4-3.3-3.4q-32.7.2-65.4,0c-2.9,0-3.6,1-3.5,3.7.1,6.7.2,13.3-.1,20-.1,3,.8,3.9,3.9,3.9C30.2,217.1,40.8,217.2,51.5,217.2Z" style="fill:#334953"/><path d="M125.7,146.1h120c4.2,0,5.2,1.1,5.1,5.2-.3,9.5-.1,9.5-9.4,9.5q-117.7,0-235.5.2c-4.9,0-6.1-1.5-5.9-6.2.4-8.6.1-8.6,8.7-8.6Z" style="fill:#334953"/></svg>