<svg id="a33552a6-c459-4f10-af26-b7a2d699af30" data-name="Слой 1" xmlns="http://www.w3.org/2000/svg" viewBox="0 0 2426.6 2277.2"><title>gazprombank</title><path d="M1149.2,563.7c604.3,3,1277.7,428.8,1277.4,652.4-.4,325.3-371.6,345.8-1218.4,308.2-735-32.6-872.4,50.3-875.9,280.3-3.2,210.5,508.1,435.5,1184.9,425.9-184.3,49.7-376.3,64.3-570.4,21.5-334.4-73.9-708.9-300.4-711.7-484-6-388.8,640.6-429.3,980.8-416.8,413.4,15.2,1035.1,35.9,1045.6-165,14.8-285-739.6-552.3-1107.1-551.4l-5.2-71.1Z" style="fill:#505e86"/><path d="M610.6,138.5C706.6,66,896.3.6,1173.9,0c617.9-1.4,925.3,267.2,937.8,449.4,15.4,226.2-259.8,304.1-917.6,266.9C516.9,678,87.7,716.3,84.3,908.9c-3.7,212.8,843.3,726.4,1460.6,726.4,424.8,0,661.3-80.5,789.1-143.5a1079.2,1079.2,0,0,1-78.3,174.5c-173.3,32.8-406.7,69.8-714.1,56.9C1035.9,1701.9,0,1256.9,0,908.9S823.1,517,1184,517s802.8,77.7,782.6-135.2S1551.7,98,1312.2,77.7s-506,16.9-701.6,60.8Z" style="fill:#505e86"/><path d="M239.5,435.5C302.1,363.8,343.9,319.3,429,255.9c94.9-42.5,352.8-112.9,765.9-111,631.6,3,1091.4,314.6,1094.8,524.5,4.4,270.4-335.2,360.9-1090.6,321.9-707.4-36.6-1082.4,9.1-1085.9,211.6C109.3,1426.8,889,1886.4,1533.5,1871c313-7.5,514-48.8,652.7-95.7a1152.7,1152.7,0,0,1-132,152.3c-146.8,24.6-319.2,43.9-510.5,35.8C1015.6,1941,2.3,1532.4,2.3,1166.4S834.6,814.8,1211.4,827.3c413.4,13.7,916.8,4.1,917.7-197,1.1-257.5-671.2-401.5-947.4-400.5-440.6,1.6-665.2,81-942.2,205.7Z" style="fill:#505e86"/><path d="M80.8,688.8C108.4,632.9,128,593,164.1,539,414.2,418.8,717.9,362.4,1131,364.4c604.2,3,1254.8,351.1,1254.5,574.7-.4,325.3-335.1,350.4-1181.8,312.8-735-32.7-1014,45.7-1017.5,275.7-3.4,223.9,702.8,550.9,1347.3,535.5,161.9-3.9,293.8-16.8,402.7-34.9a1235.5,1235.5,0,0,1-211.7,127.2c-58.1,2.4-118.5,2.7-180.8.1C1015.6,2133,75.3,1857.1,75.3,1491c0-388.9,763.9-415.6,1140.6-403.1,413.5,13.7,1003.6,22.4,1004.5-178.7,1.1-257.5-716.8-474.6-1084.3-473.6C695.5,436.8,335,554.9,80.8,688.8Z" style="fill:#505e86"/></svg>