<svg id="bab136a4-3b54-49b0-9696-71451cea4adf" data-name="Слой 1" xmlns="http://www.w3.org/2000/svg" viewBox="0 0 400 400"><title>hlynov</title><path d="M400,400H0V0H400ZM160,140a1.1,1.1,0,0,0-1,1c-12.2,13.8-22.3,29-29.1,46.2-8.5,21.4-11.8,43.3-7,66.1a5.3,5.3,0,0,1-1.6,5.3c-11.9,11.9-25.3,21.8-41,28-7.6,3-15.6,4.7-23.9,2.6a17.8,17.8,0,0,1-7.6-3.6c-1.1-1-2.5-2.3-1.6-3.8s2.4-.1,3.5.3a34.8,34.8,0,0,0,24,.3,39.7,39.7,0,0,0,23-21c3.9-8.3,5.5-17.2,2.8-26.3-3.8-12.8-13.2-19.8-25.5-22.8a43.6,43.6,0,0,0-34.7,5.4C17.5,231.9,7.2,252.9,9.2,279.8a39.8,39.8,0,0,0,6.7,20.1c6.3,9.3,15.2,14.7,25.7,18,17.2,5.3,34.8,5.3,52.4,2.5,22.3-3.6,43.4-11.1,63.6-21.3a7.5,7.5,0,0,1,6.2-.5c18.9,6.5,38.1,7,57.6,2.8a145,145,0,0,0,57.8-27.1c14.5-11,26.8-24,35.4-40.1,5.9-10.9,9.4-22.5,8.9-34.9a16.2,16.2,0,0,1,2.7-9.7c8.3-13.4,15.7-27.2,18.9-42.7a4.2,4.2,0,0,1,2.3-3,73.1,73.1,0,0,0,8.3-4.5c15.1-10.1,25.1-24.1,31.2-41,1.9-5.2,3.3-10.5,3.2-16.1s-2.2-6-6.4-5a13.6,13.6,0,0,0-6,3.5c-2.3,2.2-4.5,4.4-6.9,6.5a59.2,59.2,0,0,1-31.5,15.1c-2.3.4-4.5.6-6.7-.7C321,94.8,308.2,92,295,91.1a185,185,0,0,0-88.1,15.7c-4.9,2.1-8.7,2.1-13.6.6-13.5-4.4-27.4-5.1-41.5-3.7a135.3,135.3,0,0,0-43.6,11.9c-19.4,8.9-35.3,22.4-49,38.6-4.2,5-8,10.3-10.2,16.5-1.2,3.5-.9,5.3,1.1,6.8a6.2,6.2,0,0,0,7.4.3,17.2,17.2,0,0,0,3.9-3.1c3.7-3.7,7.3-7.4,11-10.9,10.5-9.9,21.8-18.6,35-24.6,16.7-7.5,33.9-9.5,51.6-4.1.5,1.4,2.3,2.1,2,3.9h0a1.1,1.1,0,0,0-1,1Z" style="fill:#009ba2"/><path d="M159,135.1c-17.7-5.4-34.9-3.4-51.6,4.1-13.2,6-24.5,14.7-35,24.6-3.7,3.5-7.3,7.2-11,10.9a17.2,17.2,0,0,1-3.9,3.1,6.2,6.2,0,0,1-7.4-.3c-2-1.5-2.3-3.3-1.1-6.8,2.2-6.2,6-11.5,10.2-16.5,13.7-16.2,29.6-29.7,49-38.6a135.3,135.3,0,0,1,43.6-11.9c14.1-1.4,28-.7,41.5,3.7,4.9,1.5,8.7,1.5,13.6-.6A185,185,0,0,1,295,91.1c13.2.9,26,3.7,37.6,10.6,2.2,1.3,4.4,1.1,6.7.7a59.2,59.2,0,0,0,31.5-15.1c2.4-2.1,4.6-4.3,6.9-6.5a13.6,13.6,0,0,1,6-3.5c4.2-1,6.4.7,6.4,5s-1.3,10.9-3.2,16.1c-6.1,16.9-16.1,30.9-31.2,41a73.1,73.1,0,0,1-8.3,4.5,4.2,4.2,0,0,0-2.3,3c-3.2,15.5-10.6,29.3-18.9,42.7a16.2,16.2,0,0,0-2.7,9.7c.5,12.4-3,24-8.9,34.9-8.6,16.1-20.9,29.1-35.4,40.1a145,145,0,0,1-57.8,27.1c-19.5,4.2-38.7,3.7-57.6-2.8a7.5,7.5,0,0,0-6.2.5c-20.2,10.2-41.3,17.7-63.6,21.3-17.6,2.8-35.2,2.8-52.4-2.5-10.5-3.3-19.4-8.7-25.7-18a39.8,39.8,0,0,1-6.7-20.1c-2-26.9,8.3-47.9,31.1-62.1A43.6,43.6,0,0,1,75,212.3c12.3,3,21.7,10,25.5,22.8,2.7,9.1,1.1,18-2.8,26.3a39.7,39.7,0,0,1-23,21,34.8,34.8,0,0,1-24-.3c-1.1-.4-2.6-1.8-3.5-.3s.5,2.8,1.6,3.8a17.8,17.8,0,0,0,7.6,3.6c8.3,2.1,16.3.4,23.9-2.6,15.7-6.2,29.1-16.1,41-28a5.3,5.3,0,0,0,1.6-5.3c-4.8-22.8-1.5-44.7,7-66.1,6.8-17.2,16.9-32.4,29.1-46.2a1.2,1.2,0,0,0,1-1h0a1.3,1.3,0,0,0,1-1h0c2.5-2.4,2.5-2.5-.2-3.6A5.2,5.2,0,0,0,159,135.1Zm-44.9-9,2-.4c13.2-3.6,26.5-3.8,39.9-1.7a102,102,0,0,1,13.5,3.2c1.4.5,3,1.3,4.3.1,4.4-4,9.6-7,14.3-10.9-17.9-6.3-52.9-5.1-79.1,9.5-3.1.7-5.4,2.6-7.5,4.8C105.8,129.3,110.2,128.3,114.1,126.1Zm-41.3,186a119.8,119.8,0,0,0,32.6-3.9c33.7-8.7,62.1-26.2,85.6-51.7a135,135,0,0,0,25.7-39.6,17,17,0,0,0,1.4-7.7c-.2-10.5,1.5-20.6,6.2-30a8.7,8.7,0,0,0,1.1-3.8c.6-10.5-.5-20.6-4.8-30.3-1.3-2.9-1.8-3.1-4.3-1-6.4,5.3-12.9,10.6-18.4,16.8s-10.9,14.3-12.8,23.4a21.6,21.6,0,0,1-1.4,4.3c-15.2,35.2-37.5,65.1-67.4,89.1a102.4,102.4,0,0,1-43.2,20.9,44.3,44.3,0,0,1-25.5-1.5c-8.3-3.2-12.9-9.7-12.6-17.9.3-6.5,5.2-10.3,11.6-8.8,2.4.6,4.8,1.6,7.1,2.3a27.9,27.9,0,0,0,14.9.6c10.6-2.3,17.5-9.2,21.3-19.1,4.7-12.1,1-22.9-9.4-29a27.7,27.7,0,0,0-11.9-3.4c-15-1.1-27.1,4.5-36.4,16a57.6,57.6,0,0,0-12.9,32.9,39.4,39.4,0,0,0,3.6,20c4.1,8.8,11.4,14.1,20.4,17.2A84,84,0,0,0,72.8,312.1ZM195,267.5c1.8,1.7,3.6,2.1,5.3,2.7a53.3,53.3,0,0,0,24.7,2.3c27.5-3.6,50.6-15.7,69.1-36.4A55.9,55.9,0,0,0,305.9,216c.4-1.5,1.5-3,.5-4.9-2.8,2.5-5.5,5-8.2,7.3-10.7,9.3-22.7,16.5-36.4,20.2s-25,.5-34.6-9.7a10.3,10.3,0,0,0-3.4-3.1A193.7,193.7,0,0,1,195,267.5ZM325.7,151.1A260.3,260.3,0,0,0,284,169.6l-2.9,2c-10.5,9.1-19.7,19.4-26.4,31.6-2.5,4.4-4.4,9-4.5,14.2s3.8,10.3,10.4,9.4a28.6,28.6,0,0,0,8.1-2.2c13.9-5.9,25.6-14.9,36.3-25.2,3.2-3.1,2.5-6.1-1.6-8.1a14.5,14.5,0,0,0-9.2-.8,66,66,0,0,0-16.7,5.2,10.3,10.3,0,0,1-5.2,1.3,4.7,4.7,0,0,1-3.2-7.8,21.2,21.2,0,0,1,4.8-3.5,59.5,59.5,0,0,1,21.6-7.3c6.4-1,12.7-.8,18.3,2.9,2.1,1.3,2.9.6,3.8-1.3a112.8,112.8,0,0,0,8.2-23.5A9.1,9.1,0,0,0,325.7,151.1Zm-36.1-31.6a5.5,5.5,0,0,0-3.5-1.2,66.7,66.7,0,0,0-13.4,0c-15.5,2-29.3,8.4-42.7,16-2,1.2-2.3,2.3-1.3,4.4a55.6,55.6,0,0,1,5.4,19.6c.1,1.1-.1,2.4,1.4,3.3C249.7,142.8,268.9,130.3,289.6,119.5Z" style="fill:#fdfdfd"/><path d="M159,135.1a5.2,5.2,0,0,1,1.8.3c2.7,1.1,2.7,1.2.2,3.6C161.3,137.2,159.5,136.5,159,135.1Z" style="fill:#49a59f"/><path d="M161,139a1.3,1.3,0,0,1-1,1A1.1,1.1,0,0,1,161,139Z" style="fill:#49a59f"/><path d="M160,140a1.2,1.2,0,0,1-1,1A1.1,1.1,0,0,1,160,140Z" style="fill:#49a59f"/><path d="M72.8,312.1a84,84,0,0,1-29.5-4.2c-9-3.1-16.3-8.4-20.4-17.2a39.4,39.4,0,0,1-3.6-20,57.6,57.6,0,0,1,12.9-32.9c9.3-11.5,21.4-17.1,36.4-16a27.7,27.7,0,0,1,11.9,3.4c10.4,6.1,14.1,16.9,9.4,29-3.8,9.9-10.7,16.8-21.3,19.1a27.9,27.9,0,0,1-14.9-.6c-2.3-.7-4.7-1.7-7.1-2.3-6.4-1.5-11.3,2.3-11.6,8.8-.3,8.2,4.3,14.7,12.6,17.9a44.3,44.3,0,0,0,25.5,1.5,102.4,102.4,0,0,0,43.2-20.9c29.9-24,52.2-53.9,67.4-89.1a21.6,21.6,0,0,0,1.4-4.3c1.9-9.1,6.7-16.6,12.8-23.4s12-11.5,18.4-16.8c2.5-2.1,3-1.9,4.3,1,4.3,9.7,5.4,19.8,4.8,30.3a8.7,8.7,0,0,1-1.1,3.8c-4.7,9.4-6.4,19.5-6.2,30a17,17,0,0,1-1.4,7.7A135,135,0,0,1,191,256.5c-23.5,25.5-51.9,43-85.6,51.7A119.8,119.8,0,0,1,72.8,312.1Z" style="fill:#009ba2"/><path d="M195,267.5a193.7,193.7,0,0,0,28.8-41.7,10.3,10.3,0,0,1,3.4,3.1c9.6,10.2,21.3,13.4,34.6,9.7s25.7-10.9,36.4-20.2c2.7-2.3,5.4-4.8,8.2-7.3,1,1.9-.1,3.4-.5,4.9a55.9,55.9,0,0,1-11.8,20.1c-18.5,20.7-41.6,32.8-69.1,36.4a53.3,53.3,0,0,1-24.7-2.3C198.6,269.6,196.8,269.2,195,267.5Z" style="fill:#019ba2"/><path d="M325.7,151.1a9.1,9.1,0,0,1,.1,5.4,112.8,112.8,0,0,1-8.2,23.5c-.9,1.9-1.7,2.6-3.8,1.3-5.6-3.7-11.9-3.9-18.3-2.9a59.5,59.5,0,0,0-21.6,7.3,21.2,21.2,0,0,0-4.8,3.5,4.7,4.7,0,0,0,3.2,7.8,10.3,10.3,0,0,0,5.2-1.3,66,66,0,0,1,16.7-5.2,14.5,14.5,0,0,1,9.2.8c4.1,2,4.8,5,1.6,8.1-10.7,10.3-22.4,19.3-36.3,25.2a28.6,28.6,0,0,1-8.1,2.2c-6.6.9-10.6-2.8-10.4-9.4s2-9.8,4.5-14.2c6.7-12.2,15.9-22.5,26.4-31.6l2.9-2A260.3,260.3,0,0,1,325.7,151.1Z" style="fill:#029ca2"/><path d="M289.6,119.5c-20.7,10.8-39.9,23.3-54.1,42.1-1.5-.9-1.3-2.2-1.4-3.3a55.6,55.6,0,0,0-5.4-19.6c-1-2.1-.7-3.2,1.3-4.4,13.4-7.6,27.2-14,42.7-16a66.7,66.7,0,0,1,13.4,0A5.5,5.5,0,0,1,289.6,119.5Z" style="fill:#049ba1"/><path d="M109,125.9c26.2-14.6,61.2-15.8,79.1-9.5-4.7,3.9-9.9,6.9-14.3,10.9-1.3,1.2-2.9.4-4.3-.1A102,102,0,0,0,156,124c-13.4-2.1-26.7-1.9-39.9,1.7l-2,.4a5.1,5.1,0,0,0-3.2.5C110.1,127,109.3,126.9,109,125.9Z" style="fill:#099aa2"/><path d="M109,125.9c.3,1,1.1,1.1,1.9.7a5.1,5.1,0,0,1,3.2-.5c-3.9,2.2-8.3,3.2-12.6,4.6C103.6,128.5,105.9,126.6,109,125.9Z" style="fill:#80b5b2"/></svg>