<?xml version="1.0" encoding="UTF-8" standalone="no"?>
<svg
   xmlns:dc="http://purl.org/dc/elements/1.1/"
   xmlns:cc="http://creativecommons.org/ns#"
   xmlns:rdf="http://www.w3.org/1999/02/22-rdf-syntax-ns#"
   xmlns:svg="http://www.w3.org/2000/svg"
   xmlns="http://www.w3.org/2000/svg"
   xmlns:sodipodi="http://sodipodi.sourceforge.net/DTD/sodipodi-0.dtd"
   xmlns:inkscape="http://www.inkscape.org/namespaces/inkscape"
   id="Layer_1"
   data-name="Layer 1"
   viewBox="0 0 82.67 82.67"
   version="1.1"
   sodipodi:docname="litecoin.svg"
   inkscape:version="0.92.3 (2405546, 2018-03-11)">
  <metadata
     id="metadata13">
    <rdf:RDF>
      <cc:Work
         rdf:about="">
        <dc:format>image/svg+xml</dc:format>
        <dc:type
           rdf:resource="http://purl.org/dc/dcmitype/StillImage" />
        <dc:title>Artboard 26</dc:title>
      </cc:Work>
    </rdf:RDF>
  </metadata>
  <sodipodi:namedview
     pagecolor="#ffffff"
     bordercolor="#666666"
     borderopacity="1"
     objecttolerance="10"
     gridtolerance="10"
     guidetolerance="10"
     inkscape:pageopacity="0"
     inkscape:pageshadow="2"
     inkscape:window-width="1920"
     inkscape:window-height="1017"
     id="namedview11"
     showgrid="false"
     inkscape:zoom="2.8547237"
     inkscape:cx="-15.588199"
     inkscape:cy="41.334999"
     inkscape:window-x="-8"
     inkscape:window-y="-8"
     inkscape:window-maximized="1"
     inkscape:current-layer="Layer_1" />
  <defs
     id="defs4">
    <style
       id="style2">.cls-1{fill:#a5a8a9;}</style>
  </defs>
  <title
     id="title6">Artboard 26</title>
  <path
     class="cls-1"
     d="M41.33,0A41.34,41.34,0,1,0,82.67,41.34,41.34,41.34,0,0,0,41.33,0ZM42,42.7,37.7,57.21h23a1.18,1.18,0,0,1,1.13,1.51l-2,6.89a1.58,1.58,0,0,1-1.52,1.14H23.18l5.94-20.06-6.57,2L24,44l6.58-2,8.34-28.18a1.57,1.57,0,0,1,1.51-1.15h8.9a1.18,1.18,0,0,1,1.14,1.5l-7,23.83,6.57-2-1.41,4.77Z"
     id="path8" />
  <path
     style="fill:#3666c6;stroke-width:0.35029662;fill-opacity:1"
     d="M 35.562164,82.139407 C 22.014128,80.166495 10.285975,71.563144 4.338917,59.235155 -1.8720583,46.360081 -1.1204693,31.748702 6.3820468,19.515385 8.9134466,15.38778 15.562355,8.7359762 19.47854,6.4131868 29.985928,0.18098703 41.568037,-1.4097532 52.861614,1.8282011 66.440077,5.7212497 77.387574,16.928482 81.086948,30.723189 c 6.401236,23.869783 -9.656017,47.937262 -34.322352,51.44419 -2.904081,0.412887 -8.267003,0.399495 -11.202432,-0.02795 z M 59.671877,65.978365 c 0.268348,-0.433492 0.934532,-2.422021 1.480413,-4.418957 0.966945,-3.537281 0.975419,-3.643284 0.32896,-4.115985 -0.533319,-0.389971 -2.911077,-0.485195 -12.115372,-0.485195 H 37.914052 l 1.571857,-5.342024 c 0.864522,-2.938112 1.831278,-6.129861 2.148345,-7.09277 l 0.576487,-1.750748 3.063417,-0.892314 c 1.684881,-0.490772 3.192418,-1.042822 3.350086,-1.226773 0.404974,-0.472494 1.558722,-4.389087 1.353409,-4.594396 -0.09348,-0.09348 -1.467704,0.239992 -3.053829,0.741049 -1.586129,0.501057 -2.946338,0.848541 -3.022692,0.77219 -0.103509,-0.103509 5.294194,-18.868391 6.716675,-23.350236 0.109968,-0.346475 -0.05259,-0.878505 -0.363374,-1.189291 -0.461698,-0.461696 -1.423724,-0.562356 -5.374537,-0.562356 -3.308913,0 -4.992175,0.136786 -5.388368,0.437871 -0.351417,0.267055 -1.887689,4.879077 -3.938097,11.82251 -1.849051,6.261552 -3.751522,12.680229 -4.227717,14.263731 l -0.865808,2.879091 -3.232294,0.985567 -3.232295,0.985563 -0.804112,2.395549 c -0.442261,1.317549 -0.757528,2.438849 -0.700593,2.491771 0.05694,0.05293 1.404292,-0.307413 2.994126,-0.800753 1.589834,-0.49334 2.980031,-0.807556 3.089328,-0.69826 0.109296,0.109296 -1.003679,4.273149 -2.473277,9.253007 -1.469598,4.979859 -2.752192,9.330147 -2.85021,9.667307 -0.168093,0.578203 0.847226,0.613019 17.877591,0.613019 h 18.055804 z"
     id="path3718"
     inkscape:connector-curvature="0" />
</svg>
