<svg id="d4599b49-40e6-41a3-a3a2-25128f7de59f" data-name="Слой 1" xmlns="http://www.w3.org/2000/svg" viewBox="0 0 394.4 391.2"><title>metalinvest</title><path d="M393,183.3h1.4v24h-1.3C393.1,199.2,393,191.3,393,183.3Z" style="fill:#e7f2f7"/><path d="M393,183.3c0,8,.1,15.9.1,23.9-2.1,25.6-7.7,50.4-19.5,73.4C340.3,345,287.7,382.8,215.3,390.2,109.4,401,15.1,325.1,1.6,219.5-11.8,115.5,62.7,17.2,166.5,2.1c5.6-.9,11.2-1.3,16.8-2,2.7-.3,3.9.3,3.9,3.4-.1,16.1-.1,32.3.3,48.5,0,4-2.3,3.6-4.7,3.9C130.6,62.3,92.3,88.8,69,135.8c-28.1,56.6-12.3,127.1,36.4,167.3l3.1,2.3c5-13.2,10-26.1,14.9-39q18.2-47.8,36.4-95.7c2-5.3,2-5.3-3.4-5.3h-35c-3.9,0-7.2,1.1-9.8,4s-3.7,4.3-5.5,6.5l-1.6-.8c0-7.7-.7-15.5.2-23.1a110.4,110.4,0,0,1,7.2-26.9c6.8-16.9,20-24.7,37.4-25.2,23-.6,46-.5,68.9-.6h46c-5.1,5.3-9.5,10.1-14.1,14.8a5.6,5.6,0,0,0-1.9,6q19.8,89,39.5,178a34.6,34.6,0,0,0,1.1,3.8,133,133,0,0,0,24.8-27.8c59.1-88.7,3.1-207.3-103.1-218-5-.5-6.3-1.9-6.1-6.8q.8-21.7.6-43.5c-.1-4.7,1.2-6.1,6.1-5.7,46.4,3.6,86.9,21,120.6,53,36.5,34.5,56.6,77.2,60.9,127.3C392.7,181.3,392.9,182.3,393,183.3ZM166.5,121.6q-.7-5.8-6.6-6.3a6.2,6.2,0,0,0-6.5,6.1c.1,4.1,2.6,6.1,6.4,6.2S165.9,125.5,166.5,121.6Z" style="fill:#03427e"/></svg>