<svg id="e867add6-6693-46c2-8706-355487641f83" data-name="72081ffe-9ccc-4d6f-be49-29194c9f58a6" xmlns="http://www.w3.org/2000/svg" viewBox="0 0 368.6 368.6"><title>monobank</title><path d="M312.7,171.3c-9.2-.1-16.1,7.3-16.1,18.2s6.4,18,15.8,18.1,16.2-7.4,16.2-18.1S321.9,171.4,312.7,171.3Z" transform="translate(-0.2 -0.2)" style="fill:#5e5e66"/><path d="M349.3.8,20.3.2A19.5,19.5,0,0,0,.8,19.7l-.6,329a19.5,19.5,0,0,0,19.5,19.5l329,.6a19.5,19.5,0,0,0,19.5-19.5l.6-329A19.5,19.5,0,0,0,349.3.8ZM115.6,220.4c-4-.1-8-.1-12,.1s-2.5-1.8-2.6-3.7c.1-7.3,0-14.6-.1-21.9a4.4,4.4,0,0,0,0-3.2,40.2,40.2,0,0,0,0-9.8c.2-7.2-2.3-10.6-8.3-11s-13.3,4.5-13.5,10v34.9c-.1,1.4-.1,2.7-.2,4.1a.8.8,0,0,0-.5.7h0c-4.3-.1-8.7-.5-13.1.2l-3-.8-.3-2v-1a8.5,8.5,0,0,0,.1-5c.5-10.7.5-21.3,0-32-.6-6.7-2.7-8.7-9.4-8.8l-1.8.2c-7,1.6-10.3,4.6-10.5,9.5-.4,11.2-.6,22.5-.1,33.8a7.5,7.5,0,0,0,0,4.2l-.5,1.3-2.1.6h-13c-1.7-1.7-1-3.8-1-5.7-.1-14.5-.1-28.9-.2-43.4V158.8c.4-1.1,1.5-1,2.3-1.3h13c2.8,1.8.1,5,1.8,7.1,13.2-11.9,27.9-11,37.7,2.3C88.5,153.5,113,151,117.5,170l.3,3q.2,22.5,0,45C117.6,219.3,117.6,220.5,115.6,220.4Zm79.5-22.8c-1.2,3.8-1,8.4-4.5,11.4-11.9,14-26.6,15.9-43,9.8-5.3-2.9-9.3-7.3-13.2-11.8-.3-1-.5-2-.8-2.9-6.9-17.2-3.2-31.6,11.3-43.1a38.5,38.5,0,0,1,29-3C190.4,162.8,200.3,181.1,195.1,197.6Zm72,20.6c-.2,1.3-.5,2.5-2.3,2.4-4.8-.2-9.5.6-14.3-.4V183.7c-.1-7.3-2.1-10.6-7.4-12s-15,1.4-17.8,6.2c-.8,1.5-.5,2.9-.5,4.4-.1,11.3-.2,22.6-.1,33.9.1,3.3-.5,4.6-4.2,4.6-12.3-.2-12.3-.1-12.2-12.1,0-15.5.1-31-.1-46.4,0-3.6.9-4.7,4.4-4.4a83.4,83.4,0,0,0,10,0c4.3,1.2.8,4.9,2.7,7.4,6.5-5.9,14.1-9.2,23.1-8.7s15.8,5.2,18.3,14.6l.3,44.9Zm76.7-16.3c-.8,2.5-3.1,3.8-3.3,6.4l-4.1,5-1.9,1.8a44.5,44.5,0,0,1-16.9,7.1c-9.2.6-17.9-.9-25.7-6.1-10.5-9.2-14.4-20.8-11.5-34.5s10.5-20.8,22.9-23.7,24.8-.6,34.3,9.5l2.9,3.4C345.8,180.7,347.1,191,343.8,201.9Z" transform="translate(-0.2 -0.2)" style="fill:#5e5e66"/><path d="M168.9,172.1c-11.2-4.3-21.6,3.9-21.5,17.1s10.4,21.5,21.6,17.1c6.3-2.4,10.2-8.8,10.2-16.9S175.4,174.6,168.9,172.1Z" transform="translate(-0.2 -0.2)" style="fill:#5e5e66"/></svg>