<svg width="32" height="32" viewBox="0 0 32 32" fill="none" xmlns="http://www.w3.org/2000/svg">
<mask id="mask0" mask-type="alpha" maskUnits="userSpaceOnUse" x="0" y="0" width="32" height="32">
<rect width="32" height="32" fill="white"/>
</mask>
<g mask="url(#mask0)">
<path d="M13.7192 31.9096C5.43383 30.6204 -0.407332 23.4472 0.0222254 15.0892C0.368145 8.35858 5.0085 2.53749 11.5345 0.647645C17.2773 -1.01543 23.2658 0.571311 27.4627 4.86806C29.622 7.07876 30.9815 9.55682 31.6659 12.5299C32.1358 14.5708 32.1061 17.9575 31.6017 19.8456C30.8047 22.8287 29.4302 25.2413 27.3374 27.3305C24.3664 30.2963 20.7096 31.872 16.5255 31.9894C15.4569 32.0194 14.1941 31.9835 13.7192 31.9096ZM13.1076 26.0049C13.3752 25.6803 13.4422 24.7904 13.2249 24.4473C13.1534 24.3343 12.6536 23.946 12.1142 23.5844C10.9032 22.7724 10.1327 21.7803 9.75178 20.5424C9.48426 19.6729 9.46403 19.275 9.50317 15.6527L9.54576 11.7096L9.99976 10.752C10.5091 9.67768 11.3352 8.79727 12.3536 8.24335C13.4297 7.6581 13.6602 6.80137 12.9541 6.01167C12.403 5.39532 11.6917 5.39584 10.5322 6.0133C8.01014 7.35661 6.17355 9.78861 5.42724 12.7733C5.16201 13.834 5.13278 14.2889 5.18702 16.5124C5.24289 18.8026 5.2863 19.1535 5.64267 20.1943C6.39214 22.3834 7.71239 24.1801 9.43228 25.3517C11.2056 26.5597 12.4656 26.7836 13.1076 26.0048L13.1076 26.0049ZM21.5258 25.9345C23.4526 25.0084 25.2319 23.0338 26.1205 20.8354C26.7888 19.1821 26.8993 18.2497 26.7534 15.4974C26.6062 12.7202 26.3749 11.7237 25.4738 9.98384C24.7316 8.55084 22.854 6.69114 21.4351 5.98363C19.9377 5.23702 19.1742 5.30769 18.7323 6.23382C18.4051 6.91943 18.6025 7.57339 19.2644 7.99704C21.0398 9.13334 21.9762 10.276 22.2855 11.6833C22.393 12.173 22.4329 13.7852 22.4015 16.3835C22.3563 20.1372 22.3373 20.3743 22.0273 21.0459C21.5973 21.9777 20.8061 22.9275 20.0699 23.3956C18.9447 24.1109 18.6841 24.4311 18.6841 25.0982C18.6841 25.6 18.7612 25.7704 19.1269 26.078C19.727 26.5826 20.2417 26.5518 21.5258 25.9345Z" fill="#00B1DF"/>
</g>
</svg>
