<svg id="8c01e3ec-8493-4e53-91d4-6e6f374b8711" data-name="Слой 1" xmlns="http://www.w3.org/2000/svg" viewBox="0 0 275.8 258"><title>oschadbank</title><path d="M275.8,68.4V71c-.2.1-.2.2-.3.4a23.7,23.7,0,0,1-9,15.8c-.9.6-1,1.1-.5,2.1,2.2,4.2,1.5,8.1-1.9,11.4a15.8,15.8,0,0,1-4.8,3.3,1.8,1.8,0,0,0-1.3,2q.2,60.9.1,122a27.3,27.3,0,0,1-3.4,13.7c-5.5,10-14,15.4-25.3,16.4H28.5A30.9,30.9,0,0,1,1,235.4c-.4-1.4-.3-2.9-1-4.3V27.1c.4-.2.3-.5.3-.8a26.6,26.6,0,0,1,1.8-6.7C7.2,7.8,16.1,1.3,28.9.1H229.6a30.6,30.6,0,0,1,27.3,22.1c1.2,4.2,1.2,8.4,1.2,12.6-.1,8.1,0,16.3-.1,24.4,0,1,.1,1.4,1.2.9a19.9,19.9,0,0,1,4.9-1.5c6.3-1.4,9.5.7,11.1,6.8A8,8,0,0,0,275.8,68.4ZM135.9,231.3l-.2-.3-1.3-1.1a41.8,41.8,0,0,1-9.6-11.7c-5.7-10.7-6.9-22.1-4.9-33.8,3.1-18.2,12.7-32.4,28-42.5,9.1-5.9,19.1-9.1,30.1-7.7,7.2.9,13.4,3.8,18.1,9.6,9,10.8,11.3,23.2,8.5,36.7s-9.8,25.1-19.9,34.7a101.2,101.2,0,0,1-18.4,13.5c-.7.5-1.3.8-.8,1.9s1.3.7,2,.5a71.2,71.2,0,0,0,7.4-3.5c8.5-4.8,16.8-10,23.7-17,13.9-14.1,22.7-31,25.2-50.8a53.6,53.6,0,0,0-2.3-25.1C217,122,208.4,113.8,195,111c-8.6-1.8-17-.6-25.2,2.2-12.4,4.3-22.6,11.7-31.4,21.2-6.8,7.3-11.8,15.7-16,24.7-5.5,11.8-9.3,24.1-8.9,37.3a41.9,41.9,0,0,0,8.8,25.2l2.3,2.8H109.2a1.8,1.8,0,0,1-1.9-1.2,60.8,60.8,0,0,1-4.9-39.8c2.3-11.2,7-21.4,12.9-31,4.7-7.7,10.5-14.5,16.2-21.4a81.9,81.9,0,0,1,19.7-17.4c11.2-7,23.1-11.4,36.5-11.2a37.3,37.3,0,0,1,18.7,5.1l6.4,3.8a23.7,23.7,0,0,0,20.4,2.4,6.8,6.8,0,0,0,5.1-6.6,10.3,10.3,0,0,0-.3-3.9c-.2-.8.1-.9.8-1,3-.1,6-.2,8.9-.5a24.5,24.5,0,0,0,9.6-2.2c4.9-2.4,6.1-6.9,3-11.3-.5-.8-.4-1.1.3-1.7a28.3,28.3,0,0,0,9.3-12.3,11.1,11.1,0,0,0,.1-8.6,3.5,3.5,0,0,0-3.5-2.3,11.6,11.6,0,0,0-4.1.9,70.4,70.4,0,0,0-9.6,4.6c-2.4,1.2-2.4,1.2-3.8-.9s-3-3.7-5.6-3.7a12.6,12.6,0,0,0-5.1,1.1,83.8,83.8,0,0,0-10.2,5.5,8.7,8.7,0,0,1-3.1,1.4c.1-.4.1-.6.2-.9a5.2,5.2,0,0,0-3.3-6.7l-1.2-.3a15.1,15.1,0,0,0-3-.1,33.4,33.4,0,0,0-12.3,3.9c-7.8,4.1-14.2,9.8-18.3,17.7-.8,1.4-.7,1.5.9,1.4a114.7,114.7,0,0,1,17.6.8,85.5,85.5,0,0,0,16,1.1A66.9,66.9,0,0,0,244.5,84a58.8,58.8,0,0,0,8.7-5.2c.8-.6,2-1.4,2.8-.3s-.1,1.9-.7,2.6a23.4,23.4,0,0,1-5.2,4.2c-11.3,7.5-23.8,9.4-37,8.2a165.5,165.5,0,0,0-24.4-1.2c-10.2.4-20.2,2.1-29.5,6.6-.2.1-.3.2-.5,0h0l2.7-3.8a238.8,238.8,0,0,0,22.4-42.4,143,143,0,0,0,7.6-22c.4-1.6.4-1.6-1.3-1.6H117.7a2.6,2.6,0,0,0-1.5.2c.3.6.8.8,1.2,1.2a44.8,44.8,0,0,1,11,13.9,51.5,51.5,0,0,1,4.5,30.9c-2.8,18-11.9,32.2-27.1,42.3-9.3,6.2-19.5,9.7-30.9,8.4a28.2,28.2,0,0,1-18-8.9c-7-7.4-9.7-16.6-9.8-26.6a51.7,51.7,0,0,1,3.5-18.3c5-13.7,14.1-24.2,25.5-33a107,107,0,0,1,10.6-6.9c.6-.4,1-.6.7-1.4a1.3,1.3,0,0,0-1.9-.9,56.2,56.2,0,0,0-8.9,4.3c-8,4.6-15.8,9.5-22.3,16.1a90.6,90.6,0,0,0-25,47.8A54.3,54.3,0,0,0,31.5,127c3.2,9.2,9,16.3,17.9,20.4s17.5,4.4,26.6,2.4c17.3-3.8,30.9-13.6,41.8-27.2A104.8,104.8,0,0,0,132,98.7c4.4-9.9,7.6-20.1,7.9-31.1s-3.3-23.3-11.7-32.5c-.2-.2-.6-.4-.4-.8H140a2.2,2.2,0,0,1,2.2,1.3c8.5,15.2,10.2,31.3,5.7,48.1-4.9,18.4-15.1,33.8-27.7,47.8-5,5.5-10.2,10.8-14.9,16.6-19.9,24.5-35,51.6-44.2,81.9-.4,1.4-.4,1.4,1.1,1.4h73.7ZM9.1,129.1v93.4c0,9.3,4,16.6,11.6,21.9,4.8,3.4,10.2,4.7,16.1,4.7H218.6a16,16,0,0,0,8-1.9c6.1-3.4,12-7.1,16.8-12.2a19.9,19.9,0,0,0,5.7-14.2c-.2-37.4-.1-74.8-.1-112.2v-1c.1-.7-.1-.9-.8-.9l-2.6.2c-1.3-.1-1.5.4-1.5,1.6V222.2A21.5,21.5,0,0,1,223,244.1H35.5a21.6,21.6,0,0,1-21.4-21.5V35.5a21.2,21.2,0,0,1,21-21.4H222a21.9,21.9,0,0,1,22.1,21.7V57.4c0,1.6,0,1.6,1.7,1.9a8,8,0,0,1,2.1.5c1,.4,1.1,0,1.1-.9V34.8a27.9,27.9,0,0,0-.7-5.8C245.7,18.2,235.8,9.1,222,9.1H36.6a41.9,41.9,0,0,0-5,.3A26.5,26.5,0,0,0,9.1,36Z" transform="translate(0 -0.1)" style="fill:#3a7c4a"/><path d="M28.6,258.2Z" transform="translate(0 -0.1)" style="fill:#dabf46"/><path d="M28.9.1Z" transform="translate(0 -0.1)" style="fill:#dabf46"/></svg>