<?xml version="1.0" encoding="utf-8"?>
<!-- Generator: Adobe Illustrator 22.1.0, SVG Export Plug-In . SVG Version: 6.00 Build 0)  -->
<svg version="1.1" id="Слой_1" xmlns="http://www.w3.org/2000/svg" xmlns:xlink="http://www.w3.org/1999/xlink" x="0px" y="0px"
	 viewBox="0 0 300 300" style="enable-background:new 0 0 300 300;" xml:space="preserve">
<style type="text/css">
	.st0{fill:#C90000;}
</style>
<path class="st0" d="M150,0C67.2,0,0,67.2,0,150s67.2,150,150,150s150-67.2,150-150S232.8,0,150,0z M89.6,205.2H48.2v-5.1
	c0,0,1.4,0,7.3,0s6-6.5,6-6.5v-30.6l0.1-0.3h14.2c0,0,0,26.8,0,31.6s4.7,5.3,4.7,5.3h9.2V205.2z M34.5,151.9
	c0,0,66.8,14.4,76.2-16.6c9.2-30.4-21.3-36.7-21.3-36.7H75.9v51H61.5v-49.4H48.8v-5.2c0,0,48.2-0.2,53.5,0.4
	c26.8,3.1,39.8,51.1-3.1,60.6C65.9,163.5,34.5,151.9,34.5,151.9z M218.1,204.6l0.1-4.9c0,0,1.4-0.2,7.8-0.2c6.4,0,5.3-6.3,5.3-6.3
	l1-76.2l-45.5,88.3l-46.5-90c0,0,0,72.6,0,77.1c0,4.5,3.9,6.7,3.9,6.7h12v6.4h-41.7v0.4l0-0.4h0v-6c0,0,4.3,0,11.6,0
	s6.9-6.6,6.9-6.6s1-85.4,1-89.3s-2.6-3.6-2.6-3.6h-7.4v-5.3h23.2l42.4,87.8L232.3,94h25.9v6.2h-8.5c-3.6,0-3.7,2-3.7,2s0,88,0,92.5
	c0,4.5,4.1,4.1,4.1,4.1h9.7v5.8H218.1z"/>
</svg>
