<?xml version="1.0" encoding="UTF-8" standalone="no"?>
<svg
   xmlns:dc="http://purl.org/dc/elements/1.1/"
   xmlns:cc="http://creativecommons.org/ns#"
   xmlns:rdf="http://www.w3.org/1999/02/22-rdf-syntax-ns#"
   xmlns:svg="http://www.w3.org/2000/svg"
   xmlns="http://www.w3.org/2000/svg"
   xmlns:sodipodi="http://sodipodi.sourceforge.net/DTD/sodipodi-0.dtd"
   xmlns:inkscape="http://www.inkscape.org/namespaces/inkscape"
   width="187.58958mm"
   height="187.5896mm"
   viewBox="0 0 187.58959 187.5896"
   version="1.1"
   id="svg8"
   inkscape:version="0.92.2 (5c3e80d, 2017-08-06)"
   sodipodi:docname="PoshtaBank.svg">
  <defs
     id="defs2" />
  <sodipodi:namedview
     id="base"
     pagecolor="#ffffff"
     bordercolor="#666666"
     borderopacity="1.0"
     inkscape:pageopacity="0.0"
     inkscape:pageshadow="2"
     inkscape:zoom="0.7"
     inkscape:cx="226.47168"
     inkscape:cy="381.38204"
     inkscape:document-units="mm"
     inkscape:current-layer="layer1"
     showgrid="false"
     fit-margin-top="0"
     fit-margin-left="0"
     fit-margin-right="0"
     fit-margin-bottom="0"
     inkscape:window-width="1920"
     inkscape:window-height="1001"
     inkscape:window-x="-9"
     inkscape:window-y="-9"
     inkscape:window-maximized="1" />
  <metadata
     id="metadata5">
    <rdf:RDF>
      <cc:Work
         rdf:about="">
        <dc:format>image/svg+xml</dc:format>
        <dc:type
           rdf:resource="http://purl.org/dc/dcmitype/StillImage" />
        <dc:title></dc:title>
      </cc:Work>
    </rdf:RDF>
  </metadata>
  <g
     inkscape:label="Layer 1"
     inkscape:groupmode="layer"
     id="layer1"
     transform="translate(-164.17139,-7.5041975)">
    <path
       style="fill:#010e8c;stroke-width:0.26458335"
       d="M 164.17139,101.29899 V 7.5041975 h 93.79479 93.79479 v 93.7947925 93.7948 h -93.79479 -93.79479 z m 91.98412,60.76159 1.20574,-2.20924 -0.46207,-1.02469 c -0.25414,-0.56358 -0.55486,-0.96735 -0.66827,-0.89726 -0.11341,0.0701 -0.6384,0.90029 -1.16664,1.84487 -0.52824,0.9446 -0.99472,1.71744 -1.03661,1.71744 -0.0419,0 -0.64839,-0.82994 -1.34779,-1.84432 -0.6994,-1.01437 -1.37452,-1.78073 -1.50027,-1.70301 -0.12575,0.0777 -0.40161,0.47579 -0.61302,0.88461 -0.37587,0.72685 -0.33981,0.80655 1.62783,3.59783 2.31229,3.2802 1.95284,3.31343 3.9611,-0.36623 z m 13.45272,-7.97721 c 4.31004,-6.03912 7.92798,-11.07292 8.03988,-11.18624 0.1119,-0.11331 0.51052,0.0355 0.88583,0.33073 0.37531,0.29522 0.75289,0.53676 0.83908,0.53676 0.0862,0 0.1567,-1.19063 0.1567,-2.64584 0,-1.4552 -0.0893,-2.64496 -0.19843,-2.6439 -0.10914,10e-4 -1.25977,0.40223 -2.55694,0.89151 l -2.3585,0.88957 0.70485,0.46185 c 0.38767,0.25401 0.70486,0.57416 0.70486,0.71145 0,0.13729 -3.17363,4.70762 -7.05251,10.1563 -6.0874,8.551 -7.09444,9.84328 -7.35897,9.44339 -0.16856,-0.25481 -1.84043,-3.25067 -3.71527,-6.65747 -2.8183,-5.12117 -3.45706,-6.1151 -3.68738,-5.73764 -0.15322,0.25111 -1.82639,2.82385 -3.71817,5.7172 l -3.43958,5.26065 -0.66146,-0.50932 c -0.3638,-0.28012 -0.75075,-0.51197 -0.85989,-0.5152 -0.10914,-0.003 -0.19844,1.19748 -0.19844,2.66826 0,2.03444 0.0791,2.64206 0.33073,2.54003 0.1819,-0.0738 1.32678,-0.52723 2.54418,-1.00774 l 2.21346,-0.87363 -0.72432,-0.57756 c -0.39838,-0.31765 -0.68006,-0.68955 -0.62596,-0.82643 0.19673,-0.49776 5.12916,-8.01039 5.25774,-8.00812 0.0728,0.001 1.73964,2.85493 3.70417,6.34144 1.96453,3.48652 3.65423,6.31235 3.7549,6.27964 0.10066,-0.0327 3.70941,-5.00058 8.01944,-11.03969 z m 1.19024,7.14375 c 0,-1.45521 -0.0709,-2.64584 -0.15759,-2.64584 -0.0867,0 -0.48195,0.23097 -0.8784,0.51326 l -0.7208,0.51326 -0.45948,-0.77784 c -0.57497,-0.97336 -0.78389,-0.97278 -1.47949,0.004 -0.47611,0.66864 -0.50751,0.86086 -0.21668,1.32656 0.3014,0.48262 0.25415,0.61316 -0.41511,1.14681 l -0.75523,0.6022 2.34295,0.95625 c 1.28863,0.52594 2.43226,0.96769 2.5414,0.98166 0.10914,0.014 0.19843,-1.16521 0.19843,-2.62042 z m -22.0995,-5.54311 c 0.22202,-0.42934 0.40367,-0.88949 0.40367,-1.02256 0,-0.13308 -2.08301,-3.14532 -4.6289,-6.69387 l -4.62891,-6.45192 0.68883,-0.56197 c 0.78688,-0.64197 0.7951,-0.63368 -1.49612,-1.50925 -0.93987,-0.35916 -1.91722,-0.73742 -2.17188,-0.84057 -0.4228,-0.17124 -0.46302,0.0448 -0.46302,2.48661 0,1.47078 0.103,2.67414 0.2289,2.67414 0.1259,0 0.52577,-0.23352 0.8886,-0.51892 l 0.6597,-0.51892 4.86609,6.85667 c 2.67635,3.77117 4.95232,6.86218 5.05773,6.86892 0.1054,0.007 0.37329,-0.33903 0.59531,-0.76836 z m 16.46585,-0.30586 c 0.39874,-0.65715 0.35339,-0.76424 -1.65588,-3.91082 l -2.06584,-3.23517 -0.87591,1.53654 c -0.48175,0.8451 -1.20362,2.1583 -1.60416,2.91823 l -0.72826,1.38168 0.50269,0.93342 c 0.27647,0.51338 0.59716,0.93342 0.71265,0.93342 0.11548,0 0.64276,-0.77391 1.17173,-1.71979 0.52897,-0.94589 1.0101,-1.71979 1.06917,-1.71979 0.0591,0 0.66384,0.83679 1.34392,1.85954 0.68008,1.02274 1.34528,1.82328 1.47822,1.77897 0.13294,-0.0443 0.42619,-0.38462 0.65167,-0.75623 z m -41.28453,-2.22547 c 1.95847,-2.04398 1.28474,-3.40881 -1.09583,-2.2199 -1.47235,0.73533 -2.5908,1.86814 -2.3819,2.4125 0.18017,0.46952 1.08643,0.95878 1.82408,0.98476 0.27961,0.01 1.02375,-0.51996 1.65365,-1.17736 z m 2.86235,0.43443 c 0.43507,-0.25095 0.97085,-0.78446 1.19062,-1.18557 0.36912,-0.67368 0.36029,-0.75852 -0.1157,-1.11248 -0.28341,-0.21074 -0.75966,-0.31531 -1.05833,-0.23236 -0.72067,0.20015 -3.10711,2.73087 -2.89651,3.07162 0.21766,0.3522 1.86908,0.0419 2.87992,-0.54121 z m 65.2225,0.41159 c 0,-0.54161 -1.84927,-2.57209 -2.61856,-2.87514 -0.66921,-0.26363 -0.65352,-0.28051 0.55328,-0.59548 1.46297,-0.38183 2.06528,-0.82051 2.06528,-1.50419 0,-0.93984 -2.6568,-0.44801 -3.81015,0.70534 -0.4661,0.4661 -0.46576,0.49377 0.0105,0.84578 0.4652,0.34385 0.46682,0.3784 0.0293,0.62637 -1.43406,0.81285 0.87984,2.99761 3.30729,3.12271 0.25466,0.0131 0.46302,-0.1333 0.46302,-0.32539 z m 3.37196,-0.23358 c 0.84754,-0.7034 -0.13828,-1.94189 -2.40678,-3.02367 -0.77356,-0.36888 -1.07784,-0.39586 -1.62956,-0.14448 -0.60236,0.27446 -0.643,0.37594 -0.36263,0.90556 0.58618,1.10731 1.65842,2.37098 2.20429,2.59782 0.60481,0.25135 1.68709,0.086 2.19468,-0.33523 z m -73.58369,-2.73135 c 1.18854,-0.69622 1.63685,-1.41212 1.0983,-1.75384 -0.79279,-0.50304 -4.4679,-0.0453 -5.1553,0.6421 -0.46629,0.4663 -0.30164,1.17695 0.46281,1.99749 0.51186,0.54942 0.58007,0.55683 1.51832,0.16503 0.54032,-0.22562 1.47446,-0.69847 2.07587,-1.05078 z m 76.14985,0.60948 c 0.22653,-0.32342 0.41188,-0.86215 0.41188,-1.19718 0,-0.7788 -0.78881,-1.0868 -3.33447,-1.30199 -1.69097,-0.14294 -1.96729,-0.10477 -2.11987,0.29283 -0.2216,0.5775 0.41317,1.20036 2.14494,2.10466 1.6163,0.84401 2.35931,0.87008 2.89752,0.10168 z m -61.93074,-0.85848 c 3.74831,-0.76265 5.98637,-1.39736 5.98637,-1.69773 0,-0.11733 -0.22781,-0.41949 -0.50624,-0.67147 -0.48074,-0.43506 -0.60401,-0.43091 -2.4474,0.0824 -2.81417,0.78362 -6.37029,1.35208 -8.4581,1.35208 -1.72758,0 -1.81743,0.0305 -1.81743,0.61736 0,0.33956 0.0794,0.69674 0.17639,0.79375 0.38666,0.38667 4.03278,0.14087 7.06641,-0.47637 z m 51.18155,-0.20713 0.0837,-0.72761 -1.93581,-2.6e-4 c -2.17229,-5.3e-4 -5.39034,-0.51134 -8.37102,-1.32907 l -1.9948,-0.54727 -0.63183,0.63182 -0.63182,0.63183 2.06871,0.58209 c 3.63845,1.02378 7.01056,1.58562 9.21246,1.53491 2.09867,-0.0483 2.11738,-0.0549 2.20039,-0.77634 z m -59.2181,-0.28972 c 0,-0.74838 -1.91535,-1.7608 -3.33116,-1.7608 -1.2316,0 -1.08348,1.03658 0.2415,1.69001 1.06383,0.52464 3.08966,0.57105 3.08966,0.0708 z m 1.45747,-2.75299 c 0.63738,-2.2206 2.60686,-6.05917 4.18197,-8.1508 1.63957,-2.17722 3.47093,-3.62881 5.53921,-4.39053 0.83674,-0.30817 1.52135,-0.65878 1.52135,-0.77913 0,-0.12035 -0.24962,-0.45138 -0.55472,-0.73563 -0.45782,-0.42652 -0.68899,-0.46999 -1.3234,-0.24883 -0.42278,0.14738 -0.83502,0.3753 -0.9161,0.50649 -0.32575,0.52708 -0.64536,0.1866 -0.64536,-0.68751 0,-0.90613 -0.0231,-0.92604 -1.07325,-0.92604 -0.86074,0 -1.22033,0.16104 -1.81608,0.8133 -1.05078,1.15045 -2.74282,4.19216 -4.42178,7.94883 -0.79241,1.77302 -1.68234,3.56295 -1.97763,3.97764 -0.71093,0.99841 -1.80048,0.99217 -3.3881,-0.0194 -1.7459,-1.11243 -2.80595,-1.23618 -4.23973,-0.49493 -1.17799,0.60899 -1.86724,1.35812 -1.54554,1.67981 0.0948,0.0948 1.09639,0.33277 2.22585,0.52891 1.22396,0.21254 2.70044,0.69743 3.65481,1.20026 1.82848,0.96338 2.62706,1.24391 3.63299,1.27618 0.64134,0.0206 0.75041,-0.12211 1.14551,-1.49861 z m 61.56665,0.32868 c 1.12025,-0.58002 2.56328,-1.05516 3.91929,-1.29048 1.18043,-0.20485 2.2238,-0.45002 2.31861,-0.54484 0.32178,-0.32178 -0.36733,-1.07085 -1.54544,-1.67991 -1.43379,-0.74124 -2.49384,-0.61749 -4.23974,0.49494 -2.27712,1.4509 -3.29982,0.88719 -4.75654,-2.62183 -1.82955,-4.40712 -4.60935,-9.33639 -5.5486,-9.83907 -0.26665,-0.14271 -0.90937,-0.25947 -1.42826,-0.25947 -0.90182,0 -0.94344,0.0409 -0.94344,0.92604 0,1.01798 -0.1441,1.1004 -0.91046,0.52076 -0.28248,-0.21366 -0.74935,-0.38847 -1.0375,-0.38847 -0.51564,0 -1.49162,0.69612 -1.49162,1.06389 0,0.10347 0.70955,0.44684 1.57677,0.76305 2.88826,1.05311 5.0868,3.25561 7.53093,7.54452 0.6358,1.11567 1.48737,3.04719 1.89238,4.29225 l 0.73639,2.26377 1.07708,-0.16356 c 0.59239,-0.0899 1.87496,-0.57666 2.85015,-1.08159 z m -32.27986,0.20049 c 0.37441,-0.40019 0.8778,-1.11805 1.11863,-1.59526 l 0.43789,-0.86764 -0.73841,0.16214 c -0.40613,0.0892 -0.89999,0.21288 -1.09747,0.2749 -0.19749,0.062 -0.83458,-0.0153 -1.41577,-0.17178 -0.58119,-0.15649 -1.12227,-0.21898 -1.2024,-0.13885 -0.17893,0.17893 1.70842,3.06409 2.00439,3.06409 0.11681,0 0.51872,-0.32742 0.89314,-0.7276 z m -35.92527,0.30242 c 0.4701,-0.18039 0.55818,-0.78019 0.15148,-1.03154 -0.14687,-0.0908 -0.97254,-0.18782 -1.83482,-0.21565 -1.87349,-0.0605 -2.75577,-0.61582 -3.64253,-2.29271 -1.19141,-2.25299 -0.58511,-5.1935 1.41073,-6.84194 3.42365,-2.82771 8.38216,-0.72686 9.00897,3.81699 l 0.17954,1.30149 0.61885,-1.40898 0.61885,-1.40898 -0.5069,-1.14593 c -2.01746,-4.5608 -8.63101,-5.58031 -11.91756,-1.83713 -1.07404,1.22326 -1.08082,0.54963 -0.0171,-1.69886 1.08299,-2.28925 1.66158,-2.96334 3.26035,-3.79858 0.87498,-0.4571 1.17795,-0.72052 0.83971,-0.73008 -1.35866,-0.0384 -4.85937,-2.67249 -6.15859,-4.63395 l -0.78671,-1.18772 -0.17634,1.10278 c -0.097,0.60652 -0.64302,2.4797 -1.21341,4.1626 -0.57039,1.68291 -1.11494,3.83685 -1.21013,4.78654 -0.31135,3.10657 0.98204,6.56784 3.62281,9.69506 0.71655,0.84854 1.49708,1.9893 1.7345,2.535 l 0.43168,0.99219 h 2.58406 c 1.42123,0 2.77239,-0.0723 3.00257,-0.1606 z m 76.20887,-0.54417 c 0.0973,-0.38763 0.8311,-1.48895 1.6307,-2.4474 0.79961,-0.95844 1.95331,-2.74568 2.56378,-3.97164 1.10257,-2.21417 1.10996,-2.24851 1.10996,-5.15937 0,-2.7655 -0.0633,-3.1117 -1.12448,-6.15354 -0.65119,-1.86653 -1.12457,-3.70404 -1.12469,-4.36563 l -2.1e-4,-1.14244 -0.5421,1.09516 c -1.08872,2.19944 -5.03781,5.357 -6.73353,5.3839 -0.31549,0.005 0.005,0.26031 0.79376,0.63225 0.7276,0.34313 1.58269,0.90751 1.9002,1.25419 0.66992,0.73146 2.04386,3.45142 2.31413,4.58122 l 0.18561,0.77589 -1.07736,-1.07736 c -1.49503,-1.49503 -2.71527,-2.02087 -4.98018,-2.14614 -1.67332,-0.0926 -2.10918,-0.0148 -3.36662,0.60039 -1.64122,0.80298 -3.18978,2.4543 -3.59867,3.83749 -0.23729,0.80267 -0.18142,1.14797 0.38724,2.39321 l 0.66454,1.45521 0.0211,-1.19062 c 0.0741,-4.19155 4.40018,-6.70755 8.19921,-4.76857 1.19402,0.60942 1.70304,1.17925 2.37319,2.65666 0.94805,2.09006 0.5818,4.17634 -1.03801,5.91286 -0.96148,1.03076 -1.10179,1.09093 -2.66121,1.14128 -1.74397,0.0563 -2.27191,0.31684 -2.0124,0.99311 0.13104,0.34147 0.66922,0.41466 3.04916,0.41466 h 2.89004 l 0.17688,-0.70477 z m -51.83674,-1.17599 c 2.46602,-1.72746 4.01222,-3.12131 5.52895,-4.98419 1.5287,-1.87757 2.7966,-3.68119 2.7966,-3.97824 0,-0.10231 -0.40866,-0.11546 -0.90812,-0.0292 -0.72886,0.12583 -1.16492,0.49628 -2.209,1.87657 -1.99222,2.63379 -4.53951,4.90142 -7.57894,6.74688 -0.3999,0.2428 -0.40107,0.31359 -0.0142,0.8599 0.23185,0.32742 0.51412,0.59531 0.62726,0.59531 0.11314,0 0.90401,-0.48916 1.75748,-1.08701 z m 23.99198,0.50695 c 0.37036,-0.55779 0.30988,-0.62918 -1.57606,-1.86034 -2.14446,-1.39992 -5.03676,-4.20912 -6.44579,-6.26059 -0.75866,-1.10457 -1.04751,-1.32155 -1.86486,-1.40085 l -0.96716,-0.0938 0.36563,0.70706 c 0.62271,1.20419 3.3852,4.5261 4.9517,5.95446 1.45657,1.32812 4.5459,3.53415 4.94924,3.53415 0.11119,0 0.37547,-0.26103 0.5873,-0.58006 z m -18.81837,-1.1419 c 0.49664,-0.25145 1.27462,-0.73516 1.72885,-1.07491 l 0.82587,-0.61774 1.3938,0.52961 c 1.45824,0.55408 2.38888,0.50798 3.74674,-0.18564 0.65475,-0.33446 0.80564,-0.2946 2.04678,0.54062 1.18604,0.79815 2.81934,1.52954 4.74575,2.12515 0.3708,0.11464 -0.62133,-1.01098 -2.46701,-2.79897 -1.97413,-1.91242 -3.64965,-3.83155 -4.64711,-5.32277 -0.85793,-1.28261 -1.65195,-2.29985 -1.76448,-2.26052 -0.11253,0.0393 -0.67621,0.78588 -1.25261,1.659 -0.5764,0.87313 -2.65305,3.22577 -4.61477,5.22809 l -3.56678,3.64058 1.461,-0.50266 c 0.80355,-0.27646 1.86733,-0.70839 2.36397,-0.95984 z m -3.65576,-6.28426 c 2.21601,-0.93092 4.51972,-3.90005 5.60093,-7.21875 0.40808,-1.25258 0.40318,-1.35857 -0.10902,-2.35962 -0.29496,-0.57647 -0.53629,-1.26108 -0.53629,-1.52136 0,-1.04895 -1.23897,-0.16367 -2.62275,1.87403 -0.70827,1.04297 -1.66418,1.95827 -3.03449,2.90557 -2.00749,1.38777 -2.80943,2.21811 -2.80943,2.90892 0,0.55939 1.51098,0.18148 2.75738,-0.68967 0.57068,-0.39885 1.7639,-1.6091 2.65159,-2.68944 1.77276,-2.15746 2.26395,-2.50046 2.26395,-1.58092 0,1.55632 -1.42637,3.36815 -4.73486,6.01439 -1.16835,0.93449 -1.71045,1.64653 -2.00558,2.63434 -0.16578,0.55488 -0.11818,0.59086 0.56776,0.42918 0.4118,-0.0971 1.31666,-0.41507 2.01081,-0.70667 z m 21.09421,0.39945 c -0.002,-0.82209 -0.99011,-2.11641 -2.43013,-3.1824 -2.66351,-1.97171 -4.18346,-3.95988 -4.18346,-5.47217 0,-1.02151 0.38359,-0.82098 1.69863,0.888 0.66021,0.858 1.75591,2.04899 2.43489,2.64665 1.21015,1.06522 3.09267,1.88452 3.46791,1.50929 0.35071,-0.35072 -0.59735,-1.60746 -1.91683,-2.54094 -1.29011,-0.9127 -2.62985,-2.19227 -4.81219,-4.59604 -0.61158,-0.67364 -1.20689,-1.22304 -1.32291,-1.22091 -0.23893,0.004 -1.4054,2.9037 -1.39443,3.46588 0.0149,0.76104 1.57882,4.01121 2.53095,5.25972 1.17933,1.54645 2.92241,2.85435 4.43434,3.32729 1.45453,0.45498 1.49438,0.45273 1.49323,-0.0844 z m -13.93839,-3.2729 c 0.31786,-0.16298 0.96162,-0.65943 1.43058,-1.10322 l 0.85265,-0.80688 0.52921,0.67278 c 0.63127,0.80252 2.07622,1.53365 3.03099,1.53365 0.8069,0 0.91577,-0.42109 0.17007,-0.65777 -0.28465,-0.0903 -0.82043,-0.52422 -1.19062,-0.96417 -1.00463,-1.19393 -0.92598,-2.91071 0.25296,-5.52181 1.03457,-2.29134 1.18718,-3.88991 0.52309,-5.4793 -0.47823,-1.14457 -0.69118,-0.98624 -1.31994,0.98139 -0.7538,2.35888 -1.96897,4.88229 -2.2209,4.61189 -0.27528,-0.29546 -2.03222,-4.7061 -2.28503,-5.73637 -0.0982,-0.40018 -0.26559,-0.72761 -0.37198,-0.72761 -0.34659,0 -0.85495,1.42506 -0.99702,2.79495 -0.11824,1.14008 0.004,1.66443 0.81902,3.51854 1.18742,2.70067 1.26902,4.20896 0.29669,5.48376 -0.36371,0.47684 -0.90122,0.94313 -1.19447,1.03621 -0.29325,0.0931 -0.4649,0.27971 -0.38144,0.41476 0.20827,0.33698 1.35513,0.30865 2.05614,-0.0508 z m -10.58333,-2.39272 c 0.59526,-0.31704 1.21612,-0.99584 1.23096,-1.34584 0.005,-0.10914 -0.5251,-0.19844 -1.17717,-0.19844 -1.05677,0 -1.20438,-0.0749 -1.3586,-0.68938 -0.3733,-1.48734 1.30756,-3.2626 3.11334,-3.28817 l 0.62147,-0.009 -0.57222,-0.47793 c -0.92006,-0.76846 -2.00739,-0.43303 -3.39089,1.04605 -0.6621,0.70783 -1.32609,1.60859 -1.47555,2.00169 -0.37416,0.98412 -0.0753,2.10111 0.73216,2.73623 0.76853,0.60453 1.43895,0.67068 2.2765,0.2246 z m 28.02844,-0.50721 c 0.71768,-0.87811 0.59077,-2.36883 -0.3072,-3.60844 -1.43099,-1.97542 -3.16228,-2.70379 -4.32656,-1.82022 -0.42054,0.31915 -0.36574,0.3702 0.55552,0.51751 1.24031,0.19834 2.24235,0.94327 2.67552,1.98902 0.50392,1.21657 0.029,1.8376 -1.48111,1.93677 l -1.22702,0.0806 0.83711,0.89364 c 0.74347,0.79367 0.9475,0.87597 1.82392,0.73565 0.54274,-0.0869 1.19516,-0.41292 1.44982,-0.72451 z m -31.89328,-1.3869 c -0.5019,-0.76599 -2.00252,-1.48985 -4.78838,-2.30979 l -2.08738,-0.61436 -0.49629,0.61289 c -0.77997,0.96322 -0.2405,1.33817 1.92533,1.33817 1.58816,0 1.81969,0.0617 1.81969,0.48507 0,0.69526 0.25885,0.85954 0.85318,0.54146 0.79829,-0.42723 1.73663,-0.0502 2.22484,0.89385 0.43157,0.83456 0.44787,0.84082 0.70265,0.26984 0.19293,-0.43238 0.15293,-0.74923 -0.15364,-1.21713 z m 34.83699,-0.0624 c 0.35476,-0.089 0.88599,-0.0329 1.1805,0.12468 0.45816,0.2452 0.54767,0.2007 0.61995,-0.30823 0.0776,-0.5461 0.24262,-0.60119 2.01556,-0.6728 2.07118,-0.0837 2.45302,-0.35394 1.91645,-1.35654 -0.37842,-0.70709 -0.47754,-0.70007 -3.51265,0.24865 -2.7497,0.85951 -4.17133,1.79769 -4.17133,2.75281 0,0.94682 0.31306,1.0069 0.82869,0.15902 0.26279,-0.43214 0.76807,-0.85855 1.12283,-0.94759 z m -33.64404,-2.86977 c 1.13659,-1.2961 1.19971,-1.43593 0.70639,-1.56494 -0.60275,-0.15762 -1.94635,0.26129 -3.68816,1.14989 l -1.15304,0.58824 1.17877,0.61643 c 0.64832,0.33903 1.29783,0.6203 1.44335,0.62504 0.14552,0.005 0.82623,-0.63186 1.51269,-1.41466 z m 33.39486,0.88125 c 0.98103,-0.43396 1.17889,-0.62287 0.94613,-0.90333 -0.5025,-0.60547 -3.52702,-1.68395 -4.30528,-1.53518 l -0.71876,0.1374 0.63972,0.50321 c 0.35184,0.27676 0.89606,0.91797 1.20936,1.4249 0.31331,0.50694 0.66386,0.92171 0.77902,0.92171 0.11515,0 0.76757,-0.24692 1.44981,-0.54871 z m -53.3002,-0.24284 c 0.85969,-0.4601 0.92734,-1.71914 0.1625,-3.02425 -0.90754,-1.5486 -3.65408,-3.99831 -5.10328,-4.55177 -1.12596,-0.43001 -1.19429,-0.42695 -1.88206,0.0844 -1.54699,1.15007 -0.70597,3.59092 2.01764,5.8557 2.15762,1.79413 3.59515,2.28355 4.8052,1.63596 z m 73.55557,-0.26541 c 1.45454,-0.74205 3.88745,-3.19555 4.47907,-4.51698 0.61895,-1.38246 0.34074,-2.43174 -0.76635,-2.89031 -0.62896,-0.26052 -0.94437,-0.22772 -1.90755,0.19834 -1.5593,0.68975 -4.2833,3.26008 -4.97981,4.69888 -1.18341,2.44459 0.57609,3.83576 3.17464,2.51007 z m -56.27735,-1.43564 c 1.82036,-0.91646 4.15259,-2.89181 3.81401,-3.23039 -0.0658,-0.0658 -1.56887,0.22606 -3.3401,0.64862 -2.45488,0.58567 -3.44935,0.9536 -4.18349,1.54779 -0.52969,0.42871 -1.00311,0.89959 -1.05204,1.04639 -0.0767,0.23004 2.20136,1.174 2.56876,1.06443 0.0728,-0.0217 1.05955,-0.50628 2.19286,-1.07684 z m 39.81703,0.61332 1.13176,-0.32552 -0.73489,-0.7733 c -0.40419,-0.42532 -1.06421,-0.94532 -1.46672,-1.15555 -0.58884,-0.30755 -6.04765,-1.68719 -6.67569,-1.68719 -0.0896,0 0.23069,0.4824 0.71185,1.07199 0.54445,0.66714 1.57429,1.42274 2.72692,2.00076 1.01865,0.51082 1.96555,1.04082 2.10422,1.17776 0.13868,0.13694 0.43634,0.19669 0.66146,0.13277 0.22513,-0.0639 0.91862,-0.26269 1.54109,-0.44172 z M 250.664,128.03546 c 0.92293,-0.47726 2.24568,-1.96394 2.90233,-3.26201 0.42569,-0.8415 1.09256,-3.29282 1.09256,-4.01607 0,-0.12488 -0.7674,0.54034 -1.70533,1.47827 -1.14515,1.14515 -2.25349,1.95388 -3.37408,2.46198 -2.54882,1.15569 -3.30385,2.27381 -2.14891,3.18229 0.80476,0.63303 2.18197,0.69928 3.23343,0.15554 z m 17.63024,-0.0439 c 1.34634,-0.88215 0.65444,-2.00921 -2.0557,-3.34864 -1.35105,-0.66773 -2.43044,-1.46498 -3.49631,-2.58244 l -1.54189,-1.6165 0.18628,1.40775 c 0.58029,4.38532 4.40157,7.78186 6.90762,6.13983 z m -8.29237,-5.8199 c 0.33927,-1.68935 0.0356,-3.039 -1.1514,-5.11736 -0.93139,-1.6308 -1.12827,-1.55907 -2.33187,0.84956 -1.20841,2.41825 -1.10146,3.90552 0.59078,8.21482 l 0.81108,2.06544 0.89844,-2.29783 c 0.49414,-1.2638 1.02647,-2.93539 1.18297,-3.71463 z m -13.56978,4.17898 c 0.62207,-1.21936 0.91776,-1.4711 2.22123,-1.89109 1.03183,-0.33246 1.14658,-0.68833 0.37824,-1.17299 -0.32649,-0.20594 -0.74553,-0.12516 -1.66299,0.32058 -1.19621,0.58116 -4.08676,3.07593 -4.08676,3.52719 0,0.12441 0.59289,0.2262 1.31754,0.2262 1.26022,0 1.33995,-0.0439 1.83274,-1.00989 z m 25.70415,0.237 c -0.78857,-1.10745 -2.03688,-2.09686 -3.63347,-2.8799 -1.36308,-0.66852 -1.3982,-0.67184 -1.93782,-0.1835 -0.54866,0.49654 -0.54738,0.49817 0.78324,0.99454 1.06666,0.3979 1.46999,0.73127 2.01981,1.66946 0.66657,1.13742 0.72615,1.17229 2.0028,1.17229 h 1.31579 z m -28.30714,-2.03498 c 0.79039,-0.23465 2.11314,-0.76782 2.93943,-1.18484 l 1.50234,-0.75821 -0.42786,-1.13027 c -0.23532,-0.62165 -0.4594,-1.1744 -0.49797,-1.22833 -0.13977,-0.19546 -3.43066,2.32831 -4.58134,3.51341 -1.30349,1.34249 -1.15978,1.44882 1.0654,0.78824 z m 29.84578,-0.35654 c -0.77192,-1.04409 -4.89177,-4.22958 -5.09397,-3.9387 -0.035,0.0504 -0.2529,0.59177 -0.48414,1.20302 -0.41931,1.10841 -0.41856,1.1126 0.28074,1.57465 0.78786,0.52055 4.68075,1.91142 5.40545,1.93128 0.426,0.0117 0.41569,-0.0618 -0.10808,-0.77025 z m -21.4997,-3.38384 c 0.1234,-0.65776 -0.0225,-1.34078 -0.55275,-2.58852 l -0.72038,-1.69499 -1.15053,1.41239 c -1.75649,2.15628 -1.78619,2.99046 -0.16822,4.72505 l 0.68058,0.72964 0.87183,-0.84502 c 0.49218,-0.47704 0.94484,-1.23413 1.03947,-1.73855 z m 15.07656,0.67441 c 0.58828,-1.13065 0.45634,-1.60694 -0.92036,-3.32234 l -1.2921,-1.60998 -0.72429,1.7042 c -0.87037,2.0479 -0.76871,3.00336 0.45379,4.26466 l 0.83915,0.86579 0.63604,-0.59393 c 0.34982,-0.32667 0.80331,-0.91544 1.00777,-1.3084 z m -34.33265,-0.80743 c 0.60437,-2.06239 1.37216,-7.37816 1.35852,-9.40572 l -0.008,-1.24322 -0.61178,0.69432 c -0.50569,0.57393 -0.63915,1.10153 -0.76967,3.04271 -0.35938,5.34518 -1.64578,5.54712 -1.57014,0.24648 0.0327,-2.2903 -0.038,-2.75292 -0.54539,-3.57187 l -0.58293,-0.94081 -0.21627,1.5875 c -0.34074,2.50111 -0.065,8.24805 0.46965,9.78959 0.5634,1.62434 1.15,2.35311 1.59608,1.9829 0.17508,-0.14531 0.57121,-1.12715 0.88029,-2.18188 z m 52.59507,0.22173 c 0.49954,-1.58949 0.77812,-7.77695 0.44774,-9.94463 l -0.22179,-1.45521 -0.59165,0.95728 c -0.50711,0.82048 -0.59217,1.33087 -0.59526,3.57187 -0.004,2.70164 -0.1615,3.80523 -0.54398,3.80523 -0.36159,0 -0.77918,-1.83327 -0.9569,-4.20089 -0.13781,-1.83611 -0.27576,-2.33559 -0.80381,-2.91041 l -0.63744,-0.69391 0.16917,2.64583 c 0.27525,4.30493 1.2511,9.11209 2.05576,10.12699 0.42104,0.53105 1.18593,-0.33593 1.67816,-1.90215 z m -61.20065,1.1464 c 2.22513,-1.47386 3.32249,-3.26399 4.00134,-6.52739 0.46946,-2.25684 1.01722,-7.58782 0.90042,-8.76327 l -0.0887,-0.89233 -0.6014,0.49546 c -0.48775,0.40183 -0.67563,0.99546 -0.99419,3.14129 -0.44175,2.97563 -0.9726,4.9831 -1.76154,6.6615 -1.40027,2.97894 -1.24537,-1.01909 0.21444,-5.53471 0.51442,-1.59126 0.88346,-2.94504 0.82009,-3.00841 -0.54335,-0.54335 -2.56003,2.59071 -3.91891,6.09026 -1.25497,3.23194 -1.4697,6.82178 -0.51478,8.60606 0.38068,0.71132 0.48595,0.69678 1.9432,-0.26846 z m 69.42526,-0.17696 c 0.70058,-1.64053 0.55248,-4.56075 -0.3665,-7.2269 -1.31061,-3.80235 -3.62636,-7.64155 -4.23945,-7.02846 -0.0609,0.0609 0.2483,1.28411 0.68715,2.71821 0.95446,3.11906 1.44287,5.73897 1.20789,6.47932 -0.16716,0.52668 -0.17985,0.52757 -0.52374,0.0366 -0.63655,-0.9088 -1.45287,-3.74329 -1.98577,-6.89516 -0.42329,-2.50353 -0.63808,-3.19388 -1.11825,-3.59421 -0.59159,-0.49321 -0.59475,-0.49205 -0.68295,0.24921 -0.12676,1.06519 0.43603,6.5074 0.9147,8.84525 0.54441,2.65894 1.15467,3.96513 2.46445,5.27491 1.05778,1.05778 2.57021,2.1304 3.00682,2.13243 0.11657,5.3e-4 0.40261,-0.44549 0.63565,-0.99119 z m -54.25014,-1.0134 c 0.3347,-1.1093 0.45261,-4.87383 0.18406,-5.87637 -0.0893,-0.33325 -0.49291,-0.77686 -0.89697,-0.98582 l -0.73467,-0.37991 0.14464,2.1103 c 0.0796,1.16067 0.062,2.1103 -0.0389,2.1103 -0.32319,0 -0.97992,-1.87337 -1.36827,-3.9031 -0.33598,-1.75599 -1.6923,-4.77312 -1.69468,-3.76982 -0.003,1.08348 0.85021,5.89277 1.31366,7.40834 0.63033,2.06132 2.02877,4.57304 2.46513,4.42758 0.17222,-0.0574 0.45395,-0.57108 0.62605,-1.1415 z m 38.71558,-0.17723 c 1.07267,-1.85821 1.80302,-4.27304 2.26058,-7.47448 0.50289,-3.51858 0.48933,-3.62825 -0.28194,-2.27904 -0.36488,0.6383 -0.8506,2.06705 -1.07938,3.175 -0.43692,2.1159 -1.00804,3.73425 -1.31785,3.73425 -0.10097,0 -0.11851,-0.94963 -0.0389,-2.1103 l 0.14464,-2.1103 -0.75643,0.39117 c -0.94038,0.48629 -1.15729,1.46847 -0.98063,4.44029 0.13212,2.22247 0.51176,3.62247 0.98232,3.62247 0.14618,0 0.62662,-0.62507 1.06764,-1.38906 z m -63.36511,-0.55324 c 2.32482,-1.20662 4.50166,-3.53299 6.17602,-6.60027 0.77743,-1.42419 1.81923,-3.19233 2.3151,-3.92919 0.49587,-0.73686 0.90076,-1.35755 0.89975,-1.3793 -0.008,-0.16848 -2.37941,-0.0976 -2.37941,0.0711 0,0.57355 -2.85858,4.49577 -4.41999,6.06461 -2.01256,2.02214 -2.42376,1.82994 -1.30642,-0.61065 0.92291,-2.0159 2.00747,-3.52378 4.29021,-5.96472 1.08095,-1.15586 1.96536,-2.21197 1.96536,-2.34691 0,-0.13494 -0.50601,-0.1878 -1.12448,-0.11747 -0.9353,0.10637 -1.34092,0.35807 -2.41107,1.49618 -1.56238,1.66158 -3.82351,4.64521 -4.74647,6.26309 -1.07128,1.87788 -2.03673,5.07523 -2.03673,6.74521 0,1.4248 0.027,1.48436 0.59532,1.31239 0.32742,-0.0991 1.30968,-0.5509 2.18281,-1.00407 z m 89.03229,0.0135 c 0,-2.79979 -1.65652,-6.78757 -4.23055,-10.18432 -2.2396,-2.95542 -3.89032,-4.45791 -5.09601,-4.63842 -0.58435,-0.0875 -0.99219,-0.0397 -0.99219,0.11616 0,0.14559 0.86896,1.1799 1.93102,2.29847 2.21792,2.33593 3.38434,3.95719 4.32456,6.0109 1.07151,2.34049 0.74537,2.62433 -1.06035,0.92282 -1.38696,-1.30691 -4.66606,-5.77656 -4.66606,-6.36018 0,-0.19356 -2.37358,-0.25966 -2.37941,-0.0663 -0.001,0.0335 0.39526,0.68839 0.8806,1.4552 0.48535,0.76681 1.57158,2.61831 2.41384,4.11443 0.89922,1.59731 2.08255,3.25994 2.86656,4.02765 1.2214,1.19602 4.88665,3.41066 5.67726,3.43035 0.21447,0.005 0.33073,-0.39077 0.33073,-1.1268 z m -48.1213,-2.65829 c 1.34229,-2.49914 1.1326,-5.12409 -0.52948,-6.62826 -0.54169,-0.49022 -0.55961,-0.48802 -1.08453,0.13292 -0.29356,0.34725 -0.9071,1.37434 -1.36343,2.28242 -0.96295,1.91625 -0.93916,2.50383 0.20937,5.17022 l 0.75083,1.7431 0.57071,-0.53488 c 0.3139,-0.29419 0.96483,-1.26867 1.44653,-2.16552 z m 8.09215,-1.65508 c 0.1117,-0.68833 -0.0527,-1.30458 -0.68253,-2.55784 -0.45633,-0.90808 -1.06987,-1.93517 -1.36343,-2.28242 -0.52492,-0.62094 -0.54284,-0.62314 -1.08453,-0.13292 -0.73875,0.66856 -1.19084,1.60006 -1.40623,2.89744 -0.22638,1.36352 0.54545,3.53153 1.87902,5.27805 l 0.95068,1.24506 0.77993,-1.77029 c 0.42896,-0.97366 0.84615,-2.17835 0.92709,-2.67708 z m -56.63521,1.62728 c 2.28234,-1.04489 3.15338,-1.88549 6.304,-6.08366 1.6452,-2.19221 3.48025,-4.45649 4.0779,-5.03173 0.59764,-0.57523 1.08663,-1.2501 1.08663,-1.49971 0,-1.21132 -0.31558,-1.11878 -2.18612,0.64108 -3.00881,2.83077 -7.12271,5.78076 -7.51479,5.38868 -0.0836,-0.0836 0.30078,-0.76881 0.85417,-1.52269 1.16399,-1.58566 4.09277,-3.99308 6.7356,-5.53658 1.53919,-0.89893 2.67937,-1.98363 2.33101,-2.21757 -0.0482,-0.0324 -0.70184,-0.1779 -1.45259,-0.32345 l -1.365,-0.26464 -2.07458,1.69367 c -6.43108,5.25027 -9.17454,8.74279 -10.24198,13.03838 -0.66699,2.68415 -0.65209,2.73108 0.80376,2.53153 0.67942,-0.0931 1.86831,-0.45911 2.64199,-0.81331 z m 105.39561,0.55615 c 0,-1.05733 -1.1805,-4.70784 -1.99124,-6.15757 -1.19258,-2.13254 -4.49895,-5.63007 -8.12233,-8.59195 -2.80644,-2.29408 -2.84812,-2.31657 -3.80458,-2.05248 -0.53188,0.14686 -1.18975,0.20878 -1.46195,0.1376 -0.58432,-0.1528 -0.587,-0.14142 -0.17818,0.75585 0.1742,0.38232 0.79928,0.9394 1.38906,1.23795 2.91297,1.47454 7.35888,5.22918 8.31426,7.02151 0.43375,0.81373 0.13037,0.75167 -1.69294,-0.34627 -1.87176,-1.12711 -3.30884,-2.27974 -5.87793,-4.71445 l -1.92,-1.81957 v 0.88237 c 0,0.65412 0.24348,1.13174 0.94126,1.84632 0.51769,0.53016 2.33339,2.79344 4.03489,5.0295 1.7867,2.34802 3.62682,4.46755 4.35573,5.01709 2.10077,1.58383 6.01395,2.7252 6.01395,1.7541 z m -62.19338,-2.38429 c 0.44553,-0.85152 0.80888,-1.80402 0.80746,-2.11667 -0.004,-0.88562 -1.27107,-3.40693 -1.64936,-3.2821 -0.61945,0.20441 -1.82545,2.22329 -1.96946,3.29693 -0.10923,0.81442 0.031,1.45621 0.59096,2.7039 0.84609,1.88532 0.93103,1.86229 2.2204,-0.60206 z m 17.34727,0.24678 c 0.63684,-1.7461 0.68054,-2.07005 0.39571,-2.93311 -0.31264,-0.9473 -1.70356,-2.77691 -2.11109,-2.77691 -0.46052,0 -1.38375,2.75035 -1.25227,3.73058 0.1263,0.94168 1.70629,3.94234 2.07582,3.94234 0.0968,0 0.49808,-0.8833 0.89183,-1.9629 z m -26.87121,-3.16931 c -0.28306,-0.6399 -0.87552,-2.57466 -1.31657,-4.29947 -0.81315,-3.17999 -1.87834,-5.66662 -3.042,-7.10145 -0.60696,-0.74841 -0.6653,-0.76616 -1.09743,-0.33403 -0.60011,0.60011 -0.77305,3.29516 -0.36403,5.67311 0.70997,4.12765 3.08692,7.17811 5.62195,7.21494 l 0.71273,0.0103 -0.51465,-1.16346 z m 35.81276,0.806 c 1.82535,-0.76268 3.75795,-3.87561 4.07727,-6.56743 l 0.1672,-1.40949 0.29232,1.46256 c 0.28375,1.41967 1.43478,3.74498 2.03846,4.11807 0.60963,0.37677 2.17407,-2.32178 2.48946,-4.29412 0.2122,-1.32703 -0.2671,-3.71862 -0.91533,-4.56726 -0.45552,-0.59636 -0.5212,-0.60955 -1.08137,-0.21719 -0.43489,0.30461 -0.76938,0.35196 -1.2352,0.17486 -0.72379,-0.27519 -0.7676,-0.21263 -1.1228,1.60329 l -0.23289,1.19063 -0.0329,-1.45521 c -0.0333,-1.47195 -0.44286,-2.65607 -0.97994,-2.83298 -0.45508,-0.1499 -2.36383,3.03482 -2.96655,4.94965 -0.29773,0.94588 -0.79508,2.67229 -1.10521,3.83645 -0.31013,1.16417 -0.7876,2.62269 -1.06104,3.24115 l -0.49717,1.12448 h 0.65507 c 0.3603,0 1.04007,-0.16086 1.51061,-0.35746 z m -78.5491,-0.56353 c 3.76667,-0.6712 5.37953,-1.74316 12.72255,-8.45588 1.60137,-1.46392 3.31512,-2.9958 3.80832,-3.40418 0.62144,-0.51456 0.81217,-0.82707 0.62127,-1.01797 -0.1909,-0.190897 -0.79146,0.12846 -1.95625,1.04028 -3.08769,2.4171 -9.03206,5.89252 -9.41818,5.5064 -0.27582,-0.27582 1.80641,-2.51169 3.57138,-3.83491 0.98163,-0.73593 3.00082,-1.89799 4.48709,-2.58233 1.48628,-0.684347 2.75687,-1.386417 2.82354,-1.560157 0.17408,-0.45363 -8.72083,2.989687 -12.0187,4.652567 -2.8588,1.44149 -5.79695,4.80585 -7.11308,8.1449 -0.85988,2.18153 -0.95681,2.12227 2.47206,1.51128 z m 122.65574,0.12198 c 0,-0.14841 -0.2835,-0.96753 -0.62999,-1.82027 -1.21127,-2.98093 -3.63594,-5.93443 -6.15284,-7.49479 -2.05661,-1.275 -13.107,-5.659707 -12.89925,-5.118327 0.0672,0.17521 1.33828,0.87847 2.82456,1.562817 1.48627,0.68434 3.50547,1.8464 4.4871,2.58233 1.76496,1.32322 3.84719,3.55909 3.57138,3.83491 -0.38612,0.38612 -6.3305,-3.0893 -9.41819,-5.5064 -1.16478,-0.91182 -1.76535,-1.231177 -1.95624,-1.04028 -0.1909,0.1909 -0.003,0.50341 0.61363,1.01797 0.489,0.40838 2.85759,2.51884 5.26353,4.68992 5.02675,4.53605 5.96042,5.2651 7.90033,6.16891 2.0146,0.9386 6.39598,1.70803 6.39598,1.12321 z m -60.94231,-3.84069 c 0.43866,-1.28741 0.26138,-1.91928 -1.16934,-4.16765 l -0.80602,-1.26665 -0.96142,1.53124 c -0.52878,0.84218 -1.0326,1.80992 -1.11961,2.15052 -0.22192,0.86875 0.35649,2.617 1.30095,3.93214 l 0.8006,1.11481 0.78576,-1.08471 c 0.43217,-0.59659 0.95825,-1.59095 1.16908,-2.2097 z m -6.30148,1.39849 c 1.43213,-2.50873 1.41837,-3.6739 -0.0707,-5.98511 -0.49528,-0.76875 -0.95688,-1.4541 -1.02578,-1.523 -0.0689,-0.0689 -0.61539,0.60865 -1.2144,1.50568 -0.92931,1.39166 -1.08774,1.83035 -1.07974,2.98987 0.005,0.74741 0.15398,1.60428 0.33073,1.90417 0.48557,0.82387 1.88467,2.49744 2.08787,2.49745 0.0985,0 0.53585,-0.62507 0.97198,-1.38906 z m 11.45675,-0.71325 c 1.20495,-1.8805 1.0398,-3.31263 -0.65366,-5.66855 l -0.92625,-1.28857 -0.95975,1.4455 c -1.54624,2.32881 -1.58017,4.06534 -0.12469,6.38312 0.79673,1.26875 0.81152,1.27739 1.35807,0.79375 0.30391,-0.26894 0.89173,-1.0183 1.30628,-1.66525 z m -15.74479,-3.00996 c -0.072,-0.58239 -0.58234,-1.69231 -1.20341,-2.61724 l -1.0784,-1.606 -0.69852,1.52576 c -1.05162,2.29706 -0.96025,3.98487 0.32014,5.91328 l 0.99267,1.49506 0.89626,-1.84981 c 0.69022,-1.42457 0.86752,-2.08228 0.77126,-2.86105 z m 20.27486,2.58959 c 0.76299,-1.48832 0.81662,-2.6257 0.2169,-4.60016 -0.30841,-1.01537 -0.66466,-1.91035 -0.79165,-1.98884 -0.127,-0.0785 -0.6748,0.50182 -1.21735,1.28957 -1.4028,2.0368 -1.4994,3.29986 -0.42758,5.5903 l 0.82808,1.76955 0.49,-0.62876 c 0.2695,-0.34582 0.67522,-0.99007 0.9016,-1.43166 z m -36.05587,0.36975 c 0.83124,-1.21955 0.93544,-1.57252 1.0211,-3.45865 0.0876,-1.92871 -0.32366,-4.44843 -0.72441,-4.43853 -0.0902,0.002 -0.3415,0.11624 -0.55837,0.25335 -0.2667,0.16862 -0.59353,0.11877 -1.00989,-0.15404 -0.82657,-0.54159 -1.25787,-0.16051 -1.76996,1.56387 -0.48048,1.61794 -0.49388,3.42272 -0.0349,4.70663 0.34035,0.95218 1.67027,2.887 1.98373,2.88605 0.0919,-2.7e-4 0.5836,-0.61169 1.09273,-1.35868 z m 8.35143,0.76387 c 0.10157,-0.32742 0.8892,-2.08359 1.75031,-3.9026 1.91088,-4.03659 2.21086,-5.10678 1.829,-6.52492 -0.20517,-0.761937 -0.5587,-1.230747 -1.28833,-1.708457 -0.98899,-0.64751 -1.01849,-0.65052 -1.78892,-0.18263 -0.43085,0.26165 -0.99171,0.47635 -1.24638,0.47712 -0.36418,10e-4 -0.46302,0.22911 -0.46302,1.06822 0,0.586757 -0.17833,1.493657 -0.3963,2.015327 -0.41089,0.9834 -0.69309,1.04722 -2.11724,0.47887 -0.49822,-0.19882 -0.50395,-0.18147 -0.0981,0.29671 0.76952,0.90656 1.27594,2.15257 1.81569,4.46741 0.86634,3.71549 1.56226,4.93657 2.00324,3.51495 z m 33.33521,-0.32443 c 0.21136,-0.50587 0.62256,-1.9416 0.91377,-3.19052 0.53975,-2.31484 1.04617,-3.56085 1.81569,-4.46741 0.40591,-0.47818 0.40017,-0.49553 -0.0981,-0.29671 -1.42414,0.56835 -1.70634,0.50453 -2.11723,-0.47887 -0.21797,-0.52167 -0.39631,-1.42857 -0.39631,-2.015327 0,-0.83911 -0.0988,-1.06713 -0.46302,-1.06822 -0.25466,-8e-4 -0.82021,-0.21956 -1.25677,-0.48621 -0.78424,-0.479 -0.80554,-0.47704 -1.7775,0.16326 -1.12335,0.74004 -1.35964,1.27302 -1.34041,3.023447 0.0106,0.96199 0.40307,2.07131 1.73189,4.89479 0.94502,2.00799 1.80032,3.91878 1.90068,4.2462 0.26073,0.85071 0.64405,0.73633 1.08726,-0.32443 z m -48.8555,-3.56518 c 2.28145,-1.16391 3.97975,-3.31221 3.98434,-5.04007 0.003,-1.2038 -0.30784,-1.37369 -1.44946,-0.79166 -0.5686,0.28989 -1.25186,0.52707 -1.51837,0.52707 -1.13991,0 -4.69522,4.16939 -4.69522,5.50618 0,0.62683 0.0522,0.64677 1.30482,0.49841 0.71765,-0.085 1.7859,-0.39997 2.37389,-0.69993 z m 66.96504,0.37334 c 0,-1.38984 -3.56456,-5.678 -4.71988,-5.678 -0.32608,0 -1.04964,-0.23302 -1.6079,-0.51783 -0.55827,-0.2848 -1.08931,-0.44355 -1.18009,-0.35278 -0.0908,0.0908 -0.16505,0.64077 -0.16505,1.22219 0,2.65851 3.50329,5.65549 6.68073,5.7152 0.72503,0.0136 0.99219,-0.0911 0.99219,-0.38878 z m -100.67527,-1.45801 c 2.93226,-0.42373 5.19298,-1.20174 10.71693,-3.68816 2.83766,-1.27727 6.05235,-2.637287 7.14375,-3.022267 2.95238,-1.04141 2.88397,-0.99419 1.85209,-1.278592 -1.53826,-0.42398 -2.133,-0.32979 -5.02709,0.796092 -2.84692,1.10753 -6.63188,2.023597 -7.72239,1.869047 -0.90669,-0.1285 3.0952,-2.143307 7.31808,-3.684388 1.88768,-0.68888 3.46839,-1.36125 3.5127,-1.49416 0.11587,-0.34762 -9.84276,1.37688 -11.86165,2.054039 -3.84792,1.290632 -6.93277,3.491069 -8.98324,6.407779 l -1.35094,1.92166 0.74633,0.16714 c 1.12062,0.25095 1.63198,0.24421 3.65543,-0.0482 z m 135.03888,-0.13082 c 0.191,-0.19101 -1.33572,-2.31636 -2.70062,-3.75955 -2.36824,-2.504057 -5.96187,-4.381869 -10.01901,-5.235318 -1.81407,-0.3816 -8.38195,-1.4443 -8.92631,-1.4443 -0.71909,0 -0.16772,0.53961 0.82432,0.80674 3.03169,0.81635 10.00592,3.884971 10.00592,4.402538 0,0.55006 -5.77286,-0.860907 -9.37206,-2.290657 -1.95789,-0.777762 -2.08395,-0.794552 -3.27739,-0.436592 -1.0209,0.306222 -1.14726,0.407442 -0.712,0.570342 3.81355,1.42725 5.70801,2.212747 9.40046,3.897687 6.39091,2.91629 10.35338,4.02303 13.3489,3.72841 0.72497,-0.0713 1.36747,-0.17898 1.42779,-0.2393 z m -71.1508,-1.77406 c 0.3243,-0.76399 0.65245,-2.11233 0.72924,-2.99632 0.13486,-1.552547 0.10023,-1.667177 -1.01736,-3.367479 -0.63634,-0.968119 -1.27605,-1.724389 -1.42157,-1.680599 -0.14552,0.0438 -0.547,0.58705 -0.89217,1.20725 -0.80944,1.454351 -1.04684,4.014358 -0.4948,5.335578 0.40247,0.96326 1.93947,2.89063 2.30515,2.89063 0.11104,0 0.46722,-0.62508 0.79151,-1.38906 z m 4.87646,0.29223 c 1.18539,-1.38485 1.57495,-2.56107 1.42942,-4.315907 -0.11414,-1.37639 -1.15985,-3.899391 -1.66557,-4.018551 -0.14552,-0.0343 -0.78547,0.72233 -1.4221,1.681369 -1.12055,1.688012 -1.15305,1.795282 -1.01737,3.357749 0.13728,1.58092 1.11535,4.39217 1.52809,4.39217 0.11478,0 0.63117,-0.49357 1.14753,-1.09683 z m -39.17673,0.54842 c 1.37623,-0.38216 3.76693,-2.67467 3.4816,-3.33861 -0.11313,-0.26323 -0.33628,-0.86556 -0.4959,-1.338497 -0.35011,-1.03734 -0.61406,-1.05744 -2.37128,-0.18059 -2.52055,1.257747 -3.94448,3.142627 -3.47989,4.606407 0.19571,0.61663 1.2248,0.70688 2.86547,0.25129 z m 28.89675,-1.62694 c 1.36035,-2.83859 1.28652,-3.856387 -0.43197,-5.954769 l -1.34768,-1.645599 -1.05309,1.57702 c -0.57921,0.867361 -1.16337,1.645171 -1.29816,1.728471 -0.4248,0.26255 -0.26848,1.18737 0.43866,2.595267 0.63016,1.25461 2.36033,3.61038 2.65162,3.61038 0.0687,0 0.53698,-0.85985 1.04062,-1.91077 z m 17.35253,-1.66111 c 0.41837,-0.87312 0.76077,-1.741407 0.76088,-1.929527 1.2e-4,-0.18811 -0.45546,-0.96202 -1.01239,-1.719792 -0.55693,-0.757769 -1.13331,-1.597029 -1.28085,-1.865019 -0.23699,-0.43048 -0.43367,-0.27937 -1.68786,1.296789 -1.74206,2.189282 -1.78956,2.940179 -0.37365,5.906499 l 0.96192,2.01522 0.93563,-1.05834 c 0.5146,-0.58208 1.27794,-1.7727 1.69632,-2.64583 z m 27.96254,2.59654 c 0.16487,-1.70227 -1.15792,-3.18065 -3.9512,-4.415977 l -1.46112,-0.64617 -0.48927,1.439387 -0.48926,1.43939 1.03793,1.08172 c 1.3144,1.36987 2.83997,2.09828 4.21293,2.01155 0.97958,-0.0619 1.06441,-0.12959 1.13999,-0.9099 z m -56.55885,-3.03554 c 0.16298,-0.60526 0.22678,-1.471167 0.14178,-1.924237 -0.15191,-0.80976 -0.13664,-0.82378 0.89728,-0.82378 1.45191,0 1.85158,-0.445282 1.24066,-1.382251 -0.25906,-0.39732 -0.7639,-1.33372 -1.12186,-2.0809 l -0.65085,-1.3585 -1.35211,0.39636 c -1.9662,0.57637 -5.81203,0.35941 -7.29795,-0.41172 -0.75699,-0.39285 -1.1784,-0.81306 -1.29958,-1.2959 -0.26937,-1.07325 0.25284,-3.10706 1.51517,-5.901001 1.95438,-4.325657 1.57672,-5.633479 -2.51489,-8.7088 -3.04726,-2.290371 -6.36813,-5.764319 -7.46447,-7.808561 l -0.82985,-1.547331 -0.18646,1.103667 c -0.3276,1.939078 0.38281,5.617445 1.51267,7.832326 0.29917,0.586464 1.3198,1.869969 2.26806,2.852234 0.94827,0.982266 1.66019,1.785938 1.58205,1.785938 -0.0781,0 -0.66321,-0.227761 -1.30018,-0.506137 -1.53415,-0.670484 -4.13277,-0.838814 -4.95016,-0.32066 -0.86706,0.549649 0.92327,3.734695 2.71262,4.825845 l 0.81485,0.49689 -1.05833,0.0036 c -1.13021,0.0038 -3.83646,1.113395 -3.83646,1.572969 0,0.151796 0.42429,0.745631 0.94286,1.319631 0.80745,0.89375 1.97104,1.52158 3.72914,2.01211 0.16851,0.047 -0.15472,0.58494 -0.71828,1.19539 -1.19547,1.29493 -1.79778,2.77538 -1.32192,3.24923 0.46578,0.46381 3.43947,0.33477 4.45781,-0.19344 l 0.87191,-0.45225 -0.57252,1.12224 c -1.07891,2.114831 -0.57219,5.227388 0.81851,5.027768 1.06825,-0.15334 2.714,-1.110957 3.63259,-2.113717 l 0.8599,-0.93868 0.001,1.04389 c 10e-4,1.0628 0.82026,2.763677 1.33117,2.763677 0.50175,0 1.69431,-0.72609 2.35622,-1.43458 l 0.64568,-0.691117 0.94182,0.896177 c 1.94353,1.84935 2.78238,1.95247 3.20213,0.39364 z m 38.12114,0.52124 c 0.56682,-0.31856 1.21498,-0.86065 1.44036,-1.20462 l 0.40978,-0.625407 0.94334,0.828257 c 0.51883,0.45554 1.22585,0.95699 1.57115,1.11431 0.8791,0.40055 1.56062,-0.27942 1.96356,-1.959067 l 0.31754,-1.32367 0.97911,0.95608 c 0.53852,0.52584 1.59382,1.189637 2.34512,1.475107 l 1.366,0.51904 0.38162,-0.59259 c 0.69209,-1.074697 0.76103,-2.371607 0.21244,-3.996568 -0.37461,-1.10966 -0.42018,-1.48402 -0.1689,-1.3876 2.07617,0.7967 4.87514,0.79921 4.87514,0.004 0,-0.71133 -0.71681,-2.11822 -1.58035,-3.10173 -0.60079,-0.68426 -0.7474,-1.00494 -0.49612,-1.08515 0.19617,-0.0626 0.81695,-0.25573 1.37949,-0.42915 1.1785,-0.3633 3.15013,-2.20213 3.02835,-2.824379 -0.11685,-0.597136 -1.83935,-1.422649 -3.4633,-1.659808 -0.75989,-0.110972 -1.23312,-0.216622 -1.05164,-0.234775 1.07161,-0.107199 3.48349,-3.262183 3.50068,-4.579242 0.0121,-0.929603 -2.81455,-1.079098 -4.96362,-0.262517 l -1.35246,0.513895 0.37698,-0.564552 c 0.20733,-0.310505 0.96617,-1.129898 1.6863,-1.820874 2.23879,-2.148144 3.3093,-5.224264 3.15376,-9.062429 l -0.0858,-2.116667 -0.92604,1.713347 c -1.09926,2.033844 -4.54553,5.636019 -7.40833,7.743494 -4.16813,3.068397 -4.47246,4.093729 -2.54028,8.558391 1.36561,3.155486 1.8457,5.105126 1.48846,6.044716 -0.13941,0.36669 -0.75134,0.91719 -1.38492,1.24592 -1.45486,0.75485 -5.22154,0.96934 -7.28159,0.41465 -1.26168,-0.33972 -1.39643,-0.33335 -1.52511,0.0721 -0.0776,0.2446 -0.56436,1.14754 -1.08161,2.00652 l -0.94045,1.561769 0.60354,0.488732 c 0.38311,0.31022 0.88191,0.44786 1.36572,0.37685 0.71829,-0.10542 0.75325,-0.0673 0.60725,0.66275 -0.21388,1.06937 0.32982,3.109717 0.82865,3.109717 0.21757,0 0.85934,-0.26064 1.42616,-0.57921 z m -56.32634,-1.479267 c 1.48159,-0.65538 3.27912,-2.249152 3.43064,-3.041751 0.11011,-0.57604 0.0473,-0.59527 -1.94446,-0.59527 -1.19394,0 -2.18555,-0.12729 -2.3614,-0.30314 -0.2278,-0.22781 -0.60476,-0.11187 -1.51675,0.4665 -0.66749,0.42331 -1.34126,0.769649 -1.49727,0.769649 -0.15601,0 -0.7351,0.30677 -1.28686,0.681702 -1.24195,0.84392 -1.21457,1.56551 0.0866,2.283397 1.14729,0.63299 3.32028,0.52151 5.08948,-0.261087 z m 78.14437,-0.0926 c 0.39268,-0.39268 0.59642,-0.82717 0.50257,-1.07176 -0.22093,-0.57573 -4.97711,-3.113301 -5.1996,-2.774141 -0.0972,0.14817 -1.13899,0.27744 -2.3151,0.28726 -2.53858,0.0212 -2.63153,0.19498 -1.01391,1.895671 2.26431,2.380587 6.44268,3.246337 8.02604,1.66297 z m -53.613,-1.48693 c -0.007,-0.10914 -0.33429,-0.814072 -0.7276,-1.566501 l -0.71513,-1.36806 -0.79375,0.65184 -0.79375,0.65185 1.05834,0.910719 c 0.96598,0.831242 2.0027,1.209862 1.97189,0.720152 z m 25.49693,-0.665402 1.01048,-0.855959 -0.79264,-0.75851 -0.79263,-0.75851 -0.81697,1.61841 c -0.81607,1.616621 -0.81631,1.618401 -0.21785,1.614471 0.32952,-0.002 1.05384,-0.38912 1.60961,-0.859902 z m -11.19695,-3.846599 c 0,-0.95671 -0.45791,-1.59246 -1.54728,-2.14821 -0.99896,-0.50963 -1.00193,-0.50953 -2.03665,0.0709 -1.98185,1.11169 -1.99307,1.93325 -0.0662,4.85055 l 1.0797,1.634661 1.28521,-1.895941 c 0.70686,-1.04276 1.2852,-2.17314 1.2852,-2.51194 z m -12.30021,1.77858 c 0.34218,-0.66664 0.70213,-1.91894 0.79987,-2.78289 0.16578,-1.4653 0.11949,-1.66449 -0.68909,-2.96523 l -0.86681,-1.39441 -1.16528,1.13459 -1.16527,1.13459 0.10894,1.98437 c 0.0805,1.46644 0.30314,2.3925 0.85299,3.54804 0.84079,1.766941 0.88668,1.752701 2.12465,-0.65906 z m 21.93296,0.0956 c 0.4924,-1.18123 0.686,-2.11774 0.686,-3.31835 0,-1.62747 -0.0315,-1.70358 -1.16494,-2.81598 l -1.16495,-1.14331 -0.42255,0.69134 c -0.23241,0.38024 -0.6066,0.99312 -0.83153,1.36196 -0.76568,1.25552 -0.11094,4.35412 1.41259,6.685159 0.48759,0.746032 0.61957,0.616232 1.48538,-1.460819 z m -15.87137,-1.37968 c 0.55222,-0.4583 0.54758,-2.442 -0.008,-3.61378 -0.4206,-0.88635 -2.01427,-2.48899 -2.47506,-2.48899 -0.44979,0 -2.12603,3.74779 -2.11639,4.7319 0.0109,1.10716 0.26111,1.59107 1.70412,3.29522 l 1.05203,1.242419 0.71299,-1.410009 c 0.39214,-0.77551 0.90099,-1.56605 1.13078,-1.75676 z m 11.28798,0.67055 c 1.05146,-1.40638 1.01217,-2.51694 -0.17287,-4.88569 -0.51939,-1.0382 -1.05102,-1.88763 -1.18142,-1.88763 -0.46078,0 -2.05446,1.60264 -2.47506,2.48899 -0.58894,1.2411 -0.55937,3.12936 0.0577,3.68784 0.2662,0.24091 0.76823,1.04486 1.11562,1.78655 l 0.63162,1.348539 0.62644,-0.753359 c 0.34454,-0.41435 0.9736,-1.2177 1.39792,-1.78524 z m -48.82617,1.67048 c 2.04317,-0.63107 3.5504,-1.91554 4.74928,-4.04733 l 0.72663,-1.29207 -2.87611,0.13945 c -3.51749,0.17055 -5.34131,0.70852 -6.76878,1.9966 -0.90601,0.81754 -1.79587,2.2216 -1.79587,2.83361 0,0.34525 1.8004,0.901729 2.94869,0.911409 0.67589,0.006 2.03317,-0.238049 3.01616,-0.541669 z m 87.58168,0.16539 0.92537,-0.38665 -0.41874,-1.00242 c -0.84456,-2.0218 -2.19613,-3.00273 -5.04886,-3.66433 -1.60701,-0.37269 -5.55629,-0.57325 -5.8333,-0.29624 -0.29541,0.29541 1.8392,3.33777 2.8176,4.0158 2.27193,1.574459 5.58336,2.158859 7.55793,1.33384 z m -106.85626,-0.95069 c 4.19769,-0.34564 10.01856,-1.16832 12.09189,-1.70898 0.8981,-0.2342 1.92984,-0.73134 2.43103,-1.17138 l 0.87072,-0.76451 -1.25936,-0.30212 c -1.06431,-0.25532 -1.66622,-0.21566 -3.88623,0.25608 -3.32655,0.70687 -11.36283,1.04392 -10.02595,0.42049 1.17535,-0.5481 4.31281,-1.13508 7.92825,-1.48328 1.74625,-0.16818 3.21496,-0.34515 3.26381,-0.39326 0.0488,-0.0481 -0.16857,-0.2252 -0.48314,-0.39356 -0.43098,-0.23065 -2.05056,-0.23411 -6.5711,-0.014 -7.19741,0.35037 -8.97555,0.58876 -12.03357,1.61329 -2.89932,0.97136 -6.86312,2.84228 -6.67311,3.14971 0.12467,0.20172 2.11852,0.59683 4.50544,0.89281 1.72481,0.21387 6.62674,0.16344 9.84132,-0.10125 z m 47.03858,-2.33418 c 0.10031,-0.59374 0.10928,-1.41235 0.0199,-1.81913 -0.14955,-0.68086 -0.24552,-0.73167 -1.20862,-0.63982 -0.57539,0.0549 -1.40529,-0.0254 -1.84421,-0.17844 -0.64058,-0.2233 -0.79806,-0.20497 -0.79806,0.0929 0,0.57949 1.19893,3.73838 1.72167,4.53618 l 0.47041,0.71794 0.72824,-0.81504 c 0.40575,-0.45412 0.809,-1.29308 0.91062,-1.89457 z m 29.54574,0.89263 c 0.44281,-0.94628 0.86885,-2.19567 0.94675,-2.77643 l 0.14163,-1.05592 -0.84691,0.29524 c -0.4658,0.16238 -1.31482,0.23247 -1.8867,0.15577 l -1.03978,-0.13947 v 1.41281 c 0,0.77704 0.12735,1.74776 0.283,2.15715 0.31677,0.83318 0.99851,1.67136 1.35941,1.67136 0.13061,0 0.59978,-0.77423 1.0426,-1.72051 z m 57.30926,1.16458 c 0.90951,-0.18217 1.65365,-0.42778 1.65365,-0.54578 0,-0.35166 -3.42279,-1.9677 -6.25722,-2.9543 -3.35514,-1.16785 -5.16208,-1.42276 -12.62942,-1.78167 -5.24187,-0.25194 -6.10653,-0.2388 -6.44326,0.0979 -0.34218,0.34218 -0.1551,0.41019 1.55642,0.56584 4.95839,0.45093 8.7717,1.1443 9.75056,1.77292 0.76835,0.49343 -7.86474,0.0352 -10.69666,-0.56777 -2.22086,-0.47286 -2.8215,-0.51261 -3.88622,-0.25719 l -1.25937,0.30212 0.87305,0.76654 c 1.34563,1.18148 5.36309,1.99092 14.30774,2.88272 3.10621,0.30969 10.92242,0.14092 13.03073,-0.28136 z m -115.03884,-4.33827 c 0.64866,-0.0862 1.70956,-0.39122 2.35756,-0.67786 l 1.17817,-0.52117 -0.54067,-0.59141 c -0.29737,-0.32527 -0.72728,-0.96101 -0.95536,-1.41275 -0.3374,-0.668284 -0.70387,-0.902485 -1.96653,-1.25677 -0.85352,-0.239485 -1.93397,-0.435428 -2.40101,-0.435428 -1.39534,0 -3.80423,0.992751 -4.7824,1.970918 -0.80846,0.80846 -0.86637,0.95716 -0.531,1.36334 0.51093,0.61879 2.42347,1.4386 3.91408,1.67776 1.21323,0.19466 1.43692,0.18766 3.72716,-0.11663 z m 89.57213,-0.69011 c 1.8342,-0.91604 1.92663,-1.14193 0.89017,-2.17538 -0.9809,-0.978031 -3.47731,-2.031652 -4.80213,-2.026757 -1.49706,0.0055 -3.73279,0.736639 -4.21206,1.377392 -0.24841,0.332115 -0.6949,0.920325 -0.99218,1.307145 -0.29729,0.38682 -0.54053,0.78047 -0.54053,0.87478 0,0.36979 2.48909,1.24429 4.04588,1.42146 2.1471,0.24434 4.10716,-0.0277 5.61085,-0.77864 z m -46.70561,-0.75797 c 0.40384,-0.43231 0.86819,-1.3179 1.03188,-1.967983 0.32309,-1.283118 0.16836,-1.961459 -0.80765,-3.540673 -0.49431,-0.799808 -0.58102,-0.841105 -0.98963,-0.47132 -0.38836,0.351464 -0.51864,0.355706 -0.98089,0.03193 -0.49307,-0.345355 -0.58622,-0.291362 -1.24186,0.719773 -1.11489,1.719418 -0.9027,3.765863 0.54816,5.286693 0.89155,0.93455 1.52662,0.91935 2.43999,-0.0584 z m -3.94308,-0.7653 c -0.69988,-1.371876 -0.69677,-2.9399 0.009,-4.322491 0.52501,-1.02912 0.5611,-2.649037 0.0765,-3.43318 -0.18656,-0.301861 -2.16836,2.057876 -2.64292,3.146935 -0.20405,0.468271 -0.371,1.31335 -0.371,1.877955 0,0.910971 0.18021,1.198446 1.60048,2.553161 0.88026,0.83963 1.66248,1.4646 1.73825,1.38883 0.0758,-0.0758 -0.10866,-0.62082 -0.40986,-1.21121 z m -10.12791,0.29455 c 2.12676,-1.429269 3.81567,-3.913805 4.93279,-7.256543 0.92746,-2.775236 0.85227,-3.180093 -0.27938,-1.504391 -1.30002,1.925015 -3.46155,4.129886 -4.65372,4.74704 -1.82964,0.947148 -3.44399,0.427501 -4.17815,-1.344919 -0.42737,-1.03177 -0.83201,-0.898962 -1.27394,0.418129 -0.89414,2.664814 0.91336,5.661964 3.41735,5.666554 0.60234,10e-4 1.3503,-0.26568 2.03505,-0.72587 z m 16.99366,-0.49333 c 2.10721,-1.971047 2.06481,-3.446023 -0.18124,-6.30533 -1.07695,-1.370984 -1.26164,-1.506987 -1.43722,-1.058333 -0.37109,0.948237 -0.24349,2.510795 0.29051,3.557518 0.65931,1.29236 0.66431,2.019909 0.0254,3.701325 -0.27706,0.72917 -0.39102,1.32576 -0.25325,1.32576 0.13778,0 0.83788,-0.54942 1.55578,-1.22094 z m 12.53144,0.71005 c 1.56289,-0.96787 2.34708,-3.436827 1.68022,-5.290072 -0.42861,-1.191141 -0.83789,-1.28448 -1.2517,-0.285461 -1.39441,3.366402 -5.05774,1.984571 -8.70612,-3.284004 -1.30512,-1.884711 -1.3851,-1.437269 -0.30025,1.679713 1.15555,3.320114 3.74784,6.812494 5.56637,7.499094 0.83928,0.31688 2.22074,0.17042 3.01148,-0.31927 z m -23.66554,-2.548859 c 1.37013,-3.059985 1.62299,-4.763839 0.941,-6.340769 -0.24989,-0.577789 -0.49017,-0.931463 -0.53397,-0.785942 -0.0438,0.145521 -0.32303,1.098021 -0.62051,2.116667 -0.29749,1.018646 -1.03846,2.676067 -1.6466,3.683156 l -1.1057,1.831073 0.6266,1.147044 c 0.34463,0.63088 0.74777,1.10741 0.89586,1.05896 0.14809,-0.0484 0.79759,-1.26803 1.44332,-2.710189 z m 16.43241,1.637049 0.61437,-1.15811 -0.82888,-1.291702 c -1.07744,-1.679046 -1.92998,-3.604339 -2.32725,-5.255614 l -0.31827,-1.322917 -0.42791,0.983689 c -0.23535,0.541031 -0.42791,1.460664 -0.42791,2.043634 0,1.4591 2.29226,7.15914 2.87903,7.15914 0.12234,0 0.49891,-0.52115 0.83682,-1.15812 z m -61.95501,0.4009 c 2.12321,-0.14438 2.53599,-0.24939 2.85069,-0.7252 0.36496,-0.55181 0.33806,-0.559043 -3.27646,-0.881205 -3.88739,-0.34648 -9.43033,-1.220663 -10.09367,-1.591884 -0.66496,-0.372132 2.93638,-0.630733 6.04467,-0.434049 1.55237,0.09823 4.18346,0.452725 5.84686,0.78777 2.554,0.514432 3.1465,0.5579 3.80966,0.279495 0.77858,-0.326863 0.76616,-0.335454 -1.45521,-1.006432 -7.44924,-2.250078 -14.249,-3.333576 -20.9702,-3.341466 -2.60155,-0.003 -7.25787,0.45879 -7.82492,0.776126 -0.25797,0.14437 0.34012,0.604176 1.98,1.522196 7.38538,4.134409 13.16455,5.289469 23.08858,4.614649 z m 117.19197,-0.42462 c 3.76835,-0.740852 8.69862,-2.734551 12.31779,-4.981059 1.28138,-0.795383 1.1184,-0.868982 -2.81296,-1.270281 -6.67918,-0.681783 -15.59157,0.28878 -23.61076,2.571229 -4.28728,1.220259 -4.10051,1.128882 -3.23894,1.584661 0.58316,0.308504 0.94667,0.327681 1.80911,0.09545 1.87797,-0.505685 5.10932,-1.008049 7.71377,-1.199229 2.77165,-0.203451 6.8892,0.06893 6.26821,0.414652 -0.86189,0.479838 -10.82188,1.848615 -13.45817,1.849523 l -0.64143,2.22e-4 0.61156,0.650982 c 0.52238,0.55604 0.90533,0.66662 2.62581,0.75818 3.85646,0.20524 10.19012,-0.0367 12.41601,-0.47433 z m -102.25503,-2.945538 1.24205,-0.423209 -0.7861,-0.89532 c -0.43236,-0.49243 -0.92201,-1.348923 -1.08811,-1.903323 l -0.30201,-1.007999 -1.62815,-0.0024 c -0.89549,-0.0013 -2.41298,-0.10087 -3.3722,-0.221361 -2.09403,-0.262941 -3.67992,0.133223 -3.67992,0.919363 0,0.64728 1.43589,2.277449 2.48667,2.823112 2.15831,1.120807 5.07221,1.411518 7.12777,0.711118 z m 80.48674,0.01471 c 1.96616,-0.509328 3.31741,-1.383342 4.10243,-2.653527 0.58402,-0.944981 0.58839,-0.994069 0.11891,-1.337363 -0.82036,-0.599861 -2.22407,-0.716383 -4.51827,-0.375063 -1.20589,0.179406 -2.54861,0.247983 -2.98384,0.152392 -0.74525,-0.163684 -0.82409,-0.09968 -1.35442,1.099653 -0.30971,0.7004 -0.86406,1.587728 -1.2319,1.97184 l -0.66878,0.698386 1.14599,0.405204 c 1.50068,0.530622 3.43671,0.544441 5.38988,0.03848 z m -89.18152,-0.955508 c -0.52296,-0.459166 -1.17611,-1.276406 -1.45143,-1.81609 -0.49098,-0.962398 -0.54786,-0.989726 -2.96098,-1.422656 -3.80501,-0.682644 -8.06856,-1.938253 -10.39788,-3.062166 -1.86042,-0.897668 -2.01539,-1.02403 -1.28004,-1.043816 1.97441,-0.05313 8.56407,1.631659 12.505,3.197164 1.47922,0.587608 2.1139,0.725245 2.43103,0.527191 0.23605,-0.147413 0.9414,-0.405953 1.56745,-0.57453 l 1.13827,-0.306504 -1.10637,-0.495332 c -1.81995,-0.814824 -8.92049,-3.411683 -12.7418,-4.660024 -7.7225,-2.522784 -12.56868,-3.52843 -17.01219,-3.530253 l -2.59239,-0.0011 0.77782,1.130536 c 1.54271,2.242248 4.49752,4.512191 7.79578,5.988868 2.76436,1.237641 5.5808,2.067134 13.01536,3.833243 3.92906,0.933366 7.97719,1.989254 8.99583,2.346415 2.43336,0.853197 2.41632,0.854634 1.31654,-0.11099 z m 102.66471,-2.187538 c 3.4925,-0.818388 7.5007,-1.842675 8.90711,-2.276197 5.06448,-1.561108 10.02392,-4.596594 11.85265,-7.254558 0.44208,-0.642541 0.80378,-1.236099 0.80378,-1.319022 0,-0.247552 -4.75246,-0.160555 -6.74687,0.12351 -4.6902,0.668023 -14.03333,3.47916 -22.41735,6.744872 -3.56212,1.387502 -4.48201,1.976687 -3.08619,1.976687 0.28968,0 0.88012,0.182766 1.31209,0.406143 0.74572,0.38563 0.9136,0.358129 3.32327,-0.544399 4.76097,-1.783191 12.5338,-3.59664 12.5338,-2.924209 0,0.673579 -7.7987,3.258031 -12.07153,4.000442 l -2.67882,0.465452 -0.44676,1.0126 c -0.24571,0.556932 -0.87538,1.365914 -1.39927,1.797741 l -0.9525,0.785138 2.35829,-0.75311 c 1.29707,-0.414211 5.2158,-1.422699 8.7083,-2.24109 z m -67.44757,0.406789 c 1.3091,-0.798288 2.38547,-3.839866 1.85139,-5.231638 -0.14057,-0.366319 -0.34158,-0.176795 -0.95891,0.904105 -0.89122,1.56047 -2.31076,2.64764 -3.76379,2.882535 -1.3285,0.214759 -1.40757,0.442142 -0.43757,1.258342 0.97652,0.821688 2.15818,0.888347 3.30888,0.186656 z m 25.49152,-0.186656 c 0.92319,-0.776809 0.85343,-1.166508 -0.20881,-1.166508 -1.20533,0 -3.09338,-1.399985 -3.97878,-2.950268 -0.62964,-1.102445 -0.83198,-1.294858 -0.9736,-0.925799 -0.27063,0.705253 0.0779,2.690236 0.67938,3.869225 0.9615,1.884709 3.00165,2.418823 4.48181,1.17335 z m -13.37785,-0.585417 c 0.97421,-1.405776 0.91736,-2.522426 -0.20907,-4.106767 -0.89682,-1.261404 -0.90996,-1.268463 -1.22993,-0.660612 -0.17788,0.337926 -0.60339,0.950971 -0.94557,1.362319 -0.34219,0.411345 -0.62215,0.982805 -0.62215,1.26991 0,1.018601 1.34436,3.141559 1.9894,3.141559 0.17593,0 0.63373,-0.452885 1.01732,-1.006409 z m -4.23602,-2.830049 c 1.67,-2.091185 1.93957,-2.875013 1.47834,-4.298564 -0.37744,-1.164934 -1.83146,-4.13149 -1.95881,-3.996439 -0.23833,0.252746 -1.9836,5.794111 -2.13355,6.774178 -0.13311,0.869979 -0.04,1.397926 0.41068,2.328915 0.32054,0.662146 0.61463,1.167924 0.65354,1.123947 0.0389,-0.04397 0.73632,-0.913392 1.5498,-1.932037 z m 8.37595,1.124479 c 0.31219,-0.512043 0.52749,-1.341538 0.53221,-2.050521 0.008,-1.177679 -1.78349,-7.408334 -2.12992,-7.408334 -0.25342,0 -1.80281,3.428167 -2.00397,4.433965 -0.25086,1.254297 0.0161,1.934157 1.47712,3.761877 0.73035,0.913654 1.32791,1.765076 1.32791,1.892049 0,0.442778 0.27605,0.224806 0.79665,-0.629036 z m -43.77182,-0.191601 c 0.14176,-0.141761 0.71972,-0.417687 1.28436,-0.613169 l 1.02661,-0.355423 -2.35592,-1.783355 c -1.29576,-0.980845 -3.42749,-2.301857 -4.73718,-2.935584 -2.4433,-1.182251 -5.46378,-2.30518 -5.66345,-2.105507 -0.0617,0.06168 0.38589,1.117241 0.9946,2.345677 1.23127,2.484816 2.99063,4.45034 4.66395,5.210485 1.15745,0.525798 4.3406,0.683308 4.78703,0.236876 z m 82.02415,-0.282522 c 1.59918,-0.774152 3.34502,-2.770074 4.59151,-5.24923 1.25802,-2.50208 1.17466,-2.579664 -1.63531,-1.521995 -3.31355,1.247217 -5.7066,2.614578 -8.65594,4.945896 l -1.42968,1.130097 1.30428,0.595728 c 1.75548,0.801814 4.2851,0.845023 5.82514,0.0995 z m -49.37025,-4.34789 c 0.41932,-1.1029 0.31087,-2.278542 -0.33995,-3.685405 l -0.60025,-1.29752 -0.71231,0.846529 c -1.00169,1.19044 -1.34703,2.704116 -1.14052,4.998969 0.25702,2.856035 0.32488,2.913679 1.4993,1.273623 0.56464,-0.788512 1.14682,-1.749801 1.29373,-2.136196 z m 14.60063,0.125658 c 0.0517,-2.288249 -0.31941,-3.636211 -1.2389,-4.50003 l -0.64835,-0.609092 -0.52879,1.165497 c -0.58596,1.291527 -0.69868,3.138832 -0.24573,4.027165 0.16207,0.317855 0.72439,1.212797 1.2496,1.988757 l 0.95492,1.41084 0.20621,-0.749382 c 0.11342,-0.412157 0.22639,-1.642348 0.25104,-2.733755 z m -44.86957,1.297007 c -0.35521,-0.640594 -1.06502,-2.627326 -1.57734,-4.41496 -1.15867,-4.042884 -1.74697,-5.231911 -3.4494,-6.971699 -1.24209,-1.269334 -3.96284,-2.860419 -4.30545,-2.517807 -0.0808,0.08076 -0.14529,1.19431 -0.14338,2.474547 0.006,3.841316 1.46809,6.566221 5.09766,9.498778 1.73088,1.398492 4.76336,3.356255 4.93414,3.185475 0.0493,-0.04929 -0.20101,-0.613741 -0.55623,-1.254334 z m 73.76245,0.249822 c 2.72103,-1.616533 6.05926,-4.929537 7.10266,-7.048977 0.72792,-1.478613 0.8593,-2.05809 0.936,-4.128225 0.0491,-1.324493 -0.0182,-2.565752 -0.14942,-2.758353 -0.37531,-0.550738 -2.58619,0.617173 -4.19149,2.214182 -1.71716,1.70828 -2.45696,3.176643 -3.52656,6.999544 -0.46823,1.67349 -1.18544,3.667787 -1.5938,4.431771 -0.40837,0.763985 -0.67157,1.389063 -0.58489,1.389063 0.0867,0 0.99006,-0.494551 2.0075,-1.099005 z m -85.59329,-0.819224 c -0.413,-0.625714 -1.36517,-1.256202 -3.49628,-2.315105 -4.47654,-2.224291 -8.17335,-4.780047 -10.86114,-7.508761 -1.29382,-1.313529 -2.2162,-2.433643 -2.0497,-2.489139 0.60194,-0.20065 3.97556,1.973733 9.12361,5.880407 2.88834,2.191861 5.47447,4.146105 5.74694,4.342765 0.46105,0.332764 0.45468,0.244568 -0.0917,-1.271566 -0.52472,-1.455984 -0.84021,-1.847935 -2.96837,-3.6878 -1.30969,-1.132266 -4.26763,-3.864462 -6.5732,-6.071548 -5.39388,-5.163473 -10.04685,-8.673486 -12.18778,-9.193964 l -0.7693,-0.187028 0.16002,2.883421 c 0.31795,5.728907 1.73237,8.303673 6.67026,12.142317 3.27748,2.547874 6.24977,4.324728 10.03534,5.999205 2.48514,1.099259 6.2197,2.298779 7.23115,2.322608 l 0.59775,0.01408 -0.56758,-0.859896 z m 99.58792,-0.100457 c 5.71064,-1.845509 12.24912,-5.704163 16.20083,-9.560862 2.09283,-2.042502 3.06205,-3.649782 3.70707,-6.147536 0.45496,-1.761747 0.67983,-6.149137 0.33304,-6.497982 -0.32105,-0.322963 -3.3688,1.345793 -5.77959,3.164547 -1.24776,0.941334 -4.68237,3.977505 -7.63247,6.747044 -2.95011,2.76954 -5.99215,5.545487 -6.76009,6.168771 -1.04989,0.852118 -1.51341,1.461424 -1.86847,2.456162 -0.25971,0.727604 -0.53518,1.496883 -0.61215,1.70951 -0.077,0.212627 1.16092,-0.62081 2.75087,-1.852083 5.79729,-4.489477 8.75615,-6.611933 10.52343,-7.548709 0.99296,-0.526335 1.87623,-0.886129 1.96282,-0.799544 0.30088,0.300884 -4.84007,5.062477 -7.07702,6.554796 -1.23777,0.82574 -3.73892,2.278253 -5.55812,3.227808 -2.4117,1.258813 -3.43661,1.944777 -3.78375,2.532446 -0.46801,0.792274 -0.46677,0.805984 0.0729,0.805984 0.30196,0 1.88627,-0.432159 3.52069,-0.960352 z M 259.8072,72.348518 c 0.64541,-1.24809 0.51196,-2.086962 -0.49164,-3.090569 -0.49477,-0.494771 -1.11985,-0.895622 -1.38907,-0.89078 -1.08489,0.0195 -2.62886,1.971034 -2.33772,2.954805 0.099,0.334548 0.65887,1.412846 1.24414,2.396218 l 1.06413,1.787954 0.75111,-1.184376 c 0.41311,-0.651407 0.93468,-1.53937 1.15905,-1.973252 z m -11.82249,-0.796641 c 0.21308,-0.573683 0.0303,-0.849476 -1.69698,-2.559987 -2.07754,-2.057413 -2.59787,-2.354921 -3.52126,-2.013336 -0.5513,0.203941 -0.51723,0.252733 0.49534,0.709335 1.23527,0.55703 1.92593,1.548979 2.37766,3.414884 0.17167,0.709057 0.62821,1.899682 1.01454,2.645834 l 0.70242,1.356635 0.19474,-1.455208 c 0.1071,-0.800365 0.30219,-1.744536 0.43354,-2.098157 z m 21.57633,1.369015 c 0.36311,-0.981419 0.79392,-2.287286 0.95735,-2.901926 0.30809,-1.158642 1.36416,-2.191409 2.66133,-2.602614 l 0.66146,-0.209679 -0.66146,-0.19153 c -1.16117,-0.336222 -1.26685,-0.280103 -3.40749,1.809377 l -2.10393,2.053657 0.37446,1.443587 c 0.20596,0.793975 0.37446,1.722327 0.37446,2.063004 0,1.004729 0.43775,0.444498 1.14382,-1.463876 z m -55.60862,-0.395338 c -1.2145,-1.62823 -1.76017,-2.662645 -2.00514,-3.801131 -0.12099,-0.562327 -0.54956,-1.091821 -1.34755,-1.664896 -1.92513,-1.382519 -6.96754,-6.358451 -8.21519,-8.106876 -1.20817,-1.693103 -2.92048,-5.073063 -2.68788,-5.30566 0.34055,-0.340556 3.84955,3.416575 7.65163,8.192704 l 4.18352,5.255284 -1.8e-4,-1.418826 c -1.5e-4,-1.270632 -0.19399,-1.759169 -1.8558,-4.677264 -4.08322,-7.170003 -8.37039,-12.918473 -13.03369,-17.47627 -1.44977,-1.416965 -1.74679,-1.606185 -1.86894,-1.190625 -0.78193,2.660198 -0.93704,8.064678 -0.30304,10.558804 1.25086,4.920872 7.08801,12.357974 13.28215,16.922777 1.62119,1.194745 6.50664,3.984244 7.1615,4.08908 0.0411,0.0066 -0.39153,-0.613116 -0.96139,-1.377101 z m 89.26883,0.218438 c 3.11672,-1.440016 5.81615,-3.467889 9.53611,-7.16375 4.91865,-4.886788 7.32424,-8.340175 8.47807,-12.170834 0.5894,-1.956787 0.65381,-7.068005 0.12287,-9.749605 l -0.35879,-1.812108 -2.50144,2.473566 c -4.54349,4.492856 -8.57933,9.9992 -12.76972,17.422522 -1.07665,1.907302 -1.44769,2.848568 -1.53839,3.902605 -0.0657,0.763984 -0.0554,1.389062 0.0229,1.389062 0.0784,0 2.11291,-2.485668 4.52124,-5.523706 3.76686,-4.751782 5.84767,-6.995467 7.24114,-7.807921 0.77736,-0.453239 -1.2863,3.619754 -2.96652,5.854941 -1.24801,1.660218 -5.81673,6.068761 -7.80322,7.529642 -0.59722,0.439204 -1.14607,1.099416 -1.24027,1.491922 -0.26636,1.109869 -1.13571,2.721703 -2.12787,3.945226 -0.50152,0.618464 -0.83655,1.12448 -0.74451,1.12448 0.092,0 1.0498,-0.407721 2.12836,-0.906042 z M 253.57441,68.62295 c 0.0212,-1.349396 -0.7815,-2.885869 -2.17696,-4.167187 -2.19875,-2.018901 -2.24103,-1.431298 -0.18714,2.601187 0.71015,1.394275 1.3822,3.001619 1.49344,3.571875 l 0.20225,1.036834 0.32695,-1.058334 c 0.17982,-0.582083 0.33348,-1.475052 0.34146,-1.984375 z m 11.22093,-1.719792 c 1.91258,-3.739626 1.91147,-4.191976 -0.007,-2.802355 -1.17793,0.853289 -2.45669,3.104354 -2.45669,4.324641 0,0.416311 0.14087,1.31567 0.31305,1.998573 l 0.31304,1.241642 0.3098,-1.190625 c 0.17038,-0.654844 0.85783,-2.262188 1.52765,-3.571876 z m -13.84555,2.394234 c 0.20056,-0.527508 0.0826,-0.920724 -0.63229,-2.107936 -0.48337,-0.802703 -1.02842,-1.820577 -1.21124,-2.261941 -0.26127,-0.630762 -0.49539,-0.802482 -1.09405,-0.802482 -0.52345,0 -0.76165,0.133091 -0.76165,0.425559 0,0.331896 -0.16015,0.385575 -0.72761,0.243895 -0.6053,-0.151127 -0.44898,0.07075 0.93,1.320009 0.91168,0.825921 1.96479,2.025857 2.34024,2.666522 0.37546,0.640667 0.73381,1.164849 0.79635,1.164849 0.0625,0 0.22464,-0.291814 0.36025,-0.648475 z m 15.35077,-0.842156 c 0.50932,-0.816144 1.46182,-1.910003 2.11666,-2.430796 1.77615,-1.41256 1.78528,-1.42386 0.99219,-1.227987 -0.56665,0.139944 -0.7276,0.08556 -0.7276,-0.245861 0,-0.290232 -0.23683,-0.425559 -0.74475,-0.425559 -0.6002,0 -0.83645,0.192567 -1.21726,0.992188 -0.25988,0.545703 -0.82387,1.513282 -1.25329,2.150176 -0.59791,0.886772 -0.74167,1.336045 -0.6138,1.918229 0.0918,0.418132 0.24681,0.758727 0.34439,0.756875 0.0976,-0.0019 0.59413,-0.671121 1.10346,-1.487265 z M 239.54543,67.05839 c 0.42391,-0.301853 1.36286,-0.700355 2.08657,-0.885566 l 1.31583,-0.336746 -0.96119,-1.116021 c -0.94119,-1.092805 -0.98227,-1.110199 -1.97466,-0.836189 -0.55741,0.153908 -1.44601,0.676225 -1.97466,1.160701 -0.79783,0.731152 -0.9579,1.053894 -0.94183,1.898893 0.0107,0.559917 0.16683,1.375217 0.34706,1.81178 l 0.32768,0.79375 0.50223,-0.970891 c 0.27622,-0.533993 0.84906,-1.217862 1.27297,-1.519711 z m 8.12551,0.902567 c -0.27025,-1.076756 -1.5327,-2.296414 -3.18713,-3.079102 -0.87938,-0.416022 -1.75581,-0.756499 -1.94762,-0.756613 -0.65877,-2.64e-4 0.70125,1.507038 2.75255,3.050887 1.10065,0.828379 2.07811,1.701155 2.17212,1.939502 0.15095,0.382683 0.18233,0.376767 0.26833,-0.05059 0.0536,-0.266173 0.0273,-0.763011 -0.0583,-1.104088 z m 24.4798,-2.224418 c 0.85913,-0.787162 1.50936,-1.483902 1.44496,-1.548313 -0.22248,-0.222472 -2.71796,0.747922 -3.60352,1.401271 -1.06315,0.784368 -1.71686,1.782276 -1.97677,3.017634 l -0.1915,0.910222 1.38238,-1.174806 c 0.76031,-0.646144 2.08532,-1.818846 2.94445,-2.606008 z m 6.5733,1.206307 c 0.0148,-1.266314 -1.20864,-2.61411 -2.77861,-3.060962 -1.03619,-0.294923 -1.05513,-0.287176 -2.03689,0.832625 l -0.99097,1.130316 0.93343,0.196091 c 1.83309,0.385085 3.32162,1.475906 3.8845,2.846618 l 0.27162,0.661458 0.35249,-0.79375 c 0.19387,-0.436563 0.35787,-1.252141 0.36443,-1.812396 z m -21.78842,0.5622 c -0.38163,-1.908162 -2.27584,-3.644596 -3.97574,-3.644596 h -0.693 l 0.51234,0.992188 c 0.88353,1.711049 2.64695,3.164877 4.22785,3.485599 0.0546,0.01106 0.0224,-0.363865 -0.0714,-0.833191 z m 4.71548,-0.671568 c 0.47845,-0.492591 1.13261,-1.363036 1.4537,-1.934324 l 0.58378,-1.038704 h -0.70455 c -1.70509,0 -3.60436,1.729968 -3.98417,3.629025 l -0.16755,0.83775 0.97444,-0.299063 c 0.53594,-0.164487 1.3659,-0.702094 1.84435,-1.194684 z m -15.0107,-2.989559 c -0.12771,-0.488371 -0.0577,-0.527026 0.66654,-0.367959 0.77177,0.169508 0.80106,0.145127 0.63249,-0.526505 -0.16005,-0.637707 -0.12759,-0.677936 0.34354,-0.425791 0.78415,0.419661 1.08425,0.338918 1.08425,-0.291722 0,-0.52129 0.0397,-0.535368 0.46302,-0.164198 1.429,1.252943 3.99603,1.736104 5.34846,1.006674 l 0.65211,-0.351708 -1.09138,-0.322247 c -0.87942,-0.259662 -1.95961,-0.851858 -2.9652,-1.625626 -0.0586,-0.04509 0.20929,-0.330409 0.59531,-0.634053 0.84212,-0.662411 0.88451,-0.992317 0.16185,-1.259644 -0.52691,-0.194919 -0.5237,-0.215072 0.13229,-0.831345 0.90289,-0.848217 0.84648,-1.082614 -0.1876,-0.7796 -0.47295,0.138583 -2.77994,0.382164 -5.12665,0.54129 -3.71423,0.251854 -4.54897,0.232135 -6.44612,-0.152276 -1.19865,-0.242877 -2.22945,-0.391506 -2.29067,-0.330285 -0.18153,0.181528 0.41628,2.549676 0.87083,3.449686 0.55101,1.090999 1.37847,1.984862 2.26384,2.44552 0.92892,0.483314 1.00533,0.471654 1.00533,-0.153408 0,-0.496748 0.0823,-0.48413 1.52135,0.233365 1.33214,0.664173 2.075,0.99205 2.41211,1.064641 0.0534,0.01148 0.0328,-0.224676 -0.0457,-0.524809 z m -5.18806,-3.380788 c -0.524,-0.979106 -0.35366,-1.101487 1.49874,-1.076735 1.64524,0.02199 1.71298,0.04452 0.85989,0.286147 -0.50932,0.144256 -1.18375,0.501896 -1.49873,0.794758 l -0.57269,0.532474 z m -7.69553,3.265027 c 0.88025,-0.503197 2.74575,-0.495615 3.7335,0.01516 0.6597,0.341143 0.96476,0.357928 1.7728,0.09755 0.53679,-0.172974 1.07424,-0.370956 1.19433,-0.43996 0.42906,-0.246549 -1.04063,-1.45588 -2.6695,-2.196589 -1.10327,-0.5017 -1.80848,-1.016918 -2.10926,-1.541 -0.51631,-0.899623 -1.46388,-1.188958 -2.71691,-0.829593 -1.13545,0.325642 -1.52019,0.684234 -1.72252,1.605413 -0.22383,1.019087 0.0465,2.177465 0.70297,3.012001 0.60314,0.766775 0.88308,0.809508 1.81459,0.277008 z m 0.52916,-2.003774 c 0,-0.678034 0.87573,-0.601115 1.00855,0.08858 0.0611,0.3175 -0.0813,0.459983 -0.45998,0.459983 -0.37864,0 -0.54857,-0.169923 -0.54857,-0.548566 z m 37.24011,1.339456 1.38906,-0.739995 v 0.622247 c 0,0.574577 0.06,0.601337 0.78294,0.349311 1.69157,-0.589682 2.80325,-2.38814 3.31176,-5.35768 0.16782,-0.980033 0.14741,-1.019948 -0.43798,-0.856507 -2.32994,0.650505 -4.63628,0.780638 -8.65303,0.488241 -2.29823,-0.167296 -4.49549,-0.424659 -4.88281,-0.571918 -0.82909,-0.315219 -0.89681,-0.04815 -0.20456,0.806744 0.45994,0.568005 0.46519,0.643879 0.0661,0.954757 -0.39161,0.305083 -0.36017,0.403063 0.32531,1.013928 0.73,0.650534 0.74005,0.691293 0.26459,1.073444 -0.73082,0.587385 -2.53829,1.414066 -3.10632,1.420728 -0.40626,0.0048 -0.43719,0.07597 -0.17185,0.395684 0.80869,0.97441 3.59773,0.675841 5.23133,-0.56002 0.83193,-0.62938 0.8599,-0.632888 0.8599,-0.107902 0,0.601639 0.30823,0.679492 1.07195,0.270761 0.46528,-0.24901 0.48564,-0.213084 0.24218,0.42726 -0.26129,0.687255 -0.25038,0.696235 0.64249,0.528733 0.83268,-0.156213 0.89595,-0.123198 0.76002,0.396613 -0.12964,0.495721 -0.0686,0.543033 0.48576,0.376288 0.34873,-0.104897 1.25913,-0.523722 2.02312,-0.930717 z m 2.18281,-2.369939 c 0,-0.140875 -0.32742,-0.433764 -0.7276,-0.650867 l -0.72761,-0.39473 1.2511,-0.01058 c 1.23966,-0.0105 1.24834,-0.0046 0.94972,0.650864 -0.29865,0.655453 -0.74561,0.898428 -0.74561,0.405316 z m 4.55695,3.00373 c 1.07165,-0.554173 3.05902,-0.546209 4.14741,0.01662 0.9768,0.505124 1.37418,0.319846 2.02871,-0.945873 1.01251,-1.95798 0.057,-3.887248 -2.04248,-4.123886 -1.13806,-0.128278 -1.26962,-0.07537 -2.10793,0.84772 -0.49177,0.541494 -1.48943,1.282412 -2.21703,1.646484 -0.72761,0.364074 -1.65718,0.97564 -2.06572,1.359037 l -0.7428,0.697085 1.00738,0.445484 c 0.55406,0.245018 1.04306,0.454316 1.08667,0.465109 0.0436,0.0108 0.45121,-0.17271 0.90579,-0.407782 z m 2.32222,-1.973247 c 0,-0.678034 0.87572,-0.601115 1.00855,0.08858 0.0611,0.3175 -0.0813,0.459983 -0.45999,0.459983 -0.37864,0 -0.54856,-0.169923 -0.54856,-0.548566 z M 238.3273,59.179823 c -0.37694,-1.533023 -0.85544,-2.135434 -1.41937,-1.786909 -0.53227,0.328962 -0.19878,1.485342 0.72244,2.505017 0.52973,0.586348 0.99386,1.033174 1.0314,0.992949 0.0375,-0.04023 -0.11297,-0.810201 -0.33447,-1.711057 z m 40.83081,-0.749777 c 0.22385,-0.891878 -0.18369,-1.330412 -0.88671,-0.954164 -0.31968,0.171088 -0.58123,0.666766 -0.67607,1.281282 -0.0851,0.551233 -0.23078,1.2999 -0.32377,1.663703 -0.15429,0.603612 -0.0868,0.57582 0.77167,-0.317805 0.51742,-0.538594 1.01911,-1.29145 1.11488,-1.673016 z m -48.96614,-1.106077 c 0.55228,-1.944079 0.42071,-3.709411 -0.41498,-5.567945 -0.31087,-0.691367 -0.64392,-1.750547 -0.7401,-2.353728 l -0.17488,-1.096695 -0.99218,0.397388 c -1.24889,0.500203 -1.28001,1.051541 -0.19844,3.515794 0.66815,1.522323 0.79375,2.14821 0.79375,3.955449 0,1.391196 0.1501,2.493238 0.42641,3.130654 0.48579,1.120693 0.36858,1.299247 1.30042,-1.980917 z m 57.12101,0.890394 c 0.2309,-0.886989 0.33862,-2.013881 0.2529,-2.645833 -0.11568,-0.85285 0.0352,-1.564193 0.66977,-3.158197 1.09596,-2.752905 1.07473,-3.207559 -0.17311,-3.707344 l -0.99219,-0.397388 -0.17194,1.130927 c -0.0946,0.622009 -0.4283,1.71046 -0.74162,2.418778 -0.90185,2.038792 -0.95239,3.220083 -0.25253,5.902569 0.34242,1.31246 0.70896,2.299721 0.81454,2.193912 0.10558,-0.105807 0.37296,-0.887648 0.59418,-1.737424 z m -42.84055,-1.48786 0.52917,-0.217588 -0.52917,-0.226836 c -0.6698,-0.287123 -4.77903,-0.298495 -5.06352,-0.01402 -0.42495,0.424958 0.6084,0.704803 2.54998,0.690571 1.09141,-0.008 2.2225,-0.112459 2.51354,-0.232132 z m 8.06305,-0.349899 c 1.38806,-0.474787 1.87745,-0.803174 2.57968,-1.730994 1.1708,-1.546905 1.12326,-1.730772 -0.39012,-1.508961 -2.30434,0.337735 -4.49222,1.698093 -5.37053,3.339227 -0.24106,0.450427 -0.17593,0.504388 0.59872,0.496041 0.47806,-0.0052 1.64007,-0.273045 2.58225,-0.595313 z m -0.63088,-0.817229 c 0.17134,-0.446505 1.87728,-1.395375 2.10296,-1.169696 0.16137,0.161366 -1.67075,1.533271 -2.04762,1.533271 -0.10717,0 -0.13208,-0.163608 -0.0553,-0.363575 z m 14.66054,1.20495 c 0,-0.521468 -1.9515,-2.428293 -2.97727,-2.909113 -1.51505,-0.710162 -3.63731,-1.007522 -3.63731,-0.50964 0,0.777528 1.86681,2.5459 3.24818,3.076893 1.40172,0.538816 3.3664,0.73833 3.3664,0.34186 z m -3.81521,-1.648672 c -0.70013,-0.444013 -1.20752,-0.872749 -1.12752,-0.952746 0.20802,-0.208023 2.24579,0.980649 2.40863,1.405001 0.18217,0.474715 0.17858,0.473448 -1.28111,-0.452255 z m 13.74796,1.583444 c 0.0959,-0.155202 0.093,-0.363561 -0.006,-0.463021 -0.26082,-0.260818 -4.40415,-0.222935 -5.03153,0.046 l -0.52917,0.226836 0.52917,0.217588 c 0.79171,0.325543 4.83341,0.303556 5.03796,-0.02741 z m -48.68036,-1.13225 c 0.33041,-1.937475 -0.83706,-1.816153 -2.43258,0.252791 l -0.6227,0.807466 1.44087,-0.02135 1.44087,-0.02135 0.17354,-1.017561 z m 62.72989,0.252791 c -1.59552,-2.068944 -2.763,-2.190266 -2.43258,-0.252791 l 0.17353,1.017561 1.44087,0.02135 1.44087,0.02135 -0.62269,-0.807466 z m -55.58499,-0.484727 c -0.60328,-0.861314 -0.52523,-1.29004 0.66447,-3.649441 1.26004,-2.49891 1.34778,-3.319362 0.48442,-4.529873 -0.62419,-0.875168 -0.63623,-0.87925 -0.72566,-0.245885 -0.05,0.354232 -0.62586,1.56469 -1.27965,2.689908 -1.87248,3.222627 -1.96334,4.647917 -0.36499,5.725043 1.19966,0.808456 1.78393,0.813356 1.22141,0.01024 z m 46.95582,0.152455 c 1.58306,-1.054071 1.72823,-2.358279 0.51108,-4.5915 -0.43621,-0.800364 -1.10656,-2.100715 -1.48966,-2.889668 l -0.69655,-1.434457 -0.49235,0.608018 c -0.92943,1.147802 -0.88854,1.759442 0.27454,4.106638 1.11335,2.246841 1.30524,3.214404 0.81802,4.12478 -0.35095,0.655754 0.15106,0.691335 1.07492,0.07619 z m -4.75256,-1.679194 c 1.17676,-1.980782 1.20346,-2.647722 0.10598,-2.647722 -1.15276,0 -1.67336,0.472471 -2.09867,1.90465 -0.55004,1.852182 -0.5171,2.270438 0.18954,2.406542 0.32742,0.06306 0.61976,0.130876 0.64964,0.150693 0.0299,0.01982 0.54896,-0.796557 1.15351,-1.814163 z m -36.00055,1.104466 c 0,-1.05777 -0.8331,-3.225464 -1.3449,-3.499371 -0.72274,-0.386797 -1.94005,-0.214672 -2.03514,0.287766 -0.0425,0.22456 0.40038,1.147294 0.98416,2.050521 0.83927,1.298511 1.20107,1.642229 1.72865,1.642229 0.46864,0 0.66723,-0.143203 0.66723,-0.481145 z m 4.08065,-1.03193 c 0.52054,-0.832192 0.94643,-1.784692 0.94643,-2.116667 0,-0.510995 -0.13911,-0.603591 -0.90683,-0.603591 -1.09317,0 -1.85805,0.834408 -2.1201,2.312802 -0.097,0.54697 -0.23749,1.202849 -0.3123,1.45751 -0.10812,0.36807 0.0263,0.463021 0.65518,0.463021 0.67596,0 0.92902,-0.220358 1.73762,-1.513075 z m 27.78015,0.785471 c -0.66698,-2.961566 -1.11509,-3.606806 -2.40251,-3.459417 -1.08367,0.124066 -1.06809,0.874583 0.0553,2.665667 0.80982,1.2911 1.07205,1.521354 1.73264,1.521354 0.71249,0 0.76452,-0.0616 0.61453,-0.727604 z m -14.37989,-0.485198 c 0.47086,-0.567354 -0.003,-1.30074 -0.841,-1.30074 -0.46547,0 -0.65621,0.16686 -0.72191,0.631537 -0.14133,0.999532 0.91381,1.451319 1.56291,0.669203 z m -15.76997,-1.466165 c 0.70328,-1.517952 0.64044,-2.014543 -0.28433,-2.246643 -0.76235,-0.191339 -1.3872,0.01712 -1.58333,0.52824 -0.13242,0.345078 0.86854,3.074453 1.12752,3.074453 0.0615,0 0.3946,-0.610221 0.74014,-1.35605 z m 32.05279,-1.705563 c -0.20309,-0.529251 -0.82185,-0.733438 -1.61745,-0.533754 -0.84451,0.211958 -0.87384,1.085866 -0.0877,2.613721 l 0.57316,1.113938 0.64082,-1.401966 c 0.35246,-0.771083 0.57349,-1.577454 0.49118,-1.791939 z m -13.43029,1.183646 c 2.01896,-0.703813 0.28871,-1.379551 -3.5324,-1.379551 -3.18465,0 -4.64425,0.354039 -4.11058,0.997061 0.1719,0.207132 0.5718,0.427069 0.88865,0.488749 1.24527,0.242406 5.96724,0.168122 6.75433,-0.106259 z m -6.09895,-2.219921 c 0.12942,-0.120023 -0.4879,-3.586326 -0.93315,-5.239676 -0.56349,-2.092415 -1.63582,-2.547006 -3.05876,-1.296688 -0.59636,0.524017 -0.47475,1.156033 0.90985,4.728461 l 1.04382,2.69317 0.97948,-0.405871 c 0.53871,-0.223229 1.01515,-0.438957 1.05876,-0.479396 z m 8.93381,-3.775202 c 0.6869,-2.075259 0.70027,-2.209747 0.26729,-2.688185 -0.57758,-0.63822 -1.61,-0.903872 -2.2278,-0.573236 -0.26244,0.14046 -0.63097,0.768419 -0.81893,1.395466 -0.33802,1.12763 -1.12172,5.549813 -1.0033,5.661279 0.0337,0.03175 0.47803,0.231905 0.98736,0.444799 l 0.92604,0.38708 0.57314,-1.221327 c 0.31522,-0.67173 0.89852,-2.204374 1.2962,-3.405876 z m -21.84538,2.978299 c 0,-0.852546 0.063,-0.926042 0.79375,-0.926042 0.61736,0 0.79375,-0.117592 0.79375,-0.529167 0,-0.411575 -0.17639,-0.529167 -0.79375,-0.529167 -0.67028,0 -0.79375,-0.102893 -0.79375,-0.661458 0,-0.485068 -0.14111,-0.661458 -0.52917,-0.661458 -0.38806,0 -0.52917,0.17639 -0.52917,0.661458 0,0.529167 -0.13229,0.661458 -0.66146,0.661458 -0.48506,0 -0.66145,0.141111 -0.66145,0.529167 0,0.388057 0.17639,0.529167 0.66145,0.529167 0.57957,0 0.66146,0.114652 0.66146,0.926042 0,0.749651 0.1008,0.926041 0.52917,0.926041 0.42837,0 0.52917,-0.17639 0.52917,-0.926041 z m 14.34363,-0.406768 c -0.13798,-2.139202 -1.13232,-5.80221 -1.77897,-6.553502 -0.33737,-0.391957 -0.67824,-0.648004 -0.75751,-0.569 -0.0793,0.07901 0.0798,0.863209 0.35357,1.742673 0.27372,0.879462 0.63502,2.600756 0.8029,3.8251 0.38643,2.818321 0.43142,2.946662 0.99235,2.831055 0.3731,-0.0769 0.44892,-0.326522 0.38766,-1.276326 z m 3.25911,0.07604 c 0.16742,-1.218512 0.98282,-5.338426 1.32224,-6.680729 l 0.16726,-0.661458 -0.67027,0.72804 c -0.73316,0.796367 -1.01162,1.613051 -1.66111,4.871882 -0.4482,2.248868 -0.3781,2.999036 0.28025,2.999036 0.2634,0 0.4447,-0.405688 0.56163,-1.256771 z m 14.41184,0.33073 c 0,-0.81139 0.0819,-0.926042 0.66146,-0.926042 0.48507,0 0.66146,-0.14111 0.66146,-0.529167 0,-0.388056 -0.17639,-0.529167 -0.66146,-0.529167 -0.52917,0 -0.66146,-0.132291 -0.66146,-0.661458 0,-0.529167 -0.13229,-0.661458 -0.66146,-0.661458 -0.52917,0 -0.66146,0.132291 -0.66146,0.661458 0,0.529167 -0.13229,0.661458 -0.66146,0.661458 -0.48506,0 -0.66145,0.141111 -0.66145,0.529167 0,0.388057 0.17639,0.529167 0.66145,0.529167 0.54992,0 0.66146,0.126412 0.66146,0.749652 0,0.875374 0.17257,1.102431 0.83785,1.102431 0.37798,0 0.48507,-0.204451 0.48507,-0.926041 z m -43.24732,-0.517152 c 0.50661,-0.211672 1.58837,-0.86268 2.40392,-1.446681 l 1.48281,-1.061821 -0.68483,-0.312031 c -0.55467,-0.252725 -0.90622,-0.227483 -1.84963,0.132808 -1.57737,0.602403 -3.22972,2.04693 -3.00658,2.628429 0.20863,0.543682 0.47238,0.553135 1.65431,0.0593 z m 55.10131,-0.195845 c 0.0543,-0.285147 -0.37819,-0.790038 -1.18792,-1.386695 -1.57057,-1.157282 -2.93784,-1.58071 -3.91031,-1.210976 -0.70066,0.26639 -0.69539,0.273708 1.06523,1.479079 0.97316,0.66625 2.02256,1.315844 2.33201,1.443545 0.82105,0.338828 1.60298,0.18945 1.70099,-0.324953 z m -26.9507,-5.155084 c 0.0153,-0.835258 -0.54267,-1.672545 -1.11469,-1.672545 -0.21125,0 -0.20572,-0.09288 0.0189,-0.3175 0.17463,-0.174625 0.3175,-0.642593 0.3175,-1.039931 0,-0.546659 0.14419,-0.743003 0.59261,-0.80698 0.86669,-0.12365 0.95957,-1.010589 0.10583,-1.010589 -0.5269,0 -0.6805,-0.149611 -0.74701,-0.727604 -0.0599,-0.520967 -0.25279,-0.751615 -0.67903,-0.812152 -0.50643,-0.07192 -0.59531,0.03671 -0.59531,0.727604 0,0.689907 -0.0996,0.812152 -0.66146,0.812152 -0.48507,0 -0.66146,0.14111 -0.66146,0.529167 0,0.381868 0.17639,0.529167 0.63367,0.529167 0.54607,0 0.64762,0.146304 0.73459,1.058333 0.065,0.681619 -0.008,1.058333 -0.20439,1.058333 -0.47799,0 -0.96543,0.730975 -0.96543,1.447755 0,0.358804 0.39193,1.624682 0.87097,2.813058 l 0.87097,2.160683 0.73414,-1.953977 c 0.40378,-1.074687 0.7411,-2.332426 0.7496,-2.794974 z"
       id="path73"
       inkscape:connector-curvature="0" />
  </g>
</svg>
