<svg xmlns="http://www.w3.org/2000/svg" viewBox="0 0 360.2 357.1"><title>privatbank</title><path d="M195.6,283.1c22,0,44,.1,66-.1,3.4,0,4.4.8,4.4,4.3q-.2,65.6,0,131c0,3.3-.8,4.5-4.4,4.5q-66.2-.2-132.4.2c-3.7,0-4.2-1.2-4.2-4.5q.1-65.5-.1-131c0-3.9,1.2-4.5,4.7-4.5C151.6,283.2,173.6,283.1,195.6,283.1Z" transform="translate(-124.9 -65.8)"/><path d="M485.1,71.5c0-4.6-1.3-5.7-5.8-5.7-58,.2-116,.1-174,.1H131.9c-6.5,0-6.5,0-6.5,6.4q-.2,76.9-.1,153.9c0,13.3.1,13.2,13.6,13.3,22.1.1,44.3-.7,66.2,3.5,23.5,4.7,45.4,13,63.6,29.3,26.7,23.9,36.7,55.4,40.2,89.7,1.9,18.1,1,36.3,1.1,54.4.1,6.4,0,6.4,6.6,6.4,54.5,0,109-.1,163.5.1,3.9,0,5-1,5-5Q485,244.8,485.1,71.5ZM410.4,343.8c0,4.2-1.3,5.3-5.3,5.1-6.4-.3-12.7-.2-19,.1-3.7.1-4.6-1.6-5-4.6A217.8,217.8,0,0,0,359,270.8c-20.9-40.7-52.9-69.3-95-86.6a219.9,219.9,0,0,0-58.7-15.3c-3.8-.4-5.9-1.7-5.6-6.2a135.1,135.1,0,0,0,.1-18c-.2-4,1.2-4.9,5.1-4.9h200c4.3-.1,5.6,1,5.6,5.5Q410.2,244.5,410.4,343.8Z" transform="translate(-124.9 -65.8)" style="fill:#5db02e"/></svg>