<svg xmlns="http://www.w3.org/2000/svg" viewBox="0 0 53.6 53.6"><title>psbank</title><path d="M236.3,159.4a13,13,0,0,0-13-13H204.8a13,13,0,0,0-12.5,9.5h22.3c8.5,0,12.2,4,12.2,13.4v21.1a13,13,0,0,0,9.5-12.6Z" transform="translate(-182.7 -146.4)" style="fill:#4d63a9"/><path d="M182.7,186.9a13,13,0,0,0,13.1,13h18.4a13,13,0,0,0,12.5-9.5H204.5c-8.6,0-12.2-4-12.2-13.3V155.9a13.1,13.1,0,0,0-9.6,12.6Z" transform="translate(-182.7 -146.4)" style="fill:#d86a43"/><path d="M220,167h0a3.2,3.2,0,0,0,2.4-3.4c0-2.6-2-3.8-4.9-3.8h-5v6.1h-2.9c-3.9,0-4.7,2.8-4.7,4.3s1.2,3,3.5,4.2,3,1.1,3,2.6-.7,1.9-2.4,1.9h-3.1a4.7,4.7,0,0,0,.7-2.4c0-1-.4-4.9-5.8-4.9h-4.4v15.1h3V180l1.2,1.2h8.3c3.9,0,5.7-2,5.7-4.3a5.6,5.6,0,0,0-.4-2.1h3.1c4.8,0,5.9-2.4,5.9-4.3A3.6,3.6,0,0,0,220,167Zm-19.2,11.8h-1.4v-5h1.4a2.3,2.3,0,0,1,2.6,2.4A2.5,2.5,0,0,1,200.8,178.8Zm11.7-9.4v3.7a13.4,13.4,0,0,0-2.4-1.2c-1-.4-2-.9-2-2.2s.4-1.5,2.2-1.5h3.4Zm3.1-7.3h1.3c2.4,0,2.5,1.4,2.5,1.9s-.4,1.8-2.4,1.8h-1.4Zm1.7,10.3h-1.7v-4.2h1.7c2.1,0,2.7,1,2.7,2.1S219.2,172.4,217.3,172.4Z" transform="translate(-182.7 -146.4)" style="fill:#4d63a9"/></svg>