<svg id="0128b831-22bd-469b-b9fa-bc006d8249c1" data-name="Layer 111" xmlns="http://www.w3.org/2000/svg" viewBox="0 0 96.2 96"><title>pumb</title><path d="M48.2,0a48,48,0,1,0,48,48A48.2,48.2,0,0,0,48.2,0ZM27.8,40.2h-.5A1.4,1.4,0,0,0,26,41.6V56a1.3,1.3,0,0,0,1.3,1.4h.5v.5H21.4v-.5h.5A1.3,1.3,0,0,0,23.1,56V51.9H23v-11H14.8V56A1.3,1.3,0,0,0,16,57.4h.5v.5H10.1v-.5h.5A1.3,1.3,0,0,0,11.9,56V41.6a1.3,1.3,0,0,0-1.3-1.4h-.5v-.6H27.8Zm38.6,0H66a1.5,1.5,0,0,0-1.3,1.4V56A1.4,1.4,0,0,0,66,57.4h.4v.5H60v-.5h.5A1.4,1.4,0,0,0,61.8,56V42.7L55,57.9h-.4L47.9,42.4V55.9a1.3,1.3,0,0,0,1.2,1.4h.5v.5H44.9v-.5h.5a1.3,1.3,0,0,0,1.3-1.4V41.6a1.3,1.3,0,0,0-1.4-1.4,2.9,2.9,0,0,0-2.2,1.9L36.7,56.3a2.5,2.5,0,0,1-2.5,1.6H32.7L32.4,56l1.4.9a1.1,1.1,0,0,0,1.6-.7l.8-1.8-5.8-12c-.7-1.3-1.2-1.9-2.1-2.1v-.6h5.8v.6h-.5c-.5,0-.7.7-.3,1.4l4.4,9.4L41.8,42c.5-.9.1-1.6-.6-1.7v-.7h8.4l6.1,13.5,5.6-12.4.5-1.1h4.6ZM77.5,58.1a7.7,7.7,0,0,1-6.4-3c-1.6-1.9-2.3-5-2.3-9s.8-7.9,2.3-10.3a7.5,7.5,0,0,1,6.7-3.4h2.5a10.5,10.5,0,0,0,3.3-.1c.5-.3,1-.6,1.1-1.1h.5a4.1,4.1,0,0,1-1.7,3,8.1,8.1,0,0,1-4.2,1H77.6c-6.2-.4-7.5,6.2-6.8,11a18.5,18.5,0,0,0,3.4,8.4c1.6,1.7,4,2.8,6,1.1s2.2-4.6,2.2-6.5-1.2-8.4-5.3-8.4a3.9,3.9,0,0,0-3.2,1.7,7.6,7.6,0,0,0-1,4.3h-.8c-.5-4,1.4-7.3,5.6-7.4s8,4,8,9S82.6,58.1,77.5,58.1Z" style="fill:#d13239"/></svg>