<svg xmlns="http://www.w3.org/2000/svg" viewBox="0 0 311.6 353"><title>rshb</title><path d="M171.3,43.1a152.6,152.6,0,0,1,81.6,33.5c32.9,26.5,51.5,60.6,57.5,102,.1.6.8,1.1,1.2,1.6v1.5a1.9,1.9,0,0,0,0,2.9v23.7a1.9,1.9,0,0,0,0,2.9v3c-1.3,5.4-1.2,11.1-1.7,16.6-2.2,25.6-14.5,46.8-30.1,66-17.9,22.1-40,39-67,49.1-12.4,4.6-25.2,5.3-38,6.4-1.7.1-3.4-.6-4.9.7h-3c-1.7-1.3-3.6-.5-5.4-.7H145.8c-1.3.1-2.8-.4-4,.7h-1.5c-5.5-1.3-11.1-1.2-16.6-1.7-25.2-2.4-46.3-13.8-65.9-28.7-24.9-19-42-43.8-52.6-73.1-4-10.9-2.9-22.6-5.2-33.9V178.7c4-12.2,5.5-25.1,10.3-37.1A156.5,156.5,0,0,1,54.1,79.8c2-1.7,4.3-4.6,6.9-2.5s1.4,5.1.6,7.6a11.8,11.8,0,0,1-3.5,5.4c-26.6,24.6-42.3,54.8-46.7,90.9a8.4,8.4,0,0,1-.8,2,82.3,82.3,0,0,0-.1,28c1.1,5.7,2,11.5,3.3,17.3a147.2,147.2,0,0,0,29.7,60.8c25,30.6,57.4,47.3,96.3,52.1a44.8,44.8,0,0,1,5,1.1,54.8,54.8,0,0,0,22.1,0,136.5,136.5,0,0,0,53-15.2c46-23.6,72.8-61.3,80.1-112.6a35.7,35.7,0,0,1,1-3.5c1.8-8.9,1.5-17.7.2-26.6-2.4-11.4-4.1-23-8-34.2C272.5,92,219.7,54,157.7,52.8c-2.8,0-5.9,1.1-8.5-1.1-.2-6.8,2.9-9.3,9.7-8.3A32.4,32.4,0,0,0,171.3,43.1Z" style="fill:#333"/><path d="M100.3,82.8C89.5,72,77.5,62.5,68.2,50.2c1.1-14.2.1-28.4.6-42.6,0-2.3-1.7-6.4,2.3-6.5s3.3,4.1,3.5,7c.4,6.3-.9,12.7,1,18.8,0-.1.5.5.5.3h.5c2-5.9.5-11.8.9-17.6.3-2.6-.5-5.4.9-7.9A10.7,10.7,0,0,1,79.8,0h1.4a11.9,11.9,0,0,1,1.5,1.8C83.4,13,84.3,24.1,85.8,35c0-.2.2,0,.2-.2,2-8.1,2-16.2,1.9-24.3,0-2.7-1.1-6,2.2-8,4,.2,3.6,3.3,3.6,5.9.2,11.9-.3,23.8,1.6,35.6v-.4c1.8-12,1.4-24.1,1.5-36.1,0-1.9-.3-4,1.3-5.5s3.5-1.8,4.5.9a7.5,7.5,0,0,1,0,1.5c0,25.2.1,50.5,0,75.8C102.6,81.6,102.5,83.2,100.3,82.8Z" style="fill:#333"/><path d="M140.3,0a1.4,1.4,0,0,1,.1,1.1c1.4,13.2.2,26.4.7,39.6.1,3.6-.6,7.3.4,10.9-9.4,10.7-19.9,20.3-30.4,29.8-1.5.2-2.4-.4-2.4-1.9.2-26.1-.9-52.2.5-78.3a4.9,4.9,0,0,1,.1-1.2h1.5a12.4,12.4,0,0,1,1.4,1.8c1.6,6,.7,12.2.7,18.2,0,7.9.3,15.7,2.2,23.2,0-.2.1-.1.1-.2,3.3-13.7,1.3-27.5,3-41.1A13.3,13.3,0,0,1,119.6,0h1.5l1.4,1.6c1.9,10.9-.4,22,2.3,32.6V34c.1-9.4,2.3-18.6,1.5-28-.2-2.6.5-5.2,3.9-5.1s3.5,2.9,3.4,5.5a91.6,91.6,0,0,0,1.5,18.9v-.2c.3-8,1.4-15.7,2.3-23.5L138.8,0Z" style="fill:#333"/><path d="M117.3,54.7c-1.6,1-2.6,3.1-5,2.9-1.8-9.7-.3-19.5-.8-29.3s.8-18.1-.7-27.1a4.8,4.8,0,0,0,0-1.2h8.8a2.1,2.1,0,0,0-.1,1.1c-1.4,15.4-.1,30.9-.7,46.3C118.7,49.8,120.4,52.8,117.3,54.7Z" style="fill:#e1e1e1"/><path d="M88.1,48.7l-5.3-4.4c-1.8-9.7-.3-19.5-.8-29.2-.3-4.6.7-9.3-.7-13.9A4.9,4.9,0,0,0,81.2,0h8.9a2,2,0,0,1-.2,2.5c-1.2,13.1-.1,26.3-.6,39.5C89.2,44.2,90.6,46.9,88.1,48.7Z" style="fill:#e2e2e2"/><path d="M96,57.5l-2.9-3c-1.8-9.6-.4-19.3-.8-29s.6-17-.7-25.5h5.9c1.6,15,.3,30.1.7,45.2q.1,5.1,0,10.2C98.1,56.8,97.7,57.8,96,57.5Z" style="fill:#fcfcfc"/><path d="M96,57.5c2.5-1.5,1.5-4,1.5-6,.1-17.2,0-34.3,0-51.5h5.9c-.1,25.9-.2,51.9-.4,77.8,0,1.8,2.1,5.5-2.7,5a10.7,10.7,0,0,0,1.5-6.3V7.2a23.2,23.2,0,0,0-.9-4.5C98.4,5.8,99,8.5,99,11c-.1,13.5.1,27-.1,40.5C98.9,53.6,100.6,57.2,96,57.5Z" style="fill:#434343"/><path d="M127.3,44.2l-4.4,4.5c-2.2-3.6-.8-7.6-1-11.4-.6-12,.8-24-.7-36a5.7,5.7,0,0,1-.1-1.3H127C128.4,14.7,127.9,29.5,127.3,44.2Z" style="fill:#fcfcfc"/><path d="M137.1,35.4l-4.2,3.1a215.3,215.3,0,0,1,0-38.5h5.9V1.3c-1.5,8.7-.2,17.5-.7,26.3C137.9,30.2,139,33,137.1,35.4Z" style="fill:#f7f7f7"/><path d="M73.7,35.5c-2.8-7.2-.8-14.6-1.4-21.9C72,10.3,73,6.9,71,2.9c-2.3,3.3-1.4,6.3-1.6,9-.7,12.8,1.5,25.6-1.2,38.3L67.9,0h5.9C75.6,1.7,76,3.8,76,6.1c.1,7.8.1,15.7,0,23.5C76,31.8,75.9,34.1,73.7,35.5Z" style="fill:#434343"/><path d="M132.9,0V38.5c-3.3-5.2-1-10.9-1.4-16.4s-.1-12.1-.1-19.6c-3.7,3-2.7,5.8-2.9,8.1-.7,11.2,1.4,22.5-1.2,33.6L127,0Z" style="fill:#414141"/><path d="M73.7,35.5c0-11.9.1-23.7.1-35.5h3c3,11.7,1.2,23.6,1,35.4,0,1-1.2,1.5-2.2,1.4Z" style="fill:#fdfdfd"/><path d="M91.6,0c1.9,2.6,1.5,5.5,1.5,8.4V54.5c-2.6-1.8-1.4-4.5-1.5-6.8-.1-12,0-24.1,0-36.1,0-3,.1-6-1.5-8.6A1.2,1.2,0,0,1,90,1.1,1.4,1.4,0,0,1,90.1,0Z" style="fill:#292929"/><path d="M75.6,36.8c2.7-12.2.6-24.5,1.2-36.8h3c0,.4-.1.9-.1,1.3-1.6,9.2-.2,18.5-.7,27.7-.2,3.2.7,6.4-.7,9.4A2.6,2.6,0,0,1,75.6,36.8Z" style="fill:#e3e3e3"/><path d="M149,351.7h13.6c1,.5,1,.9-.1,1.2H149.2C148,352.7,147.9,352.3,149,351.7Z" style="fill:#686868"/><path d="M149,351.7c.1.5.1.9.2,1.3h-4.5l-1.1-.5,1.1-.7Z" style="fill:#969696"/><path d="M162.5,353c0-.4.1-.8.1-1.2,1.6,0,3.2-.4,4.3,1.2Z" style="fill:#8f8f8f"/><path d="M311.6,184.6c-1.1-1-1.6-1.9,0-2.9Z" style="fill:#afafaf"/><path d="M311.6,211.2c-1.3-1-1-2,0-2.9Z" style="fill:#959595"/><path d="M144.7,351.8V353h-2.9C142.3,351.6,143.5,351.7,144.7,351.8Z" style="fill:#bababa"/><path d="M292.6,218.7c-8.5,2.5-17.3.6-26,1.1-5.6.3-11.3.2-16.9.3-1.5,2.2-.8,4.7-.8,7.1-.1,21.8,0,43.5-.1,65.3,0,2.6.6,5.3-.5,7.9s-5.5,5.5-10.3,8.1c0-11,.1-21.1,0-31.2-.1-7,1.5-14.5-6.4-19-2.1-1.2-.6-3.5-.2-5.4,1.8-9.1,3.5-18.2,5.7-27.2,1-4.3.2-5.6-4.3-5.7-9.4-.1-9.3-.3-10,9.2-.1,2.4-.7,4.8-1,7.2a2.6,2.6,0,0,1-3.4-.1c-.3-2.7-.9-5.3-1.1-8-.5-8.1-3.4-10-11.5-8.2-3.9.8-2.3,3.2-2,5,1.6,9.4,3.3,18.8,5,28.2.3,2,1.8,4.1-1.1,5.7-5.3,2.9-5.7,8-5.6,13.4,0,16.4.1,32.8-.1,49.2,0,2.7,1.4,6.2-2.7,7.5s-5.2-2.1-5.2-6c.2-15.7.2-31.4.1-47.2,0-2.3.8-4.9-.9-7-13.7-.1-13.7-.1-13.7,13.3v44.2c0,2.4.6,4.9-.9,7.1a2.9,2.9,0,0,1-.7-2.2V283.5c0,14.5,0,29-.1,43.4,0,1.9,1.3,4.5-1.6,5.7a2.7,2.7,0,0,1-1.2-2.5c.1-32.1-.5-64.2.3-96.3,2.9-1.9,2.5.5,2.5,2.1.1,5.5.1,11,.1,16.4,0-6-.1-12.1,0-18.2a2.9,2.9,0,0,1,.7-2c2,7,.7,14.1.8,21.1.3,9.7.1,9.7,10.1,9.7h3.7a142.4,142.4,0,0,0-.1-36.9c-7.9-11.5-27.1-10.6-33.6,1.6-1.6,2.5-.8,5.2-.8,7.8v92.5c0,3.2.5,6.6-3.8,7.6-2.9-7.3-.7-14.9-1.3-22.4-.2-3.1,0-6.3,0-10.6-4.7,4.1-9.2,6.8-14.6,7.2-3.5.3-3.3,2.7-3.5,5.2-.6,6.3,1.4,12.7-1.3,18.8-2.7-.7-3.8-2.4-3.6-5.3a142.3,142.3,0,0,0-.1-16c-.3-5.3.8-8.6,7-7.4a3.8,3.8,0,0,0,2.7-.8c6.6-2,9.3-6.5,9.3-13.3-.1-19.9.1-39.8-.1-59.7-.1-9.7-3.3-12.7-13-13-7.1-.2-14.2.3-21.3.4-1.3,2.6-.7,5.3-.7,8-.1,31.2,0,62.5-.1,93.7,0,2.4,2.2,7-3.7,6.3a5.5,5.5,0,0,1-.7-2.8c.1-36.4-.2-72.8.2-109.1,5.2-2.8,10.9-.7,16.3-1.2s10.2.5,15.2-.6,7.7,4.9,11.1,7.8,2.6,1.8,4.2-.3c4-5.5,9.3-6.6,16.4-6.9s14.5-.1,21,4.1c.9.6,1.9,1.1,1.8-.5,0-3.8,2.7-2.9,4.7-2.9l91.5.2c-.2,4.2-3.5,2.6-5.5,2.6-8.1.2-16.2.1-24.2.1,7.7,0,15.4-.1,23.2.1C288.2,217.2,290.8,216.2,292.6,218.7Z" style="fill:#333"/><path d="M276.1,155.4c3.8,1.4,3.4,4.6,2.9,7.4s-3.6,3.6-6.4,3.7-3.5-.1-5.2.1-3.8-.8-4.1,1.8,1.9,1.7,3.2,2a2.5,2.5,0,0,1,2.2,2.5c.1,1.8-.8,2.7-2.6,2.8s-3.5.4-3.4,2.8.3,4.1,3,4.3,3.2,2.3,3.1,4.6.1,3.1-1.9,3.5-3.2-.7-4.6-2.5-6.2-3-8.7,0-2.4,3-4.6,2.4-1.9-2.7-1.8-4.4-.8-4.7,2.6-5c1.9-.2,3.4-.6,3.6-2.8s-.8-2.7-2.6-2.8-3.5-.2-3.5-2.7,1.7-2.6,3.5-2.9a16.3,16.3,0,0,0,2.3-1.1c-.4-3-2.5-2.5-4-2.5-17.5-.1-34.9.1-52.4-.1-4.5-.1-5.2,1.2-4.2,5.5a17.4,17.4,0,0,1-8,19.6,18.7,18.7,0,0,1-20.2-1.2c-6.5-5-8.8-12.2-6.2-20.3,1.8-5.8,1.3-11.8.3-17.3-1.9-10.4-.6-17.5,6.4-22.2s15.2-4.4,22.3,1.2,7.2,13.1,3.5,22.9c.5.5.9,1.1,1.7,1.1C220.3,155.6,248.2,156.3,276.1,155.4Z" style="fill:#333"/><path d="M39.8,152.1c7.8,13,19.9,22.1,29.5,33.4,7.2,8.6,16.6,14.7,23.4,23.6a37.7,37.7,0,0,1,7.4,15.5c-.9,7.2,1,14.4.3,21.5-.2,2.6.4,5.5-3,6.6L53.6,209.3C43,198.8,37.9,186,37.2,171.2c1-4.9.1-9.9.5-14.9C37.8,154.8,36.5,152.2,39.8,152.1Z" style="fill:#333"/><path d="M39.9,209.7a401.2,401.2,0,0,0,46.8,48.1,39.9,39.9,0,0,1,13.5,22.9c-.9,7.3.9,14.6.2,22-.2,2.9-.2,5.7-4.4,4.6-14.3-14.1-28.6-28.2-42.7-42.4-10.3-10.4-15.5-23-16.2-37.5,1.2-4.5.2-9.1.6-13.6C37.9,212.3,36.5,209.6,39.9,209.7Z" style="fill:#333"/><path d="M98.6,195.1c-9.3-8.8-18.4-17.7-27.8-26.3-3.3-3-2.6-6.6-2.7-10.2V143.7c12.7,10.2,21.9,21.7,32.3,32,2.7,5.6,1.3,11.4,1.2,17.2A2.3,2.3,0,0,1,98.6,195.1Z" style="fill:#333"/><path d="M107.8,128.8c-1.7-6,1.8-10.8,6.9-15.3,7.2-6.4,13.9-13.3,20.8-19.9,1.5-1.4,2.9-2.9,5.1-1.9s1.3,3,1.5,4.6c1,8-1.2,14.6-7.7,20.2s-13.4,13-20.1,19.5c-1.6,1.4-3,4.4-5.1,3.5s-1-4.3-1.4-6.6A26.5,26.5,0,0,1,107.8,128.8Z" style="fill:#333"/><path d="M108.1,177.3c9.2-10.8,19.8-20.3,30.3-29.8,2.1-.5,2.7.9,2.6,2.4-.2,5.8.8,11.6-.6,17.4-9.7,10.8-20.4,20.8-31.1,30.7C107.3,191.2,109.6,184.1,108.1,177.3Z" style="fill:#333"/><path d="M99,166.7c-9.5-9.2-19.1-18.5-28.7-27.6-3.7-3.5-1.8-7.8-2.2-11.8s0-6.3,0-11.3a444.7,444.7,0,0,1,32.5,31.3C101.9,153.9,104.4,160.6,99,166.7Z" style="fill:#333"/><path d="M98.5,137.6c-9.2-8.8-18.3-17.8-27.7-26.3-3.8-3.5-2.5-7.7-2.7-11.6s0-7.2,0-12c13,9.6,21.3,22.1,32.3,31.8,2.6,4.8,1.3,10,1.3,15.1C101.7,136.4,100.9,138,98.5,137.6Z" style="fill:#333"/><path d="M109.2,91.1c9.5-10,19.3-19.7,29.7-28.9,3.7,2.1,1.7,5.5,2.1,8.4s-.6,6.2.7,9.1c-9.5,11.2-20.3,20.9-31,30.8C106.4,104.4,109,97.6,109.2,91.1Z" style="fill:#333"/><path d="M140.4,138.3l-28.1,28c-.9,1-2,2.6-3.6,1.5s-.8-2.1-.9-3.3c-1.2-9.9.4-18.3,9.4-25s14.3-13.3,21.4-20c1.4-.3,2.4.4,2.3,1.8C140.8,127,141.8,132.7,140.4,138.3Z" style="fill:#333"/><path d="M98.7,109.4c-9.4-9-18.7-18.1-28.2-27-3.7-3.5-2.1-7.8-2.4-11.8a31,31,0,0,1,.9-9.7c9.8,11.6,23.2,19,32.7,30.8a116.3,116.3,0,0,1,.2,13.2C101.8,107,102.1,109.6,98.7,109.4Z" style="fill:#333"/><path d="M135.4,261.3V287c0,2.1.3,4.7-3,4.8s-2.7-2.9-2.7-4.8q-.1-25.3,0-50.7c0-2.5-.1-5.5,3.1-5.6s2.5,3.5,2.6,5.6C135.5,244.6,135.4,253,135.4,261.3Z" style="fill:#222"/><path d="M266,280.2V251c0-2.1,1-3.1,3.1-3.1s2.9.1,3.7,1.7C275.5,255.1,271.9,274.7,266,280.2Z" style="fill:#3b3b3b"/><path d="M110.9,326.4c3.7-2.3,2.8-6,2.8-9.3.1-29.5,0-59,0-88.4,0-3.4-.4-6.9,1.5-10.1V323.8c0,2.5,1.7,7.8-4.5,4.3C110,327.5,110.1,326.9,110.9,326.4Z" style="fill:#2d2d2d"/><path d="M110.9,326.4l-.2,1.7c-2.3-1.2-1.4-3.4-1.4-5.2q-.1-52.5,0-105c0-1.8-1-4,1.5-5.2q1.5.8,0,1.5Q110.8,270.3,110.9,326.4Z" style="fill:#1d1d1d"/><path d="M155,335.5c3.2-3.1,3-7.1,3-11.1q0-44.5.1-89.3c0-2.5-1.3-5.5,1.5-7.5q0,51.2-.1,102.4C159.5,332.9,160.7,337.1,155,335.5Z" style="fill:#222"/><path d="M178.4,332.4l.3,1.1c-4.7,2.4-4.8-.7-4.8-4V237.3c0-2.9-.9-7.1,4.8-5.2a5.6,5.6,0,0,0-.4,1.2l-.4,1-.7-.9c-1.5,2.4-1.4,5.1-1.4,7.8v83.2c0,2.7-.1,5.4,1.4,7.9C177.7,331.3,178.1,331.3,178.4,332.4Z" style="fill:#222"/><path d="M221.6,319.1l-1.6,1.1c-2.6-1.2-2.1-3.6-2.1-5.7q-.2-19,0-38.1c0-2.3-1.2-6.2,3.8-4.8A358.5,358.5,0,0,1,221.6,319.1Z" style="fill:#333"/><path d="M292.6,218.7H252v-2.3c13.4-2.4,27.2,1.2,40.5-2C295.1,215.7,293.5,217.2,292.6,218.7Z" style="fill:#2e2e2e"/><path d="M276.1,155.4c-2.8,1.4-5.7,1.2-8.7,1.2H199.7c-3.1,0-6.4.2-9.1-1.9l75.9.3Z" style="fill:#141414"/><path d="M109.2,1.2q.1,35.1.1,70.2c0,3.4-.5,6.9,1.8,10-1.1,1-2.1,4.8-3.2.2-.6-2.6-.2-5.4-.2-8.1q0-32.4.1-64.8C107.8,6.2,106.5,3.3,109.2,1.2Z" style="fill:#171717"/><path d="M248.3,300.4c-.1-24.2-.1-48.4-.2-72.5,0-2.7,0-5.4,1.6-7.8,0,24.2,0,48.5-.1,72.7C249.6,295.4,250.8,298.3,248.3,300.4Z" style="fill:#171717"/><path d="M280.3,236.5l-11-.2c-1.4,0-3,0-3.2-2.1s.5-3.1,2.3-3.1c6.6-.1,13.3-.5,19.8,0,4,.3,1.1,3.3,1.1,5.2-3.5,1.7-5.6-1.8-8.3-2.2C283,235.3,283.5,236.3,280.3,236.5Z" style="fill:#272727"/><path d="M96,307.3c3.3-1.7,2.8-4.7,3-7.7.3-6.3-1.1-12.7,1.2-18.9,2,11.1,1.3,22.2-.3,33.8Z" style="fill:#303030"/><path d="M193.3,268.9c2,2.8,1.7,6,1.7,9.2,0,13.9,0,27.8-.1,41.7,0,3.9.3,7.4,4.4,9.3-4.9,2.6-6,.8-5.9-4.3C193.6,306.2,193.4,287.5,193.3,268.9Z" style="fill:#232323"/><path d="M97.4,252.7c2.6-6.3,1.2-13,1.5-19.5.2-2.9-.2-5.8,1.2-8.6,2.1,10.7,1.1,21.5,1.4,32.8C98.6,256.8,98.5,254.3,97.4,252.7Z" style="fill:#262626"/><path d="M221.5,271.8c-1.3.8-2.6,1.8-2.6,3.3.1,15.1-1.8,30.1,1.1,45.1-2.5,1.5-3,.1-3-2,0-14.9.1-29.7,0-44.6,0-3.5,1.6-4.2,4.5-3.4a.9.9,0,0,1,.5,1.1C221.8,271.7,221.7,271.8,221.5,271.8Z" style="fill:#181818"/><path d="M141.5,51.6c-2.5-9.6-.8-19.4-1.1-29.2-.3-7.1,0-14.2,0-21.3A3.1,3.1,0,0,1,142,4.2C141.9,20,141.7,35.8,141.5,51.6Z" style="fill:#1f1f1f"/><path d="M221.5,271.8v-1.6c2.2.8,1.5,2.8,1.5,4.4v40.1c0,1.5.7,3.5-1.4,4.4Z" style="fill:#0e0e0e"/><path d="M99,166.7c2.5-6.3.9-12.9,1.6-19.4,4.7,6.5,2.1,13.9,1.8,20.8C102.3,170.3,100.1,167.6,99,166.7Z" style="fill:#2b2b2b"/><path d="M98.6,195.1c3.5-6.2,1.2-12.9,1.8-19.4,1.9,2.5,4,19.6,2.2,21.3S99.7,196.4,98.6,195.1Z" style="fill:#262626"/><path d="M98.7,109.4c3.6-5.5.1-12.2,3-17.7,2.5,5.8.7,11.9,1.2,17.9,0,.8-.6,2.3-1,2.4S99.5,110.6,98.7,109.4Z" style="fill:#282828"/><path d="M98.5,137.6c3.5-5.8,1.3-12.1,1.9-18.1,1.9,2.5,4,18.2,2.2,19.9S99.7,138.7,98.5,137.6Z" style="fill:#262626"/><path d="M140.3,304.2c-8.2,1-9.7,6.4-8.9,13.5.7,5.4-1.7,11.3,2.9,16-3.6.9-4.8-.7-4.7-4.1.2-4.9.1-9.7.1-14.6C129.7,304.2,129.7,304.2,140.3,304.2Z" style="fill:#1b1b1b"/><path d="M280.3,236.5c-1.9-3.6-6-.1-8.8-3,6.4.5,12.6-2,17.8,2.8C286.5,243.1,283.3,237,280.3,236.5Z" style="fill:#363636"/><path d="M193.2,226a83.6,83.6,0,0,1,.1,36.9C193.3,250.6,193.3,238.3,193.2,226Z" style="fill:#202020"/><path d="M218.4,236.3h3.4c-.1,5.4.6,10.9-1.4,16h-2Z" style="fill:#1e1e1e"/><path d="M110.8,214.2v-1.5c10.3-.4,20.6-.7,30.9.2C131.5,215.6,121.1,213.5,110.8,214.2Z" style="fill:#1e1e1e"/><path d="M171.3,43.1c-3.5,1.8-7.3,1.5-10.8,1.1-6-.6-9.9,1.4-11.3,7.5-1-9.3-1-9.4,8.2-9.2Z" style="fill:#1e1e1e"/><path d="M10.5,211.2a50.3,50.3,0,0,1,.1-28C10.6,192.5,10.5,201.8,10.5,211.2Z" style="fill:#1d1d1d"/><path d="M301.2,184.6a44.7,44.7,0,0,1-.2,26.6Z" style="fill:#1c1c1c"/><path d="M39.8,152.1c-3.1,6.1.3,13.1-2.6,19.1V147.8C39.1,149,39.4,150.6,39.8,152.1Z" style="fill:#181818"/><path d="M109.2,91.1c.6,6.5-1,13.1,1.5,19.4-.9.6-2.6,3.3-2.6.6C107.9,104.5,106.2,97.6,109.2,91.1Z" style="fill:#232323"/><path d="M141.7,79.7c-2.9-5.5,0-11.9-2.8-17.5,1.5-2,3.1-3.4,3.1.6C142.1,68.5,141.8,74.1,141.7,79.7Z" style="fill:#222"/><path d="M39.9,209.7c-3.3,5.5.1,12.1-2.8,17.7V206.5C39.1,207.1,39.5,208.4,39.9,209.7Z" style="fill:#151515"/><path d="M140.4,138.3c-.7-6.3,1.4-12.8-1.8-18.8,2.9-2.1,3.3-2,3.3-1.1C141.4,125.1,143.9,131.9,140.4,138.3Z" style="fill:#232323"/><path d="M108.1,177.3c2.4,6.8.7,13.8,1.2,20.7C105.9,191.3,108.4,184.2,108.1,177.3Z" style="fill:#1b1b1b"/><path d="M140.4,167.3c-.9-6.6,1.6-13.5-2-19.8,1.1-1.3,3.1-2,3.2-.1C141.9,154,143.7,160.8,140.4,167.3Z" style="fill:#1e1e1e"/><path d="M166.9,342.5a32.9,32.9,0,0,1-22.1,0Z" style="fill:#1e1e1e"/><path d="M90,1.1c0,.6.1,1.2.1,1.9V39.6c0,3.2.3,6.5-2,9.1,0-13.4.1-26.8.2-40.1C88.4,6,87.3,3.1,90,1.1Z" style="fill:#222"/><path d="M81.3,1.2c2.6,2.1,1.5,5,1.5,7.5.1,11.8,0,23.7,0,35.6-3-7.1-1.2-14.5-1.5-21.8S81.3,8.3,81.3,1.2Z" style="fill:#1f1f1f"/><path d="M78.3,38.4c0-10.1-.1-20.2,0-30.3.1-2.2-1.1-4.9,1.4-6.8C79,13.7,81.4,26.1,78.3,38.4Z" style="fill:#1a1a1a"/><path d="M110.8,1.2c2.5,1.8,1.5,4.5,1.5,6.8.1,16.5,0,33.1,0,49.6-1.7-2.6-1.5-5.6-1.5-8.6Z" style="fill:#1f1f1f"/><path d="M117.3,54.7c.2-15.2.3-30.3.6-45.4,0-2.8-1.2-5.9,1.6-8.2.1,15.1.1,30.3.1,45.4C119.6,49.4,119.6,52.4,117.3,54.7Z" style="fill:#222"/><path d="M121.2,1.3c2.6,2.1,1.3,5,1.3,7.5.3,13.3.3,26.6.4,39.9-2.1-2.8-1.8-6-1.8-9.2C121.1,26.8,121.1,14,121.2,1.3Z" style="fill:#141414"/><path d="M137.1,35.4c.1-9.2.1-18.3.3-27.5,0-2.2-1.2-4.9,1.4-6.6V27.7C138.8,30.4,138.8,33.1,137.1,35.4Z" style="fill:#171717"/><path d="M240.9,259.8c-3.6-2.4-5-5.2-3.6-9.8,1.8-6.3,2.5-12.9,3.7-19.4h.7c3,4.4,2.9,25.1-.1,29.1Z" style="fill:#f4f4f4"/><path d="M151.9,232.6V290h-.6V232.5Z" style="fill:#292929"/><path d="M178.4,332.4h-1.2V272.2h1.2Z" style="fill:#292929"/><path d="M240.9,259.8a66.9,66.9,0,0,0,.1-29.2,13,13,0,0,1,2.5-7.6,170,170,0,0,1,.1,38.4Z" style="fill:#b1b1b1"/><path d="M243.6,261.4c0-12.8,0-25.6-.1-38.4C246.3,235.8,246,248.6,243.6,261.4Z" style="fill:#222"/><path d="M177.2,233.4h1.1v26.2h-1.1Z" style="fill:#292929"/><ellipse cx="127" cy="216.3" rx="11.9" ry="0.5" style="fill:#292929"/></svg>