<?xml version="1.0" encoding="UTF-8" standalone="no"?>
<svg
   xmlns:dc="http://purl.org/dc/elements/1.1/"
   xmlns:cc="http://creativecommons.org/ns#"
   xmlns:rdf="http://www.w3.org/1999/02/22-rdf-syntax-ns#"
   xmlns:svg="http://www.w3.org/2000/svg"
   xmlns="http://www.w3.org/2000/svg"
   xmlns:sodipodi="http://sodipodi.sourceforge.net/DTD/sodipodi-0.dtd"
   xmlns:inkscape="http://www.inkscape.org/namespaces/inkscape"
   width="16.895203mm"
   height="16.903391mm"
   viewBox="0 0 16.895203 16.903391"
   version="1.1"
   id="svg8"
   inkscape:version="0.92.2 (5c3e80d, 2017-08-06)"
   sodipodi:docname="Shuffle-icon.svg">
  <defs
     id="defs2" />
  <sodipodi:namedview
     id="base"
     pagecolor="#ffffff"
     bordercolor="#666666"
     borderopacity="1.0"
     inkscape:pageopacity="0.0"
     inkscape:pageshadow="2"
     inkscape:zoom="3.959798"
     inkscape:cx="-28.287919"
     inkscape:cy="32.501119"
     inkscape:document-units="mm"
     inkscape:current-layer="layer1"
     showgrid="false"
     fit-margin-top="0"
     fit-margin-left="0"
     fit-margin-right="0"
     fit-margin-bottom="0"
     inkscape:window-width="1920"
     inkscape:window-height="1001"
     inkscape:window-x="-9"
     inkscape:window-y="-9"
     inkscape:window-maximized="1" />
  <metadata
     id="metadata5">
    <rdf:RDF>
      <cc:Work
         rdf:about="">
        <dc:format>image/svg+xml</dc:format>
        <dc:type
           rdf:resource="http://purl.org/dc/dcmitype/StillImage" />
        <dc:title></dc:title>
      </cc:Work>
    </rdf:RDF>
  </metadata>
  <g
     inkscape:label="Layer 1"
     inkscape:groupmode="layer"
     id="layer1"
     transform="translate(-45.069145,-104.032)">
    <path
       style="fill:#000000;stroke-width:0.03527778"
       d="m 52.882934,120.92572 c -2.090342,-0.19154 -3.913974,-1.03208 -5.345906,-2.46401 -1.309615,-1.30962 -2.114724,-2.92302 -2.403616,-4.81674 -0.08569,-0.56174 -0.08569,-1.7666 0,-2.32834 0.288892,-1.89372 1.094001,-3.50712 2.403616,-4.81673 1.308489,-1.30849 2.924649,-2.11498 4.81674,-2.40362 0.561734,-0.0857 1.766599,-0.0857 2.328333,0 1.892091,0.28864 3.508251,1.09513 4.81674,2.40362 1.12194,1.12194 1.890081,2.4988 2.25424,4.04062 0.164488,0.69644 0.211266,1.12605 0.211266,1.94028 0,0.81423 -0.04678,1.24384 -0.211266,1.94028 -0.551869,2.33658 -2.062669,4.32232 -4.169969,5.48083 -0.866206,0.47621 -1.846001,0.80341 -2.865733,0.95701 -0.35967,0.0542 -1.513628,0.0962 -1.834445,0.0668 z m 1.778714,-0.91071 c 1.635953,-0.25896 3.05987,-0.98482 4.23277,-2.15772 1.177392,-1.1774 1.89034,-2.57901 2.162364,-4.25109 0.0828,-0.50896 0.0828,-1.74184 0,-2.2508 -0.272024,-1.67208 -0.984972,-3.07369 -2.162364,-4.25108 -1.177391,-1.17739 -2.579006,-1.89034 -4.251082,-2.16237 -0.508965,-0.0828 -1.741838,-0.0828 -2.250803,0 -1.672076,0.27203 -3.073691,0.98498 -4.251082,2.16237 -1.177392,1.17739 -1.89034,2.579 -2.162364,4.25108 -0.0828,0.50896 -0.0828,1.74184 0,2.2508 0.272024,1.67208 0.984972,3.07369 2.162364,4.25109 0.79023,0.79023 1.593175,1.31745 2.629116,1.72631 0.618328,0.24403 1.232459,0.38811 2.112367,0.49555 0.258709,0.0316 1.443924,-0.0112 1.778714,-0.0641 z m 2.13712,-2.93933 c -0.158818,-0.0793 -0.262624,-0.2804 -0.227449,-0.44055 0.01618,-0.0737 0.112635,-0.20479 0.270093,-0.36718 l 0.244928,-0.25259 -0.311355,-0.0228 c -0.819427,-0.0601 -1.301579,-0.14247 -1.754886,-0.29982 -0.469926,-0.16311 -1.105218,-0.5826 -1.065989,-0.70388 0.01,-0.0309 0.07552,-0.20703 0.145596,-0.39135 0.07008,-0.18433 0.134856,-0.35713 0.143955,-0.384 0.01114,-0.0329 0.07257,0.01 0.188156,0.13014 0.448892,0.46818 1.070552,0.69589 2.133949,0.78162 0.250203,0.0202 0.471167,0.0367 0.491031,0.0367 0.01986,0 -0.07558,-0.11519 -0.212098,-0.25598 -0.160069,-0.16508 -0.257151,-0.29668 -0.27338,-0.37057 -0.03658,-0.16653 0.06842,-0.3615 0.239714,-0.44515 0.235056,-0.11479 0.3231,-0.063 1.078956,0.63494 0.959824,0.88626 0.958777,0.83209 0.0327,1.69082 -0.599975,0.55634 -0.816678,0.72157 -0.946171,0.72144 -0.02985,-3e-5 -0.109839,-0.0278 -0.177749,-0.0617 z m -8.133207,-0.54949 c -0.325019,-0.14992 -0.305816,-0.65715 0.02873,-0.75888 0.06273,-0.0191 0.397206,-0.0445 0.743274,-0.0566 1.332624,-0.0464 2.039717,-0.26898 2.549113,-0.80256 0.4497,-0.47105 0.615206,-0.90421 0.826381,-2.16279 0.05534,-0.32984 0.142316,-0.74226 0.19327,-0.91647 0.323269,-1.1053 0.914303,-1.82392 1.815491,-2.20741 0.441278,-0.18778 1.266135,-0.35042 1.781994,-0.35136 0.116925,-2.2e-4 0.272701,-0.0103 0.346168,-0.0225 l 0.133575,-0.0221 -0.243537,-0.25116 c -0.156353,-0.16125 -0.252546,-0.29218 -0.268702,-0.36574 -0.03658,-0.16653 0.06842,-0.3615 0.239714,-0.44516 0.235056,-0.11479 0.3231,-0.063 1.078956,0.63495 0.963661,0.88979 0.963633,0.82753 7.77e-4,1.71854 -0.756151,0.69973 -0.844169,0.75163 -1.079734,0.63659 -0.171299,-0.0837 -0.27629,-0.27863 -0.239714,-0.44516 0.01625,-0.074 0.114148,-0.20654 0.276238,-0.37405 l 0.251072,-0.25947 -0.229306,0.02 c -0.126118,0.011 -0.359547,0.0295 -0.518733,0.041 -0.390604,0.0284 -0.970354,0.16325 -1.247397,0.29025 -0.310365,0.14227 -0.634507,0.39027 -0.803679,0.61489 -0.338021,0.44882 -0.501022,0.91847 -0.67688,1.95025 -0.217611,1.27676 -0.485021,1.9314 -1.021542,2.50081 -0.672263,0.71348 -1.569244,1.01387 -3.17538,1.06342 -0.519197,0.016 -0.674622,0.01 -0.760151,-0.0295 z m 3.618219,-5.81184 c -0.0676,-0.1174 -0.226657,-0.31363 -0.353466,-0.43605 -0.505378,-0.4879 -1.223053,-0.70162 -2.504602,-0.74586 -0.339549,-0.0117 -0.668688,-0.0369 -0.73142,-0.056 -0.243893,-0.0741 -0.344989,-0.40573 -0.190019,-0.62337 0.121807,-0.17106 0.25825,-0.19583 0.93258,-0.16932 1.607103,0.0632 2.425818,0.33367 3.119762,1.03071 0.179476,0.18028 0.326251,0.3486 0.326168,0.37405 -7e-5,0.0255 -0.04859,0.11772 -0.107797,0.20503 -0.05921,0.0873 -0.162526,0.26591 -0.229598,0.39687 -0.06707,0.13097 -0.125721,0.23796 -0.130328,0.23775 -0.0046,-2.1e-4 -0.06368,-0.0964 -0.13128,-0.21385 z"
       id="path21"
       inkscape:connector-curvature="0" />
  </g>
</svg>
