<?xml version="1.0" encoding="utf-8"?>
<!-- Generator: Adobe Illustrator 22.1.0, SVG Export Plug-In . SVG Version: 6.00 Build 0)  -->
<svg version="1.1" id="Слой_1" xmlns="http://www.w3.org/2000/svg" xmlns:xlink="http://www.w3.org/1999/xlink" x="0px" y="0px"
	 viewBox="0 0 2500 2500" style="enable-background:new 0 0 2500 2500;" xml:space="preserve">
<style type="text/css">
	.st0{fill:#ED8117;}
	.st1{fill:#EEBB18;}
	.st2{fill:#5B6A72;}
	.st3{fill:#FEFEFE;}
	.st4{fill:#979797;}
</style>
<path class="st0" d="M870.9,1845c111.1,78.8,314.8-19.5,459.2-219.4c2-2.7,4.2-5.1,6.1-7.9c79.4-113.5,52.1-270.4-61-350.7
	c-113.1-80.3-269.1-53.3-348.4,60.2c-1.9,2.8-3.5,5.7-5.4,8.5C783.1,1540,759.8,1766.2,870.9,1845"/>
<path class="st1" d="M984.5,1693.8c77.3,53.5,220.1-14.6,321.8-152.2c1.5-1.8,3-3.5,4.4-5.4c55.2-76.2,38-182.8-38.2-237.9
	c-1-0.7-2-1.4-3.1-2.2c-78.8-54.6-187.9-35.5-243.8,42.6c-1.4,1.9-2.5,3.9-3.8,5.8C924.3,1485,907.1,1640.2,984.5,1693.8"/>
<g>
	<path class="st2" d="M504.4,1044c-11.7,15-17.4,37.6,14.3,27.7c90.4-28.1,295.3-60.9,533.1,104.1
		c321.3,222.8,295.2-354.7,295.2-354.7C1270.7,768.3,886.8,553.7,504.4,1044 M1725.6,1914.6c1.4,32.6,20.6,19.8,30.7,4
		c330.7-516.8,1.4-801.5-73.6-854.6c0,0-548.9,167.1-232.9,391C1683.7,1620.8,1721.6,1821.6,1725.6,1914.6"/>
</g>
<path class="st2" d="M1462.6,1611.1h-2.6c-28.6-0.8-58.5-13.6-99.8-42.8c-29.1-20.5-110-77.8-190.7-135l-4.7-3.4l-127-89.8
	l-68.6-48.5c-41.3-29.2-63.3-53.1-73.6-79.9c-16.2-41.9,1.3-80.3,15.7-105.6c7.6-13.2,21.5-38.2,40.7-72.9
	c70.6-127.2,217.5-392,379.9-660.2c58.4-96.5,147.8-177.5,265.5-240.8c62.3-33.5,166.3-79.5,307.9-108.9
	c56-11.6,113.4-19.5,161.6-22.2c73.9-4.2,87,5.2,93.3,9.6l0.6,0.4c6.5,4.6,19.5,15.1,40,84.9c13.8,46.8,25.7,104,33.6,161.1
	c21.8,156.6,33.1,450.5-134.9,658.8c-196.7,243.9-395.4,472.1-490.9,581.6c-26,29.9-44.8,51.4-54.6,63.1
	c-14.3,16.9-28.4,29.2-43,37.5C1496.2,1606.5,1479.6,1611,1462.6,1611.1 M2101.9,62.3c-51.7,0-164.8,10.7-292.4,49.7
	c-138.2,42.3-324.1,127.5-424.4,293.3c-161.8,267.2-308.3,531.3-378.8,658.2c-19.3,34.8-33.3,60-41.1,73.6
	c-16.8,29.3-15,43.3-11.6,52.2c5.4,14.1,21.8,30.4,51.5,51.5l68.6,48.5l127,89.8l4.8,3.4c80.7,57.1,161.6,114.4,190.7,135
	c61.3,43.3,79.4,39.3,110.2,2.9c10.1-12,29-33.8,55.2-63.8c95.2-109.3,293.4-336.9,489.3-579.8c121.6-150.8,138.9-355.4,132-500.5
	c-7.5-157.2-44.9-282.2-59.9-313.1C2116,62.5,2109,62.2,2101.9,62.3"/>
<path class="st3" d="M2127.7,28l-0.4,0.4l0.2-0.6c-28.8-21.3-557,14.1-754.7,355s-369.4,672.3-404.6,736.2s-15.6,99,47.1,145.3
	c28.6,21.1,109,80.5,188.3,139.1c79.3,58.6,159.8,118,188.3,139.1v0c62.7,46.4,100.7,53.9,146.3-2.4s285.3-337.5,524.9-647.5
	C2302.5,582.7,2156.4,49.3,2127.7,28z M1894.1,724.5c-70.4,100.1-208.7,124.1-308.8,53.5c-100.1-70.6-124-208.8-53.6-309
	s208.7-124.1,308.8-53.5C1940.5,486.1,1964.4,624.4,1894.1,724.5z"/>
<path class="st2" d="M1712.5,849.9c-139.8-0.4-252.8-114.1-252.4-253.8c0.2-51.9,16.2-102.5,46.1-144.9
	c80.3-114.1,237.9-141.6,352.1-61.3c0.1,0.1,0.2,0.1,0.3,0.2c114,80.4,141.5,238.5,61.1,352.5c-38.5,55-97.3,92.3-163.5,103.5
	C1741.8,848.6,1727.1,849.9,1712.5,849.9 M1713.2,406.3c-11,0-22.1,0.9-32.9,2.8c-49.8,8.5-94,36.6-123,78
	c-60.4,85.9-39.8,204.9,46,265.4c85.9,60.6,204.6,40,265.1-45.8c0,0,0.1-0.1,0.1-0.1c60.5-85.8,39.8-204.9-46-265.4
	C1790.6,418.5,1752.4,406.3,1713.2,406.3"/>
<g>
	<path class="st4" d="M253.5,2481.9l351.1-494.1l25.5,18.1L279,2500L253.5,2481.9z M454.8,2418.9l205.4-290.4l25.6,18.1L480.4,2437
		L454.8,2418.9z"/>
</g>
</svg>
