<?xml version="1.0" encoding="UTF-8" standalone="no"?>
<svg
   xmlns:dc="http://purl.org/dc/elements/1.1/"
   xmlns:cc="http://creativecommons.org/ns#"
   xmlns:rdf="http://www.w3.org/1999/02/22-rdf-syntax-ns#"
   xmlns:svg="http://www.w3.org/2000/svg"
   xmlns="http://www.w3.org/2000/svg"
   xmlns:sodipodi="http://sodipodi.sourceforge.net/DTD/sodipodi-0.dtd"
   xmlns:inkscape="http://www.inkscape.org/namespaces/inkscape"
   width="110mm"
   height="98mm"
   viewBox="0 0 110 98"
   version="1.1"
   id="svg8"
   sodipodi:docname="tinkoff.svg"
   inkscape:version="0.92.1 r15371">
  <defs
     id="defs2" />
  <sodipodi:namedview
     id="base"
     pagecolor="#ffffff"
     bordercolor="#666666"
     borderopacity="1.0"
     inkscape:pageopacity="0.0"
     inkscape:pageshadow="2"
     inkscape:zoom="0.98994949"
     inkscape:cx="130.30968"
     inkscape:cy="128.02618"
     inkscape:document-units="mm"
     inkscape:current-layer="layer1"
     showgrid="false"
     inkscape:window-width="2560"
     inkscape:window-height="1377"
     inkscape:window-x="-8"
     inkscape:window-y="-8"
     inkscape:window-maximized="1"
     showguides="false" />
  <metadata
     id="metadata5">
    <rdf:RDF>
      <cc:Work
         rdf:about="">
        <dc:format>image/svg+xml</dc:format>
        <dc:type
           rdf:resource="http://purl.org/dc/dcmitype/StillImage" />
        <dc:title></dc:title>
      </cc:Work>
    </rdf:RDF>
  </metadata>
  <g
     inkscape:label="Layer 1"
     inkscape:groupmode="layer"
     id="layer1"
     transform="translate(0,-199)">
    <g
       id="g4986"
       transform="translate(122.40945,35.279578)">
      <g
         id="g4994">
        <path
           inkscape:connector-curvature="0"
           id="path4990"
           d="m -186.33351,314.53021 c 1.13444,-0.0497 2.92038,-0.0494 3.96875,7.9e-4 1.04838,0.0501 0.1202,0.0908 -2.06261,0.0904 -2.18281,-2.6e-4 -3.04058,-0.0414 -1.90614,-0.0911 z m 116.007704,5.3e-4 c 1.055026,-0.0502 2.781432,-0.0502 3.836459,0 1.055026,0.0502 0.191822,0.0913 -1.91823,0.0913 -2.110052,0 -2.973255,-0.0411 -1.918229,-0.0913 z m 17.714093,-1.8e-4 c 1.1934,-0.0489 3.217463,-0.0492 4.497917,-5.3e-4 1.280451,0.0486 0.304032,0.0886 -2.169822,0.0889 -2.473854,2.6e-4 -3.521498,-0.0395 -2.328095,-0.0884 z M -169.90562,277.68543 c 0,-1.81901 0.0423,-2.56316 0.0939,-1.65365 0.0517,0.90951 0.0517,2.39779 0,3.30729 -0.0517,0.90951 -0.0939,0.16537 -0.0939,-1.65364 z m 102.30335,-30.81004 c -0.644723,-0.77684 -2.548564,-1.20471 -6.361557,-1.42968 -4.588965,-0.27075 -5.965724,-0.7461 -7.780644,-2.6864 -2.097355,-2.24224 -2.110561,-2.30726 -2.216346,-10.91295 l -0.09351,-7.60677 h 16.966402 16.966398 l -0.08105,7.60677 c -0.09132,8.57087 -0.179165,9.01017 -2.207302,11.03831 -0.885383,0.88538 -3.705172,2.4669 -3.954264,2.2178 -0.05143,-0.0514 0.01405,-0.68872 0.145486,-1.41621 0.459886,-2.54521 0.442852,-2.51375 1.2714,-2.34804 0.871244,0.17425 2.265743,-0.45097 2.663489,-1.19416 0.215543,-0.40275 -0.06637,-0.97598 -1.523053,-3.09687 -2.504281,-3.64616 -2.448637,-3.62189 -8.398396,-3.66311 -4.639895,-0.0322 -5.69336,-0.1748 -4.902145,-0.6638 0.860531,-0.53183 -0.858904,-3.2822 -2.74174,-4.38561 -0.63745,-0.37357 -1.350536,-0.97154 -1.584631,-1.32882 -0.521515,-0.79593 -1.024565,-0.82742 -1.511136,-0.0946 -0.368002,0.55423 -0.371986,0.55353 -2.953057,-0.52068 -1.421509,-0.59162 -2.497903,-0.93066 -2.391987,-0.75343 0.105915,0.17724 0.839692,1.12756 1.630614,2.11183 l 1.438044,1.78958 -0.694205,1.04901 c -0.381813,0.57696 -0.694206,1.276 -0.694206,1.55343 0,0.74581 1.192998,1.4296 2.133724,1.22298 0.668052,-0.14673 0.776693,-0.0924 0.776693,0.38871 0,0.51668 -0.09884,0.54619 -1.296956,0.38726 -1.113409,-0.1477 -1.491285,-0.0663 -2.670093,0.5753 -1.754908,0.95515 -2.382952,1.75762 -2.382952,3.04481 0,1.33569 0.756008,2.93104 1.306719,2.75748 0.323946,-0.1021 0.415547,0.0884 0.424532,0.88309 0.0084,0.7426 0.252103,1.31711 0.912307,2.15068 l 0.900848,1.13741 0.768721,-0.89799 c 0.966166,-1.12865 1.534903,-2.39844 1.235734,-2.75896 -0.12481,-0.1504 -0.133837,-0.42408 -0.02006,-0.60816 0.164777,-0.26662 0.602568,-0.24471 2.152002,0.1077 1.901307,0.43245 1.954808,0.43048 2.373998,-0.0872 0.389014,-0.48041 0.57482,-0.50594 2.000052,-0.2748 0.864155,0.14014 2.247897,0.18782 3.074982,0.10594 1.501248,-0.14861 1.505196,-0.14709 2.336871,0.90299 l 0.833083,1.05185 -0.561832,1.68831 c -0.552175,1.65928 -0.580977,1.69133 -1.675413,1.86425 -0.612471,0.0968 -1.557512,0.4684 -2.100096,0.82583 -1.160531,0.76451 -1.109911,0.75559 -1.51547,0.26692 z m 25.123861,-11.35861 c 0,-0.0549 0.208359,-0.2633 0.46302,-0.46302 0.419646,-0.32911 0.429004,-0.31975 0.0999,0.0999 -0.345644,0.44073 -0.562917,0.58089 -0.562917,0.36313 z m -41.542725,-20.47146 c -0.0024,-6.33234 -0.08973,-8.45853 -0.393735,-9.59115 -0.214826,-0.80036 -0.392006,-1.5445 -0.393734,-1.65364 -0.0019,-0.10914 2.599862,-0.19844 5.781312,-0.19844 h 5.784451 l 1.02857,0.81952 c 0.565711,0.45073 1.340433,0.98153 1.721602,1.17954 0.535398,0.27814 0.664649,0.50849 0.568254,1.01275 -0.199115,1.0416 0.41185,2.44866 1.464601,3.37299 0.535582,0.47025 1.167781,1.28829 1.404884,1.81788 0.237101,0.52958 0.86219,1.31823 1.389081,1.75253 l 0.95799,0.78966 -1.038457,1.01402 -1.038456,1.01403 -3.920257,-0.1901 c -2.156142,-0.10456 -4.03932,-0.31448 -4.184841,-0.4665 -0.182155,-0.19028 -0.03842,-0.23637 0.461341,-0.14795 0.957017,0.16933 1.510649,-0.43769 0.763762,-0.83742 -0.290872,-0.15567 -0.774808,-0.28303 -1.075417,-0.28303 -0.300609,0 -0.544484,-0.0298 -0.541941,-0.0661 0.0026,-0.0364 0.357648,-1.25677 0.78913,-2.71198 0.431483,-1.45521 0.786591,-2.91768 0.789131,-3.24994 0.0038,-0.49087 -1.084644,-3.03922 -1.485392,-3.47786 -0.05689,-0.0623 -0.692005,0.53305 -1.411367,1.32292 l -1.307933,1.43613 -0.01201,3.12507 -0.01201,3.12507 -1.190625,-0.17855 c -1.091874,-0.16374 -1.190625,-0.13217 -1.190625,0.38066 0,0.30757 0.168252,0.55921 0.373894,0.55921 0.303053,0 0.318831,0.14587 0.08328,0.76993 -0.341358,0.90436 0.04039,2.50818 0.795123,3.34052 0.259212,0.28587 0.618238,0.85052 0.797838,1.25479 0.416105,0.93663 1.01514,1.16608 1.61858,0.61997 0.632029,-0.57197 0.674294,-0.56879 6.692017,0.50457 l 5.233784,0.93353 2.54178,-1.84914 c 3.001767,-2.18379 3.444198,-2.17398 3.449138,0.0765 0.0019,0.86798 0.177197,1.62435 0.484,2.08843 l 0.481015,0.72761 h -13.127305 -13.127305 l -0.0031,-8.13594 z m 13.430745,2.13988 c 0.181901,-0.0734 0.479557,-0.0734 0.661458,0 0.181901,0.0734 0.03307,0.13345 -0.330729,0.13345 -0.363802,0 -0.51263,-0.0601 -0.330729,-0.13345 z m 46.939172,-4.58728 c 0,-0.3638 0.06005,-0.51263 0.133453,-0.33072 0.0734,0.1819 0.0734,0.47955 0,0.66145 -0.0734,0.1819 -0.133453,0.0331 -0.133453,-0.33073 z m -80.739693,-14.38739 c 0,-0.0549 0.20836,-0.2633 0.46302,-0.46302 0.41964,-0.32911 0.429,-0.31975 0.0999,0.0999 -0.34565,0.44073 -0.56292,0.58089 -0.56292,0.36313 z m 5.556249,0 c 0,-0.0549 0.20836,-0.2633 0.463021,-0.46302 0.419645,-0.32911 0.429003,-0.31975 0.0999,0.0999 -0.345644,0.44073 -0.562917,0.58089 -0.562917,0.36313 z"
           style="fill:#fae316;stroke-width:0.26458335" />
        <path
           sodipodi:nodetypes="cccscccssssssccsscsccccccsccccccscsccscccccccccccsscccsccscccsccssscscsccccscsscccsscssscccccscscccccccscccccccccccscccccsccsssccccccccccccssccscccscscccccccccscccscsscsccscccccsccccscsccccccsccscccccsssccssscscccsscccccccccscccsssccccsccscsccccccccccccccscccccccscscsccccsssssccsccscccscsccccscsccscccccccsccccccsccsccssccccccccccsccccccccccscccscccccccccccccccccccssccccsccccccscscscsccccccccccscccsccccccccccccccccsscsscccccsccccsccccccccccccscscccsccsccccscscccsscscccssscsccssssccsccccccsscccccccscccccccsccsccssccccsccssccccscssscccccssccscccccccscscccccccssccccsscsscccscccccsccccsccccccccccsccccsscccsccccscscccccsccccssssccscssscccccsccccccccccccccccccsccssccccsccccsscscccccccccscccscccccsccccccccsscccsccssssccccsccccccscccccccccccccccccccccscccccccscccccccccscscccc"
           inkscape:connector-curvature="0"
           id="path4988"
           d="m -70.761318,261.24332 c -2.232128,-0.23331 -4.809464,-0.78861 -6.197756,-1.33535 -0.636053,-0.25049 -0.719381,-0.39549 -0.564121,-0.98166 0.339595,-1.28214 0.273328,-1.37204 -1.467715,-1.99114 -0.945886,-0.33635 -2.952219,-1.18567 -4.458518,-1.88739 l -2.738729,-1.27584 2.011125,-0.76562 c 1.106117,-0.42108 2.011122,-0.90696 2.011122,-1.07971 0,-0.17276 -0.222137,-1.1152 -0.493639,-2.09432 -0.271499,-0.97911 -0.464957,-1.78021 -0.429905,-1.78021 0.03505,0 0.949232,0.40354 2.031513,0.89675 2.042594,0.93084 7.57714,2.80742 8.279847,2.80742 0.268158,0 0.401767,0.25857 0.401767,0.77754 0,0.72359 0.0872,0.79118 1.256771,0.97425 1.660104,0.25985 6.486829,0.2642 8.069792,0.007 1.167924,-0.18957 1.256771,-0.25896 1.256771,-0.98152 0,-0.51897 0.133609,-0.77754 0.401767,-0.77754 0.716701,0 6.291339,-1.88517 8.300598,-2.80701 1.075521,-0.49344 1.989204,-0.89716 2.030408,-0.89716 0.0412,0 -0.169143,0.89783 -0.467434,1.99518 -0.298292,1.09734 -0.4976,2.03958 -0.442908,2.09385 0.0547,0.0543 0.970886,0.4443 2.03598,0.86671 l 1.936538,0.76803 -2.680303,1.26074 c -1.474166,0.69341 -3.476702,1.54213 -4.450078,1.88605 -1.563261,0.55233 -1.758484,0.69646 -1.672997,1.23518 0.264252,1.66525 0.301882,1.62383 -2.036453,2.24156 -2.182564,0.57659 -6.929967,1.17913 -8.755759,1.11129 -0.520427,-0.0193 -1.945886,-0.13964 -3.167684,-0.26735 z m 8.703741,-1.30329 c 3.308988,-0.49143 4.283785,-0.79368 4.09215,-1.26885 -0.09596,-0.23795 -0.528786,-1.39491 -0.961824,-2.57102 l -0.787342,-2.13838 -1.899097,0.38553 c -2.489952,0.50548 -8.730253,0.48848 -11.02722,-0.03 -0.945886,-0.21353 -1.741649,-0.36908 -1.768367,-0.34567 -0.02671,0.0234 -0.463798,1.18963 -0.971296,2.59161 l -0.922724,2.54906 1.103591,0.27213 c 1.128699,0.27831 4.498684,0.7678 6.395254,0.9289 1.410809,0.11984 4.623213,-0.0579 6.746875,-0.37328 z m -13.894612,-5.4183 c 0.400595,-1.09836 0.649388,-2.07599 0.552873,-2.1725 -0.09651,-0.0965 -1.033404,-0.4946 -2.081974,-0.88465 -1.048573,-0.39004 -2.35298,-0.90229 -2.898683,-1.13834 -1.117542,-0.4834 -1.134398,-0.44954 -0.622678,1.25077 l 0.369506,1.22778 -1.42784,0.45009 c -0.785315,0.24755 -1.427842,0.53275 -1.427842,0.63377 0,0.31024 5.67994,2.54815 6.645288,2.61826 0.08965,0.007 0.490757,-0.88682 0.89135,-1.98518 z m 19.998153,1.57507 c 1.929072,-0.56641 5.273543,-1.9618 5.273543,-2.20026 0,-0.10536 -0.64816,-0.39589 -1.440355,-0.6456 l -1.440352,-0.45403 0.382019,-1.08276 c 0.612198,-1.73516 0.545158,-1.88765 -0.610166,-1.38791 -0.545703,0.23605 -1.85011,0.7483 -2.898683,1.13834 -1.04857,0.39005 -1.972889,0.77557 -2.054042,0.85672 -0.114432,0.11443 1.165246,4.19745 1.315543,4.19745 0.01947,0 0.682095,-0.18988 1.472493,-0.42195 z m -11.91037,-7.10377 c -1.048906,-1.11651 -2.068729,-1.39533 -5.739389,-1.56917 -6.447803,-0.30537 -9.622846,-2.0006 -11.54425,-6.16376 -0.585896,-1.26948 -0.590603,-1.38909 -0.722032,-18.34344 l -0.132292,-17.06562 -0.748715,-1.71979 c -0.411795,-0.94589 -0.811485,-1.86862 -0.888204,-2.05052 -0.10941,-0.25942 1.268008,-0.33073 6.38801,-0.33073 h 6.527499 l -1.072182,-1.52136 c -1.389306,-1.97133 -2.582328,-2.7729 -4.336484,-2.91363 -1.649798,-0.13235 -2.895142,0.57128 -3.769304,2.12968 -0.63632,1.1344 -0.909995,1.03561 -0.909995,-0.32847 0,-1.49147 1.012717,-2.38359 5.88698,-5.18594 2.929035,-1.68398 4.431487,-2.69666 4.430934,-2.98651 -4.6e-4,-0.24121 -0.416803,-2.76028 -0.925205,-5.59794 -0.508402,-2.83766 -0.92396,-5.51656 -0.923462,-5.95312 0.0019,-1.57255 1.585129,-3.12615 4.216622,-4.13747 2.062433,-0.79261 6.402361,-0.98148 8.74752,-0.38068 3.339533,0.85555 5.554112,2.64651 5.554112,4.49168 0,0.45173 -0.416007,3.20233 -0.924462,6.11244 -0.508453,2.91011 -0.925171,5.42464 -0.926042,5.58785 -7.94e-4,0.16321 1.932538,1.41337 4.296458,2.77813 2.363922,1.36476 4.628354,2.77904 5.032071,3.14284 0.893537,0.80519 1.27491,2.01169 0.92075,2.91285 l -0.258998,0.65902 -0.342665,-0.79375 c -1.176353,-2.72492 -4.474903,-3.33671 -6.776953,-1.25695 -0.585713,0.52916 -1.417767,1.47493 -1.849006,2.10171 l -0.784074,1.13962 h 6.52331 c 6.1116,0 6.510832,0.0292 6.325611,0.46302 -0.108733,0.25466 -0.508178,1.23693 -0.887651,2.18281 l -0.689954,1.71979 -0.132845,16.93334 -0.132842,16.93333 -0.697222,1.48696 c -0.901488,1.92261 -2.240629,3.38724 -3.945326,4.31505 -1.94823,1.06036 -3.663958,1.44976 -7.13141,1.61854 -4.238567,0.20631 -4.539107,0.27497 -5.753693,1.31461 -0.592516,0.50717 -1.126916,0.92213 -1.187558,0.92213 -0.06064,0 -0.383591,-0.29095 -0.717662,-0.64655 z m 1.777606,-2.38457 c 0.542584,-0.35743 1.487625,-0.72905 2.100096,-0.82583 1.094436,-0.17292 1.123238,-0.20497 1.675413,-1.86425 l 0.561832,-1.68831 -0.833083,-1.05185 c -0.831675,-1.05008 -0.835623,-1.0516 -2.336871,-0.90299 -0.827085,0.0819 -2.210827,0.0342 -3.074982,-0.10594 -1.425231,-0.23114 -1.611038,-0.20561 -2.000052,0.2748 -0.41919,0.51768 -0.472691,0.51965 -2.373998,0.0872 -1.549434,-0.35241 -1.987224,-0.37432 -2.152002,-0.1077 -0.113773,0.18408 -0.104746,0.45776 0.02006,0.60816 0.299169,0.36052 -0.269568,1.63031 -1.235734,2.75896 l -0.768721,0.89799 -0.900848,-1.13741 c -0.660204,-0.83357 -0.903906,-1.40808 -0.912307,-2.15068 -0.009,-0.79464 -0.100586,-0.98519 -0.424532,-0.88309 -0.550703,0.17356 -1.306711,-1.42179 -1.306711,-2.75748 0,-1.28719 0.628044,-2.08966 2.382952,-3.04481 1.178808,-0.64158 1.556684,-0.723 2.670093,-0.5753 1.19812,0.15893 1.296956,0.12942 1.296956,-0.38726 0,-0.48107 -0.108641,-0.53544 -0.776693,-0.38871 -0.940726,0.20662 -2.133724,-0.47717 -2.133724,-1.22298 0,-0.27743 0.312393,-0.97647 0.694206,-1.55343 l 0.694205,-1.04901 -1.438044,-1.78958 c -0.790922,-0.98427 -1.524699,-1.93459 -1.630614,-2.11183 -0.105916,-0.17723 0.970478,0.16181 2.391987,0.75343 2.581071,1.07421 2.585055,1.07491 2.953057,0.52068 0.486571,-0.73282 0.989621,-0.70133 1.511136,0.0946 0.234095,0.35728 0.947181,0.95525 1.584631,1.32882 1.882836,1.10341 3.602271,3.85378 2.74174,4.38561 -0.791215,0.489 0.26225,0.63165 4.902145,0.6638 5.949759,0.0412 5.894115,0.017 8.398396,3.66311 1.456679,2.12089 1.738596,2.69412 1.523053,3.09687 -0.397746,0.74319 -1.792245,1.36841 -2.663489,1.19416 -0.828548,-0.16571 -0.811514,-0.19717 -1.2714,2.34804 -0.131448,0.72749 -0.196916,1.36478 -0.145486,1.41621 0.249092,0.2491 3.068881,-1.33242 3.954264,-2.2178 2.028137,-2.02814 2.115984,-2.46744 2.207302,-11.03831 l 0.08105,-7.60677 h -16.966398 -16.966402 l 0.09351,7.60677 c 0.105785,8.60569 0.118991,8.67071 2.216346,10.91295 1.81492,1.9403 3.191679,2.41565 7.780644,2.6864 3.812993,0.22497 5.716834,0.65284 6.361557,1.42968 0.405559,0.48867 0.354939,0.49759 1.51547,-0.26692 z m 6.2639,-2.72357 c 0.263575,-0.83674 0.526507,-1.64497 0.584292,-1.79605 0.05778,-0.15108 -0.463547,-0.5508 -1.158515,-0.88827 -1.131221,-0.54929 -1.215078,-0.5599 -0.800558,-0.10134 0.58646,0.64878 0.580486,0.97235 -0.05189,2.81039 l -0.514916,1.49663 h 0.731181 c 0.65818,0 0.779026,-0.15189 1.210411,-1.52136 z m 2.662393,-0.87162 c 0.457989,-2.3579 0.457015,-2.40153 -0.0664,-2.97656 -0.773329,-0.84959 -1.051065,-1.48715 -1.262719,-2.89869 -0.159646,-1.06471 -0.122181,-1.25677 0.24515,-1.25677 0.282787,0 0.74789,0.68967 1.337226,1.98288 1.021217,2.24091 1.765985,2.82416 2.929395,2.29407 0.792625,-0.36114 0.732557,-0.52766 -1.143408,-3.1696 -1.418132,-1.99717 -2.050862,-2.45411 -3.402981,-2.45756 -0.560882,-10e-4 -2.822977,-0.0256 -5.026874,-0.0538 -4.601731,-0.0588 -4.944433,-0.20023 -5.238621,-2.16202 -0.212989,-1.42031 -1.395716,-3.10861 -2.497399,-3.56494 -0.45353,-0.18786 -0.830845,-0.53548 -0.838478,-0.77249 -0.01082,-0.33619 -0.103867,-0.302 -0.423238,0.15549 l -0.409358,0.58641 -1.296554,-0.65701 c -0.713107,-0.36136 -1.296556,-0.59962 -1.296556,-0.52947 0,0.0702 0.364461,0.54264 0.809914,1.04998 0.876696,0.99851 0.834099,1.39434 -0.256241,2.38109 -0.658263,0.59572 -0.700419,1.02622 -0.145585,1.48669 0.309102,0.25653 0.482383,0.26439 0.714375,0.0324 0.168458,-0.16846 0.760992,-0.30629 1.316744,-0.30629 0.975257,0 1.003369,0.0254 0.806979,0.72761 -0.269234,0.96273 -0.251171,3.78134 0.02797,4.36437 0.199779,0.41727 0.09728,0.44503 -1.063513,0.288 -0.706531,-0.0956 -1.45632,-0.18432 -1.666198,-0.19719 -0.453525,-0.0278 -2.399099,3.18205 -2.390643,3.94416 0.0032,0.29169 0.223774,0.8137 0.490085,1.16003 l 0.484206,0.62968 0.428787,-0.61217 c 0.24784,-0.35385 0.365609,-0.86391 0.279072,-1.2087 -0.20256,-0.80706 0.654846,-2.21751 1.345575,-2.21348 0.296045,0.002 1.177639,0.17331 1.959097,0.38131 1.3159,0.35024 1.472224,0.34153 2.116667,-0.11792 0.611748,-0.43614 0.887671,-0.46355 2.283335,-0.22685 1.912316,0.32433 4.182468,0.14119 5.015482,-0.40462 0.56543,-0.37049 0.653214,-0.35175 1.23041,0.26265 0.341847,0.36387 1.263153,1.02869 2.047349,1.47736 l 1.42581,0.81577 -0.15902,1.08739 c -0.08746,0.59806 -0.235997,1.53388 -0.330081,2.07958 -0.160022,0.92815 -0.128256,0.99219 0.492192,0.99219 0.6248,0 0.690202,-0.13874 1.128053,-2.39298 z M -73.43466,230.20833 c 0,-0.22687 0.119062,-0.41249 0.264583,-0.41249 0.145521,0 0.264584,0.11204 0.264584,0.24897 0,0.13693 -0.119063,0.32255 -0.264584,0.41249 -0.145521,0.0899 -0.264583,-0.0221 -0.264583,-0.24897 z m -3.889722,7.73196 c -0.08576,-0.44865 0.09567,-0.76576 0.689197,-1.20457 0.691582,-0.51131 0.956369,-0.56174 1.870774,-0.35629 0.956852,0.21499 1.065168,0.18771 1.065168,-0.26826 0,-0.56949 -0.937631,-1.02366 -2.113323,-1.02366 -0.97015,0 -3.016221,1.53666 -3.134127,2.35383 -0.04844,0.33572 -0.01598,0.89762 0.07212,1.24866 0.153128,0.61011 0.1934,0.62108 0.913398,0.24876 0.57323,-0.29643 0.725392,-0.53501 0.636796,-0.99847 z m 19.079983,-15.48664 c -0.306803,-0.46408 -0.482094,-1.22045 -0.483999,-2.08843 -0.0049,-2.25044 -0.447371,-2.26025 -3.449138,-0.0765 l -2.541781,1.84914 -5.233784,-0.93353 c -6.017723,-1.07336 -6.059987,-1.07654 -6.692016,-0.50457 -0.603441,0.54611 -1.202476,0.31666 -1.618581,-0.61997 -0.179599,-0.40427 -0.538625,-0.96892 -0.797838,-1.25479 -0.754734,-0.83234 -1.13648,-2.43616 -0.795123,-3.34052 0.235556,-0.62406 0.219779,-0.76993 -0.08328,-0.76993 -0.205642,0 -0.373893,-0.25164 -0.373893,-0.55921 0,-0.51283 0.09875,-0.5444 1.190625,-0.38066 l 1.190625,0.17855 0.01201,-3.12507 0.01201,-3.12507 1.307934,-1.43613 c 0.719362,-0.78987 1.354478,-1.38519 1.411366,-1.32292 0.400749,0.43864 1.489147,2.98699 1.485393,3.47786 -0.0025,0.33226 -0.357651,1.79473 -0.789134,3.24994 -0.431482,1.45521 -0.78659,2.6756 -0.78913,2.71198 -0.0026,0.0364 0.241332,0.0661 0.541941,0.0661 0.300609,0 0.784545,0.12736 1.075417,0.28303 0.746887,0.39973 0.193255,1.00675 -0.763762,0.83742 -0.499766,-0.0884 -0.643496,-0.0423 -0.461341,0.14795 0.145521,0.15202 2.028699,0.36194 4.184841,0.4665 l 3.920257,0.1901 1.038456,-1.01403 1.038457,-1.01402 -0.95799,-0.78966 c -0.526891,-0.4343 -1.15198,-1.22295 -1.389081,-1.75253 -0.237103,-0.52959 -0.869302,-1.34763 -1.404884,-1.81788 -1.052751,-0.92433 -1.663716,-2.33139 -1.464601,-3.37299 0.0964,-0.50426 -0.03286,-0.73461 -0.568254,-1.01275 -0.381169,-0.19801 -1.155891,-0.72881 -1.721602,-1.17954 l -1.02857,-0.81952 H -79.0273 c -3.18145,0 -5.78304,0.0893 -5.781312,0.19844 0.0019,0.10914 0.178908,0.85328 0.393734,1.65364 0.304006,1.13262 0.39129,3.25881 0.393735,9.59115 l 0.0031,8.13594 h 13.127305 13.127305 z m 8.093073,-1.5279 c 0,-2.21734 -0.0123,-2.26017 -0.727604,-2.53116 -0.942457,-0.35706 -1.800953,-1.17061 -2.166464,-2.05303 -0.159928,-0.3861 -0.729814,-0.93989 -1.26641,-1.23063 -1.308058,-0.70875 -2.02918,-1.96874 -1.776585,-3.10417 l 0.19222,-0.86404 0.456105,1.05833 c 0.537863,1.24805 1.247082,1.93988 2.268725,2.21311 0.508434,0.13598 0.803736,0.43269 0.94084,0.94534 0.23045,0.86169 1.214533,2.00092 1.728417,2.00092 0.279162,0 0.350756,-1.04174 0.350756,-5.10378 0,-3.68311 0.110474,-5.52792 0.396875,-6.62749 0.218281,-0.83804 0.396875,-1.63696 0.396875,-1.77538 0,-0.15142 -2.278372,-0.25168 -5.719239,-0.25168 h -5.719241 l -1.263653,0.92761 c -1.839013,1.34996 -2.914187,1.71822 -5.016453,1.71822 -1.853575,0 -1.860579,0.003 -1.859592,0.72761 0.0013,1.03423 0.85421,2.29906 1.819802,2.69902 0.520284,0.2155 0.825042,0.5302 0.825042,0.85195 0,0.86832 0.76423,2.04257 1.616035,2.48306 0.751719,0.38872 0.851594,0.38596 1.31844,-0.0365 0.355939,-0.32212 0.506304,-0.81616 0.509159,-1.67288 0.0056,-1.67181 0.399444,-2.23319 0.645734,-0.92035 0.268341,1.43038 0.819431,2.38292 1.66896,2.88475 0.641147,0.37873 0.721344,0.56581 0.634217,1.47942 -0.13684,1.4349 0.36925,2.50384 1.50994,3.18923 0.528582,0.3176 0.994154,0.59979 1.034606,0.6271 0.04045,0.0273 -0.05674,0.39235 -0.21599,0.8112 -0.397418,1.04528 -0.111765,2.29277 0.714113,3.11865 0.664004,0.664 0.809045,0.69111 3.69774,0.69111 h 3.00663 z m -12.409025,-1.64456 c 1.725927,-1.24473 2.083094,-1.62083 1.949736,-2.05306 -0.0898,-0.29104 -0.228621,-1.08951 -0.308502,-1.77439 -0.0867,-0.74334 -0.349406,-1.43 -0.651814,-1.70367 -0.488061,-0.44169 -0.581954,-0.38352 -2.568051,1.59092 l -2.06147,2.04938 -3.947832,-0.0811 -3.947835,-0.0811 -0.07886,1.07329 -0.07886,1.0733 4.444484,0.81675 c 2.444464,0.44921 4.600073,0.77104 4.790239,0.71518 0.190167,-0.0559 1.296609,-0.78732 2.45876,-1.62546 z m -12.781907,-1.25931 c 0.06145,-0.84713 -0.07624,-1.24108 -0.690007,-1.97407 -0.730242,-0.87211 -0.815862,-0.90363 -1.796569,-0.66146 -1.24927,0.30848 -1.458891,1.11388 -0.636688,2.44624 0.591524,0.95855 1.376013,1.38708 2.385028,1.30285 0.571434,-0.0477 0.671907,-0.19927 0.738236,-1.11356 z m -0.140732,-6.72181 c 0.735877,-2.60212 0.774988,-3.3845 0.212521,-4.25146 -0.213836,-0.3296 -0.357508,-0.29175 -0.928381,0.24456 -0.650808,0.6114 -0.675394,0.74919 -0.675394,3.78542 0,3.92947 0.327872,3.98167 1.391254,0.22148 z m 10.73677,-7.06864 c 1.551358,-0.6275 2.967771,-1.97925 4.480071,-4.27552 1.373196,-2.08506 2.871806,-3.52704 4.056253,-3.90297 0.276275,-0.0877 0.499814,-0.2407 0.49675,-0.34003 -0.0031,-0.0993 -1.130818,-0.81589 -2.506123,-1.59234 l -2.500553,-1.41172 -3.16874,1.74272 -3.168743,1.74272 -3.18829,-1.73418 -3.188293,-1.73417 -2.508149,1.40318 c -1.379482,0.77175 -2.509033,1.46271 -2.510115,1.53547 -0.0011,0.0728 0.592005,0.45989 1.317969,0.86029 0.9004,0.4966 1.695304,1.25347 2.500907,2.38125 0.649534,0.90929 1.524471,2.13084 1.944304,2.71455 0.976588,1.35781 2.642243,2.50974 4.226449,2.92294 1.325616,0.34575 2.289974,0.26474 3.716303,-0.31219 z m -3.179947,-3.30371 0.115213,-2.40978 -0.629039,0.19713 c -0.345975,0.10843 -0.77787,0.25307 -0.959771,0.32143 -0.220287,0.0828 -0.330729,-0.15022 -0.330729,-0.69777 v -0.82206 h 2.778125 2.778125 v 0.82206 c 0,0.54755 -0.110443,0.78055 -0.330729,0.69777 -0.181901,-0.0684 -0.613797,-0.213 -0.959771,-0.32143 l -0.629039,-0.19713 0.115213,2.40978 0.115212,2.40979 h -1.089011 -1.089012 z m 0.31234,-12.47572 v -5.36051 l -3.316287,-1.15688 c -1.823961,-0.63629 -3.365773,-1.1074 -3.426251,-1.04692 -0.152038,0.15203 1.565838,9.82285 1.817097,10.22939 0.149934,0.2426 4.401931,2.58944 4.859295,2.68204 0.03638,0.007 0.06615,-2.39884 0.06615,-5.34712 z m -2.856965,-1.77494 c -1.046716,-0.75824 -1.820193,-1.76934 -1.555787,-2.03375 0.07042,-0.0704 0.734912,0.13304 1.476645,0.45212 1.240972,0.53385 1.348607,0.65147 1.348607,1.47362 0,0.4914 -0.04167,0.89346 -0.09259,0.89346 -0.05093,0 -0.58052,-0.35345 -1.176872,-0.78545 z m 8.90992,4.60177 c 0.163365,-0.14945 1.881228,-10.25784 1.763303,-10.37576 -0.0596,-0.0596 -1.603656,0.40962 -3.431231,1.04272 l -3.322862,1.15109 -0.0019,5.36047 -0.0019,5.36047 2.447396,-1.22384 c 1.346067,-0.6731 2.492319,-1.26492 2.547225,-1.31515 z m -3.407121,-4.70433 c 0,-0.94729 -0.07298,-0.8922 2.579687,-1.94746 0.181901,-0.0724 0.330729,0.0364 0.330729,0.24172 0,0.42736 -1.430226,1.85242 -2.315104,2.30672 -0.561004,0.28803 -0.595312,0.2534 -0.595312,-0.60098 z m 1.785937,-6.25196 c 1.928151,-0.75396 3.50573,-1.46938 3.50573,-1.58983 0,-0.45311 -1.621833,-1.55848 -2.96835,-2.0231 -1.929464,-0.66575 -6.621479,-0.67633 -8.745538,-0.0197 -1.439929,0.44513 -3.412972,1.81937 -3.084185,2.14816 0.294384,0.29438 7.262056,3.0129 7.522031,2.93481 0.145521,-0.0437 1.842161,-0.69636 3.770312,-1.45032 z m -27.654232,67.95554 c -3.976317,-0.57015 -6.776667,-2.44578 -8.435483,-5.64995 -0.376685,-0.7276 -0.723876,-1.36631 -0.771539,-1.41935 -0.0476,-0.053 -0.61494,0.15931 -1.26063,0.47188 -1.55925,0.75482 -3.49837,0.958 -5.24058,0.5491 -0.78005,-0.18308 -1.50668,-0.38318 -1.61474,-0.44467 -0.10805,-0.0615 0.0534,-0.60158 0.3588,-1.20021 0.97237,-1.906 0.97286,-4.55798 0.002,-8.16512 -0.454,-1.68554 -0.82537,-3.32265 -0.82537,-3.63802 0,-0.67454 -0.0696,-0.68334 -1.45521,-0.18415 -3.24604,1.16942 -7.22527,-0.17673 -8.7989,-2.97662 l -0.59509,-1.05883 1.12085,-0.44847 c 3.35246,-1.34139 5.60141,-4.59879 6.19523,-8.97321 l 0.17564,-1.29391 -0.93033,0.17453 c -0.51168,0.096 -1.53616,0.0446 -2.27661,-0.1142 -2.4756,-0.53092 -4.39943,-2.4702 -5.56373,-5.60843 l -0.56443,-1.52136 1.78223,-0.003 c 3.15944,-0.006 6.34758,-1.19044 8.64543,-3.21308 0.68356,-0.6017 2.18161,-2.25322 3.32899,-3.67003 2.60375,-3.21519 4.39439,-4.80602 6.64444,-5.90301 l 1.755399,-0.85582 -1.592519,-1.43003 c -0.99454,-0.89306 -1.82657,-1.93265 -2.21583,-2.7686 -1.20033,-2.57775 -0.6306,-5.8896 1.4448,-8.39859 l 1.02504,-1.23919 0.703183,1.52315 c 1.154354,2.50042 2.984958,3.99793 4.887162,3.99793 0.724738,0 0.778354,-0.0768 0.948465,-1.35919 0.374967,-2.82665 2.43686,-5.42098 5.397778,-6.79164 1.262216,-0.58431 1.8811,-0.6965 3.8828,-0.7039 1.309687,-0.005 2.715829,0.0846 3.124758,0.19866 l 0.743509,0.20747 -0.943513,1.28532 c -1.612937,2.19726 -2.128509,4.07992 -1.459584,5.32981 0.151,0.28215 1.014203,0.88222 1.918229,1.3335 2.941757,1.46848 3.925885,2.90926 3.377711,4.94502 -0.340204,1.26343 -1.811224,2.66611 -5.321192,5.074 -2.964778,2.03387 -7.167089,6.17114 -8.41888,8.28856 -2.100485,3.553 -2.896521,7.64837 -2.05159,10.55484 0.674372,2.31975 3.076532,5.08418 5.692653,6.55116 0.371438,0.20828 0.323419,0.34933 -0.366268,1.07583 -1.7204,1.81222 -4.436187,2.57621 -7.599476,2.13785 -1.04983,-0.14548 -1.945611,-0.22768 -1.990627,-0.18267 -0.04502,0.045 0.462875,0.68771 1.128646,1.42821 1.594289,1.77323 3.479342,2.67604 6.412426,3.07111 l 2.313614,0.31162 -0.03223,1.32044 c -0.03937,1.61305 -0.79621,3.17618 -2.08629,4.30889 l -0.959069,0.84207 0.691544,0.82185 c 1.450628,1.72398 2.091097,3.53165 2.532599,7.14806 0.334415,2.73925 0.651637,3.75503 1.611482,5.16018 0.415526,0.6083 0.755502,1.17385 0.755502,1.25677 0,0.22009 -3.304429,0.1238 -5.230794,-0.15241 z m 2.444766,-1.74734 c -0.28643,-0.67387 -0.83367,-3.3501 -1.132435,-5.53809 -0.444762,-3.25719 -2.243352,-6.20031 -4.323647,-7.07501 l -0.759261,-0.31925 1.524124,-0.48001 c 1.799096,-0.56661 3.049241,-1.75084 3.42941,-3.2486 l 0.260483,-1.02621 -2.008926,-0.31932 c -2.541746,-0.404 -4.464566,-1.34154 -6.094709,-2.97168 -1.265148,-1.26515 -2.925677,-4.12841 -2.925677,-5.04477 0,-0.42749 0.14374,-0.40646 1.516117,0.22183 1.076397,0.4928 2.106973,0.72831 3.553341,0.81204 2.425682,0.14042 3.493498,-0.0307 4.670187,-0.7484 l 0.876105,-0.53436 -1.343568,-1.06203 c -1.779373,-1.40652 -3.047034,-3.18157 -3.739608,-5.23642 -0.466542,-1.38422 -0.544994,-2.10659 -0.445389,-4.10104 0.318495,-6.37734 4.167939,-11.82082 12.290357,-17.37973 3.017668,-2.06527 3.789124,-2.88208 3.789124,-4.01192 0,-1.2308 -0.412086,-1.70863 -2.35318,-2.72865 -2.55056,-1.34028 -3.01217,-1.90194 -3.152008,-3.83515 -0.09525,-1.31683 0.0019,-1.82041 0.578692,-2.99931 0.38124,-0.77922 0.693163,-1.51116 0.693163,-1.62653 0,-0.39887 -3.266824,0.13346 -4.619554,0.75276 -2.896103,1.32588 -4.424669,3.49583 -4.478253,6.35733 l -0.03032,1.61908 h -2.13695 c -1.898158,0 -2.262034,-0.0828 -3.256325,-0.7414 -0.615656,-0.40778 -1.492652,-1.27098 -1.948879,-1.91823 -0.456222,-0.64726 -0.903592,-1.17683 -0.994152,-1.17683 -0.36953,0 -1.12381,2.07888 -1.24908,3.44261 -0.17445,1.89913 0.59977,3.61311 2.244796,4.96956 3.319161,2.7369 3.444248,3.15542 1.189027,3.97825 -3.004913,1.09636 -4.903073,2.68613 -8.422363,7.05401 -1.05632,1.31103 -2.49557,2.81628 -3.19833,3.34499 -2.38712,1.79592 -5.72901,3.13975 -7.80806,3.13975 -1.23476,0 -1.28385,0.33674 -0.25594,1.75573 1.07121,1.47876 2.28735,2.42862 3.36933,2.6316 0.95945,0.18 2.93976,0.0308 4.03731,-0.30409 0.6201,-0.18924 0.6203,-0.18853 0.44277,1.63403 -0.24377,2.50254 -0.81193,4.72505 -1.64979,6.45356 -0.79932,1.64899 -2.95803,3.9451 -4.24201,4.51201 -0.47294,0.20882 -0.85989,0.44739 -0.85989,0.53016 0,0.34911 1.52968,1.57545 2.43889,1.95525 1.83151,0.76507 4.65606,0.32262 6.3917,-1.00122 l 0.86923,-0.663 0.31239,2.34632 c 0.17182,1.29048 0.55636,3.09684 0.85453,4.01413 0.6864,2.11161 0.95208,5.84393 0.53415,7.5037 -0.17172,0.68196 -0.26208,1.29007 -0.2008,1.35136 0.0613,0.0613 0.51743,0.17731 1.01366,0.25783 1.89154,0.30696 4.16844,-0.83747 5.269998,-2.64884 l 0.475903,-0.78256 0.157816,0.77128 c 0.662046,3.23558 1.693281,5.03997 3.7978,6.64514 1.388253,1.05886 3.936048,1.89666 5.828139,1.9165 1.251278,0.0131 1.394307,-0.0394 1.22056,-0.44816 z m -6.240867,-8.22335 c -0.380019,-0.67953 -1.739194,-2.54519 -3.020386,-4.14592 -4.984965,-6.22824 -7.012295,-10.41192 -7.941995,-16.3894 l -0.16231,-1.04356 -0.87351,1.63489 c -0.90593,1.69557 -2.13322,3.24364 -3.29515,4.1564 -0.52236,0.41034 -0.44699,0.23211 0.33563,-0.79375 2.05097,-2.68841 2.89598,-4.9874 4.51257,-12.27722 0.52814,-2.38159 2.12074,-5.85616 3.69177,-8.0543 2.415661,-3.37993 7.001226,-7.28304 11.117429,-9.46286 l 1.819441,-0.96353 -2.4809,-0.11174 c -1.963933,-0.0884 -2.797921,-0.25768 -4.002257,-0.81213 -0.836744,-0.38522 -1.521354,-0.74804 -1.521354,-0.80627 0,-0.0582 0.68461,0.12705 1.521354,0.41173 1.924368,0.65471 6.031059,0.69713 8.615376,0.089 0.991296,-0.23327 1.878439,-0.42413 1.971427,-0.42413 0.09299,0 -1.551509,1.02784 -3.654439,2.28409 -4.71782,2.81834 -7.185128,4.6572 -9.201756,6.858 -4.210751,4.59529 -5.095991,9.82101 -2.548607,15.04482 0.6075,1.24577 0.613852,1.29641 0.0858,0.68392 -0.313656,-0.3638 -0.939924,-1.43536 -1.391694,-2.38125 -0.7605,-1.59225 -0.82142,-1.92973 -0.82142,-4.55083 0,-1.55707 -0.0819,-2.7477 -0.18188,-2.64583 -0.51807,0.52753 -1.84295,4.51659 -2.22359,6.69495 -0.53629,3.06913 -0.37232,6.86504 0.4274,9.89442 1.03158,3.90769 3.82878,9.04823 7.126598,13.09688 1.254948,1.54067 3.136612,4.89993 2.885382,5.15116 -0.05389,0.0539 -0.408905,-0.458 -0.788926,-1.13753 z m 46.333146,10.0438 c 0,-0.17029 0.304451,-0.79189 0.676556,-1.38135 0.722944,-1.14521 1.229087,-3.07201 1.687271,-6.42313 0.32099,-2.3477 0.993521,-4.06971 2.157273,-5.52367 l 0.792805,-0.99051 -0.952749,-0.83652 c -1.075451,-0.94426 -1.85004,-2.30658 -2.115238,-3.7202 -0.321773,-1.71519 -0.08214,-1.97142 2.039277,-2.18046 2.914001,-0.28713 4.592121,-1.02794 6.407499,-2.82857 0.860515,-0.85353 1.511591,-1.60485 1.446837,-1.6696 -0.06475,-0.0648 -0.976683,0.001 -2.026513,0.14678 -2.310852,0.32023 -4.422193,-0.007 -5.986108,-0.92661 -1.069504,-0.62917 -2.470322,-1.92986 -2.253821,-2.09272 0.06121,-0.046 0.894593,-0.63331 1.851969,-1.30504 4.617681,-3.23991 5.710857,-8.29216 3.051223,-14.10157 -1.640893,-3.58418 -5.180065,-7.35088 -9.998189,-10.64095 -3.116853,-2.12836 -3.985773,-2.95871 -4.576858,-4.37372 -0.84356,-2.01941 0.180959,-3.66724 3.224742,-5.18665 0.904026,-0.45128 1.767229,-1.05135 1.918229,-1.3335 0.671828,-1.25531 0.0145,-3.56474 -1.591908,-5.593 l -0.809813,-1.02247 0.742821,-0.2073 c 0.408551,-0.11401 1.814383,-0.20346 3.12407,-0.19877 2.048134,0.007 2.613766,0.11471 4.043371,0.76754 3.014366,1.37652 5.349338,4.58117 5.349338,7.34175 0,0.68216 0.08259,0.74572 0.968941,0.74572 1.957602,0 3.943001,-1.76531 5.000826,-4.44646 l 0.44945,-1.13918 0.753984,0.87459 c 0.414692,0.48103 1.113493,1.57822 1.552892,2.43821 0.658932,1.28965 0.798907,1.88122 0.798907,3.37632 0,2.41017 -0.669944,3.79317 -2.76007,5.69774 l -1.633606,1.48858 1.733817,0.87188 c 2.262267,1.13762 4.016727,2.70788 6.781877,6.06985 2.615464,3.17998 3.780912,4.24047 5.761342,5.24248 1.966769,0.99509 3.943913,1.47955 6.053418,1.48327 l 1.781569,0.003 -0.622948,1.7162 c -0.728959,2.00826 -1.66138,3.3166 -3.113143,4.36825 -1.202849,0.87134 -3.335449,1.4094 -4.626314,1.16724 -1.090483,-0.20458 -1.113983,-0.0129 -0.359847,2.93579 0.885272,3.46138 2.561159,5.62421 5.410362,6.98237 l 1.499944,0.715 -0.875596,1.30247 c -1.254832,1.86659 -2.910359,2.80949 -5.223402,2.97499 -1.316757,0.0942 -2.234758,0.004 -3.209213,-0.31447 -0.750684,-0.24553 -1.390401,-0.40995 -1.421591,-0.36536 -0.03119,0.0446 -0.193021,0.79544 -0.359621,1.66856 -0.166603,0.87313 -0.552784,2.48047 -0.858182,3.57188 -0.687255,2.45606 -0.603244,5.09581 0.221369,6.95576 l 0.561822,1.26722 -0.667332,0.25372 c -2.062565,0.78418 -5.47469,0.49753 -6.837442,-0.57441 l -0.652256,-0.51306 -0.688785,1.45596 c -1.279229,2.70407 -3.834151,4.77128 -6.876381,5.56372 -2.145077,0.55876 -6.746875,0.86041 -6.746875,0.44227 z m 7.461682,-2.13426 c 2.913777,-1.10971 5.082003,-3.77677 5.788012,-7.11962 l 0.298669,-1.41416 0.464603,0.76397 c 1.097045,1.80395 3.525946,2.96891 5.441006,2.60964 0.921271,-0.17283 0.946795,-0.20823 0.738169,-1.02362 -0.118854,-0.46452 -0.208431,-2.03522 -0.19906,-3.49042 0.01326,-2.05891 0.170263,-3.15077 0.70775,-4.92202 0.379889,-1.2519 0.774039,-3.12186 0.875885,-4.15546 l 0.185179,-1.87927 0.881081,0.67203 c 1.817714,1.38644 4.709832,1.79046 6.593483,0.9211 0.986436,-0.45527 2.478321,-1.7713 2.227953,-1.96534 -0.06121,-0.0474 -0.666837,-0.40425 -1.345843,-0.79293 -3.058117,-1.75051 -5.233246,-6.1956 -5.243824,-10.71626 -0.0038,-1.62171 0.01381,-1.66503 0.591402,-1.45521 0.327421,0.11895 1.43779,0.21627 2.467485,0.21627 2.223778,0 3.363516,-0.61486 4.620702,-2.49275 1.049526,-1.56771 1.012513,-1.87287 -0.227145,-1.87287 -2.070293,0 -5.430295,-1.34746 -7.772924,-3.11718 -0.683434,-0.51629 -2.382041,-2.33489 -3.774678,-4.04133 -3.199768,-3.92078 -5.329341,-5.58805 -8.410316,-6.58454 -1.694809,-0.54816 -1.393782,-1.20721 1.727473,-3.78202 2.234157,-1.84301 2.878799,-4.46426 1.745676,-7.09828 -0.308962,-0.7182 -0.663094,-1.30582 -0.786956,-1.30582 -0.123864,0 -0.403738,0.34524 -0.62194,0.76719 -0.545973,1.0558 -2.441117,2.62608 -3.573642,2.96106 -0.515904,0.1526 -1.652382,0.23937 -2.525507,0.19283 l -1.5875,-0.0846 0.07639,-0.92604 c 0.272629,-3.30494 -2.124803,-6.43511 -5.754238,-7.51294 -1.292794,-0.38392 -3.450278,-0.58311 -3.450278,-0.31854 0,0.0583 0.296492,0.74292 0.658873,1.52135 0.456505,0.98062 0.659668,1.87638 0.661459,2.91639 0.0033,1.91941 -0.694865,2.80752 -3.198067,4.06811 -1.891289,0.95244 -2.355598,1.47297 -2.355598,2.64083 0,1.13188 0.915125,2.11672 3.786891,4.0754 6.585432,4.49156 10.025137,8.49854 11.690723,13.61877 0.638654,1.96331 0.712769,2.5415 0.620438,4.84031 -0.08686,2.16262 -0.226981,2.86027 -0.816449,4.0651 -0.841682,1.72034 -2.281999,3.46695 -3.714962,4.50498 l -1.032306,0.7478 0.884396,0.53941 c 1.185085,0.7228 2.248729,0.89409 4.678477,0.75344 1.459317,-0.0845 2.476378,-0.31898 3.585316,-0.82667 0.851447,-0.38981 1.587952,-0.70874 1.63667,-0.70874 0.04872,0 -0.07303,0.45806 -0.270558,1.01791 -1.499052,4.24877 -4.56883,6.85368 -8.859417,7.5178 -2.125226,0.32895 -2.246781,0.53732 -1.344845,2.30526 0.647448,1.26911 1.316892,1.75805 3.136167,2.29058 1.347322,0.39439 1.384125,0.42847 0.79375,0.73502 -1.415534,0.73499 -2.100546,1.3296 -2.86993,2.49116 -0.984904,1.48694 -1.47909,3.14025 -1.846993,6.1792 -0.152897,1.26297 -0.454665,2.79705 -0.670594,3.40905 l -0.392597,1.11274 1.786766,-0.13676 c 0.98272,-0.0752 2.465615,-0.39529 3.295322,-0.71129 z m 0.621299,-7.16067 c 0.354545,-1.2541 1.258877,-2.78434 2.892706,-4.89479 2.515981,-3.24997 3.747746,-5.18702 5.176295,-8.1402 1.984997,-4.10348 2.459175,-6.16943 2.473675,-10.77751 0.01315,-4.17588 -0.419394,-6.35463 -1.910178,-9.62188 l -0.708187,-1.55209 v 3.00729 c 0,2.81826 -0.05164,3.11541 -0.821415,4.72709 -0.451776,0.94589 -1.070356,2.01745 -1.374621,2.38125 -0.487204,0.58255 -0.474483,0.50077 0.106624,-0.68539 1.426991,-2.91278 1.769885,-5.82816 1.022826,-8.69632 -1.295452,-4.97357 -5.531061,-9.16618 -14.195824,-14.05169 -1.263807,-0.71257 -2.263572,-1.32985 -2.221699,-1.37172 0.04187,-0.0419 0.897298,0.11707 1.900952,0.35321 2.607257,0.61342 6.705397,0.57368 8.637845,-0.0838 0.836744,-0.28468 1.521354,-0.46996 1.521354,-0.41173 0,0.0582 -0.68217,0.41818 -1.515936,0.79988 -1.127165,0.51604 -2.123353,0.73281 -3.88444,0.84526 l -2.368505,0.15124 1.437044,0.76993 c 5.891327,3.1564 10.668538,7.80896 13.218378,12.87349 1.116681,2.21797 1.575638,3.66523 2.343827,7.39096 0.868508,4.21229 2.191142,7.40165 4.169481,10.05416 0.379871,0.50933 -0.02246,0.19625 -0.89405,-0.69572 -0.871599,-0.89198 -1.943704,-2.34016 -2.382457,-3.21818 l -0.797735,-1.59641 -0.320249,2.02755 c -0.825418,5.22591 -2.951075,9.47486 -7.683201,15.35788 -1.137417,1.41404 -2.504863,3.27944 -3.038769,4.14533 -0.533908,0.86589 -0.886589,1.27669 -0.783741,0.91289 z m -74.759698,-38.87638 c -1.09358,-0.33265 -2.21269,-0.98751 -2.8127,-1.64588 -0.48411,-0.5312 -1.6835,-2.63584 -1.6835,-2.95414 0,-0.0582 0.63849,-0.17172 1.41888,-0.25226 1.80118,-0.1859 3.66892,-1.13175 5.63425,-2.85326 1.83842,-1.61035 2.90603,-2.10231 4.5547,-2.09883 1.25167,0.003 3.28453,0.81323 4.50405,1.79595 l 0.63376,0.5107 -1.6465,0.87757 c -1.1878,0.6331 -2.30862,1.59513 -4.02321,3.45328 -2.9333,3.17887 -4.33012,3.85117 -6.57973,3.16687 z m 2.97604,-1.65378 c 0.39895,-0.15291 1.54394,-1.24626 2.54443,-2.42966 1.00049,-1.1834 2.30799,-2.4493 2.90554,-2.8131 0.59756,-0.3638 1.08968,-0.73528 1.09359,-0.82551 0.0147,-0.33772 -2.38761,-0.81835 -3.26629,-0.65351 -0.56715,0.1064 -1.64782,0.78653 -2.8513,1.79452 -1.71112,1.43315 -2.74543,2.0329 -5.25238,3.04561 l -0.66146,0.26721 0.85969,0.80534 c 1.34911,1.26383 2.78625,1.51506 4.62818,0.8091 z m 89.497553,1.39851 c -0.632513,-0.29336 -1.977568,-1.4939 -3.342992,-2.98381 -1.650286,-1.80074 -2.744584,-2.73808 -3.941051,-3.37579 l -1.656392,-0.88285 0.633759,-0.49164 c 1.373187,-1.06525 3.248533,-1.8176 4.530664,-1.8176 1.716614,0 2.76383,0.48121 4.532069,2.08253 1.871224,1.6946 3.811638,2.68445 5.630273,2.87215 0.780383,0.0805 1.418878,0.19327 1.418878,0.25051 0,0.0572 -0.293558,0.68338 -0.652348,1.39142 -0.803731,1.58609 -2.219693,2.78929 -3.73008,3.16961 -1.569797,0.39528 -2.192079,0.35627 -3.42278,-0.21453 z m 4.476983,-1.83843 c 1.385088,-0.93701 1.429811,-1.25143 0.233074,-1.6386 -1.732262,-0.56043 -2.904974,-1.259 -4.854181,-2.89156 -1.179841,-0.98818 -2.234716,-1.64562 -2.815132,-1.75451 -0.942063,-0.17673 -2.993869,0.27138 -2.993869,0.65385 0,0.11501 0.53054,0.59011 1.17898,1.05579 0.648439,0.46567 1.91461,1.73601 2.813717,2.82298 0.899105,1.08696 1.648487,1.97809 1.66529,1.98028 0.0168,0.002 0.506804,0.17082 1.088888,0.37474 1.324718,0.46408 2.355326,0.29536 3.683233,-0.60297 z m -58.30014,-24.28167 c -0.169318,-0.67243 -0.654656,-1.98745 -1.078532,-2.92229 l -0.770681,-1.6997 1.559042,0.17638 1.559044,0.17639 0.798899,-1.76193 0.798896,-1.76193 1.63577,0.82573 1.635771,0.82573 1.551326,-1.53514 1.551329,-1.53514 1.551329,1.53514 1.551326,1.53514 1.624148,-0.81986 1.624144,-0.81987 0.859423,1.74926 0.859422,1.74925 1.548818,-0.17395 c 0.85185,-0.0957 1.500682,-0.0773 1.441852,0.0407 -0.866084,1.73825 -1.583179,3.47715 -1.817224,4.40663 l -0.290635,1.15421 -1.790078,-0.89295 c -4.557924,-2.27366 -11.130336,-2.12929 -14.895915,0.32719 -0.542584,0.35396 -1.034465,0.64356 -1.093068,0.64356 -0.05861,0 -0.245089,-0.55016 -0.414406,-1.22258 z m 3.498432,-1.68285 c 3.524089,-1.26104 7.960775,-1.26104 11.484864,0 0.843484,0.30183 1.720644,0.61109 1.949241,0.68724 0.296778,0.0989 0.536588,-0.16947 0.838613,-0.93834 l 0.422979,-1.0768 h -0.859531 c -0.773914,0 -0.922057,-0.1335 -1.487284,-1.34028 -0.345263,-0.73716 -0.718338,-1.39627 -0.829056,-1.4647 -0.110717,-0.0684 -0.816935,0.18756 -1.569373,0.56885 l -1.368071,0.69325 -1.419976,-1.40234 -1.419974,-1.40233 -1.432909,1.41511 -1.432907,1.41511 -1.246251,-0.69655 c -0.685437,-0.3831 -1.356902,-0.69654 -1.492147,-0.69654 -0.135242,0 -0.545692,0.65484 -0.912111,1.45521 -0.61404,1.34124 -0.735555,1.45521 -1.551578,1.45521 h -0.885362 l 0.422979,1.0768 c 0.302025,0.76887 0.541835,1.0372 0.838613,0.93834 0.228597,-0.0761 1.105757,-0.38541 1.949241,-0.68724 z"
           style="fill:#252122;stroke-width:0.26458335" />
      </g>
    </g>
  </g>
</svg>
