<svg id="d6a6070c-30e1-4390-bd55-f578b2bf58ce" data-name="Слой 1" xmlns="http://www.w3.org/2000/svg" viewBox="0 0 2500 2500"><title>tron</title><path d="M1250,0C559.6,0,0,559.6,0,1250S559.6,2500,1250,2500s1250-559.6,1250-1250S1940.4,0,1250,0Zm843.4,939.3v5l-2.8,4.1c-54.5,78.2-109.5,158.6-162.7,236.4-32.4,47.2-64.8,94.7-97.2,141.8q-118.7,172.8-237.3,345.9l-324.5,473.4c-7.8,13.9-23.4,22.5-41,22.5h-4.1c-18.9-1.6-34-12.3-39.4-28.6-86.4-241-175-486.5-260.2-723.4C813.5,1108.6,698.8,790.6,586.9,477l-.8-2.8V455.3l1.2-3.3c2-5.3,6.1-14.7,13.9-22.1l4.9-4.1a39.3,39.3,0,0,1,15.2-5.7c19.7-2.5,38.1,2.4,54.1,6.9l13.9,3.7,530.8,129.1c195.1,47.6,396.7,96.8,595.1,144.7l.8.4c11.5,3.7,20.9,10.3,29.1,16.4a60.8,60.8,0,0,1,5.3,3.7c74.2,52.5,150,105.3,220.9,154.9h0C2095.1,895.5,2094.7,925,2093.4,939.3Z"/><path d="M1802.9,804.9c-4.5,5.3-9.5,9.9-14,14.4-6.5,6.5-12.7,12.7-17.6,19.2l-1.2,1.3c-58.2,62.2-117.6,125.8-174.6,187.2l-136.9,146.8c78.3-40.6,156.2-81.6,232.4-121.3h0c87.3-45.9,177.4-93.1,267.6-139q-33.1-22.7-65.2-45.5C1863.9,847.1,1833.2,825.8,1802.9,804.9Z"/><path d="M805.7,611.1l.4.4c52.5,63.1,105.4,126.6,157.8,189.7,115.6,139,234.9,282.8,351.7,424.6,60.2-64.3,120.9-129.5,179.5-193h0c77-82.8,156.5-168.5,235.6-252.9L1017.2,606.6C975,595.9,932,585.7,890.6,575.8c-47.2-11-95.1-22.5-142.6-34.8,7.7,9.4,15.5,18.4,22.9,27.9C782.4,582.8,793.9,597.5,805.7,611.1Z"/><path d="M1375.4,1295.9c-6.1,3.7-12.3,6.1-18.4,9a119.7,119.7,0,0,0-14.8,7c-2.4,36.5-6.5,72.9-10.6,108.2l-1.3,9.8c-4.9,55.3-11,111.9-16.8,166.4-3.7,34-7.4,69.7-11,104.5-4.1,43.5-9.1,87.7-13.6,130.8h0c-5.3,48.3-10.2,97.9-14.3,147.1,32.8-48.8,66.4-97.6,99.2-145.1,29.1-42.6,59.8-86.9,89.3-130.3,75-108.6,150.4-218.9,223.8-325.8,85.2-125,173.3-253.3,261.1-380.4-96.4,50.4-193.5,101.3-288.2,150.4S1470.1,1246.3,1375.4,1295.9Z"/><path d="M1233.6,1234c-10.6-13.1-21.7-26.6-32.8-39.3-56.1-68.1-112.3-135.3-168.4-202.9C923.8,861.5,812.3,727,701.6,593.4c5,14.4,10.7,29.6,16,44.3Q926.1,1218,1134.4,1797.1l43.9,121.8c5.7,16.8,11.9,34,18,50.4,2.1,5.7,4.5,11.8,6.6,18,3.7-34.4,6.9-68.9,10.6-102.5,8.6-81.1,17.6-164.7,25-247.5l.4-2.9s6.6-56.5,9.5-81.5c2-18.1,4.5-36.5,5.7-54.9v-.5c3.3-29.1,6.1-57.7,9-86.4,4.5-41,8.6-83.6,13.5-125.9C1261.5,1268.4,1247.5,1250.8,1233.6,1234Z"/></svg>