<svg xmlns="http://www.w3.org/2000/svg" xmlns:xlink="http://www.w3.org/1999/xlink" viewBox="0 0 64.8 62.5"><defs><mask id="a" x="4.41" y="15.72" width="15" height="28" maskUnits="userSpaceOnUse"><path d="M7.4,20.6V34.9h0a14,14,0,0,0,12,7.5A7.8,7.8,0,0,1,12,34.9V18.6a1.8,1.8,0,0,1,1.8-1.9c-2.8,0-5.2.6-6.4,2.9" style="fill:#fff"/></mask><linearGradient id="b" x1="10.41" y1="41.72" x2="10.41" y2="25.09" gradientTransform="matrix(1, 0, 0, -1, 0, 61.45)" gradientUnits="userSpaceOnUse"><stop offset="0" stop-color="#5c1a52"/><stop offset="0.25" stop-color="#a51c45"/><stop offset="0.4" stop-color="#bd1e35"/><stop offset="0.51" stop-color="#d12027"/><stop offset="0.65" stop-color="#b41d3b"/><stop offset="0.74" stop-color="#a51c45"/><stop offset="0.81" stop-color="#8e1b49"/><stop offset="0.93" stop-color="#6a1a50"/><stop offset="1" stop-color="#5c1a52"/></linearGradient><mask id="c" x="4.49" y="8.84" width="18.9" height="17.85" maskUnits="userSpaceOnUse"><path d="M13.8,12.7a6.4,6.4,0,0,0-6.4,6.4v2.1a7.1,7.1,0,0,1,6.4-3.9h4.5A2.3,2.3,0,0,0,20.6,15h0a2.3,2.3,0,0,0-2.3-2.3H13.8Z" style="fill:#fff"/></mask><linearGradient id="d" x1="-99.44" y1="-29.08" x2="-87.56" y2="-29.08" gradientTransform="matrix(0.92, -0.39, -0.39, -0.92, 87.99, -45.43)" gradientUnits="userSpaceOnUse"><stop offset="0" stop-color="#e21e26"/><stop offset="0.12" stop-color="#ca1d32"/><stop offset="0.25" stop-color="#b51d3d"/><stop offset="0.38" stop-color="#a91c43"/><stop offset="0.5" stop-color="#a51c45"/><stop offset="0.59" stop-color="#931c48"/><stop offset="0.75" stop-color="#751b4e"/><stop offset="0.9" stop-color="#631a51"/><stop offset="1" stop-color="#5c1a52"/></linearGradient><mask id="e" x="39.33" y="16.72" width="13.09" height="26" maskUnits="userSpaceOnUse"><path d="M44.5,23.2a3.4,3.4,0,0,1-.1,1,5,5,0,0,1-.8,2,1.9,1.9,0,0,0,.6,2.9,7.1,7.1,0,0,1,3.7,6.3,7,7,0,0,1-6.1,7,11.8,11.8,0,0,0,10.6-7.2,11.4,11.4,0,0,0-3.9-8.6,9.7,9.7,0,0,0,.6-3.4,19,19,0,0,0-.3-2.5,13.7,13.7,0,0,0-9.2-3.6h-.3c2.9.1,5.2,3.1,5.2,6.1Z" style="fill:#fff"/></mask><linearGradient id="f" x1="45.92" y1="41.13" x2="45.92" y2="24.63" gradientTransform="matrix(1, 0, 0, -1, 0, 61.45)" gradientUnits="userSpaceOnUse"><stop offset="0" stop-color="#5c1a52"/><stop offset="0.2" stop-color="#931b48"/><stop offset="0.26" stop-color="#a51c45"/><stop offset="0.5" stop-color="#d12027"/><stop offset="0.58" stop-color="#bd1e35"/><stop offset="0.68" stop-color="#ab1d41"/><stop offset="0.75" stop-color="#a51c45"/><stop offset="0.78" stop-color="#9b1c47"/><stop offset="0.93" stop-color="#6d1a4f"/><stop offset="1" stop-color="#5c1a52"/></linearGradient><mask id="g" x="0" y="0" width="64.79" height="62.54" maskUnits="userSpaceOnUse"><path d="M39.2,12.7a10,10,0,0,1,9.7,8.2,14.2,14.2,0,0,0-9.3-3.6H32.2V34.5A12.2,12.2,0,0,1,19.8,46.6a12.3,12.3,0,0,1-12.4-12,14,14,0,0,0,12,7.4h.4a7.7,7.7,0,0,0,7.8-7.5V12.7Z" style="fill:#fff"/></mask><linearGradient id="h" x1="-86.31" y1="-41.16" x2="-43.03" y2="-41.16" gradientTransform="matrix(0.93, -0.37, -0.37, -0.93, 77.58, -31.03)" gradientUnits="userSpaceOnUse"><stop offset="0" stop-color="#219cd8"/><stop offset="0.15" stop-color="#2299d5"/><stop offset="0.26" stop-color="#2690cc"/><stop offset="0.36" stop-color="#2d81bc"/><stop offset="0.45" stop-color="#376ba5"/><stop offset="0.53" stop-color="#444f88"/><stop offset="0.61" stop-color="#532d65"/><stop offset="0.65" stop-color="#5c1a52"/><stop offset="0.69" stop-color="#661a50"/><stop offset="0.75" stop-color="#821b4b"/><stop offset="0.82" stop-color="#a51c45"/><stop offset="0.96" stop-color="#d41e2d"/><stop offset="1" stop-color="#e21e26"/></linearGradient><mask id="i" x="31.41" y="34.72" width="23.01" height="13" maskUnits="userSpaceOnUse"><path d="M41.8,41.9H33.7a2.3,2.3,0,1,0,0,4.5h7.4A11.5,11.5,0,0,0,52.5,34.9v-.2a11.9,11.9,0,0,1-10.7,7.2Z" style="fill:#fff"/></mask><linearGradient id="j" x1="53.79" y1="20.22" x2="30.87" y2="20.22" gradientTransform="matrix(1, 0, 0, -1, 0, 61.45)" gradientUnits="userSpaceOnUse"><stop offset="0" stop-color="#e21e26"/><stop offset="0.5" stop-color="#a51c45"/><stop offset="0.59" stop-color="#931c48"/><stop offset="0.75" stop-color="#751b4e"/><stop offset="0.9" stop-color="#631a51"/><stop offset="1" stop-color="#5c1a52"/></linearGradient></defs><title>ubrir</title><path d="M7.4,20.6V34.9h0a14,14,0,0,0,12,7.5A7.8,7.8,0,0,1,12,34.9V18.6a1.8,1.8,0,0,1,1.8-1.9c-2.8,0-5.2.6-6.4,2.9" style="fill:#231f20"/><g style="mask:url(#a)"><path d="M4.4,15.7h12v28H4.4Z" style="fill:url(#b)"/></g><path d="M13.8,12.7a6.4,6.4,0,0,0-6.4,6.4v2.1a7.1,7.1,0,0,1,6.4-3.9h4.5A2.3,2.3,0,0,0,20.6,15h0a2.3,2.3,0,0,0-2.3-2.3H13.8Z" style="fill:#231f20"/><g style="mask:url(#c)"><path d="M4.5,14.7,18.3,8.8l5.1,12L9.6,26.7Z" style="fill:url(#d)"/></g><path d="M44.5,23.2a3.4,3.4,0,0,1-.1,1,5,5,0,0,1-.8,2,1.9,1.9,0,0,0,.6,2.9,7.1,7.1,0,0,1,3.7,6.3,7,7,0,0,1-6.1,7,11.8,11.8,0,0,0,10.6-7.2,11.4,11.4,0,0,0-3.9-8.6,9.7,9.7,0,0,0,.6-3.4,19,19,0,0,0-.3-2.5,13.7,13.7,0,0,0-9.2-3.6h-.3c2.9.1,5.2,3.1,5.2,6.1Z" style="fill:#231f20"/><g style="mask:url(#e)"><path d="M39.4,16.7h13v26h-13Z" style="fill:url(#f)"/></g><path d="M39.2,12.7a10,10,0,0,1,9.7,8.2,14.2,14.2,0,0,0-9.3-3.6H32.2V34.5A12.2,12.2,0,0,1,19.8,46.6a12.3,12.3,0,0,1-12.4-12,14,14,0,0,0,12,7.4h.4a7.7,7.7,0,0,0,7.8-7.5V12.7Z" style="fill:#231f20"/><g style="mask:url(#g)"><path d="M0,18.9,47.4,0,64.8,43.7,17.4,62.5Z" style="fill:url(#h)"/></g><path d="M41.8,41.9H33.7a2.3,2.3,0,1,0,0,4.5h7.4A11.5,11.5,0,0,0,52.5,34.9v-.2a11.9,11.9,0,0,1-10.7,7.2Z" style="fill:#231f20"/><g style="mask:url(#i)"><path d="M31.4,34.7h23v13h-23Z" style="fill:url(#j)"/></g></svg>