<?xml version="1.0" encoding="utf-8"?>
<!-- Generator: Adobe Illustrator 22.1.0, SVG Export Plug-In . SVG Version: 6.00 Build 0)  -->
<svg version="1.1" id="Слой_1" xmlns="http://www.w3.org/2000/svg" xmlns:xlink="http://www.w3.org/1999/xlink" x="0px" y="0px"
	 viewBox="0 0 365.6 312.4" style="enable-background:new 0 0 365.6 312.4;" xml:space="preserve">
<style type="text/css">
	.st0{fill:#004489;}
	.st1{fill:#FFAA00;}
	.st2{stroke:#FFFFFF;stroke-width:6;stroke-miterlimit:10;}
	.st3{stroke:#FFFFFF;stroke-width:9;stroke-miterlimit:10;}
</style>
<g>
	<path class="st0" d="M212.9,4.7c16.8-6.5,35.9-6,52.8,0c-1.3,8-2.7,16-4.1,24c-9.2-4.5-19.7-6.5-29.8-5.2
		c-4.4,0.6-9.4,2.3-11.5,6.6c-1.3,2.8,0.4,6,2.7,7.8c8.3,6.5,19,9,27.2,15.8c6.5,5,11.5,12.7,11.1,21.2c0.5,10.7-5.1,21.2-13.8,27.4
		c-11.1,8-25.1,10.3-38.5,10.5c-11-0.6-22.2-1.6-32.4-5.9c1-8.3,2.7-16.5,4-24.7c11.4,5.5,24.2,8.8,36.9,7.1c3.9-0.7,8-2,10.7-5.1
		c2.1-2.4,2.5-6.3,0.6-8.9c-2.9-4-7.5-6-11.8-8.2c-9.1-4.2-18.6-9.1-24.4-17.6c-5.4-7.8-4.9-18.3-0.8-26.5
		C196,14.2,204.2,8.2,212.9,4.7L212.9,4.7L212.9,4.7L212.9,4.7L212.9,4.7z"/>
	<path class="st1" d="M0,2.1c15.7,0,31.4,0,47,0c4,0,8.3,0.7,11.2,3.6c2.5,2.4,3.1,6,3.8,9.2c3.1,15.6,6.5,31.1,9.6,46.7
		c-7.8-19.3-22.8-35.3-41.1-45.1C21,11.2,10.6,7.3,0,4.7C0,4,0,2.7,0,2.1L0,2.1z"/>
	<path class="st0" d="M103.4,2c10.6-0.1,21.2,0,31.8,0C119.8,38.3,104,74.4,88.6,110.8c-10.6,0.2-21.2,0-31.8,0.1
		C48.1,79.4,39.1,48,30.6,16.5c18.3,9.8,33.2,25.8,41.1,45.1l0.1,0.3c1,4.6,1.9,9.2,2.8,13.9C84.3,51.2,93.8,26.6,103.4,2L103.4,2
		L103.4,2L103.4,2L103.4,2L103.4,2z M146.9,1.9c9.9,0,19.9,0.1,29.9,0c-6,36.3-12.3,72.6-18.5,108.9c-10,0-20,0-30,0
		C134.5,74.5,140.6,38.2,146.9,1.9L146.9,1.9L146.9,1.9L146.9,1.9L146.9,1.9z M316.2,2.1c8.5-0.3,17-0.1,25.5-0.1
		c8,36.4,16.2,72.7,24,109.1c-9.3,0-18.5,0-27.8,0c-1.2-5.4-2.4-10.8-3.5-16.2c-12.6-0.3-25.3-0.2-37.9-0.1
		c-2,5.5-4.1,10.8-6.1,16.3c-10.5,0-21,0-31.5,0c14.7-33.4,29.5-66.8,44.3-100.2C305.1,5.5,310.6,2.3,316.2,2.1L316.2,2.1L316.2,2.1
		z M320.6,32.4c3.1,13.1,5.8,26.3,8.7,39.5c-8,0-16,0.1-24-0.1C310.5,58.8,315.6,45.6,320.6,32.4L320.6,32.4z"/>
</g>
<circle class="st2" cx="238.1" cy="219.6" r="71.4"/>
<circle class="st3" cx="127.5" cy="219.6" r="71.4"/>
</svg>
