<?xml version="1.0" encoding="utf-8"?>
<!-- Generator: Adobe Illustrator 22.1.0, SVG Export Plug-In . SVG Version: 6.00 Build 0)  -->
<svg version="1.1" id="Layer_1" xmlns="http://www.w3.org/2000/svg" xmlns:xlink="http://www.w3.org/1999/xlink" x="0px" y="0px"
	 viewBox="0 0 2500 2500" style="enable-background:new 0 0 2500 2500;" xml:space="preserve">
<g id="Vector_2_" transform="translate(-102 -149)">
	<path id="path1_fill" d="M1352,2649c-687.5,0-1250-562.5-1250-1250S664.5,149,1352,149s1250,562.5,1250,1250S2039.5,2649,1352,2649
		z M1352,426.9c-534.6,0-972.1,437.5-972.1,972.1s437.5,972.1,972.1,972.1s972.1-437.5,972.1-972.1S1886.6,426.9,1352,426.9
		L1352,426.9z"/>
</g>
<g id="Vector_4_" transform="translate(-92.014 -143.489)">
	<path id="path2_fill" d="M1313.1,1732.1h541.7v270.8h-319.6v229.2h-277.9V2010H923.9c0-90.4-13.7-180.4,7.1-263.7
		c7.1-41.7,55.4-83.3,90.4-125c104.2-125,208.3-250,319.6-375c41.7-48.8,83.3-90.4,132.1-145.8H952.3V829.6h305.4V600.5h270.8v222.1
		h333.3c0,90.4,13.7,180.4-7.1,263.7c-7.1,41.7-55.4,83.3-90.4,125c-104.2,125-208.3,250-319.6,375
		C1403,1635,1361.4,1683.3,1313.1,1732.1z"/>
</g>
</svg>
