<svg xmlns="http://www.w3.org/2000/svg" viewBox="0 0 396.8 396.9"><title>advcash</title><path d="M396.8,204.6c.3-59.8-19-106.7-57.2-145.5S253.9.3,200,0,97.7,19.7,58.7,58.6.3,144.3,0,197.8,19.7,300.6,59,339.4s84.2,56.5,138.2,57.5C307.3,399.1,398.5,307.1,396.8,204.6Zm-67.6-32.5c-5.1,7.8-10.8,15.1-16.3,22.6-1.6,2.1-4,2-6.4,2H253c3.1,5.9,5.1,12.5,8.9,18.2h29.3c1.5,0,3.6-.9,4.4,1.1a4.8,4.8,0,0,1-.7,5.1l-16.7,21.4c-.8,1-2.1,1-3.2,1.2q13.3,28.8,26.6,57.6a12.6,12.6,0,0,1,1.3,3.7c.8,6.7.6,6.9-6.2,6.9-11.7,0-23.3-.2-35,.1-4.4.2-6.4-1.5-8-5.5-8.1-20-16.4-40-24.6-60H166.9c-9.1,19.8-18.4,39.5-27,59.5-1.7,4.1-3.6,4.6-7.3,4.5-12.1-.2-24.3-.1-36.4,0-4.1.1-4-1.9-2.6-4.6l16.9-32c3.8-7.2,7.4-14.4,11.2-21.6.9-1.8,1.7-3.6,1.3-5.7-5.5-4.4-8.3-11-12.7-16.3a86.4,86.4,0,0,1-6.4-9.4c-2.4-4-1.1-6.1,3.5-6.1h27.4c1.6,0,3.3.5,4.7-.9a66.5,66.5,0,0,0,8.8-17.2c-19.2-.1-38.3-.2-57.5-.1-3.3,0-5.5-.9-7.5-3.7-4.9-7-10-13.7-15.1-20.4-1.5-1.9-2.7-4.1-1.6-6.4s3.6-1.2,5.4-1.2l88.9-.2c12.8-25.9,24.7-52.2,36.5-78.5.5-1.1.9-1.6,2-1.6s1.8.5,2.4,1.8c6.7,14.8,13.7,29.6,20.6,44.4l16.5,34.8c1.4-1.1,3.2-.8,4.8-.8h81.4C330.4,165,332.1,167.6,329.2,172.1Z" style="fill:#01c070"/><path d="M160.8,165.6c10.6.9,21.3.3,31.9.3,3.5,0,4.9.3,5.9,4.6,1.7,7.4,5.2,14.5,8.6,21.4.9,1.8.4,3.9,1.7,5.4H185a326.2,326.2,0,0,0-37,0c-19.2,0-38.3-.2-57.5-.1-3.3,0-5.5-.9-7.5-3.7-4.8-6.9-10-13.6-15.1-20.4-1.5-2-2.7-4.1-1.6-6.4s3.6-1.2,5.4-1.2Z" style="fill:#033a50"/><path d="M216.2,215.6c4.6,8.2,7.2,17.3,11,25.8a60.8,60.8,0,0,1,2.1,6H167.1c-14.6-.7-29.3-.7-43.9,0-5.5-4.4-8.4-11-12.7-16.3a67.6,67.6,0,0,1-6.4-9.4c-2.4-4-1.1-6.1,3.5-6.1H135c1.6,0,3.4.6,4.7-.9a2.1,2.1,0,0,0,2,1.2c11.9-.2,23.9.5,35.8-.4Z" style="fill:#033a50"/><path d="M253.2,197.5c-4.7-10.3-9.5-20.6-14.2-31,1.5-1.1,3.2-.8,4.8-.8h81.4c5.3,0,7.1,2.6,4.1,7.1-5.1,7.7-10.8,15.1-16.3,22.6-1.6,2.2-4,2-6.4,2Z" style="fill:#033a50"/><path d="M275.2,244.6c-4.6-9.5-9.5-18.9-13.1-28.8h29.3c1.5,0,3.6-.9,4.4,1.1a5,5,0,0,1-.7,5.1l-16.7,21.4C277.6,244.5,276.3,244.4,275.2,244.6Z" style="fill:#033a50"/><path d="M177.4,215.6c2.1-6.2,6.9-11.3,7.8-18.1h23.9a118.3,118.3,0,0,1,7.1,18.2Z" style="fill:#01c070"/></svg>