<?xml version="1.0" encoding="UTF-8" standalone="no"?>
<svg
   xmlns:dc="http://purl.org/dc/elements/1.1/"
   xmlns:cc="http://creativecommons.org/ns#"
   xmlns:rdf="http://www.w3.org/1999/02/22-rdf-syntax-ns#"
   xmlns:svg="http://www.w3.org/2000/svg"
   xmlns="http://www.w3.org/2000/svg"
   xmlns:sodipodi="http://sodipodi.sourceforge.net/DTD/sodipodi-0.dtd"
   xmlns:inkscape="http://www.inkscape.org/namespaces/inkscape"
   width="169.33333mm"
   height="169.33333mm"
   viewBox="0 0 169.33332 169.33332"
   version="1.1"
   id="svg3819"
   inkscape:version="0.92.2 (5c3e80d, 2017-08-06)"
   sodipodi:docname="Akb.svg">
  <defs
     id="defs3813" />
  <sodipodi:namedview
     id="base"
     pagecolor="#ffffff"
     bordercolor="#666666"
     borderopacity="1.0"
     inkscape:pageopacity="0.0"
     inkscape:pageshadow="2"
     inkscape:zoom="0.70710678"
     inkscape:cx="324.14752"
     inkscape:cy="243.76875"
     inkscape:document-units="mm"
     inkscape:current-layer="layer1"
     showgrid="false"
     inkscape:window-width="1920"
     inkscape:window-height="1001"
     inkscape:window-x="-9"
     inkscape:window-y="-9"
     inkscape:window-maximized="1"
     fit-margin-top="0"
     fit-margin-left="0"
     fit-margin-right="0"
     fit-margin-bottom="0"
     inkscape:measure-start="0,0"
     inkscape:measure-end="0,0" />
  <metadata
     id="metadata3816">
    <rdf:RDF>
      <cc:Work
         rdf:about="">
        <dc:format>image/svg+xml</dc:format>
        <dc:type
           rdf:resource="http://purl.org/dc/dcmitype/StillImage" />
        <dc:title></dc:title>
      </cc:Work>
    </rdf:RDF>
  </metadata>
  <g
     inkscape:label="Layer 1"
     inkscape:groupmode="layer"
     id="layer1"
     transform="translate(-37.584476,-61.007274)">
    <path
       style="fill:#009a39;stroke-width:0.26458332"
       d="M 37.584476,145.67394 V 61.007274 h 84.666674 84.66666 V 145.67394 230.3406 H 122.25115 37.584476 Z m 55.827086,16.53646 5.419114,-5.42396 h -10.64705 c -6.2777,0 -10.64706,-0.0995 -10.64706,-0.24258 0,-0.13342 4.79226,-4.95479 10.64948,-10.71417 l 10.64947,-10.47159 0.0682,16.13813 0.0682,16.13813 h 18.582114 18.58211 l 4.43461,-4.42886 4.43461,-4.42885 v -11.97531 -11.97532 h -11.97013 -11.97009 l -5.49241,5.48774 -5.49241,5.48775 v -10.9117 -10.9117 h -7.80308 -7.803085 l -21.896399,21.81823 -21.8964,21.81823 18.65554,0.01 18.65555,0.01 z m 16.668758,-10.84522 v -5.42666 h 12.04402 12.04402 l -0.0716,5.35781 -0.0716,5.35782 -11.9724,0.0688 -11.97239,0.0688 z m 78.37997,11.84032 4.43461,-4.42885 V 146.80134 134.82602 H 180.953 169.0111 l -5.58674,5.48657 -5.58675,5.48656 -0.0691,-10.91052 -0.0691,-10.91052 h -5.42102 -5.42102 v 21.82812 21.82813 h 18.58414 18.58414 z m -30.75498,-11.80694 v -5.39323 l 11.92833,-0.19654 c 7.35716,-0.12122 12.02345,-0.10141 12.17658,0.0517 0.14299,0.14299 0.21777,2.48414 0.17636,5.52095 l -0.0719,5.27269 -12.10469,0.0688 -12.10469,0.0688 z"
       id="path4060"
       inkscape:connector-curvature="0" />
  </g>
</svg>
