<?xml version="1.0" encoding="UTF-8" standalone="no"?>
<svg
   xmlns:dc="http://purl.org/dc/elements/1.1/"
   xmlns:cc="http://creativecommons.org/ns#"
   xmlns:rdf="http://www.w3.org/1999/02/22-rdf-syntax-ns#"
   xmlns:svg="http://www.w3.org/2000/svg"
   xmlns="http://www.w3.org/2000/svg"
   xmlns:sodipodi="http://sodipodi.sourceforge.net/DTD/sodipodi-0.dtd"
   xmlns:inkscape="http://www.inkscape.org/namespaces/inkscape"
   width="47.423908mm"
   height="47.148937mm"
   viewBox="0 0 47.423909 47.148937"
   version="1.1"
   id="svg8"
   inkscape:version="0.92.2 (5c3e80d, 2017-08-06)"
   sodipodi:docname="BankYugra.svg">
  <defs
     id="defs2" />
  <sodipodi:namedview
     id="base"
     pagecolor="#ffffff"
     bordercolor="#666666"
     borderopacity="1.0"
     inkscape:pageopacity="0.0"
     inkscape:pageshadow="2"
     inkscape:zoom="1.979899"
     inkscape:cx="96.131648"
     inkscape:cy="50.372943"
     inkscape:document-units="mm"
     inkscape:current-layer="layer1"
     showgrid="false"
     fit-margin-top="0"
     fit-margin-left="0"
     fit-margin-right="0"
     fit-margin-bottom="0"
     inkscape:window-width="1920"
     inkscape:window-height="1001"
     inkscape:window-x="-9"
     inkscape:window-y="-9"
     inkscape:window-maximized="1" />
  <metadata
     id="metadata5">
    <rdf:RDF>
      <cc:Work
         rdf:about="">
        <dc:format>image/svg+xml</dc:format>
        <dc:type
           rdf:resource="http://purl.org/dc/dcmitype/StillImage" />
        <dc:title></dc:title>
      </cc:Work>
    </rdf:RDF>
  </metadata>
  <g
     inkscape:label="Layer 1"
     inkscape:groupmode="layer"
     id="layer1"
     transform="translate(-198.65719,-60.365363)">
    <path
       style="fill:#e77b18;stroke-width:0.26458332"
       d="m 218.8482,107.30603 c -0.94589,-0.11092 -2.25178,-0.34497 -2.90199,-0.52013 -1.42584,-0.3841 -4.77093,-2.03451 -4.77093,-2.3539 0,-0.25628 31.00548,-28.971913 31.97102,-29.609863 0.77647,-0.51304 0.87087,-0.38426 1.76376,2.40609 2.05559,6.42395 1.39146,12.96524 -1.88592,18.57506 -1.68917,2.89131 -6.06711,7.231103 -8.9131,8.835413 -1.13422,0.63938 -2.84102,1.4452 -3.79289,1.7907 -2.73984,0.99451 -7.41659,1.35195 -11.46995,0.87663 z m -14.3757,-2.28642 c -0.097,-0.097 -0.17639,-0.56661 -0.17639,-1.04355 0,-0.80565 1.04695,-1.83947 14.75912,-14.574143 23.71942,-22.028504 23.13842,-21.51217 24.20666,-21.51217 1.07898,0 1.63647,0.542994 1.4226,1.385626 -0.20979,0.826576 -1.66532,2.219056 -21.06513,20.152734 C 207.61397,104.2239 206.50341,105.196 205.60564,105.196 c -0.52621,0 -1.03612,-0.0794 -1.13314,-0.17639 z m -2.93561,-3.67897 c -0.49246,-0.49246 -0.51712,-1.0974 -0.0757,-1.856913 0.17674,-0.30409 6.15541,-5.9529 13.28594,-12.55291 7.13052,-6.60002 14.6333,-13.554496 16.67285,-15.454403 5.3894,-5.020407 8.0185,-7.290834 8.4426,-7.290834 1.07782,0 1.9189,1.077383 1.56369,2.003028 -0.12592,0.328156 -29.48823,27.705819 -36.66997,34.191402 -1.60238,1.44705 -2.47319,1.70689 -3.21944,0.96063 z m -0.80486,-7.884693 c -1.59705,-3.3204 -2.07484,-5.58253 -2.07484,-9.82349 0,-2.93856 0.11463,-4.12389 0.55461,-5.73485 2.00748,-7.350392 8.14331,-13.709331 15.87341,-16.450587 2.22914,-0.790499 4.07239,-1.079428 6.96295,-1.081657 2.71008,0.0149 4.52494,0.308936 6.32504,0.900858 2.5833,0.84946 6.72064,2.953087 6.81971,3.467474 0.10275,0.533558 -32.34656,30.672722 -33.02376,30.672722 -0.35896,0 -0.76225,-0.54736 -1.43712,-1.95047 z"
       id="path34"
       inkscape:connector-curvature="0"
       sodipodi:nodetypes="scsccsccscssscssccccssccccsscscscss" />
  </g>
</svg>
