<svg id="1860b1c0-f1f3-48e4-9f55-2f28824dc9d5" data-name="Слой 1" xmlns="http://www.w3.org/2000/svg" viewBox="0 0 885.5 884.5"><title>binancefiat2</title><circle cx="451.1" cy="442.3" r="357.4" style="fill:#f8cc2c"/><path d="M404.6.6c-48.7,4.8-95.9,16.6-134.5,33.6-56.7,25-98.3,53.2-140.1,94.9-36.6,36.5-60.8,70-83.7,116a442.7,442.7,0,0,0-24.2,335c10.4,31.6,27.8,68.9,45,96.3a531.4,531.4,0,0,0,44.3,59.3c11.6,13.2,36.6,37.6,48.7,47.5,72.2,59.1,158,93.5,250.8,100.5,22.3,1.7,64.5.7,85.7-2,89.6-11.5,171.5-48.4,239-107.5,15-13.3,39.7-39.1,52.6-55.2,14.3-17.9,30-41.1,40.1-59.3,24-43.3,39-83.4,48.3-129.3,19.4-95.9,7.1-193.6-35.5-281.3C792.5,149,708.3,70.7,605.6,30.1c-10.8-4.2-34.8-12.4-40-13.6l-15-3.9c-13.9-3.7-33.3-7.4-53.5-10.1C485,.8,475.5.4,447.6.1,428.6-.1,409.3.1,404.6.6ZM650.3,318.4c-7.2,7.7-71.2,71.2-71.8,71.2s-29-28.3-63.5-63-63.2-63-63.5-63-29.1,28.3-63.8,63-63.4,63-63.8,63-17.3-16.5-37.5-36.7l-36.8-36.8L350.3,215.4,451.1,114.6,551.8,215.3,652.5,316ZM234.5,405.5l36.9,36.9-37.2,37.1-37.1,37.1-37-37-37-37,37-37c20.3-20.4,37.1-37,37.3-37S214.2,385.2,234.5,405.5Zm507.6,74.1-37,37-37-37-37-37,37-37,37-37,37,37,37,37Zm-340.5-69v7h-21v23h19v13h-19v36h-16v-86h37Zm29,36v43h-16v-86h16Zm55.5-2.3c4.3,22.5,8.1,41.8,8.3,43.1s.3,2.3-7.4,2l-7.8-.3-1.2-6c-.6-3.3-1.5-7.7-1.8-9.8l-.7-3.7h-7.9c-7.4,0-8,.1-8.5,2.2s-1.2,5.6-2,9.7a76.4,76.4,0,0,1-1.9,7.8c-.2.2-3.7.3-7.8.1l-7.4-.3,9.3-42.5c5.1-23.4,9.2-42.6,9.3-42.8s4.4-.2,9.8-.2h9.8Zm53.5-33.2v7.4l-7.7.3-7.8.3-.3,35.2-.2,35.3h-16v-71h-15v-15h47ZM384.9,555.8C418,589,446.6,617.4,448.4,619l3.4,2.9,63.3-63.3c34.9-34.9,63.6-63.2,63.9-63l37.1,36.9L652.7,569,551.9,669.8,451.1,770.6,350.4,669.9,249.6,569.1l36.7-36.7c20.3-20.3,37.2-36.8,37.6-36.8S351.8,522.7,384.9,555.8Z"/><path d="M467.7,418.6c-.6,1.9-6.1,35.8-6.1,37.2s.9,1.8,6,1.8,6-.3,6-1.5C473.6,452.7,468,417.4,467.7,418.6Z"/></svg>