<?xml version="1.0" encoding="utf-8"?>
<!-- Generator: Adobe Illustrator 21.0.2, SVG Export Plug-In . SVG Version: 6.00 Build 0)  -->
<svg version="1.1" id="Layer_1" xmlns="http://www.w3.org/2000/svg" xmlns:xlink="http://www.w3.org/1999/xlink" x="0px" y="0px"
	 viewBox="0 0 84.1 61.5" style="enable-background:new 0 0 84.1 61.5;" xml:space="preserve">
<style type="text/css">
	.st0{fill:#F58220;}
	.st1{fill:#6CAEDF;}
	.st2{fill:#173583;}
</style>
<g>
	<g>
		<polygon class="st0" points="66.3,61.5 84.1,30.8 66.3,0 59.8,0 77.6,30.8 59.8,61.5 		"/>
		<path class="st1" d="M71,30.8L53.3,0c0,0-35.5,0-35.5,0c13.1,2.6,22.9,14.2,22.9,28c0,1,0,1.9-0.1,2.8c8.2,5,13.6,13.9,13.6,24.1
			c0,2.2-0.2,4.5-0.7,6.6L71,30.8L71,30.8z"/>
		<path class="st2" d="M53.4,61.5C51,44.1,36.1,30.8,18.2,30.8c6.8,0,11.1-4.8,11.1-11.2c0-3.6-3.8-14.1-11.6-19.5L0,30.8l17.8,30.7
			L53.4,61.5L53.4,61.5z"/>
	</g>
</g>
</svg>
