<?xml version="1.0" encoding="UTF-8" standalone="no"?>
<svg
   xmlns:dc="http://purl.org/dc/elements/1.1/"
   xmlns:cc="http://creativecommons.org/ns#"
   xmlns:rdf="http://www.w3.org/1999/02/22-rdf-syntax-ns#"
   xmlns:svg="http://www.w3.org/2000/svg"
   xmlns="http://www.w3.org/2000/svg"
   xmlns:sodipodi="http://sodipodi.sourceforge.net/DTD/sodipodi-0.dtd"
   xmlns:inkscape="http://www.inkscape.org/namespaces/inkscape"
   width="79.375mm"
   height="79.375008mm"
   viewBox="0 0 79.375002 79.375007"
   version="1.1"
   id="svg8"
   inkscape:version="0.92.2 (5c3e80d, 2017-08-06)"
   sodipodi:docname="Exmo.svg">
  <defs
     id="defs2" />
  <sodipodi:namedview
     id="base"
     pagecolor="#ffffff"
     bordercolor="#666666"
     borderopacity="1.0"
     inkscape:pageopacity="0.0"
     inkscape:pageshadow="2"
     inkscape:zoom="0.7"
     inkscape:cx="14.643634"
     inkscape:cy="265.37919"
     inkscape:document-units="mm"
     inkscape:current-layer="layer1"
     showgrid="false"
     fit-margin-top="0"
     fit-margin-left="0"
     fit-margin-right="0"
     fit-margin-bottom="0"
     inkscape:window-width="1920"
     inkscape:window-height="1001"
     inkscape:window-x="-9"
     inkscape:window-y="-9"
     inkscape:window-maximized="1" />
  <metadata
     id="metadata5">
    <rdf:RDF>
      <cc:Work
         rdf:about="">
        <dc:format>image/svg+xml</dc:format>
        <dc:type
           rdf:resource="http://purl.org/dc/dcmitype/StillImage" />
        <dc:title></dc:title>
      </cc:Work>
    </rdf:RDF>
  </metadata>
  <g
     inkscape:label="Layer 1"
     inkscape:groupmode="layer"
     id="layer1"
     transform="translate(-226.37302,-79.629593)">
    <path
       style="fill:#2069f9;stroke-width:0.26458332"
       d="M 226.37302,119.31709 V 79.629593 h 39.6875 39.6875 v 39.687497 39.68751 h -39.6875 -39.6875 z m 46.5377,10.82556 c 2.38516,-3.64303 4.42932,-6.52733 4.54257,-6.40953 0.11326,0.1178 2.04449,3.07169 4.29162,6.56419 l 4.0857,6.35 2.41808,0.0761 c 1.47721,0.0465 2.41808,-0.0263 2.41808,-0.18696 0,-0.23944 -8.91579,-14.78182 -10.11136,-16.49244 l -0.50903,-0.72832 5.3102,-8.46838 c 2.9206,-4.65761 5.31019,-8.59082 5.31019,-8.74046 0,-0.17209 -0.88857,-0.24413 -2.41779,-0.19601 l -2.41779,0.0761 -3.95117,6.35 c -2.17314,3.4925 -4.04166,6.50777 -4.15227,6.70059 -0.13353,0.23278 -1.66275,-1.90108 -4.5507,-6.35 l -4.34958,-6.70059 -11.30535,-0.069 -11.30535,-0.069 v 17.46534 17.46535 l 11.17865,-0.007 11.17864,-0.007 4.33666,-6.6237 z m -21.66687,-3.41722 v -5.02709 h 4.89479 4.8948 v -2.38125 -2.38125 h -4.8948 -4.89479 v -5.03108 -5.03108 l 7.72705,0.0701 7.72705,0.0701 3.78411,6.04166 c 2.08125,3.32291 3.74366,6.12088 3.69422,6.21771 -0.0494,0.0968 -1.78669,2.94425 -3.86057,6.32762 l -3.7707,6.15157 h -7.65058 -7.65058 z"
       id="path118"
       inkscape:connector-curvature="0" />
  </g>
</svg>
