<?xml version="1.0" encoding="utf-8"?>
<svg version="1.2" baseProfile="tiny" id="Vrstva_1"
	 xmlns="http://www.w3.org/2000/svg" xmlns:xlink="http://www.w3.org/1999/xlink" x="0px" y="0px" width="1000px" height="1000px"
	 viewBox="0 0 1000 1000" xml:space="preserve">

<rect fill="#E2383F" width="1000" height="1000"/>
<g>
	<path fill="#FFFFFF" d="M182.301,466.647c10.687,0,22.142-7.632,22.781-26.495c0.384-9.421-2.164-18.965-7.26-24.45
		c-3.811-4.075-9.668-6.632-15.769-6.632c-13.623,0-22.275,11.978-22.275,28.288C159.778,458.756,171.736,466.647,182.301,466.647z
		 M184.063,532.438c0-11.467-8.279-11.843-12.984-11.969h-19.088v24.331h18.575C173.76,544.679,184.063,544.428,184.063,532.438z
		 M292.142,635.536c-1.141,4.579-2.422,9.299-3.693,13.874c-1.913,6.761-5.34,17.34-7.382,24.082h22.777L292.142,635.536z
		 M520.298,614.141h66.424v17.44h-44.025v16.312h41.095v17.07h-41.095v21.388h47.984v17.707h-70.383V614.141z M512.007,634.646
		l-17.81,8.915c-1.277-2.926-2.799-5.983-6.74-9.3c-4.328-3.447-8.655-4.467-12.348-4.467c-14.512,0-22.135,13.511-22.135,28.552
		c0,19.734,10.048,29.541,22.135,29.541c11.713,0,16.418-8.16,19.468-13.378l17.685,9.051c-3.304,5.21-6.491,10.313-13.615,15.28
		c-3.804,2.67-12.589,7.897-25.056,7.897c-23.8,0-43.017-17.321-43.017-47.76c0-26.631,18.073-47.646,43.523-47.646
		c10.303,0,19.465,3.563,26.208,8.914C506.537,625.223,509.463,630.182,512.007,634.646z M500.538,521.367h-23.287v72.21h-22.522
		v-72.21h-23.405v-17.836h69.214V521.367z M361.238,393.153h66.415v17.458H383.62v16.294h41.104v17.08H383.62v21.403h47.977v17.704
		h-70.359V393.153z M364.726,704.058h-21.511v-89.917h22.017l19.465,33.108c7.127,12.615,9.291,16.684,13.493,24.582l-1.026-57.69
		h21.51v89.917h-22.013l-16.798-28.394c-8.139-13.378-9.679-16.188-15.772-28.159L364.726,704.058z M187.874,704.058h-21.51v-89.917
		h22.016l19.468,33.108c7.127,12.615,9.28,16.684,13.497,24.582l-1.023-57.69h21.5v89.917h-22.016l-16.794-28.394
		c-8.14-13.378-9.668-16.188-15.769-28.159L187.874,704.058z M221.722,593.577V503.66h66.426v17.441h-44.04v16.313h41.104v17.068
		h-41.104v21.388h47.98v17.706H221.722z M280.809,614.141h23.423l33.083,89.917h-23.922l-4.458-14.394h-33.083l-4.447,14.394
		h-23.922L280.809,614.141z M305.818,593.577V503.66h28.634c10.949,0.13,27.485,0.381,38.94,10.565
		c9.291,8.404,12.843,21.012,12.843,33.63c0,7.769-1.137,13.499-2.29,17.321c-8.268,27.776-33.334,28.283-42.744,28.4H305.818z
		 M399.123,593.577V503.66h22.404v89.917H399.123z M240.703,393.153h32.829l13.745,50.445l3.176,14.383
		c1.274-6.234,1.4-6.87,2.433-11.063l14.362-53.765h32.707v89.938h-21.496l1.396-64.083l0.251-9.043l-0.757,3.197
		c-1.152,5.091-1.271,5.722-2.304,9.55l-16.913,60.38h-19.354l-16.282-57.839l-3.93-16.047c0.366,7.133,0.366,8.66,0.753,17.209
		l1.142,56.676h-21.758V393.153z M181.92,390.354c5.344,0,10.942,0.765,16.429,2.676c27.475,9.56,29.254,39.478,29.254,45.604
		c0,15.534-7.12,29.553-17.057,37.573c-8.774,7.256-18.958,9.431-28.246,9.431c-28.501,0-44.667-21.909-44.667-47.897
		C137.633,413.41,153.036,390.354,181.92,390.354z M129.469,503.66h40.469c9.413,0.13,21.123,0.259,29.384,9.173
		c4.209,4.701,7.138,11.831,7.138,19.993c0,18.087-12.341,22.542-18.457,24.829l20.746,35.922h-24.812l-17.828-32.089h-14.118
		v32.089h-22.522V503.66z M124.197,614.141h22.4v89.917h-22.4V614.141z M45.366,393.153h22.641v32.487h32.836v-32.487h22.522v89.938
		h-22.522v-38.343H68.006v38.343H45.366V393.153z M82.185,500.861c10.303,0,19.465,3.563,26.215,8.907
		c6.226,4.974,9.155,9.94,11.706,14.401l-17.821,8.914c-1.27-2.928-2.795-5.985-6.739-9.301c-4.328-3.436-8.663-4.469-12.345-4.469
		c-14.505,0-22.146,13.512-22.146,28.541c0,19.748,10.063,29.559,22.146,29.559c11.709,0,16.415-8.156,19.461-13.378l17.688,9.036
		c-3.301,5.229-6.492,10.331-13.615,15.283c-3.811,2.674-12.596,7.903-25.056,7.903c-23.792,0-43.021-17.312-43.021-47.77
		C38.658,521.869,56.734,500.861,82.185,500.861z M44.666,614.141h68.97v17.321H67.063v18.842h42.888v17.461H67.063v36.293H44.666
		V614.141z M969.751,757.112h-19.832V319.821l-115.282-42.827v479.902l-789.314,0.216v-20.423H622.85V304.78l211.787-51.998
		l135.114,52.644V757.112z M363.854,548.748c0-6.244-0.646-12.477-4.715-18.087c-6.116-8.15-14.757-8.031-21.629-8.031h-9.029
		v52.873h6.865C347.307,575.244,363.854,574.608,363.854,548.748z"/>
</g>
</svg>
