<?xml version="1.0" encoding="UTF-8" standalone="no"?>
<svg
   xmlns:dc="http://purl.org/dc/elements/1.1/"
   xmlns:cc="http://creativecommons.org/ns#"
   xmlns:rdf="http://www.w3.org/1999/02/22-rdf-syntax-ns#"
   xmlns:svg="http://www.w3.org/2000/svg"
   xmlns="http://www.w3.org/2000/svg"
   xmlns:sodipodi="http://sodipodi.sourceforge.net/DTD/sodipodi-0.dtd"
   xmlns:inkscape="http://www.inkscape.org/namespaces/inkscape"
   width="58.832657mm"
   height="58.873192mm"
   viewBox="0 0 58.832654 58.873189"
   version="1.1"
   id="svg3819"
   inkscape:version="0.92.2 (5c3e80d, 2017-08-06)"
   sodipodi:docname="Otkritie-bank.svg">
  <defs
     id="defs3813" />
  <sodipodi:namedview
     id="base"
     pagecolor="#ffffff"
     bordercolor="#666666"
     borderopacity="1.0"
     inkscape:pageopacity="0.0"
     inkscape:pageshadow="2"
     inkscape:zoom="0.70710678"
     inkscape:cx="93.238977"
     inkscape:cy="-14.251011"
     inkscape:document-units="mm"
     inkscape:current-layer="layer1"
     showgrid="false"
     inkscape:window-width="1920"
     inkscape:window-height="1001"
     inkscape:window-x="-9"
     inkscape:window-y="-9"
     inkscape:window-maximized="1"
     fit-margin-top="0"
     fit-margin-left="0"
     fit-margin-right="0"
     fit-margin-bottom="0"
     inkscape:measure-start="0,0"
     inkscape:measure-end="0,0" />
  <metadata
     id="metadata3816">
    <rdf:RDF>
      <cc:Work
         rdf:about="">
        <dc:format>image/svg+xml</dc:format>
        <dc:type
           rdf:resource="http://purl.org/dc/dcmitype/StillImage" />
        <dc:title></dc:title>
      </cc:Work>
    </rdf:RDF>
  </metadata>
  <g
     inkscape:label="Layer 1"
     inkscape:groupmode="layer"
     id="layer1"
     transform="translate(-98.679027,-103.19968)">
    <path
       style="fill:#00b1df;stroke-width:0.26458332"
       d="m 123.90206,161.90649 c -15.23282,-2.37188 -25.971921,-15.56899 -25.182171,-30.94597 0.63598,-12.38283 9.167361,-23.09239 21.165491,-26.56931 10.55836,-3.0597 21.5683,-0.14044 29.28439,7.76467 3.96997,4.06721 6.46936,8.62632 7.72775,14.09607 0.86386,3.75489 0.80914,9.9857 -0.1182,13.45934 -1.46519,5.48829 -3.99224,9.92697 -7.83993,13.77061 -5.46222,5.45644 -12.18525,8.35545 -19.87795,8.57148 -1.96453,0.0552 -4.28625,-0.0109 -5.15938,-0.14689 z m -1.12447,-10.8633 c 0.49197,-0.59727 0.61525,-2.23453 0.21577,-2.86576 -0.13153,-0.20783 -1.05045,-0.9222 -2.04206,-1.5875 -2.2266,-1.49387 -3.6431,-3.31909 -4.34343,-5.59669 -0.49183,-1.59954 -0.52903,-2.33162 -0.45706,-8.99583 l 0.0783,-7.2546 0.83468,-1.76176 c 0.93641,-1.97649 2.45521,-3.59627 4.3276,-4.61535 1.97834,-1.07675 2.40215,-2.65294 1.10399,-4.10583 -1.01318,-1.13395 -2.32086,-1.13299 -4.45271,0.003 -4.63683,2.47141 -8.01344,6.94578 -9.38556,12.4369 -0.48762,1.95146 -0.54137,2.78853 -0.44165,6.87917 0.10272,4.21361 0.18254,4.85903 0.83773,6.77402 1.37792,4.02739 3.80522,7.33304 6.96728,9.48852 3.2602,2.22237 5.57685,2.63428 6.75708,1.20144 z m 15.47715,-0.12946 c 3.54242,-1.70383 6.81373,-5.33681 8.44737,-9.38128 1.22862,-3.04177 1.43187,-4.75717 1.16361,-9.82094 -0.27067,-5.10931 -0.69589,-6.94279 -2.35257,-10.14369 -1.3645,-2.63641 -4.81653,-6.05786 -7.42528,-7.35952 -2.75295,-1.37361 -4.15659,-1.24359 -4.96911,0.46029 -0.60151,1.26138 -0.23868,2.46452 0.97829,3.24395 3.26403,2.09055 4.98576,4.19285 5.55425,6.78197 0.1978,0.90088 0.27101,3.86699 0.21342,8.64726 -0.0832,6.90605 -0.11819,7.34225 -0.68803,8.57788 -0.79061,1.71435 -2.24527,3.4617 -3.59879,4.32288 -2.06856,1.31612 -2.54771,1.90526 -2.54771,3.13252 0,0.92316 0.14162,1.23677 0.81405,1.80258 1.10322,0.9283 2.04954,0.87168 4.4105,-0.2639 z"
       id="path4073"
       inkscape:connector-curvature="0" />
  </g>
</svg>
