<svg id="f20480ea-d86b-48e2-9d12-34c45d2f2487" data-name="Слой 1" xmlns="http://www.w3.org/2000/svg" viewBox="0 0 179.6 179.8"><title>otpbank</title><path d="M89.6,16.6c0,4.2-.1,8.3.1,12.5.1,2.5-.7,3.2-3.3,3.4A57.2,57.2,0,0,0,32.5,90.3c.2,28.8,21,52.2,50.4,56.7,26.1,4,53.1-13.4,61.6-39.6a61.3,61.3,0,0,0,2.6-14.7c.1-2.7,1.2-3.2,3.7-3.2,8,.1,16,.3,24,0,3.9-.1,5.1,1,4.8,4.9-2.7,31.3-16.5,56.1-43.5,72.4C80.2,200.6,8.7,165.4.7,100.6-5.7,49.5,34,2,84.6,0c4.3-.2,5.5,1,5.1,5.1A110.3,110.3,0,0,0,89.6,16.6Z" style="fill:#02653a"/><path d="M90.5,130.3c-21.6.1-39.7-17.9-39.8-39.7A40.1,40.1,0,0,1,90.5,50.4c21.7,0,39.7,18,39.9,39.8S112.4,130.3,90.5,130.3Z" style="fill:#52ae31"/><path d="M118.4,39.6a22.6,22.6,0,0,1,22.8-22.9,22.9,22.9,0,0,1,22.5,23.2,22.7,22.7,0,0,1-45.3-.3Z" style="fill:#02653a"/></svg>