<svg width="32" height="32" viewBox="0 0 32 32" fill="none" xmlns="http://www.w3.org/2000/svg">
<mask id="mask0" mask-type="alpha" maskUnits="userSpaceOnUse" x="0" y="0" width="32" height="32">
<rect width="32" height="32" fill="white"/>
</mask>
<g mask="url(#mask0)">
</g>
<path d="M16 32C24.8366 32 32 24.8366 32 16C32 7.16344 24.8366 0 16 0C7.16344 0 0 7.16344 0 16C0 24.8366 7.16344 32 16 32Z" fill="#E33E23"/>
<path fill-rule="evenodd" clip-rule="evenodd" d="M3.67542 16.2077C3.67542 16.2077 10.7983 17.7455 11.7992 14.4353C12.7806 11.1896 9.52608 10.5184 9.52608 10.5184H8.09637V15.9607H6.56438V10.6953H5.20785V10.1389C5.20785 10.1389 10.3474 10.1184 10.9149 10.1848C13.7685 10.5184 15.1573 15.6305 10.5871 16.6491C7.03242 17.4414 3.67542 16.2077 3.67542 16.2077ZM6.55572 17.3801V20.647C6.55572 20.647 6.54678 21.3422 5.91969 21.3422C5.2926 21.3422 5.13893 21.3422 5.13893 21.3422V21.8875H9.55996V21.2876H8.58198C8.58198 21.2876 8.07753 21.2304 8.07753 20.7174C8.07753 20.2045 8.07753 17.3501 8.07753 17.3501H6.56447L6.55572 17.3801ZM12.2062 21.9145H16.6589V21.2318H15.3789C15.3789 21.2318 14.9631 20.9969 14.9631 20.5214C14.9631 20.0458 14.9631 12.299 14.9631 12.299L19.9261 21.9042L24.7811 12.4829L24.6744 20.6105C24.6744 20.6105 24.7962 21.2823 24.1093 21.2823C23.4224 21.2823 23.2767 21.303 23.2767 21.303L23.2684 21.8261H27.7214V21.2043H26.6819C26.6819 21.2043 26.2486 21.2468 26.2486 20.771C26.2486 20.2953 26.2486 10.9063 26.2486 10.9063C26.2486 10.9063 26.2551 10.6908 26.6385 10.6908H27.5409V10.0264H24.778L20.2293 19.4534L15.709 10.0929H13.2368V10.6563H14.0217C14.0217 10.6563 14.2939 10.6263 14.2939 11.04C14.2939 11.4536 14.1873 20.5651 14.1873 20.5651C14.1873 20.5651 14.2231 21.2724 13.4468 21.2724C12.6704 21.2724 12.2078 21.2724 12.2078 21.2724V21.9598L12.2062 21.9145Z" fill="white"/>
</svg>
