<svg id="aff6acf5-3859-4ae1-a1d5-0e06e3594da0" data-name="Слой 1" xmlns="http://www.w3.org/2000/svg" viewBox="0 0 183.1 183.1"><title>pochtabank</title><g id="6cec1cf9-d0c9-495b-8fa3-d479c97e3217" data-name="layer1"><path id="5b81fb4b-a337-48b5-be00-b9d83498eed6" data-name="path73" d="M0,91.5V0H183.1V183.1H0Zm89.8,59.3,1.1-2.1-.4-1c-.3-.6-.5-1-.7-.9l-1.1,1.8-1,1.7a14.1,14.1,0,0,1-1.3-1.8c-.7-1-1.4-1.8-1.5-1.7l-.6.9c-.4.7-.3.8,1.6,3.5S87.8,154.4,89.8,150.8Zm13.1-7.8,7.8-10.9c.2-.1.5.1.9.4l.8.5a17,17,0,0,0,0-5.2l-2.5.9-2.3.9.7.4.7.7c0,.1-3.1,4.6-6.9,9.9-6,8.4-6.9,9.6-7.2,9.2s-1.8-3.1-3.6-6.5c-2.8-5-3.4-5.9-3.6-5.6L84,143.3l-3.3,5.1-.7-.5-.8-.5A9.3,9.3,0,0,0,79,150c0,2,.1,2.6.3,2.5l2.5-1,2.2-.8-.7-.6c-.4-.3-.7-.6-.6-.8s5-7.8,5.1-7.8,1.7,2.8,3.6,6.2a51.1,51.1,0,0,0,3.7,6.1c.1,0,3.6-4.9,7.8-10.8Zm1.2,7a9.3,9.3,0,0,0-.2-2.6l-.9.5-.7.5-.4-.7c-.6-1-.8-1-1.4,0s-.5.8-.3,1.3.3.6-.4,1.1l-.7.6,2.3.9,2.5,1a9.3,9.3,0,0,0,.2-2.6Zm-21.6-5.4.4-1c0-.1-2-3.1-4.5-6.5l-4.6-6.3.7-.6c.8-.6.8-.6-1.4-1.4l-2.2-.9c-.4-.1-.4.1-.4,2.5a9.3,9.3,0,0,0,.2,2.6l.9-.5.6-.5,4.8,6.7c2.6,3.6,4.8,6.7,4.9,6.7s.4-.4.6-.8Zm16.1-.3c.3-.6.3-.7-1.7-3.8l-2-3.2-.8,1.5-1.6,2.9-.7,1.3.5.9c.3.5.6,1,.7,1a7.8,7.8,0,0,0,1.1-1.7,7.8,7.8,0,0,1,1.1-1.7l1.3,1.8c.6,1,1.3,1.8,1.4,1.7s.4-.3.7-.7Zm-40.3-2.2c1.9-2,1.2-3.3-1.1-2.1s-2.5,1.8-2.3,2.3a2.1,2.1,0,0,0,1.8,1,3.9,3.9,0,0,0,1.6-1.2Zm2.8.5a4.1,4.1,0,0,0,1.1-1.2c.4-.7.4-.7-.1-1.1a1.2,1.2,0,0,0-1-.2c-.7.2-3.1,2.7-2.8,3s1.8,0,2.8-.5Zm63.6.4c0-.6-1.8-2.5-2.5-2.8s-.7-.3.5-.6,2-.8,2-1.5-2.6-.4-3.7.7-.5.5,0,.8.5.4,0,.6.9,3,3.3,3.1c.2,0,.4-.1.4-.3Zm3.3-.3c.8-.7-.1-1.9-2.3-2.9s-1.1-.4-1.6-.2-.7.4-.4.9a7.4,7.4,0,0,0,2.2,2.6A2.6,2.6,0,0,0,128,142.7Zm-71.8-2.6c1.2-.7,1.6-1.4,1.1-1.7s-4.4-.1-5.1.6-.3,1.1.5,1.9.6.6,1.5.2Zm74.3.6a3.4,3.4,0,0,0,.4-1.2c0-.8-.8-1.1-3.2-1.3s-2-.1-2.1.3.4,1.2,2.1,2.1,2.3.8,2.8.1Zm-60.4-.9c3.6-.7,5.8-1.3,5.8-1.6a1.8,1.8,0,0,0-.5-.7c-.5-.4-.6-.4-2.4.1a33.7,33.7,0,0,1-8.2,1.3c-1.7,0-1.8,0-1.8.6a1.5,1.5,0,0,0,.2.8c.4.4,3.9.1,6.9-.5Zm49.9-.2v-.7h-1.9a35.2,35.2,0,0,1-8.2-1.3l-1.9-.5-.6.6-.6.6,2,.6a35.6,35.6,0,0,0,9,1.5c2-.1,2-.1,2.1-.8Zm-57.8-.3c0-.7-1.8-1.7-3.2-1.7s-1.1,1,.2,1.7S62.2,139.8,62.2,139.3Zm1.4-2.6a33.7,33.7,0,0,1,4.1-8,12.7,12.7,0,0,1,5.4-4.3,3.9,3.9,0,0,0,1.5-.7,1.5,1.5,0,0,0-.5-.8,1.1,1.1,0,0,0-1.3-.2,2.4,2.4,0,0,0-.9.5c-.3.5-.6.2-.6-.7s-.1-.9-1.1-.9a2.2,2.2,0,0,0-1.8.8c-1,1.1-2.6,4.1-4.3,7.8a25.4,25.4,0,0,1-1.9,3.8q-1.1,1.5-3.3,0c-1.7-1.1-2.7-1.2-4.1-.5s-1.9,1.4-1.6,1.7l2.2.5a12.7,12.7,0,0,1,3.6,1.2c1.8.9,2.6,1.2,3.5,1.2s.8-.1,1.1-1.4Zm60.1.3a12,12,0,0,1,3.9-1.3l2.2-.5c.3-.3-.3-1.1-1.5-1.7s-2.4-.6-4.1.5-3.2.9-4.7-2.5-4.5-9.1-5.4-9.6a2.6,2.6,0,0,0-1.4-.3c-.9,0-.9.1-.9.9s-.1,1.1-.9.5a2.1,2.1,0,0,0-1-.4c-.5,0-1.5.7-1.5,1.1l1.6.7c2.8,1.1,4.9,3.2,7.3,7.4a22.6,22.6,0,0,1,1.9,4.2l.7,2.2,1.1-.2a11.5,11.5,0,0,0,2.7-1Zm-31.5.2a5.7,5.7,0,0,0,1.1-1.6l.4-.8H93l-1,.3a2.6,2.6,0,0,1-1.4-.2c-.6-.1-1.1-.2-1.2-.1s1.7,3,2,3a2.1,2.1,0,0,0,.8-.7Zm-35,.3a.6.6,0,0,0,.1-1l-1.8-.3A3.4,3.4,0,0,1,52,134a5.4,5.4,0,0,1,1.4-6.7c3.3-2.7,8.1-.7,8.7,3.8l.2,1.2.6-1.3.6-1.4-.5-1.1a7.1,7.1,0,0,0-11.6-1.8c-1,1.2-1.1.5,0-1.7s1.6-2.9,3.2-3.7,1.1-.7.8-.7-4.8-2.6-6-4.5l-.8-1.2-.2,1.1c-.1.6-.6,2.4-1.1,4a26.9,26.9,0,0,0-1.2,4.7c-.3,3.1.9,6.4,3.5,9.5a10.1,10.1,0,0,1,1.7,2.5l.4.9h5.5Zm74.3-.6a23.6,23.6,0,0,1,1.6-2.4,20.8,20.8,0,0,0,2.5-3.8c1.1-2.2,1.1-2.2,1.1-5.1a12.2,12.2,0,0,0-1.1-6,21.6,21.6,0,0,1-1.1-4.2v-1.1l-.5,1c-1.1,2.2-4.9,5.3-6.6,5.3s0,.2.8.6a10.5,10.5,0,0,1,1.9,1.2,18.8,18.8,0,0,1,2.2,4.5l.2.7-1.1-1a6,6,0,0,0-4.8-2.1,4.9,4.9,0,0,0-3.3.6,7.3,7.3,0,0,0-3.5,3.7,2.8,2.8,0,0,0,.4,2.4l.6,1.4v-1.2a5.4,5.4,0,0,1,8-4.6,4,4,0,0,1,2.3,2.6,4.8,4.8,0,0,1-1,5.7c-.9,1-1,1.1-2.6,1.1s-2.2.4-1.9,1,.6.4,3,.4h2.8v-.7ZM81,135.8a26.1,26.1,0,0,0,5.4-4.9,22.7,22.7,0,0,0,2.7-3.9h-.9c-.7.1-1.1.5-2.2,1.8a24.9,24.9,0,0,1-7.4,6.6c-.3.3-.3.3,0,.9l.6.5a6.9,6.9,0,0,0,1.8-1Zm23.4.5c.3-.6.3-.6-1.6-1.8a28.1,28.1,0,0,1-6.3-6.1c-.7-1.1-1-1.3-1.8-1.4h-.9l.3.7a30.2,30.2,0,0,0,4.9,5.8,23,23,0,0,0,4.8,3.4,1.2,1.2,0,0,0,.6-.5ZM86,135.2l1.7-1.1.8-.6,1.4.5a3.8,3.8,0,0,0,3.6-.1c.7-.4.8-.3,2,.5a19.8,19.8,0,0,0,4.6,2.1c.4.1-.6-1-2.4-2.8a32.4,32.4,0,0,1-4.5-5.2,12.4,12.4,0,0,0-1.7-2.2,12.2,12.2,0,0,0-1.2,1.6,47.7,47.7,0,0,1-4.5,5.1l-3.5,3.6,1.4-.5,2.3-.9ZM82.4,129c2.2-.9,4.4-3.8,5.5-7,.4-1.2.4-1.3-.1-2.3a4.3,4.3,0,0,1-.5-1.5c0-1-1.2-.2-2.6,1.8a11.4,11.4,0,0,1-2.9,2.9c-2,1.3-2.8,2.1-2.8,2.8s1.5.2,2.7-.7a15.7,15.7,0,0,0,2.6-2.6c1.7-2.1,2.2-2.4,2.2-1.5s-1.4,3.3-4.6,5.8a4.7,4.7,0,0,0-2,2.6c-.1.5-.1.6.6.4Zm20.6.4c0-.8-.9-2-2.3-3.1s-4.1-3.8-4.1-5.3.3-.8,1.6.8a20.5,20.5,0,0,0,2.4,2.6c1.2,1.1,3,1.9,3.4,1.5s-.6-1.6-1.9-2.5a34.6,34.6,0,0,1-4.7-4.5l-1.3-1.2a12.1,12.1,0,0,0-1.3,3.4c0,.8,1.5,3.9,2.4,5.2a10.2,10.2,0,0,0,4.4,3.2c1.4.5,1.4.4,1.4-.1Zm-13.6-3.2a5.3,5.3,0,0,0,1.4-1l.8-.8.6.6a4.3,4.3,0,0,0,2.9,1.5c.8,0,.9-.4.2-.6a3.3,3.3,0,0,1-1.2-1c-1-1.1-.9-2.8.3-5.4s1.1-3.7.5-5.3-.7-1-1.3,1-1.9,4.7-2.2,4.5a46.9,46.9,0,0,1-2.2-5.6c-.1-.4-.3-.7-.4-.7s-.8,1.3-.9,2.7,0,1.6.8,3.4,1.2,4.1.3,5.4a4.8,4.8,0,0,1-1.2,1c-.3.1-.5.2-.4.4S88.7,126.6,89.4,126.2Zm-10.3-2.3c.6-.3,1.2-1,1.2-1.3s-.5-.2-1.2-.2-1.1-.1-1.3-.7,1.3-3.2,3.1-3.2h.6l-.6-.5c-.9-.7-2-.4-3.3,1.1a6.5,6.5,0,0,0-1.4,1.9,2.3,2.3,0,0,0,.7,2.7,1.8,1.8,0,0,0,2.2.2Zm27.3-.5a2.9,2.9,0,0,0-.3-3.5c-1.4-1.9-3-2.7-4.2-1.8s-.3.4.6.5a3.3,3.3,0,0,1,2.6,1.9c.5,1.2,0,1.8-1.5,1.9h-1.2l.9.9c.7.8.9.8,1.7.7a2.3,2.3,0,0,0,1.4-.7ZM75.3,122c-.5-.7-1.9-1.4-4.7-2.2l-2-.6-.5.6c-.7.9-.2,1.3,1.9,1.3s1.8.1,1.8.5.2.8.8.5a1.7,1.7,0,0,1,2.2.9c.4.8.4.8.7.2s.1-.7-.2-1.2Zm34,0a2.4,2.4,0,0,1,1.2.1c.4.2.5.2.6-.3s.2-.6,1.9-.6,2.4-.4,1.9-1.4-.5-.7-3.4.3-4.1,1.7-4.1,2.7.3.9.8.1a2.9,2.9,0,0,1,1.1-.9Zm-32.8-2.8c1.1-1.3,1.2-1.4.7-1.5s-1.9.2-3.6,1.1l-1.2.6,1.2.6,1.4.6C75.2,120.6,75.8,120,76.5,119.2Zm32.6.8c.9-.4,1.1-.6.9-.8a7.9,7.9,0,0,0-4.2-1.5h-.7l.6.5a5.5,5.5,0,0,1,1.2,1.4c.3.5.6.9.8.9l1.4-.6Zm-52-.2c.8-.4.9-1.7.1-2.9a13.4,13.4,0,0,0-5-4.5c-1.1-.4-1.1-.4-1.8.1s-.7,3.5,2,5.7,3.5,2.2,4.7,1.6Zm71.7-.2a13.5,13.5,0,0,0,4.4-4.5c.6-1.3.3-2.3-.7-2.8a2.2,2.2,0,0,0-1.9.2,14.4,14.4,0,0,0-4.9,4.6C124.6,119.5,126.3,120.8,128.8,119.6Zm-54.9-1.5c1.8-.8,4.1-2.8,3.7-3.1l-3.2.6a12.1,12.1,0,0,0-4.1,1.5c-.5.5-1,.9-1,1.1a5.2,5.2,0,0,0,2.5,1l2.1-1.1Zm38.9.6,1.1-.3-.7-.7-1.5-1.2a47.4,47.4,0,0,0-6.5-1.6c-.1,0,.2.5.7,1a8.6,8.6,0,0,0,2.7,2l2,1.1a1,1,0,0,0,.7.2l1.5-.5Zm-28.4-1.1a7.5,7.5,0,0,0,2.8-3.2,12.1,12.1,0,0,0,1.1-3.9L86.6,112a11.5,11.5,0,0,1-3.3,2.4c-2.4,1.1-3.2,2.2-2,3.1a2.9,2.9,0,0,0,3.1.1Zm17.2,0c1.3-.9.7-2-2-3.3a10.3,10.3,0,0,1-3.4-2.5l-1.5-1.6.2,1.4C95.4,115.9,99.2,119.2,101.6,117.6Zm-8.1-5.7c.4-1.6.1-3-1.1-5s-1.1-1.5-2.3.8-1.1,3.8.6,8.1l.8,2,.9-2.3a27.6,27.6,0,0,0,1.1-3.6ZM80.3,116a2.9,2.9,0,0,1,2.1-1.9c1.1-.3,1.2-.6.4-1.1s-.7-.1-1.6.3-4,3-4,3.4.6.3,1.3.3,1.3-.1,1.8-1Zm25.1.2a9.6,9.6,0,0,0-3.6-2.8c-1.3-.6-1.3-.7-1.9-.2s-.5.5.8,1a3.5,3.5,0,0,1,2,1.6c.6,1.1.7,1.2,1.9,1.2h1.3Zm-27.7-2a17.2,17.2,0,0,0,2.9-1.1l1.5-.8-.4-1.1a5.9,5.9,0,0,1-.5-1.2c-.2-.2-3.4,2.3-4.5,3.5s-1.1,1.4,1,.7Zm29.2-.3c-.8-1-4.8-4.1-5-3.9s-.3.6-.5,1.2-.4,1.1.3,1.5a20,20,0,0,0,5.3,1.9c.4,0,.4,0-.1-.7Zm-21-3.3a3.9,3.9,0,0,0-.6-2.5l-.7-1.7-1.1,1.4c-1.7,2.1-1.7,2.9-.1,4.6l.6.7.9-.8A5,5,0,0,0,85.9,110.6Zm14.7.6c.6-1.1.4-1.5-.9-3.2l-1.3-1.6-.7,1.7c-.8,2-.7,2.9.5,4.1l.8.9.6-.6a4.1,4.1,0,0,0,1-1.3Zm-33.5-.8a48.7,48.7,0,0,0,1.3-9.1v-1.2l-.6.6c-.5.6-.6,1.1-.7,3-.4,5.2-1.6,5.4-1.6.2.1-2.2,0-2.6-.5-3.4l-.6-1-.2,1.6a35.6,35.6,0,0,0,.5,9.5c.5,1.6,1.1,2.3,1.5,2a7.1,7.1,0,0,0,.9-2.2Zm51.3.3a38.2,38.2,0,0,0,.5-9.7l-.3-1.5-.5,1c-.5.8-.6,1.3-.6,3.5s-.2,3.7-.6,3.7-.7-1.8-.9-4.1-.3-2.3-.8-2.9l-.6-.6.2,2.5c.2,4.2,1.2,8.9,2,9.9S117.9,112.2,118.4,110.7Zm-59.7,1.1c2.2-1.5,3.2-3.2,3.9-6.4a50.2,50.2,0,0,0,.9-8.5V96l-.6.5c-.5.4-.7.9-1,3a20.8,20.8,0,0,1-1.7,6.5c-1.4,2.9-1.2-1,.2-5.4a12.6,12.6,0,0,0,.8-2.9c-.5-.5-2.5,2.5-3.8,5.9s-1.4,6.7-.5,8.4.5.7,1.9-.2Zm67.7-.2c.7-1.6.6-4.4-.3-7s-3.6-7.5-4.2-6.9.3,1.3.7,2.7c1,3,1.4,5.6,1.2,6.3s-.2.5-.5,0a24.7,24.7,0,0,1-2-6.7c-.4-2.5-.6-3.1-1-3.5s-.6-.5-.7.2a51.3,51.3,0,0,0,.9,8.6c.5,2.6,1.1,3.9,2.4,5.2a9,9,0,0,0,2.9,2.1c.1,0,.4-.5.6-1Zm-52.9-1a21.9,21.9,0,0,0,.2-5.7,2.1,2.1,0,0,0-.9-1l-.7-.3v2a6.3,6.3,0,0,1,0,2.1c-.3,0-1-1.9-1.3-3.8s-1.7-4.7-1.7-3.7a44.2,44.2,0,0,0,1.3,7.2c.6,2,2,4.5,2.4,4.3s.4-.5.6-1.1Zm37.8-.2a21.9,21.9,0,0,0,2.2-7.2c.5-3.5.5-3.6-.3-2.3a16.2,16.2,0,0,0-1,3.1c-.5,2.1-1,3.7-1.3,3.7a8.2,8.2,0,0,1-.1-2.1l.2-2-.8.3c-.9.5-1.1,1.5-.9,4.4s.5,3.5.9,3.5.7-.6,1.1-1.4Zm-61.9-.5a15.8,15.8,0,0,0,6.1-6.4c.7-1.4,1.7-3.1,2.2-3.9l.9-1.3a4.5,4.5,0,0,0-2.3.1c0,.5-2.8,4.3-4.3,5.9s-2.4,1.8-1.3-.6a19.4,19.4,0,0,1,4.2-5.8c1-1.2,1.9-2.2,1.9-2.3s-.5-.2-1.1-.1-1.3.3-2.3,1.4a35.7,35.7,0,0,0-4.7,6.1,18.3,18.3,0,0,0-2,6.6c0,1.4.1,1.5.6,1.3Zm86.9,0c0-2.7-1.6-6.6-4.1-9.9s-3.8-4.4-5-4.5-.9-.1-.9.1a16.5,16.5,0,0,0,1.8,2.2,22.3,22.3,0,0,1,4.3,5.9c1,2.3.7,2.5-1.1.9s-4.5-5.7-4.5-6.2a4.5,4.5,0,0,0-2.3-.1,8.4,8.4,0,0,0,.8,1.4l2.4,4a17.2,17.2,0,0,0,2.8,4c1.2,1.1,4.7,3.3,5.5,3.3s.3-.4.3-1.1Zm-46.9-2.6c1.3-2.4,1.1-5-.5-6.4s-.6-.5-1.1.1a9.7,9.7,0,0,0-1.3,2.2c-1,1.9-1,2.5.2,5.1l.7,1.7.6-.6a9.2,9.2,0,0,0,1.4-2.1Zm7.9-1.6a4.1,4.1,0,0,0-.7-2.5,9.7,9.7,0,0,0-1.3-2.2c-.5-.6-.6-.6-1.1-.1a4.9,4.9,0,0,0-1.4,2.8c-.2,1.3.6,3.4,1.9,5.1l.9,1.3.8-1.8a16.3,16.3,0,0,0,.9-2.6ZM42,107.3c2.2-1,3.1-1.8,6.2-5.9a44.8,44.8,0,0,1,3.9-4.9A4.4,4.4,0,0,0,53.2,95c0-1.2-.3-1.1-2.1.6s-7,5.7-7.4,5.3.3-.8.9-1.5,4-3.9,6.5-5.4,2.6-2,2.3-2.2L52,91.5l-1.3-.3-2.1,1.7c-6.2,5.1-8.9,8.5-10,12.7-.6,2.6-.6,2.7.8,2.5a15.3,15.3,0,0,0,2.6-.8Zm102.9.5a21.1,21.1,0,0,0-2-6,41.2,41.2,0,0,0-7.9-8.4c-2.8-2.2-2.8-2.2-3.7-2a4.4,4.4,0,0,1-1.5.2c-.5-.2-.5-.2-.1.7s.8.9,1.3,1.2c2.9,1.5,7.2,5.1,8.1,6.9s.2.7-1.6-.4a30.8,30.8,0,0,1-5.7-4.6l-1.9-1.7v.8a2.2,2.2,0,0,0,.9,1.8c.5.5,2.3,2.8,3.9,4.9a37.1,37.1,0,0,0,4.3,4.9c2,1.6,5.9,2.7,5.9,1.7Zm-60.7-2.3a6.3,6.3,0,0,0,.7-2.1c0-.8-1.2-3.3-1.6-3.2s-1.7,2.2-1.9,3.3a4,4,0,0,0,.6,2.6c.8,1.8.9,1.8,2.2-.6Zm16.9.3c.6-1.7.7-2.1.4-2.9s-1.7-2.7-2.1-2.7-1.3,2.7-1.2,3.6,1.7,3.9,2,3.9A8.2,8.2,0,0,0,101.1,105.8Zm-26.2-3.1a31.3,31.3,0,0,1-1.3-4.2,20.2,20.2,0,0,0-3-7c-.6-.7-.6-.7-1.1-.3s-.7,3.2-.3,5.5c.7,4.1,3,7.1,5.5,7.1h.7l-.5-1.1Zm34.9.7c1.8-.7,3.7-3.7,4-6.4l.2-1.3.2,1.4a9.3,9.3,0,0,0,2,4c.6.4,2.2-2.3,2.5-4.2a7.7,7.7,0,0,0-.9-4.4c-.5-.6-.5-.6-1.1-.2a1.3,1.3,0,0,1-1.2.1c-.7-.2-.7-.2-1.1,1.6l-.2,1.1V93.7c-.1-1.4-.5-2.6-1-2.7s-2.3,2.9-2.9,4.8-.8,2.6-1.1,3.7a20.6,20.6,0,0,1-1,3.2l-.5,1.1h.6a4.2,4.2,0,0,0,1.5-.4Zm-76.6-.5c3.6-.7,5.2-1.7,12.4-8.3l3.7-3.3c.6-.5.8-.8.6-1s-.8.2-1.9,1c-3,2.4-8.8,5.8-9.2,5.4s1.8-2.4,3.5-3.7a22.2,22.2,0,0,1,4.4-2.5,10.2,10.2,0,0,0,2.7-1.6c.2-.4-8.5,3-11.7,4.6a16.5,16.5,0,0,0-7,7.9C29.9,103.6,29.8,103.5,33.2,102.9Zm119.7.1a13.2,13.2,0,0,0-.7-1.8,16,16,0,0,0-6-7.3c-2-1.2-12.8-5.5-12.5-5a10.2,10.2,0,0,0,2.7,1.6,25.5,25.5,0,0,1,4.4,2.5c1.7,1.3,3.7,3.5,3.5,3.7s-6.2-3-9.2-5.4c-1.2-.8-1.7-1.2-1.9-1s0,.5.6,1l5.1,4.6c4.9,4.4,5.8,5.1,7.7,6s6.3,1.7,6.3,1.1ZM93.4,99.3c.4-1.3.2-1.9-1.2-4.1L91.5,94l-1,1.5a10.8,10.8,0,0,0-1.1,2.1c-.2.8.4,2.5,1.3,3.8l.8,1.1.7-1.1a7.5,7.5,0,0,0,1.2-2.1Zm-6.2,1.3c1.4-2.4,1.4-3.5,0-5.8-.5-.8-1-1.4-1-1.5s-.6.6-1.2,1.5a4.2,4.2,0,0,0-1.1,2.9,7.5,7.5,0,0,0,.3,1.9,10.9,10.9,0,0,0,2.1,2.4,4.4,4.4,0,0,0,.9-1.4Zm11.2-.7c1.2-1.8,1-3.2-.6-5.5l-.9-1.2-1,1.4c-1.5,2.2-1.5,3.9-.1,6.2s.8,1.2,1.3.8A9.2,9.2,0,0,0,98.4,99.9ZM83.1,97a9.4,9.4,0,0,0-1.2-2.6l-1.1-1.5-.7,1.5a5.1,5.1,0,0,0,.4,5.7l.9,1.5.9-1.8a5.4,5.4,0,0,0,.8-2.8Zm19.7,2.5c.8-1.4.8-2.5.2-4.5a9.8,9.8,0,0,0-.7-1.9c-.1-.1-.7.5-1.2,1.3s-1.5,3.2-.4,5.4l.8,1.7.5-.6A8.7,8.7,0,0,0,102.8,99.5Zm-35.2.4c.9-1.2,1-1.5,1-3.4s-.3-4.3-.7-4.3l-.5.2c-.3.2-.6.1-1-.1s-1.2-.2-1.7,1.5a8,8,0,0,0-.1,4.6c.4.9,1.7,2.8,2,2.8a4.2,4.2,0,0,0,1-1.3Zm8.2.7,1.7-3.8c1.9-3.9,2.2-5,1.8-6.3A2.7,2.7,0,0,0,78,88.8c-.9-.6-1-.6-1.7-.2a2.8,2.8,0,0,1-1.2.5c-.4,0-.5.2-.5,1a6.5,6.5,0,0,1-.4,2c-.4.9-.6,1-2,.5s-.5-.2-.1.2a10.5,10.5,0,0,1,1.7,4.4c.9,3.6,1.6,4.8,2,3.4Zm32.5-.3c.2-.5.6-1.9.9-3.1s1-3.5,1.8-4.4.4-.4-.1-.2-1.7.4-2.1-.5a6.5,6.5,0,0,1-.4-2c0-.8-.1-1-.4-1a2.4,2.4,0,0,1-1.2-.5c-.8-.5-.8-.5-1.8.2s-1.3,1.2-1.3,2.9.4,2,1.7,4.8l1.9,4.1c.2.9.6.8,1-.3ZM60.7,96.8c2.2-1.1,3.8-3.2,3.8-4.9s-.3-1.3-1.4-.8a4.2,4.2,0,0,1-1.5.6c-1.1,0-4.5,4-4.5,5.3s0,.7,1.2.5a9.5,9.5,0,0,0,2.4-.7Zm65.3.4c0-1.4-3.5-5.5-4.6-5.5l-1.6-.5c-.5-.3-1-.5-1.1-.4a2.5,2.5,0,0,0-.2,1.2c0,2.6,3.4,5.5,6.5,5.6C125.7,97.6,126,97.5,126,97.2ZM27.8,95.8c2.8-.4,5-1.2,10.4-3.6l7-3c2.9-1,2.8-.9,1.8-1.2s-2.1-.3-4.9.8-6.5,1.9-7.5,1.8,3-2.1,7.1-3.6c1.8-.7,3.4-1.3,3.4-1.5s-9.6,1.4-11.6,2a17.2,17.2,0,0,0-8.7,6.3l-1.3,1.9h.7a7.1,7.1,0,0,0,3.6,0Zm131.7-.1c.2-.2-1.3-2.3-2.6-3.7a18.1,18.1,0,0,0-9.8-5.1c-1.7-.4-8.2-1.4-8.7-1.4s-.1.5.8.8c3,.8,9.8,3.7,9.8,4.2s-5.6-.8-9.2-2.2c-1.9-.7-2-.8-3.2-.4s-1.1.4-.7.5c3.8,1.4,5.6,2.2,9.2,3.8,6.3,2.9,10.1,4,13,3.7l1.4-.2ZM90.1,93.9a12.3,12.3,0,0,0,.7-2.9c.1-1.5.1-1.6-1-3.3s-1.2-1.7-1.4-1.6a2.9,2.9,0,0,0-.8,1.1,7.1,7.1,0,0,0-.5,5.3,8.7,8.7,0,0,0,2.2,2.8,3.4,3.4,0,0,0,.8-1.4Zm4.8.3A5.4,5.4,0,0,0,96.3,90c-.2-1.3-1.2-3.8-1.7-3.9s-.7.7-1.4,1.6-1.1,1.8-.9,3.3,1,4.3,1.4,4.3S94.4,94.8,94.9,94.2Zm-38.3.5c1.4-.3,3.7-2.6,3.4-3.2a11.2,11.2,0,0,0-.5-1.3c-.3-1-.6-1.1-2.3-.2s-3.8,3.1-3.4,4.5,1.2.7,2.8.2Zm28.2-1.5c1.4-2.8,1.3-3.8-.4-5.9l-1.3-1.6-1,1.6L80.8,89c-.4.2-.3,1.1.4,2.5S83.5,95,83.8,95a8.9,8.9,0,0,0,1-1.8Zm17-1.7a9.5,9.5,0,0,0,.7-1.8,4.6,4.6,0,0,0-1-1.7l-1.2-1.8c-.3-.5-.5-.3-1.7,1.2s-1.7,2.9-.3,5.8l.9,1.9.9-1A13,13,0,0,0,101.8,91.5Zm27.3,2.6c.1-1.7-1.2-3.1-3.9-4.3l-1.4-.7-.5,1.4-.5,1.4,1,1.1a6.1,6.1,0,0,0,4.1,2C128.9,94.9,129,94.8,129.1,94.1Zm-55.2-3a6.2,6.2,0,0,0,.1-1.9c-.2-.8-.1-.8.9-.8s1.8-.4,1.2-1.3A10,10,0,0,1,75,85l-.6-1.3-1.4.4a12.1,12.1,0,0,1-7.1-.4,2.7,2.7,0,0,1-1.3-1.3c-.2-1,.3-3,1.5-5.7s1.6-5.5-2.4-8.5-6.2-5.6-7.3-7.6l-.8-1.5-.2,1a15.8,15.8,0,0,0,1.5,7.7,25.3,25.3,0,0,0,2.2,2.8,9,9,0,0,1,1.5,1.7l-1.2-.5c-1.5-.7-4.1-.8-4.9-.3s.9,3.6,2.7,4.7l.8.5H56.9c-1.1,0-3.7,1.1-3.7,1.5a3.3,3.3,0,0,0,.9,1.3,7.3,7.3,0,0,0,3.6,2c.2,0-.1.5-.7,1.1s-1.7,2.8-1.2,3.2,3.3.3,4.3-.2l.9-.4-.6,1.1c-1.1,2-.6,5.1.8,4.9a7.6,7.6,0,0,0,3.5-2.1l.9-.9v1c0,1.1.8,2.7,1.3,2.7a4.9,4.9,0,0,0,2.3-1.4l.6-.7.9.9c1.9,1.8,2.7,1.9,3.2.4Zm37.2.5a5.5,5.5,0,0,0,1.4-1.2l.4-.6.9.8a5.5,5.5,0,0,0,1.5,1.1c.9.4,1.5-.2,1.9-1.9l.3-1.3,1,1a8.8,8.8,0,0,0,2.3,1.4l1.3.5.4-.6c.7-1,.7-2.3.2-3.9s-.4-1.4-.2-1.3c2.1.7,4.8.7,4.8,0a6.7,6.7,0,0,0-1.5-3.1c-.6-.6-.8-.9-.5-1l1.3-.4c1.2-.4,3.1-2.2,3-2.8s-1.8-1.4-3.4-1.6l-1-.2c1-.1,3.4-3.2,3.4-4.5s-2.8-1.1-4.9-.3l-1.3.5.4-.5,1.6-1.8a10.9,10.9,0,0,0,3.1-8.8V59l-.9,1.7a29.4,29.4,0,0,1-7.2,7.5c-4.1,3-4.4,4-2.5,8.4s1.8,5,1.5,5.9a4.3,4.3,0,0,1-1.4,1.2c-1.4.7-5.1.9-7.1.4s-1.4-.3-1.5.1a19.3,19.3,0,0,1-1,1.9l-1,1.6.6.4a1.8,1.8,0,0,0,1.4.4c.7-.1.7-.1.6.6s.3,3.1.8,3.1l1.4-.6Zm-55-1.4c1.4-.7,3.2-2.2,3.3-3s.1-.6-1.9-.6a5.3,5.3,0,0,1-2.3-.3c-.2-.2-.6-.1-1.4.5l-1.5.7a4.2,4.2,0,0,0-1.3.7c-1.2.8-1.1,1.5.1,2.2s3.3.5,5-.2Zm76.3-.1a1.4,1.4,0,0,0,.4-1.1c-.2-.5-4.8-3-5-2.7a4.7,4.7,0,0,1-2.3.3c-2.5,0-2.6.2-1,1.9S130.8,91.6,132.4,90.1ZM80,88.6a7.5,7.5,0,0,0-.7-1.5l-.7-1.3-.8.6-.7.6,1,.9c.9.8,2,1.2,1.9.7Zm24.9-.6,1-.9-.8-.7-.7-.7-.8,1.5c-.8,1.6-.8,1.6-.3,1.6a3.4,3.4,0,0,0,1.6-.8ZM94,84.2c0-.9-.5-1.5-1.5-2.1s-1-.5-2,.1-2,1.9-.1,4.7l1.1,1.6,1.2-1.8A7.4,7.4,0,0,0,94,84.2ZM82,86a11.5,11.5,0,0,0,.8-2.8,3.2,3.2,0,0,0-.7-2.8L81.2,79l-1.1,1.1L79,81.2v1.9a9,9,0,0,0,.8,3.5C80.7,88.3,80.8,88.3,82,86Zm21.4.1a7.8,7.8,0,0,0,.7-3.3c0-1.6-.1-1.6-1.2-2.7L101.8,79l-.4.6a10,10,0,0,0-.8,1.4c-.8,1.2-.1,4.2,1.3,6.5C102.4,88.2,102.5,88.1,103.4,86.1ZM87.9,84.7c.5-.4.5-2.4,0-3.5a6,6,0,0,0-2.4-2.4c-.5,0-2.1,3.6-2.1,4.6s.3,1.5,1.7,3.2l1,1.2.7-1.4a12.7,12.7,0,0,1,1.1-1.7Zm11,.7c1-1.4,1-2.5-.2-4.8a7.1,7.1,0,0,0-1.1-1.8c-.5,0-2,1.5-2.4,2.4s-.6,3,0,3.6a5,5,0,0,1,1.1,1.7l.6,1.3.7-.7,1.3-1.7ZM51.3,87a7.8,7.8,0,0,0,4.6-4l.7-1.2H53.8c-3.4.2-5.2.7-6.6,2a5.5,5.5,0,0,0-1.8,2.7c0,.4,1.8.9,2.9.9a12.5,12.5,0,0,0,3-.5Zm85.4.2.9-.4-.4-1c-.8-2-2.1-2.9-4.9-3.6a24.5,24.5,0,0,0-5.7-.3c-.3.3,1.8,3.3,2.8,4S134.8,88,136.7,87.2Zm-104.2-1a99.8,99.8,0,0,0,11.8-1.6,9.9,9.9,0,0,0,2.3-1.2l.9-.7-1.3-.3c-1-.3-1.6-.2-3.7.2s-11.1,1-9.8.4a31.1,31.1,0,0,1,7.7-1.4l3.2-.4-.5-.4c-.4-.2-2-.2-6.4,0-7,.3-8.7.6-11.7,1.6s-6.7,2.8-6.5,3.1a18.3,18.3,0,0,0,4.4.8,62.7,62.7,0,0,0,9.6-.1Zm45.9-2.3a4.8,4.8,0,0,0,0-1.7c-.2-.7-.3-.7-1.2-.7a5.1,5.1,0,0,1-1.8-.1c-.6-.2-.8-.2-.8.1a20.7,20.7,0,0,0,1.7,4.4l.5.7.7-.8a4.2,4.2,0,0,0,.9-1.9Zm28.8.9a14.1,14.1,0,0,0,.9-2.7l.2-1-.9.3a5.3,5.3,0,0,1-1.8.1h-1v1.4a11.5,11.5,0,0,0,.2,2.1c.4.8,1,1.6,1.4,1.6a5.8,5.8,0,0,0,1-1.7ZM163.1,86a3.8,3.8,0,0,0,1.6-.6c0-.3-3.3-1.9-6.1-2.9s-5-1.3-12.3-1.7c-5.1-.2-6-.2-6.3.1s-.1.4,1.5.5c4.9.5,8.6,1.2,9.6,1.8s-7.7,0-10.5-.6-2.7-.5-3.8-.2l-1.2.3.8.7c1.4,1.2,5.3,2,14,2.8a75,75,0,0,0,12.7-.2ZM50.9,81.7l2.3-.6,1.1-.5-.5-.6a17,17,0,0,1-1-1.4c-.3-.7-.6-.9-1.9-1.2a8.7,8.7,0,0,0-2.3-.5,8.3,8.3,0,0,0-4.7,2c-.8.8-.8.9-.5,1.3a7.9,7.9,0,0,0,3.8,1.6,9.3,9.3,0,0,0,3.7-.1Zm87.4-.7c1.8-.8,1.8-1.1.8-2.1a9.1,9.1,0,0,0-4.6-2c-1.5.1-3.7.8-4.2,1.4l-.9,1.3a2.6,2.6,0,0,0-.6.8c0,.4,2.5,1.2,4,1.4a9.7,9.7,0,0,0,5.5-.8Zm-45.6-.7a5.7,5.7,0,0,0,1-1.9c.3-1.3.2-1.9-.8-3.5s-.6-.8-1-.4-.5.3-.9,0-.6-.3-1.2.7a4.1,4.1,0,0,0,.5,5.2c.9.9,1.5.9,2.4-.1Zm-3.9-.7a5.4,5.4,0,0,1,0-4.3,3.5,3.5,0,0,0,.1-3.3c-.2-.3-2.1,2-2.6,3.1a4.8,4.8,0,0,0-.3,1.8c0,.9.2,1.2,1.5,2.5a7.3,7.3,0,0,0,1.7,1.3c.1,0-.1-.6-.4-1.1Zm-9.8.3a14.2,14.2,0,0,0,4.8-7.1c.9-2.7.8-3.1-.3-1.5A17.9,17.9,0,0,1,79,75.9c-1.8,1-3.4.5-4.1-1.3s-.8-.9-1.3.4.9,5.6,3.4,5.6A4.4,4.4,0,0,0,79,79.9Zm16.5-.5c2.1-2,2.1-3.4-.1-6.2-1.1-1.3-1.3-1.5-1.4-1a4.8,4.8,0,0,0,.2,3.5c.7,1.2.7,1.9.1,3.6s-.4,1.3-.3,1.3a7.2,7.2,0,0,0,1.5-1.2Zm12.3.7a4.7,4.7,0,0,0,1.6-5.2q-.6-1.8-1.2-.3c-1.4,3.3-4.9,2-8.5-3.2-1.3-1.8-1.4-1.4-.3,1.7s3.7,6.6,5.4,7.3a4.4,4.4,0,0,0,3-.3ZM84.7,77.6c1.3-3,1.6-4.7.9-6.2s-.5-.9-.5-.8-.3,1.1-.6,2.1a18.9,18.9,0,0,1-1.6,3.6l-1.1,1.8.6,1.1c.3.6.7,1.1.9,1a18.3,18.3,0,0,0,1.4-2.6Zm16,1.6.6-1.2-.8-1.2a20.7,20.7,0,0,1-2.3-5.1l-.3-1.3-.4.9a6.5,6.5,0,0,0-.4,2c0,1.4,2.2,7,2.8,7A2.9,2.9,0,0,0,100.7,79.2Zm-60.4.4c2-.2,2.4-.3,2.7-.7s.4-.6-3.2-.9-9.2-1.2-9.8-1.6,2.8-.6,5.9-.4c1.5.1,4.1.5,5.7.8s3.1.5,3.7.3.8-.4-1.4-1a70,70,0,0,0-20.5-3.3,37,37,0,0,0-7.6.8c-.3.1.3.6,1.9,1.5C24.9,79.1,30.6,80.2,40.3,79.6Zm114.3-.5a38.2,38.2,0,0,0,12-4.8c1.3-.8,1.1-.9-2.7-1.3a65.6,65.6,0,0,0-23,2.6c-4.2,1.1-4.1,1.1-3.2,1.5a2.2,2.2,0,0,0,1.8.1A45.3,45.3,0,0,1,147,76c2.7-.2,6.7.1,6.1.4s-10.6,1.8-13.1,1.8h-.7l.6.7c.5.5.9.6,2.6.7a63.4,63.4,0,0,0,12.1-.5ZM54.8,76.3l1.2-.4-.7-.9a5.2,5.2,0,0,1-1.1-1.9l-.3-1H52.3L49,71.9c-2-.2-3.6.2-3.6.9s1.4,2.2,2.5,2.8a9.3,9.3,0,0,0,6.9.7Zm78.6,0a6.6,6.6,0,0,0,4-2.6c.5-.9.6-1,.1-1.3s-2.2-.7-4.4-.4a11.1,11.1,0,0,1-2.9.2c-.8-.2-.8-.1-1.3,1a11.6,11.6,0,0,1-1.3,2l-.6.7,1.1.4a9.5,9.5,0,0,0,5.3,0Zm-87.1-.9a11,11,0,0,1-1.4-1.8c-.5-1-.5-1-2.9-1.4a47.1,47.1,0,0,1-10.1-3c-1.8-.9-2-1-1.3-1s8.4,1.6,12.2,3.1c1.5.6,2.1.7,2.4.5l1.5-.5,1.2-.3-1.1-.5c-1.8-.8-8.7-3.3-12.5-4.6-7.5-2.4-12.2-3.4-16.6-3.4H15.2l.8,1.1a18.5,18.5,0,0,0,7.6,5.8c2.7,1.2,5.4,2.1,12.7,3.8,3.8.9,7.8,1.9,8.8,2.3s2.3.8,1.2-.1Zm100.2-2.2,8.7-2.2c5-1.5,9.8-4.5,11.6-7.1a8.9,8.9,0,0,0,.8-1.3c0-.2-4.7-.1-6.6.2-4.6.6-13.7,3.3-21.9,6.5-3.5,1.4-4.4,2-3,2a2.4,2.4,0,0,1,1.3.4c.7.3.9.3,3.2-.6,4.7-1.7,12.3-3.5,12.3-2.8s-7.7,3.2-11.8,3.9l-2.6.4-.5,1a4.6,4.6,0,0,1-1.3,1.8l-1,.7,2.3-.7,8.5-2.2Zm-65.8.4a5.5,5.5,0,0,0,1.8-5.1c-.1-.3-.3-.2-.9.9a5.6,5.6,0,0,1-3.7,2.8c-1.3.2-1.4.4-.4,1.2A2.6,2.6,0,0,0,80.7,73.6Zm24.9-.2c.9-.7.8-1.1-.2-1.1s-3-1.4-3.9-2.9-.8-1.2-.9-.9a6.1,6.1,0,0,0,.6,3.8c1,1.8,2.9,2.4,4.4,1.1Zm-13.1-.5c1-1.4.9-2.5-.2-4s-.9-1.3-1.2-.7a7.7,7.7,0,0,1-.9,1.3,3,3,0,0,0-.6,1.3c0,1,1.3,3,1.9,3s.7-.4,1-.9Zm-4.1-2.8c1.6-2,1.9-2.8,1.4-4.2s-1.7-4-1.9-3.9-1.9,5.7-2.1,6.6a3.8,3.8,0,0,0,.4,2.3c.4.6.6,1.1.7,1.1l1.5-1.9Zm8.2,1.1a4.2,4.2,0,0,0,.5-2C97.1,68,95.4,62,95,62a17.9,17.9,0,0,0-1.9,4.3c-.3,1.2,0,1.9,1.4,3.7l1.3,1.8c0,.4.3.2.8-.6ZM53.9,71l1.2-.6,1-.3-2.3-1.8a37.8,37.8,0,0,0-4.6-2.8c-2.4-1.2-5.3-2.3-5.5-2.1a6.9,6.9,0,0,0,.9,2.3,11.6,11.6,0,0,0,4.6,5.1c1.1.5,4.2.6,4.7.2Zm80-.3c1.6-.7,3.3-2.7,4.5-5.1s1.1-2.5-1.6-1.5a29.3,29.3,0,0,0-8.5,4.9l-1.4,1.1,1.3.5a7.1,7.1,0,0,0,5.7.1ZM85.7,66.5a4.6,4.6,0,0,0-.3-3.6l-.6-1.3-.7.9c-1,1.1-1.3,2.6-1.1,4.8s.3,2.9,1.5,1.3A12.8,12.8,0,0,0,85.7,66.5Zm14.3.1c0-2.2-.3-3.5-1.2-4.4l-.7-.6-.5,1.2a4.9,4.9,0,0,0-.2,3.9,13.1,13.1,0,0,0,1.2,1.9l.9,1.4.2-.7c.1-.4.2-1.6.3-2.7ZM56.2,67.9a23.5,23.5,0,0,1-1.6-4.3c-1.1-4-1.7-5.1-3.3-6.8s-3.9-2.8-4.2-2.5a9,9,0,0,0-.2,2.4c0,3.8,1.5,6.4,5,9.3,1.7,1.4,4.7,3.3,4.8,3.1s-.2-.6-.5-1.2Zm72,.2c2.6-1.6,5.9-4.8,6.9-6.9a7.9,7.9,0,0,0,.9-4,9.2,9.2,0,0,0-.1-2.7c-.4-.5-2.6.6-4.1,2.2s-2.4,3.1-3.5,6.8a20.5,20.5,0,0,1-1.5,4.3c-.4.8-.7,1.4-.6,1.4l2-1.1Zm-83.6-.8c-.4-.6-1.3-1.2-3.4-2.2a40.4,40.4,0,0,1-10.6-7.4,9.3,9.3,0,0,1-2-2.4c.6-.2,3.9,1.9,8.9,5.7l5.6,4.3c.5.3.5.2-.1-1.3s-.8-1.8-2.8-3.6-4.2-3.7-6.5-5.9c-5.2-5-9.8-8.4-11.9-8.9l-.7-.2v2.8c.4,5.6,1.7,8.1,6.6,11.8a42.6,42.6,0,0,0,9.8,5.9,34.4,34.4,0,0,0,7,2.3h.6l-.6-.9Zm97.2-.1a43,43,0,0,0,15.8-9.3,12.1,12.1,0,0,0,3.7-6c.4-1.7.6-6,.3-6.3s-3.3,1.3-5.7,3-4.5,3.9-7.4,6.6l-6.6,6.1a4.7,4.7,0,0,0-1.8,2.3,12,12,0,0,0-.6,1.7,11.8,11.8,0,0,0,2.7-1.8,103.9,103.9,0,0,1,10.2-7.4,5.2,5.2,0,0,1,1.9-.7c.3.3-4.7,4.9-6.9,6.4a60.7,60.7,0,0,1-5.4,3.1c-2.3,1.2-3.3,1.9-3.7,2.5s-.4.8.1.8l3.4-1ZM93.3,63.3a2.2,2.2,0,0,0-.4-3,2.9,2.9,0,0,0-1.4-.9c-1.1,0-2.6,1.9-2.3,2.9s.7,1.4,1.2,2.3l1.1,1.8.7-1.2,1.1-1.9Zm-11.5-.8c.2-.6,0-.8-1.7-2.5s-2.5-2.3-3.4-2-.5.3.5.7,1.9,1.5,2.3,3.4a13,13,0,0,0,1,2.5l.7,1.4.2-1.4A15.8,15.8,0,0,1,81.8,62.5Zm21,1.3c.4-.9.8-2.2,1-2.8a3.8,3.8,0,0,1,2.6-2.5l.6-.2-.6-.2c-1.2-.4-1.3-.3-3.3,1.7l-2.1,2,.4,1.5a8.8,8.8,0,0,1,.3,2c0,.9.5.4,1.1-1.5Zm-54.2-.3a10,10,0,0,1-2-3.8,2.9,2.9,0,0,0-1.3-1.6,54.4,54.4,0,0,1-8-7.9c-1.2-1.6-2.9-4.9-2.6-5.2s3.7,3.4,7.4,8l4.1,5.2V56.8c0-1.3-.2-1.7-1.8-4.6a76.8,76.8,0,0,0-12.7-17c-1.4-1.4-1.7-1.6-1.8-1.2a24,24,0,0,0-.3,10.3c1.2,4.8,6.9,12.1,12.9,16.5a46.5,46.5,0,0,0,7,4c.1,0-.4-.6-.9-1.3Zm87.1.2c3-1.4,5.7-3.4,9.3-7s7.2-8.2,8.3-11.9c.6-1.9.6-6.9.1-9.5l-.4-1.8-2.4,2.4a78,78,0,0,0-12.5,17,10.6,10.6,0,0,0-1.5,3.8c0,.8,0,1.4.1,1.4l4.4-5.4c3.7-4.6,5.7-6.8,7-7.6s-1.2,3.5-2.9,5.7a53.1,53.1,0,0,1-7.6,7.3,4.9,4.9,0,0,0-1.2,1.5,10,10,0,0,1-2.1,3.9c-.4.6-.8,1.1-.7,1.1l2.1-.9ZM87.2,59.6a5.2,5.2,0,0,0-2.1-4c-2.1-2-2.2-1.4-.2,2.5a19.7,19.7,0,0,1,1.5,3.5l.2,1,.3-1a7.5,7.5,0,0,0,.3-2Zm11-1.6c1.9-3.7,1.9-4.1,0-2.8a7,7,0,0,0-2.4,4.3,8.1,8.1,0,0,0,.3,1.9l.3,1.2.3-1.1A18.1,18.1,0,0,1,98.2,58ZM84.7,60.3c.2-.5.1-.9-.6-2.1A12.4,12.4,0,0,1,82.9,56c-.3-.6-.5-.7-1.1-.7s-.7.1-.7.4-.2.3-.7.2-.5.1.9,1.3a16.5,16.5,0,0,1,2.3,2.6,7,7,0,0,0,.7,1.1c.1,0,.3-.2.4-.6Zm15-.8a12.1,12.1,0,0,1,2-2.4c1.8-1.4,1.8-1.4,1-1.2s-.7.1-.7-.2-.2-.4-.7-.4-.9.1-1.2.9l-1.2,2.1c-.6.9-.8,1.3-.6,1.9s.2.7.3.7A5.1,5.1,0,0,0,99.7,59.5ZM73.6,58.1a5.2,5.2,0,0,1,2-.8l1.3-.4-1-1.1c-.9-1-.9-1-1.9-.8a6.7,6.7,0,0,0-1.9,1.2,1.9,1.9,0,0,0-.9,1.8,5.2,5.2,0,0,0,.3,1.8l.3.7.5-.9a4.7,4.7,0,0,1,1.3-1.5Zm7.9.9a5.7,5.7,0,0,0-3.1-3l-1.9-.7c-.7,0,.7,1.4,2.7,2.9a15.5,15.5,0,0,1,2.1,1.9c.1.4.2.4.2,0a2.1,2.1,0,0,0,0-1.1Zm23.9-2.2a7,7,0,0,0,1.4-1.5c-.2-.2-2.7.7-3.5,1.4a4.8,4.8,0,0,0-2,2.9v.9l1.3-1.1Zm6.4,1.2c0-1.2-1.2-2.5-2.7-3s-1-.3-2,.8l-1,1.1.9.2a5.2,5.2,0,0,1,3.8,2.8l.3.6.3-.7a5.3,5.3,0,0,0,.4-1.8Zm-21.3.6A4.4,4.4,0,0,0,86.6,55H86l.5,1a6.8,6.8,0,0,0,4.1,3.4c.1,0,0-.4-.1-.8Zm4.6-.7A8.5,8.5,0,0,0,96.5,56l.6-1h-.7c-1.6,0-3.5,1.7-3.9,3.5v.9l.9-.3A4.4,4.4,0,0,0,95.1,57.9ZM80.5,55c-.1-.5-.1-.5.6-.4s.8.2.6-.5-.1-.7.4-.4,1,.3,1-.3.1-.5.5-.2a5.2,5.2,0,0,0,5.2,1l.7-.3-1.1-.3A12.1,12.1,0,0,1,85.5,52c-.1-.1.2-.3.6-.6s.8-1,.1-1.3-.5-.2.2-.8.8-1-.2-.7l-5,.5c-3.7.2-4.5.2-6.3-.2l-2.3-.3a13.2,13.2,0,0,0,.9,3.4,5.2,5.2,0,0,0,2.2,2.4c.9.4,1,.4,1-.2s.1-.4,1.5.3l2.3,1c.1,0,.1-.2,0-.5Zm-5.1-3.3c-.5-1-.3-1.1,1.5-1.1s1.7.1.8.3a4.7,4.7,0,0,0-1.4.8l-.6.5Zm-7.5,3.2a4.7,4.7,0,0,1,3.7,0,2,2,0,0,0,1.7.1l1.1-.5c.5-.2-1-1.4-2.6-2.1a4.9,4.9,0,0,1-2-1.5c-.5-.9-1.4-1.2-2.7-.8s-1.5.7-1.6,1.6a3.3,3.3,0,0,0,.6,2.9c.6.7.9.8,1.8.3Zm.5-2c0-.6.9-.6,1,.1s-.1.4-.4.4S68.4,53.3,68.4,52.9Zm36.4,1.3,1.3-.7v.6c0,.6.1.6.8.3s2.7-2.3,3.2-5.2c.2-.9.2-1-.4-.8-2.3.6-4.5.7-8.5.5l-4.7-.6c-.8-.3-.9,0-.2.8s.4.6,0,.9-.3.4.4,1,.7.7.2,1.1a9.4,9.4,0,0,1-3,1.3c-.4,0-.4.1-.2.4s3.5.7,5.1-.5.9-.6.9-.1.3.6,1,.2.5-.2.2.5-.2.6.7.5.9-.1.7.4,0,.5.5.3l2-.9Zm2.1-2.3c0-.1-.3-.4-.7-.6l-.7-.4h1.2c1.2,0,1.2,0,.9.6s-.7.9-.7.4Zm4.4,2.9a5.3,5.3,0,0,1,4.1.1c.9.4,1.3.3,2-1a2.6,2.6,0,0,0-2-4c-1.1-.1-1.3-.1-2.1.8a6.5,6.5,0,0,1-2.1,1.6,9.5,9.5,0,0,0-2.1,1.4l-.7.6,1,.5,1.1.4a2.5,2.5,0,0,0,.8-.4Zm2.3-1.9c0-.6.9-.6,1,.1s-.1.4-.5.4S113.6,53.3,113.6,52.9ZM72.4,50.4c-.4-1.5-.9-2.1-1.4-1.7s-.2,1.4.7,2.4a7.8,7.8,0,0,0,1,1s-.1-.8-.3-1.7Zm39.8-.7c.2-.9-.2-1.3-.9-.9s-.5.6-.6,1.2a15.7,15.7,0,0,1-.3,1.6c-.2.6-.1.6.7-.3A4.6,4.6,0,0,0,112.2,49.7ZM64.4,48.6a7.2,7.2,0,0,0-.4-5.4,11.9,11.9,0,0,1-.7-2.3l-.2-1.1-.9.4c-1.3.5-1.3,1-.2,3.4a8.2,8.2,0,0,1,.7,3.9,8,8,0,0,0,.5,3.1c.4,1,.3,1.2,1.2-2Zm55.8.9a8.2,8.2,0,0,0,.2-2.6,6.4,6.4,0,0,1,.7-3.1c1-2.7,1-3.1-.2-3.6l-1-.4v1.1a8.5,8.5,0,0,1-.8,2.4c-.8,2-.9,3.1-.2,5.7a5.1,5.1,0,0,0,.8,2.2,7.2,7.2,0,0,0,.6-1.7ZM78.4,48l.5-.2-.5-.2c-.7-.3-4.7-.3-5,0s.6.7,2.5.7a6.9,6.9,0,0,0,2.5-.3Zm7.8-.3A4.6,4.6,0,0,0,88.8,46c1.1-1.5,1-1.7-.4-1.5a7.7,7.7,0,0,0-5.3,3.3c-.2.4-.1.5.6.5a10.9,10.9,0,0,0,2.5-.6Zm-.6-.8c.2-.4,1.9-1.4,2.1-1.1a6.5,6.5,0,0,1-2,1.5c-.1,0-.2-.2-.1-.4Zm14.3,1.2c0-.5-1.9-2.4-2.9-2.9s-3.5-.9-3.5-.5,1.8,2.5,3.1,3,3.3.8,3.3.4Zm-3.7-1.6c-.7-.5-1.2-.9-1.1-1s2.2,1,2.4,1.4S97.6,47.4,96.2,46.5ZM109.6,48a.3.3,0,0,0,0-.4c-.2-.3-4.3-.3-4.9,0l-.5.2.5.2c.8.4,4.7.3,4.9,0ZM62.1,46.9c.3-1.9-.8-1.8-2.4.3l-.6.7h2.8l.2-1Zm61.2.3c-1.5-2.1-2.7-2.2-2.3-.3v1h2.8l-.6-.7Zm-54.2-.5c-.6-.9-.5-1.3.6-3.6s1.3-3.2.5-4.4-.6-.9-.7-.2a14.8,14.8,0,0,1-1.3,2.6c-1.8,3.1-1.9,4.5-.3,5.6s1.7.8,1.2,0Zm45.8.1c1.6-1,1.7-2.3.5-4.5a24.4,24.4,0,0,1-1.4-2.8l-.7-1.4-.5.6c-.9,1.1-.9,1.7.3,4s1.2,3.2.8,4.1S114,47.4,114.9,46.8Zm-4.6-1.6c1.1-1.9,1.1-2.6.1-2.6s-1.7.5-2.1,1.9-.5,2.2.2,2.3.6.1.6.2a9.6,9.6,0,0,0,1.2-1.8ZM75.1,46.3c0-1.1-.8-3.2-1.3-3.4s-1.9-.3-2,.2a5.1,5.1,0,0,0,1,2c.8,1.3,1.2,1.6,1.7,1.6s.6-.1.6-.4Zm4-1a7.4,7.4,0,0,0,.9-2.1c0-.5-.1-.6-.8-.6s-1.9.8-2.1,2.3-.2,1.1-.3,1.4,0,.4.6.4.9-.2,1.7-1.4Zm27.1.7c-.6-2.9-1.1-3.5-2.3-3.4s-1.1.9,0,2.7,1.1,1.4,1.7,1.4.8,0,.6-.7Zm-14-.4c.5-.6,0-1.3-.8-1.3s-.7.1-.7.6a.8.8,0,0,0,1.5.7ZM76.8,44.1c.7-1.5.6-1.9-.3-2.2s-1.3,0-1.5.5.8,3,1.1,3A9.2,9.2,0,0,0,76.8,44.1Zm31.3-1.6c-.2-.6-.8-.8-1.6-.6s-.8,1.1-.1,2.6l.6,1.1.6-1.4a3,3,0,0,0,.5-1.7ZM95,43.6c2-.7.3-1.3-3.5-1.3s-4.5.3-4,.9a1.6,1.6,0,0,0,.9.5,24,24,0,0,0,6.6-.1Zm-6-2.2c.2-.1-.4-3.5-.9-5.1s-1.6-2.5-3-1.2-.4,1.1.9,4.6l1,2.6,1-.4c.5-.2,1-.4,1-.5Zm8.7-3.6c.7-2.1.7-2.2.3-2.7a2.1,2.1,0,0,0-2.2-.5,2.9,2.9,0,0,0-.8,1.3c-.3,1.1-1.1,5.5-.9,5.6l.9.4.9.4.6-1.2a29.9,29.9,0,0,0,1.2-3.3ZM76.4,40.7c0-.9.1-.9.8-.9s.8-.2.8-.6-.2-.5-.8-.5-.8-.1-.8-.6-.1-.7-.5-.7-.5.2-.5.7-.1.6-.6.6-.7.2-.7.5.2.6.7.6.6.1.6.9.1.9.5.9S76.4,41.4,76.4,40.7Zm14-.4c-.1-2.1-1.1-5.7-1.7-6.4s-.7-.7-.7-.6a3.3,3.3,0,0,0,.3,1.7,31.4,31.4,0,0,1,.8,3.8c.4,2.7.4,2.8.9,2.7S90.5,41.2,90.4,40.3Zm3.2,0c.2-1.1,1-5.2,1.3-6.5l.2-.6-.7.7c-.7.8-1,1.6-1.6,4.7s-.4,3,.3,3S93.5,41.2,93.6,40.3Zm14.1.4c0-.8.1-.9.6-.9s.7-.2.7-.6-.2-.5-.7-.5-.6-.1-.6-.6-.2-.7-.7-.7-.6.2-.6.7-.1.6-.7.6-.6.2-.6.5a.5.5,0,0,0,.6.6c.6,0,.7.1.7.7s.1,1.1.8,1.1.5-.2.5-.9Zm-42.2-.5a23.8,23.8,0,0,0,2.3-1.4l1.5-1.1-.7-.3a2.3,2.3,0,0,0-1.8.1c-1.6.6-3.2,2-2.9,2.6s.4.5,1.6.1Zm53.7-.2c.1-.3-.3-.8-1.1-1.4s-2.9-1.5-3.8-1.2-.7.3,1,1.5l2.3,1.4c.8.3,1.5.2,1.6-.3ZM92.9,34.9c.1-.8-.5-1.6-1-1.6s-.2-.1,0-.3a2.4,2.4,0,0,0,.3-1c0-.5.1-.7.6-.8s.9-1,.1-1-.7-.1-.8-.7a.7.7,0,0,0-.6-.8c-.5-.1-.6,0-.6.7s-.1.8-.7.8-.6.1-.6.5.2.5.6.5.6.2.7,1.1,0,1-.2,1-.9.7-.9,1.4a16.3,16.3,0,0,0,.8,2.8l.9,2.1.7-1.9a11.1,11.1,0,0,0,.7-2.8Z" style="fill:#010e8c"/></g></svg>