<svg xmlns="http://www.w3.org/2000/svg" xmlns:xlink="http://www.w3.org/1999/xlink" viewBox="0 0 60.3 56"><defs><mask id="a" x="-4.64" y="-6.71" width="320.63" height="69.54" maskUnits="userSpaceOnUse"><polygon points="-4.6 62.8 316 62.8 316 -6.7 -4.6 -6.7 -4.6 62.8" style="fill:#fff"/></mask></defs><title>raiffeisen</title><g style="mask:url(#a)"><path d="M30.1,36,10.2,56l-8-8,20-19.9L18,23.9V15.7l-2.8-2.9v7.1l-2.6,2.6L2.5,12.3,0,14.8A17,17,0,0,1,5,2.9C10-1.9,15.4.3,17.3,2.1L27.4,12.3l-2.6,2.5,5.3,5.3,5.3-5.3-2.5-2.5L43,2.1c1.8-1.8,7.2-4,12.2.8a16.8,16.8,0,0,1,5.1,11.9l-2.5-2.5L47.6,22.5l-2.5-2.6V12.8l-2.9,2.9v8.2l-4.1,4.2L58,48l-7.9,8Z"/></g></svg>