<svg id="e1120ef6-c356-4677-8d28-86f6cb9ab612" data-name="Слой 1" xmlns="http://www.w3.org/2000/svg" viewBox="0 0 225.4 262.9"><title>Rencredit</title><path d="M125.9,165.1c1.1-10.5,4-20.4,9.9-29.2,12.1-18,28.9-28.2,50.5-28.6,28.1-.7,56.3-.1,84.5-.3,3.6,0,4.4,1.1,4.3,4.5-.1,19.8,0,39.7,0,59.5a50.7,50.7,0,0,1-1.7,12.3c-7.5,29.6-32.2,48.6-62.7,48.6H167.2c-2,0-3.8-.1-4.7,2.5-4,11.2-8.3,22.4-12.5,33.6-.4,3.6,2.4,1.8,3.5,1.8,20.2.1,40.4.2,60.6,0,4.4,0,9,0,13.2-1.6,16.9-2.3,31.8-9,45.5-19.3,26.1-19.8,39.2-46.2,40-78.3s.1-64.3.2-96.5c.1-3.9-1-5-5-5-35.9.2-71.9,0-107.9.2-10,0-20,.1-30,2.2s-18,4.3-26.3,8.6c-34.3,17.9-54.2,46.5-55.3,85-1.5,54.9-.3,110-.3,164.9.1,3,2.3,1.8,3.7,1.8,9.3.1,18.6-.2,27.9.2,4.9.2,6.5-.9,6.4-6.2-.2-47.8-.1-95.5-.1-143.3C126.1,176.7,126,170.9,125.9,165.1Z" transform="translate(-87.7 -69.1)" style="fill:#d21168"/><path d="M88.2,330c0-54.9-1.2-110,.3-164.9,1.1-38.5,21-67.1,55.3-85,8.3-4.3,17-6.7,26.3-8.6s20-2.2,30-2.2c36-.2,72,0,107.9-.2,4,0,5.1,1.1,5,5-.1,32.2.6,64.4-.2,96.5s-13.9,58.5-40,78.3c-13.7,10.3-28.6,17-45.5,19.3H150c4.2-11.2,8.5-22.4,12.5-33.6.9-2.6,2.7-2.5,4.7-2.5h43.5c30.5,0,55.2-19,62.7-48.6a50.7,50.7,0,0,0,1.7-12.3c0-19.8-.1-39.7,0-59.5.1-3.4-.7-4.5-4.3-4.5-28.2.2-56.4-.4-84.5.3-21.6.4-38.4,10.6-50.5,28.6-5.9,8.8-8.8,18.7-9.9,29.2-1.4,1.8-.8,3.8-.8,5.8V325.1c0,3.3-1.1,5.2-4.9,5.1C109.5,330,98.8,330.1,88.2,330Z" transform="translate(-87.7 -69.1)" style="fill:#d21168"/><path d="M88.2,330c10.6.1,21.3,0,32,.2,3.8.1,4.9-1.8,4.9-5.1V170.9c0-2-.6-4,.8-5.8.1,5.8.2,11.6.2,17.4,0,47.8-.1,95.5.1,143.3.1,5.3-1.5,6.4-6.4,6.2-9.3-.4-18.6-.1-27.9-.2C90.5,331.8,88.3,333,88.2,330Z" transform="translate(-87.7 -69.1)" style="fill:#d54b8a"/><path d="M150,268h77.3c-4.2,1.6-8.8,1.6-13.2,1.6-20.2.2-40.4.1-60.6,0C152.4,269.8,149.6,271.6,150,268Z" transform="translate(-87.7 -69.1)" style="fill:#d54b8a"/></svg>