<svg xmlns="http://www.w3.org/2000/svg" xmlns:xlink="http://www.w3.org/1999/xlink" viewBox="0 0 157.5 157.5"><defs><linearGradient id="a" x1="9423.16" y1="1614.3" x2="9311.82" y2="1725.64" gradientTransform="translate(7883.4 -5364.2) rotate(135)" gradientUnits="userSpaceOnUse"><stop offset="0" stop-color="#d7722c"/><stop offset="0.41" stop-color="#d8762d"/><stop offset="0.8" stop-color="#db8131"/><stop offset="1" stop-color="#dd8a34"/></linearGradient></defs><title>rocketbank</title><circle cx="78.7" cy="78.7" r="78.7" style="fill:url(#a)"/><path d="M113.8,41.4h-.2l-.8.2L32,75a2.2,2.2,0,0,0-1.4,2.5,2.3,2.3,0,0,0,1.9,2,55.7,55.7,0,0,1,45.4,45.4,2.4,2.4,0,0,0,2.1,2h.3a2.3,2.3,0,0,0,2.1-1.5l33.5-80.7a3,3,0,0,0,.2-1A2.3,2.3,0,0,0,113.8,41.4Z" style="fill:#fff"/></svg>