<?xml version="1.0" encoding="utf-8"?>
<!-- Generator: Adobe Illustrator 22.1.0, SVG Export Plug-In . SVG Version: 6.00 Build 0)  -->
<svg version="1.1"
	 id="svg8" inkscape:version="0.92.2 (5c3e80d, 2017-08-06)" sodipodi:docname="RusskiyStandartBank.svg" xmlns:cc="http://creativecommons.org/ns#" xmlns:dc="http://purl.org/dc/elements/1.1/" xmlns:inkscape="http://www.inkscape.org/namespaces/inkscape" xmlns:rdf="http://www.w3.org/1999/02/22-rdf-syntax-ns#" xmlns:sodipodi="http://sodipodi.sourceforge.net/DTD/sodipodi-0.dtd" xmlns:svg="http://www.w3.org/2000/svg"
	 xmlns="http://www.w3.org/2000/svg" xmlns:xlink="http://www.w3.org/1999/xlink" x="0px" y="0px" viewBox="0 0 114.8 114"
	 style="enable-background:new 0 0 114.8 114;" xml:space="preserve">
<style type="text/css">
	.st0{fill:#4B411C;}
</style>
<g>
	<path class="st0" d="M113.1,41.9c-3.9-18.2-15.9-30.6-32.8-38.4C74.7,0.9,68.7,1,62.9,0c-4,0-8,0-12,0c-4.3,1.1-8.9,0.4-13.2,2
		c-14.5,5.4-25.3,15-32.8,28.6C1.4,37,0.9,44-0.1,51c0,0.3,0,0.5,0,0.8c1.2,3.5,1.2,7,0,10.5c0,0.3,0,0.5,0,0.8
		c1,4.1,0.4,8.5,1.8,12.5C5.9,87.9,13.3,98,24.3,105.4c7.4,5,15.5,7.9,24.3,8.6c5.3,0,10.5,0,15.8,0c4.6-1.1,9.4-0.6,13.9-2.5
		C108.5,98.6,119.6,72.4,113.1,41.9z M57.4,107.3c-27.8,0-50.8-22.9-50.8-50.8c0-27.8,22.9-50.8,50.8-50.7c27.9,0,50.9,23,50.8,50.7
		C108.1,84.3,85.2,107.3,57.4,107.3z"/>
	<path class="st0" d="M58.4,81.8c1.4-7.3-1.1-10.5-8.3-10.6c-2.6,0-5.2,0.1-7.9,0.1c-1.5,0-3.1,0.2-4.4-1.3c3.7-0.9,7.3-1.8,11-2.7
		c-1.1-1.8-3.2-0.5-4.4-1.6c1.9-2.4,4.2-0.6,6.4-1c-5.6-3.1-11-1.5-16.3,1c0-6.2,2.1-8.8,9-10.9c1.4-0.4,3.7-0.3,4-1.5
		c1-4.5,4.8-3.8,7.6-4.5c9.1-2.2,17.8,0,26.5,2.7c1.4,0.4,2.7,1,3.5-0.8c0.7-1.5-0.4-3.2-1.3-3.3c-2.3-0.3-2.9-2.4-4.7-3.1
		c1.7-1.7,3.7-1,4.8-0.4c1.7,0.9,3.3,0.4,4.8,0.4c3.5,0.1,3.5-3,4.3-5.2c0.8-2.1-1.2-2.5-2.4-3c-4.1-1.8-5.7-4.8-6.2-9.3
		c-0.5-4.5-3.4-7.7-7.8-9.5c-1.9-0.8-5.1-0.8-4.2-4.7c0.4-1.7-1.7-1.4-2.8-1.1c-8.9,2.8-17.9,5.6-25.5,11.3
		c-0.6,0.4-1.1,1.3-2.2,0.8c1.2-2.1,2.4-4.1,3.9-6.7c-4.1,1.2-7.4,2.1-9.5,5.9c-2.9,5.3-5,10.9-6.8,16.8c-0.8-4.3-0.4-8.7-0.3-13.3
		c-6.1,4.8-7.2,7.3-6.6,14c0.4,4.4,1,8.7,2.5,12.8c0.3,0.7,0.6,1.6-0.3,2.5c-3.4-3.5-4.7-8.1-7-12.1c-4.6,8.4-2.4,15.3,3.9,21.4
		c2.1,2,4.1,4,6.3,5.9c2,1.7,4.2,3.1,6.3,4.7c-6.6-1.1-12.1-4.6-18.4-8.7c1.1,3.1,1.8,5,2.4,7c1.4,4.7,4.5,7.3,9.2,8.7
		c7,2.1,14.1,3.2,22.5,3.2c-7.3,3.2-14,2.9-20.8,2.8c5.1,6.8,14.5,9.8,22.9,7.5c5.6-1.5,9.2-6.3,9.4-12.1
		C61.5,81.6,61.6,79.7,58.4,81.8z M80.8,29.3c0.2,0,0.5,0.3,0.9,0.5c-3.4,2.2-3.4,2.2-5.2-0.7C78,28.5,79.4,29.6,80.8,29.3z
		 M67.7,15.8c-0.6,4.2-0.6,4.2-4,4.4C64.8,18.1,66.1,16.9,67.7,15.8z M59.9,27.7c-0.6,4-3.2,6.2-3.7,9.2c2.9-0.1,2.9-0.1,2.1,2.8
		c-0.7,2.4-1.7,4.8,1.3,6.5c-5.2,1.2-5.2,1.2-4.5-6.3c-1.4-0.4-2.4,1.2-4,0.9C53.2,36.1,56,32.1,59.9,27.7z"/>
	<path class="st0" d="M79,72.6C73.5,65.2,67,60.3,57.7,59.9c-0.5,0.2-1.1,0.5-1.6,0.7c8.4,3,15.7,7.7,21,15c0.2-0.2,0.4-0.4,0.6-0.7
		C76.8,73.6,75.6,72.1,79,72.6z"/>
	<path class="st0" d="M93.9,70c-3.3-2.2-6.5-4.7-10.1-6.4c-1.5-0.7-2.9-2-5-1.1c6.8,3.9,11.7,9.4,14.9,17.1c0.8-1.5,1.1-2.4,1.6-3
		C97.4,73.9,96.8,71.9,93.9,70z"/>
	<path class="st0" d="M77.7,75c-0.1,0.3-0.3,0.5-0.6,0.7c3,5.3,5.1,10.7,3.2,17.6c1.7-1.2,2.6-2,3.7-2.6c3.1-1.8,3.4-4.1,1.3-7
		C83.1,80.5,80.6,77.7,77.7,75z"/>
	<path class="st0" d="M94.4,51.7c-3.1,1.2-5.8,0.5-9.1,1c5.4,2.9,9.7,6,14.1,9.8c1-5.7,1-5.7-4.1-7.2C93.6,54.8,90.8,54.7,94.4,51.7
		z"/>
	<path class="st0" d="M56.8,59.7c-0.8-0.3-1.7-0.5-2.9-0.9c2.5-2.3,4.5-4.1,6.6-6.1c-3,0-5.9,0.3-8.6-0.1c-1.3-0.2-2-0.5-2.6,0.8
		c-0.3,0.8-1.1,1.6-0.4,2.4c0.9,1.1,2,0.5,3,0.1c0.3-0.1,0.7-0.1,1.1-0.1c-1.1,3.9-1.1,3.9,3,5C56.1,59.9,56.4,59.6,56.8,59.7z"/>
	<path class="st0" d="M63.6,98.8c4.5,0.3,6.7-0.3,7.6-2.2c1.6-3.2,2-10.2,0.8-14.6C70.9,88.7,69.4,94.8,63.6,98.8z"/>
</g>
</svg>
