<svg id="342336f5-746b-4b1e-a888-7c2e7d44b20c" data-name="Layer 1" xmlns="http://www.w3.org/2000/svg" viewBox="0 0 368.7 354.2"><title>sberbank</title><path d="M368.7,169.9A184.3,184.3,0,0,1,184.4,354.2C82.5,354.2,0,271.7,0,169.9c0-4.2.2-8.2.4-12.3L112,221.8l236.4-136a183.2,183.2,0,0,1,20.3,84.1M112,175.4,8.1,115.7a194,194,0,0,0-5,20.3L112,198.6,338.3,68.5a190.9,190.9,0,0,0-12.1-16.3ZM312.2,37.1A179.7,179.7,0,0,0,296,23.2L112,129.1,24.2,78.5a188.8,188.8,0,0,0-9,18L112,152.2ZM112,105.9,277.4,10.8A187.8,187.8,0,0,0,255.9,0L112,82.7,48,45.9A176.6,176.6,0,0,0,35.2,61.7Z" transform="translate(0 0)" style="fill:#299d30"/></svg>