<svg xmlns="http://www.w3.org/2000/svg" viewBox="0 0 54 57"><title>skb</title><path d="M0,20H1.5c5.8.2,12.8-1.7,17,.9C24.8,25.1,29,32.3,34.1,38.1L19,57H1.9A8.7,8.7,0,0,1,0,56c12.9-9.1,12.9-27.4,0-35ZM20,44.3c3.3-.7,5.7-2.4,5.4-6.3s-2.6-5.7-6.2-5.5-5.4,2.4-5.4,5.9S16.2,44,20,44.3Z"/><path d="M54,0c-.8.9-1.5,1.8-2.3,2.6-9.7,10.6-9.5,20.5,1.4,34H37.9a3.6,3.6,0,0,1-2.2-.9C31.2,30.5,26.6,25.4,22.4,20c-.5-.7.4-3.3,1.3-4.5C27.7,10.2,31.9,5.2,36,0ZM35.3,12.4c-3.9.1-6.9,3.1-6.5,6.5s2.8,6.2,6.5,6,6.1-2.6,6-6.5S38.6,12.6,35.3,12.4Z"/><path d="M0,21c12.9,7.6,12.9,25.9,0,35Z" style="fill:#fff"/></svg>