<svg id="65d32eac-5e78-42c8-8457-ab16988e61b2" data-name="Слой 1" xmlns="http://www.w3.org/2000/svg" viewBox="0 0 446 464.5"><title>talkbank</title><path d="M444,324.2a188.2,188.2,0,0,1-50.9-3.2c-12.8-2.6-25.1-6.5-36.2-13.6a39.1,39.1,0,0,1-12.8-12.8c-1.9-3.3-4.2-4.2-7.8-4.2H170.1a47.6,47.6,0,0,1-12.4-1.3c-18.2-4.7-30.3-19.5-30.4-38.2-.1-22.9,0-45.8,0-68.7V39.3c0-18.9,12-34.6,29.3-38.7a29.2,29.2,0,0,1,5.1-.4C244.1.1,326.6.4,409.1,0c20.1-.1,35.8,17.7,36.8,35.5.1,1.3.1,2.7.1,4.1V250.8c0,11.4-4.1,21.2-12.5,28.9a43.6,43.6,0,0,1-13.8,8.1c-3.3,1.3-3.7,2.6-2.5,5.7a58.9,58.9,0,0,0,22.3,27.7C440.9,322.3,442.5,323.2,444,324.2ZM286.3,235.9H375c10.9,0,16.1-5.1,16.1-16.1,0-48.2-.2-96.3.1-144.4.1-14.8-1.7-22-21.8-21.9-56.9.6-113.9.2-170.8.2-11.6,0-16.3,4.8-16.3,16.4V221c0,9.5,5.4,14.9,14.9,14.9Z" style="fill:#9c3a7e"/><path d="M1.5,464.5c4.9-3.9,8.9-6.9,12.7-10.2a52.9,52.9,0,0,0,14.9-22c.9-2.5.8-3.8-2-4.9C8.1,419.5.1,407.3.2,386.9c0-63.7.3-127.5-.2-191.2-.2-21.6,16.3-42.1,41.4-41.4,13.9.4,27.9.1,41.8.1,5,0,10,.1,15-.1,3.3-.2,4.6.7,4.5,4.3-.2,15.3-.1,30.7,0,46,0,3-.8,4-3.9,4-9.1-.2-18.2-.1-27.3-.1-11.2,0-16.4,5.3-16.4,16.6q.1,66.6,0,133.2c0,12.2,4.6,16.9,16.7,16.9,52,0,104-.1,156,.1,8.7,0,15.9-6,15.6-15.5-.3-13.6,0-27.3-.1-40.9,0-2.9.7-4,3.9-4q23.4.3,46.8,0c3.6,0,4.4,1.1,4.4,4.5-.1,23.7.1,47.4-.1,71-.2,21.9-17.6,38.9-39.6,38.9H111.1c-4.4-.1-7.1.8-9.6,5-6.5,10.8-17.4,16.3-28.9,20.4C50,462.8,26.5,464.6,1.5,464.5Z" style="fill:#159a9a"/><path d="M154.5,326.1c5.9,0,11.7.2,17.6,0,2.7-.1,3.5.8,3.5,3.4-.1,6.7-.1,13.3,0,19.9.1,2.8-.8,3.8-3.7,3.8H136.7c-2.7.1-3.8-.8-3.7-3.7.2-6.6.2-13.3,0-19.9,0-3,1.2-3.6,3.9-3.5Z" style="fill:#159a9a"/><path d="M105.3,271.6c-9,0-15.4-6.3-15.4-15a15,15,0,0,1,15-15,15.2,15.2,0,0,1,15.4,15.2A14.7,14.7,0,0,1,105.3,271.6Z" style="fill:#159a9a"/><path d="M292.7,187.6c-22.3-.2-43.8-3.6-63.4-14.9-7.4-4.3-13.9-9.7-17.8-17.6-1.4-2.8-1.9-4.7,2.3-4.3a31.1,31.1,0,0,0,6.1,0,35.6,35.6,0,0,1,22.7,5.6c9.4,5.8,20.5,7.4,31.3,8.8,21.1,2.6,41.9,1.4,62.1-6.2,3.3-1.3,6.9-2.3,9.6-4.4,8.5-6.5,18.2-2.9,27.4-3.6,2.7-.2,1.2,2.3.7,3.4-3.5,7.8-9.6,13.2-16.7,17.5-12.3,7.5-25.8,11.6-39.9,13.8A133.1,133.1,0,0,1,292.7,187.6Z" style="fill:#9c3a7e"/><path d="M255.9,102.4a15,15,0,0,1,15.3,15.1A15.3,15.3,0,0,1,256,132.7a15.2,15.2,0,1,1-.1-30.3Z" style="fill:#9c3a7e"/><path d="M332.7,117.6a15.2,15.2,0,0,1-14.9,15.2,15.4,15.4,0,0,1-15.7-15.1c-.2-8.5,6.9-15.4,15.8-15.3A15.1,15.1,0,0,1,332.7,117.6Z" style="fill:#9c3a7e"/></svg>