<svg id="6af96ea4-5012-4a56-9791-a72686735f27" data-name="Слой 1" xmlns="http://www.w3.org/2000/svg" viewBox="0 0 107.8 161.6"><title>uralsib</title><path d="M52.1,26.9c0-7.8,0-15.6.1-23.5,0-1.2-.9-3.3,1.6-3.4s2,2.1,2,3.6c.1,15.3.1,30.6.3,45.9,0,1.7-1.3,4.5,2.2,4.5s1.8-3,1.9-4.5c.1-7.7-.1-15.4,0-23,0-1.6-1.4-4.5,2.2-4.4s1.8,3,1.9,4.6c.8,7.8-1.2,15.7.8,23.6,1,3.7,2,5.1,5.5,6.2,31.5,9.8,46.4,46.4,31,75.9-1.9,3.8-4,7.8-7,10.8-12.2,12.3-11.2,13.1-19.3-2.7-10-19.6-12.5-41.3-14.2-62.9-.1-1.2-1.1-3.4,1.7-3.1s5.6.3,6.3,4.6c3.3,19,10.4,36.4,22.9,51.3,3.1,3.6,4.6,4.7,7.2-.7,10.2-21-.4-45-22-53.9s-38.6-6.9-56,5.5C5.4,92.5-.5,114,7.3,130c1.1,2.2,4,6.3,8.3,1.1C28,116,35.3,98.8,38.9,79.9c.9-4.4,3.2-6.1,6.6-5.3s1.3,4.2,1.1,6.3c-2,21.6-4.9,43-15.3,62.6-5.8,10.7-7.5,10.9-15.8,2.1C-12.8,116.1-.7,68.7,38.4,56.1c2.8-.8,4.1-2,4.1-5,.1-8.5.5-17,.9-25.5,0-1.5-.7-3.4,2.1-3.6s2.4,2.1,2.4,3.8c0,8.1-.1,16.3-.1,24.5,0,1.3-1.2,3.6,1.7,3.7s2.7-1.7,2.7-3.6C52.1,42.6,52.1,34.8,52.1,26.9Z" style="fill:#183066"/><path d="M59.1,161.5H50.6c-11.4.4-12.6-1.3-9.2-11.8,7.5-23.2,8.2-47.3,9.6-71.4.1-1.8-1.3-4.6,2.6-4.5s3.4,2.1,3.5,4.6c1.7,26.7,1.7,53.6,12.7,78.8,1.1,2.3-.5,2.5-2,2.8Z" style="fill:#183066"/></svg>