<?xml version="1.0" encoding="utf-8"?>
<svg version="1.1" id="Слой_1" xmlns="http://www.w3.org/2000/svg" xmlns:xlink="http://www.w3.org/1999/xlink" x="0px" y="0px"
	 viewBox="0 0 365.6 312.4" style="enable-background:new 0 0 365.6 312.4;" xml:space="preserve">
<style type="text/css">
	.st0{fill:#FF0004;}
	.st1{fill:#FFFFFF;}
	.st2{fill:#FFAA00;}
	.st3{fill:#004489;}
</style>
<g>
	<path class="st0" d="M113.2,136.9c7.5-1.7,14.6-1.9,22.2-1.9c20.6-0.2,41.1,9.2,56.4,22.7c37.9,33.2,29.1,39.5,28,54.2
		c0.2,0.4,0.3,1.3,0.3,2.2c-5.3,12.1-5.7,28.1-0.7,28.3c1.4,38.1-26.1,45.9-27.6,47.3c-14,12.5-32,21-50.8,22.3
		c-11.4,1-19.4,0.8-28.8-1.7c-24.4-5.5-45.9-21.9-57.9-43.8c-15.8-28.1-14.5-65.1,3.7-91.8C70.5,155.6,90.8,141.7,113.2,136.9
		L113.2,136.9z"/>
	<path class="st1" d="M228.1,206.1l73-4.7l-2.1,51.5h-70.9C213.2,242.1,211.4,216.3,228.1,206.1L228.1,206.1z"/>
	<path class="st2" d="M230.4,137.2c7.9-2.1,15-2,23-2.2c4.6,0,10.9,0.7,15.4,1.6c19.5,4,37.6,14.6,50.4,29.9
		c12.5,14.8,20.2,33.8,20.8,53.3c0.9,18.5-4.1,37.1-14.3,52.6c-13.4,20.8-36,35.5-60.5,39.2c-8.7,0.5-16.2,1.5-26,0.2
		c-17.5-2-34.3-10.1-47.3-22c1.5-1.4,3.3-3.1,4.8-4.6l-9.1,0l-5-5.5l18.4,0.2l4-5.2l-26.5-0.4l-3.2-4.6l32.3-0.1l3.4-5.6l-38.9,0.2
		l-2.4-5c13.9-0.3,29.6,0,43.4-0.1l2.4-5.4l-47.6,0l-2.1-5.1l51.5-0.1l2.1-5.9c-5-0.1-10.4-0.1-15.4,0c0.3-1.7,0.5-3.3,0.8-5
		c4.3,0,8.5,0,12.8,0c4.2,8.6,15.9,11.1,24,6.9c0.8-2,1.1-4.2,1.7-6.3l0.4-1.9c0,4.5,1.7,8.1,4.6,9.4c4.6,2.3,10,1,14.2-1.5
		c0.2,0.6,0.6,1.8,0.8,2.4c2.5,0,4.9-0.1,7.4-0.1c1.4-7.6,3-15.2,4.3-22.7c1.1-4.4-2.5-8.3-6.5-9.4c-5.4-1.4-11.4-1.3-16.7,0.5
		c-1.6,2.2-1.9,5-2.8,7.5c4.6-0.8,9.3-1.8,14-1c1.9,0.2,2.1,2.3,2.3,3.9c-5.5,0.5-10.5-0.2-15.5,2.6c-3.1,1.6-4.8,3.4-5.9,8
		c-2.9,1.2-5.7,2.9-8.9,2.5c-4.3,0-8.8-2.9-9.3-7.5c-0.5-5.6,1.3-12,5.9-15.5c4.6-3.3,10.5-1.5,15.3,0.2c0.4-2.8,0.8-5.6,1.1-8.5
		c-9.3-3.3-22.2-1.8-28.1,7.2l-0.2-2.3c-18.6-0.1-37.1,0-55.7-0.1c0.3-1.8,0.5-3.5,0.8-5.3l54.5,0.3l-1.5-5.8l-52.9-0.1l2-5.1
		l49.7-0.1l-2.3-5.6c-13.8,0.1-31.9,0.1-45.7,0l3-4.9c13.2-0.2,27.1,0.1,40.3-0.1l-3.7-5.5c-11-0.1-22.9,0.2-33.9-0.1l3.7-4.9
		l27.8-0.1l-4.6-5.8l-20.1-0.2l3.8-5.2l12.7,0.2c-1.9-2.1-3.8-4.3-5.9-6.2C202.6,147.6,215.9,140.7,230.4,137.2L230.4,137.2
		L230.4,137.2L230.4,137.2L230.4,137.2z"/>
	<path class="st3" d="M212.9,4.7c16.8-6.5,35.9-6,52.8,0c-1.3,8-2.7,16-4.1,24c-9.2-4.5-19.7-6.5-29.8-5.2
		c-4.4,0.6-9.4,2.3-11.5,6.6c-1.3,2.8,0.4,6,2.7,7.8c8.3,6.5,19,9,27.2,15.8c6.5,5,11.5,12.7,11.1,21.2c0.5,10.7-5.1,21.2-13.8,27.4
		c-11.1,8-25.1,10.3-38.5,10.5c-11-0.6-22.2-1.6-32.4-5.9c1-8.3,2.7-16.5,4-24.7c11.4,5.5,24.2,8.8,36.9,7.1c3.9-0.7,8-2,10.7-5.1
		c2.1-2.4,2.5-6.3,0.6-8.9c-2.9-4-7.5-6-11.8-8.2c-9.1-4.2-18.6-9.1-24.4-17.6c-5.4-7.8-4.9-18.3-0.8-26.5
		C196,14.2,204.2,8.2,212.9,4.7L212.9,4.7L212.9,4.7L212.9,4.7L212.9,4.7z"/>
	<path class="st2" d="M0,2.1c15.7,0,31.4,0,47,0c4,0,8.3,0.7,11.2,3.6c2.5,2.4,3.1,6,3.8,9.2c3.1,15.6,6.5,31.1,9.6,46.7
		c-7.8-19.3-22.8-35.3-41.1-45.1C21,11.2,10.6,7.3,0,4.7C0,4,0,2.7,0,2.1L0,2.1z"/>
	<path class="st3" d="M103.4,2C114,1.9,124.6,2,135.2,2C119.8,38.3,104,74.4,88.6,110.8c-10.6,0.2-21.2,0-31.8,0.1
		C48.1,79.4,39.1,48,30.6,16.5c18.3,9.8,33.2,25.8,41.1,45.1l0.1,0.3c1,4.6,1.9,9.2,2.8,13.9C84.3,51.2,93.8,26.6,103.4,2L103.4,2
		L103.4,2L103.4,2L103.4,2L103.4,2z M146.9,1.9c9.9,0,19.9,0.1,29.9,0c-6,36.3-12.3,72.6-18.5,108.9c-10,0-20,0-30,0
		C134.5,74.5,140.6,38.2,146.9,1.9L146.9,1.9L146.9,1.9L146.9,1.9L146.9,1.9z M316.2,2.1c8.5-0.3,17-0.1,25.5-0.1
		c8,36.4,16.2,72.7,24,109.1c-9.3,0-18.5,0-27.8,0c-1.2-5.4-2.4-10.8-3.5-16.2c-12.6-0.3-25.3-0.2-37.9-0.1
		c-2,5.5-4.1,10.8-6.1,16.3c-10.5,0-21,0-31.5,0c14.7-33.4,29.5-66.8,44.3-100.2C305.1,5.5,310.6,2.3,316.2,2.1L316.2,2.1L316.2,2.1
		z M320.6,32.4c3.1,13.1,5.8,26.3,8.7,39.5c-8,0-16,0.1-24-0.1C310.5,58.8,315.6,45.6,320.6,32.4L320.6,32.4z"/>
	<path class="st1" d="M51.5,246.2c2.6-13.2,4.4-26.5,7.1-39.7c4.6,0.1,9.3,0.1,13.9,0c1,7.5,1,15.1,1.3,22.6
		c3.5-7.9,6.5-15.2,10.1-22.6c4.9,0,9.9-0.2,14.8,0.2c-2.4,13.2-4.5,26.4-7.1,39.5c-2.7-0.1-5.5-0.1-8.2,0
		c1.8-9.8,3.6-19.6,5.2-29.4c-4.6,9.6-8.1,19.7-12.4,29.4l-9.4,0l-0.2-3.4c-0.3-8.8-0.9-17.5-1.4-26.2l-5.2,29.6L51.5,246.2
		L51.5,246.2z M319.3,207.3c2.8-0.3,5.6-0.1,8.3,0c-2.8,12.9-4.5,26.1-7.1,39.1c-2.7,0-5.6,0-8.2,0c0-0.8,0.5-2.4,0.5-3.2
		c-2.4,2-5.4,4-8.7,3.6c-7.2-0.5-11.2-6.6-10.9-12.7c-0.8-9.1,5.8-20.2,15.9-19.8c3.4,0,5.6,2,8,3.8
		C317.9,214.4,318.5,210.9,319.3,207.3L319.3,207.3z M103,214.7c6.6-1.6,14.6-2.6,20.5,1.7c3.4,2.4,2.4,6.9,1.9,10.4
		c-1.3,6.5-2.4,13-3.9,19.5c-2.4,0-4.7,0-7.1,0.1c0-0.7-0.1-2.2-0.1-2.9c-4.4,3.1-10.7,4.7-15.4,1.6c-4.9-3.6-4.2-11.4,0-15.2
		c4.7-4.7,11.6-3.9,17.7-4.1c0.2-1.6,0.2-4.1-1.8-4.5c-4.7-1.6-9.6,0.3-14.4,0.7C101.2,219.5,101.7,216.9,103,214.7L103,214.7z
		 M135,214.1c5.1-1.2,10.6-1.1,15.8-0.2l-1.2,6.9c-3.9-0.1-8.4-1.7-11.7,0.8c-1.3,1.5,0,3.6,1.5,4.3c3,1.6,6.9,1.9,8.9,5
		c2.9,5.5-0.1,13.3-6.3,14.8c-5.8,1.4-11.9,1-17.7-0.4c0.4-2.3,0.9-4.6,1.4-6.9c4,0.9,8.3,1.9,12.4,0.9c1.6-0.7,2.3-2.3,1.6-3.9
		c-3-2.9-8-2.9-10.5-6.5C126.1,223.6,128.8,215.4,135,214.1L135,214.1z M287.4,218.8c2.2-3,5.3-5.4,9.2-4.9
		c-0.5,2.4-1.1,4.8-1.5,7.1c-2.5,0.5-5.3,0.8-7.1,2.7c-2,1.7-2.4,4.5-2.9,6.9c-1,5.1-1.4,10.3-2.9,15.3c-2.7,0.3-5.5,0.2-8.2,0.2
		c1.6-10.8,3.5-21.5,5.5-32.2c2.7,0,5.5,0,8.2,0C287.6,215.7,287.5,217.2,287.4,218.8L287.4,218.8L287.4,218.8L287.4,218.8
		L287.4,218.8z"/>
	<path class="st2" d="M305.7,223.5c1.6-2.2,4.7-2.8,7.1-1.7c6.2,4-1.5,18.7-5.9,17.8C298.6,239.4,301.7,227.9,305.7,223.5
		L305.7,223.5z M161.1,227.7c0-0.3,0.1-0.8,0.2-1l5.5,0.1c-0.2,1.6-0.4,3.3-0.4,4.9l-4.6,0L161.1,227.7L161.1,227.7z M206.5,226.6
		c3.3,0.1,6.5,0.1,9.8,0.1c-0.1,1.7-0.1,3.3-0.1,5c-3.5-0.1-7-0.1-10.6-0.1C205.9,229.9,206.1,228.3,206.5,226.6L206.5,226.6z"/>
	<path class="st0" d="M105.2,234.8c2.3-3.5,6.8-3.8,10.6-3.7c-0.4,2.4-0.7,5.1-2.7,6.8c-2,2-6.3,2.8-7.6,1.5
		C104.6,238.6,104,236.2,105.2,234.8L105.2,234.8L105.2,234.8L105.2,234.8L105.2,234.8z"/>
	<path class="st2" d="M254.5,234.2c2.4-3.2,6.6-3,10.1-3.1c-0.3,2.4-0.5,5.2-2.6,6.8c-2,2.1-6.6,2.5-7.6,1.6
		C252.1,238.4,252.8,235.7,254.5,234.2L254.5,234.2z"/>
	<path class="st0" d="M205.6,231.6c3.5,0,7,0,10.6,0.1c0.3,2,0.7,3.9,1.4,5.9c-4.3,0-8.6,0-12.8,0
		C205,235.5,205.3,233.6,205.6,231.6L205.6,231.6z"/>
	<g transform="translate(528 78)">
		<path class="st1" d="M-353.6,137.4c5.5-2.8,13-3.1,17.9,0.9c4.4,4.2,3.2,10.7,2.2,16c-6.6,0-13.2-0.1-19.9,0
			c0.8,2.5,1.9,5.2,4.5,6.3c4.8,1.7,10,0.7,14.6-1.4c-0.5,2.6-1,5.2-1.5,7.8c-6.5,1.6-14,2.1-20-1.5c-4.1-2.4-5.8-7.4-5.9-11.9
			c0.1-1.6,0.2-3.3,0.4-4.9C-360.1,144.3-357.9,139.7-353.6,137.4L-353.6,137.4z"/>
		<path class="st0" d="M-352,148.2c1.2-2.9,3.3-6.6,7-6c3.1,0.1,4.2,3.5,4.7,6C-344.1,148.4-348.1,148.4-352,148.2L-352,148.2z"/>
	</g>
	<path class="st1" d="M156.6,206.5c2.8,0,5.5,0,8.2,0.2c-0.3,1.8-0.5,3.5-0.8,5.3c-0.1,0.5-0.2,1.5-0.3,2c1.7,0.1,3.3,0.1,5,0.2
		c-0.4,2.1-0.8,4.3-1.2,6.5c-1.7,0-3.4-0.1-5.1-0.1c-0.5,2-0.9,4.1-1.2,6.1c0,0.3-0.1,0.8-0.2,1c-0.7,3.8-2.4,10.6-1.7,11.6
		c1.3,1.4,4.4,0.2,6.7,0.3l-1.8,5.7c-3.2,1.4-6.9,1.3-10.3,0.5c-2.2-0.4-4-2.6-3.3-4.8C152.4,229.4,154.6,218,156.6,206.5
		L156.6,206.5L156.6,206.5L156.6,206.5L156.6,206.5z M200.2,214.3c2.9-0.3,5.7-0.2,8.6-0.2c-0.2,1-0.6,3.1-0.7,4.2
		c2.7-2.9,6.2-4.7,10.2-5c-1.1,2.9-2.2,5.7-3.1,8.6c-3.5,0.1-7,1.4-8.7,4.7c-0.3,1.7-0.6,3.3-0.9,5c-0.3,2-0.6,3.9-0.9,5.9
		c-0.3,1.7-0.5,3.3-0.8,5c-0.2,1.2-0.5,2.4-0.8,3.6c-2.9,0.3-5.8,0.2-8.6,0.2C196.5,235.6,197.9,224.9,200.2,214.3L200.2,214.3
		L200.2,214.3L200.2,214.3L200.2,214.3z"/>
</g>
</svg>
