<svg id="c98c1187-6745-4b1d-bb03-a9fbcea8ef6c" data-name="Слой 1" xmlns="http://www.w3.org/2000/svg" viewBox="0 0 344 344"><title>vostbank</title><path d="M0,190.6V153.4c1.7,0,1.2-1.4,1.3-2.3,3.6-29.2,13.8-56,31.3-79.7,29.7-40,69.2-63.7,118.8-70.1,1-.1,2.5.5,2.7-1.3h35.8c.2,1.8,1.7,1.2,2.7,1.3a141.7,141.7,0,0,1,31.5,6.8c67.7,24.3,107.5,71.8,118.6,143,.1.9-.4,2.3,1.3,2.3v37.2c-1.7,0-1.2,1.4-1.3,2.3-2.5,20.3-8.1,39.7-17.9,57.8-28.5,52.9-72.7,83.5-132.2,92-1,.1-2.5-.5-2.7,1.3H154.1c-.2-1.8-1.7-1.2-2.7-1.3a161.1,161.1,0,0,1-59.3-18.6C39.9,295.6,9.7,251.7,1.3,192.9,1.2,192,1.7,190.6,0,190.6Zm169.9-38.2H111.4c-6.7,0-9.3,2.5-9.3,9v67.1a18.8,18.8,0,0,0,1.6,8,15.7,15.7,0,0,0,17.6,8.1c7.4-1.7,12.1-7.3,12.1-15,.1-15,.2-30.1,0-45.1-.1-3.2.9-3.8,3.8-3.6s8.7.2,13.1,0c2.5-.1,3.2.5,3.2,3.1-.2,15.1-.1,30.1-.1,45.1,0,5.8,2.1,10.5,7.2,13.6,9.1,5.4,24.2,1.4,24.2-14.1s.1-29.6-.1-44.4c0-2.8.9-3.4,3.5-3.3,4.2.2,8.5,0,12.7,0s5.3,0,5.3,5.2v42.6c0,5.9,1.9,10.9,7.2,13.9,11.4,6.6,24-.8,24-14,.1-22.1.1-44.3,0-66.4,0-7.5-2.2-9.8-9.7-9.8Zm75.4-26.8c-.2-4.7-1.7-8.1-5.4-10.3l-65-37.8a9.6,9.6,0,0,0-10.4.2l-62.1,36.7c-7.7,4.6-9.2,11.3-4.7,19.3,3.4,6,11,9.2,18.5,4.5,17-10.6,34.4-20.6,51.6-30.9a4.4,4.4,0,0,1,4.9,0c17.2,10.1,34.5,20,51.6,30.2,4.5,2.6,8.8,3.7,13.5.8S244.8,130.6,245.3,125.6Z" style="fill:#049"/><path d="M245.3,125.6c-.5,5-2.6,9.6-7.5,12.7s-9,1.8-13.5-.8c-17.1-10.2-34.4-20.1-51.6-30.2a4.4,4.4,0,0,0-4.9,0c-17.2,10.3-34.6,20.3-51.6,30.9-7.5,4.7-15.1,1.5-18.5-4.5-4.5-8-3-14.7,4.7-19.3l62.1-36.7a9.6,9.6,0,0,1,10.4-.2l65,37.8C243.6,117.5,245.1,120.9,245.3,125.6Z" style="fill:#e70701;opacity:0.75"/></svg>