<svg id="44457bed-f123-45b8-84de-e6605002eac4" data-name="Слой 1" xmlns="http://www.w3.org/2000/svg" viewBox="0 0 309.1 310"><title>vbank</title><path d="M0,299.5V10.9A10,10,0,0,1,3.7,3.3a3.9,3.9,0,0,0,1-.8A9.8,9.8,0,0,1,11.2,0H298.5a9.6,9.6,0,0,1,8.6,5.2c2.8,5.6,1.9,12.3,1.9,18.6V285.6c0,6.1.8,12.4-1.2,18.1a9.5,9.5,0,0,1-9,6.3H10.5a9.3,9.3,0,0,1-7-3.1.2.2,0,0,1-.2-.2A9.9,9.9,0,0,1,0,299.5ZM150.6,273c1.6-1,2-2.9,2.7-4.6q21.9-45.6,43.5-91.3c1.8-3.9,4.1-5.2,8.3-5.2,23,.2,46,0,69,.2,4,0,5.3-1.2,5-5.1s-3.4-3-5.6-3H102.7c-5.6,0-5.7,0-3.3,5L148,269.5C148.6,270.8,148.8,272.5,150.6,273ZM244.7,37.1c-10,0-20,.1-29.9,0-3.3-.1-4.9.7-4.9,4.4s2.5,3.6,5,3.6,7.6-.3,11.4.8c5.7,1.7,8.2,5.5,7.3,11.2a25.4,25.4,0,0,1-2.2,7.1c-5.7,12-11.3,24.1-16.9,36.1-8.1,17.2-16,34.4-24.2,51.5-1.7,3.6-1.1,4.6,2.8,4.3a48.3,48.3,0,0,1,8.5,0c3.9.5,5.9-1.1,7.6-4.7,14.5-30.6,29.4-61.1,43.7-91.8,4.5-9.8,11.1-15,21.9-14.5,2.8.1,4.3-.4,4.3-3.7s-1.2-4.4-4.4-4.3C264.7,37.2,254.7,37.1,244.7,37.1Zm-155.2,8c20.1,0,40.2-.1,60.4,0,2.9,0,5.2,0,5.1-4s-2-4-4.8-4H28.8c-3.1,0-4.5.8-4.6,4.2s2,3.8,4.8,3.8C49.2,45,69.3,45.1,89.5,45.1Zm31.6,79.2c12.5,0,25,.1,37.5,0,1.5,0,4.4,1.2,4.5-1.3a6.1,6.1,0,0,0-4-6.3,16.7,16.7,0,0,0-3.9-.3H80.8c-1.6,0-4.6-1-4.5,1.3s1,5.7,4.4,6.5a20.4,20.4,0,0,0,3.5,0ZM68.4,101.4c.8,5.6,3.9,7.4,9.6,7.3,24.3-.3,48.7-.1,73-.2,1.6,0,4.6,1,4.6-1.2s-1-5.7-4.4-6.5a20.2,20.2,0,0,0-3.5-.1H73.2C71.6,100.7,69.9,100.2,68.4,101.4ZM99,76.9h37c1.6,0,4.6,1.2,4.5-1.2s-1-5.7-4.4-6.5a12.6,12.6,0,0,0-3.9-.2H58.3c-1.6,0-3.9-.8-4.7.6s1,3.6,1.8,5.4,3.2,2,5.2,2Zm29.5,63.3H166c1.6,0,4.6,1.1,4.7-1a6.4,6.4,0,0,0-4.3-6.6,13.1,13.1,0,0,0-4-.2q-36.9-.2-73.8,0c-1.7,0-4.4-1-4.8,1.2s1.1,4.5,2.9,6.1,2.9.6,4.4.6Zm7.8,15.9h37.4c1.6,0,4.5,1.1,4.6-1.1s-1.2-5.7-4.4-6.6a13.1,13.1,0,0,0-4-.2H96.1c-1.6,0-3.8-.9-4.6.6s.9,3.6,1.7,5.4,3.2,1.9,5.2,1.9ZM103,84.8c-12.3,0-24.6-.1-36.9.1-1.7,0-5-1.4-4.9,1.3s1.1,6.2,5,6.5h77.4c1.5,0,4.4,1.1,4.4-1.5s-1.1-5.3-4.1-6.2a13.3,13.3,0,0,0-4-.2ZM91,61c12.5,0,25,.1,37.5-.1,1.5,0,4.4,1.3,4.4-1.3s-1.1-5.7-4.5-6.5A19.3,19.3,0,0,0,125,53H50.5c-1.5,0-4.4-1.2-4.4,1.4s1,5.7,4.4,6.4A13.8,13.8,0,0,0,54,61Z" style="fill:#14366d"/></svg>