<?xml version="1.0" encoding="UTF-8" standalone="no"?>
<svg
   xmlns:dc="http://purl.org/dc/elements/1.1/"
   xmlns:cc="http://creativecommons.org/ns#"
   xmlns:rdf="http://www.w3.org/1999/02/22-rdf-syntax-ns#"
   xmlns:svg="http://www.w3.org/2000/svg"
   xmlns="http://www.w3.org/2000/svg"
   xmlns:sodipodi="http://sodipodi.sourceforge.net/DTD/sodipodi-0.dtd"
   xmlns:inkscape="http://www.inkscape.org/namespaces/inkscape"
   width="147.71906mm"
   height="168.90327mm"
   viewBox="0 0 147.71905 168.90327"
   version="1.1"
   id="svg3819"
   inkscape:version="0.92.2 (5c3e80d, 2017-08-06)"
   sodipodi:docname="YandexDengi.svg">
  <defs
     id="defs3813" />
  <sodipodi:namedview
     id="base"
     pagecolor="#ffffff"
     bordercolor="#666666"
     borderopacity="1.0"
     inkscape:pageopacity="0.0"
     inkscape:pageshadow="2"
     inkscape:zoom="0.70710678"
     inkscape:cx="246.02676"
     inkscape:cy="284.79934"
     inkscape:document-units="mm"
     inkscape:current-layer="layer1"
     showgrid="false"
     inkscape:window-width="1920"
     inkscape:window-height="1001"
     inkscape:window-x="-9"
     inkscape:window-y="-9"
     inkscape:window-maximized="1"
     fit-margin-top="0"
     fit-margin-left="0"
     fit-margin-right="0"
     fit-margin-bottom="0"
     inkscape:measure-start="0,0"
     inkscape:measure-end="0,0" />
  <metadata
     id="metadata3816">
    <rdf:RDF>
      <cc:Work
         rdf:about="">
        <dc:format>image/svg+xml</dc:format>
        <dc:type
           rdf:resource="http://purl.org/dc/dcmitype/StillImage" />
        <dc:title></dc:title>
      </cc:Work>
    </rdf:RDF>
  </metadata>
  <g
     inkscape:label="Layer 1"
     inkscape:groupmode="layer"
     id="layer1"
     transform="translate(-58.253925,-72.293337)">
    <path
       style="fill:#f27a1f;stroke-width:0.35277778"
       d="m 69.998039,240.56442 c -4.01554,-1.38813 -8.51798,-5.42312 -10.56967,-9.47232 l -1.04131,-2.05513 -0.0921,-45.67902 c -0.0916,-45.40872 -0.0878,-45.69263 0.6411,-47.97778 1.87857,-5.88954 6.16135,-10.80221 12.50381,-14.34279 14.8925,-8.31353 45.959411,-25.724399 63.323621,-35.488543 11.35062,-6.382619 21.5363,-11.908638 22.63483,-12.280043 5.86662,-1.983456 10.3136,-0.917233 12.39383,2.971583 l 0.77828,1.45493 0.0945,46.919443 c 0.0923,45.83936 0.0785,46.97223 -0.60161,49.2125 -0.76605,2.52359 -2.64171,5.8186 -4.71804,8.28832 -2.69884,3.21017 -4.31766,4.07765 -16.99983,9.10978 -64.851301,25.73219 -64.735561,25.68524 -66.410781,26.93697 -3.28568,2.45505 -2.88893,7.63735 0.65781,8.59239 0.81586,0.21969 2.05341,0.29282 2.75012,0.16251 1.14903,-0.2149 15.919191,-4.33777 40.425081,-11.28407 14.75663,-4.18282 27.7176,-7.846 35.10139,-9.92075 11.11309,-3.12265 11.7017,-3.31453 14.2875,-4.65764 2.79916,-1.45394 5.73873,-4.1782 6.84207,-6.34091 1.77398,-3.4773 1.79018,-3.79498 1.79577,-35.22455 0.004,-23.15556 0.0981,-29.35881 0.44618,-29.46305 0.24254,-0.0726 3.2191,-0.0482 6.61459,0.0542 5.72069,0.17259 6.31595,0.25393 8.11389,1.10868 2.61718,1.24422 4.572,3.01851 5.83207,5.29348 l 1.04709,1.89046 0.0933,46.37051 c 0.0818,40.64863 0.0271,46.59828 -0.4433,48.21648 -1.05207,3.619 -5.26862,7.0613 -9.66416,7.88964 -1.24102,0.23387 -23.08635,0.3541 -62.97083,0.34658 -57.341921,-0.0108 -61.180181,-0.0494 -62.865181,-0.63187 z M 137.281,142.56679 c 3.01671,-1.60907 6.4286,-5.23192 7.95575,-8.44764 1.08797,-2.29097 1.32374,-3.20615 1.44081,-5.59264 0.12189,-2.48516 0.0325,-3.05351 -0.69239,-4.40376 -1.18501,-2.2072 -2.68067,-2.94724 -5.57727,-2.75955 -2.88146,0.18671 -5.21681,1.32908 -7.99545,3.9111 -6.5105,6.04981 -7.78238,15.5914 -2.41149,18.09101 1.66595,0.77534 5.01882,0.40757 7.28004,-0.79852 z"
       id="path3982"
       inkscape:connector-curvature="0" />
  </g>
</svg>
